<?xml version="1.0" encoding="UTF-8"?><svg id="Lag_2" xmlns="http://www.w3.org/2000/svg" width="1920" height="1080" xmlns:xlink="http://www.w3.org/1999/xlink" viewBox="0 0 1920 1080"><defs><style>.cls-1,.cls-2{fill:none;}.cls-3{fill:url(#Ikke-navngivet_forløb_370);}.cls-4{fill:#f49c45;}.cls-5{fill:#f7f3da;}.cls-6{fill:#fc3d3d;}.cls-7{fill:#020100;}.cls-8{fill:#f15a24;}.cls-9{fill:#f7931e;}.cls-10{fill:#fff;}.cls-11{fill:#ffe04a;}.cls-12{fill:#fccea7;}.cls-13{fill:#fcfcf0;}.cls-14{fill:#ff9699;}.cls-15{fill:#a0927a;}.cls-16{fill:#8c6749;}.cls-17{fill:#8c6239;}.cls-18{fill:#666;}.cls-19{fill:#93856c;}.cls-20{fill:#84c967;}.cls-21{fill:#a83d35;}.cls-22{fill:#a67c52;}.cls-23{fill:#a9daff;}.cls-24{fill:#afef95;}.cls-25{fill:#cc9d3e;}.cls-26{fill:#e25124;}.cls-27{fill:#c69c6d;}.cls-28{fill:#202359;}.cls-29{fill:#3f6621;}.cls-30{fill:#374c1a;}.cls-31{fill:#456b24;}.cls-32{fill:#892f25;}.cls-33{fill:#3a5e22;}.cls-34{fill:#385e20;}.cls-35{fill:#496b29;}.cls-36{fill:#497a29;}.cls-37{fill:#605643;}.cls-38{fill:#5f8439;}.cls-39{fill:#603813;}.cls-40{fill:#754c24;}.cls-41{fill:#71ba56;}.cls-42{fill:rgba(95,127,45,.28);}.cls-43{opacity:.14;}.cls-43,.cls-44{fill:#3f2a07;}.cls-2{stroke:#000;stroke-miterlimit:10;stroke-width:2px;}.cls-44{opacity:.5;}.cls-45{fill:#5b450c;opacity:.45;}</style><linearGradient id="Ikke-navngivet_forløb_370" x1="962.34" y1="-2.15" x2="962.34" y2="1073.59" gradientUnits="userSpaceOnUse"><stop offset=".03" stop-color="#7f8bff"/><stop offset=".18" stop-color="#94b3ff"/><stop offset=".4" stop-color="#aab9ff"/><stop offset=".7" stop-color="#fbffd4"/><stop offset="1" stop-color="#fbffd4"/></linearGradient></defs><rect class="cls-3" x="-1.19" y="-2.15" width="1927.07" height="1075.74"/><path class="cls-25" d="M996.82,1662.61c322.72-80.37,577.32-209.49,769.58-350.67,192.26-141.19,327.47-295.21,461.63-448.27,34.23-39.05,67.82-84.51,22.59-119.45-51.85-40.06-176.32-43.86-282.13-43.27-265.23,1.49-530.45,2.98-795.68,4.47-329.36,1.85-681.7,6.83-959.99,91.83-310.37,94.81-455.07,271.76-454.07,435.82,.58,95.24,43.2,188.18,101.44,278.17,34.41,53.16,63.93,155.75,148.94,197.31,200.09,97.83,769.51,8.4,987.69-45.94Z"/><g><rect class="cls-9" x="1764.95" y="587.3" width="14.69" height="71.19" rx="7.21" ry="7.21" transform="translate(-74 969.6) rotate(-30)"/><line class="cls-2" x1="1350.35" y1="939.8" x2="1352.57" y2="1032.69"/><path class="cls-8" d="M1274.21,678.84s-67.34,25.23-61,99.13c6.33,73.9,9.68,109.79,9.68,109.79,0,0,1.84,14.74,28.36,44.34,27.02,30.15,77.03,90.79,77.03,90.79,0,0,18.91,20.65,47.51,7.39,19.62-9.1,304.45-118.63,393.16-152.71,19.16-7.36,32.58-24.86,34.62-45.29,.31-3.12,.87-10.19,.87-10.19-3.24-36.4-5.97-109.27-5.97-109.27l-73.84-154.52s-32-42.12-156.48,6.43c-124.48,48.55-293.94,114.11-293.94,114.11Z"/><path class="cls-27" d="M1308.09,662.42s-121.87,29.97-72.18,130.68c32.1,65.04,48.76,89.04,51.39,91.18,1.13,.92-5.38-7.34-4.52-6.17,56.63,77.51,57.04,71.39,145.57,39.45,104.95-37.86,331.6-131.46,331.6-131.46,0,0,80.1-25.59,20.12-139.08-47.3-89.49-54.28-93.71-54.28-93.71,0,0-34.31-43.16-119.51-8.39-85.19,34.77-298.18,117.5-298.18,117.5Z"/><rect class="cls-9" x="1249.37" y="812.87" width="14.69" height="71.19" rx="7.21" ry="7.21" transform="translate(-252.56 702.46) rotate(-28.5)"/><path class="cls-17" d="M1307.12,865.44l1.21,1.19c.7,.7,1.5,1.5,1.75,2.32,45.92,59.5,49.18,58.34,114.15,35.09,4.04-1.45,8.32-2.98,12.85-4.58,92.58-32.75,293.87-114.06,295.89-114.88,.36-.12,24.59-8.23,33.94-32.83,8.45-22.24,2.56-50.67-17.53-84.52-12.13-20.44-21.3-35.7-28.23-47.11-14.49-2.35-30.43-.91-45.03,1.31-122.46,18.6-241.09,61.73-346.69,126.04-15.04,9.16-30.05,18.94-41.37,32.37-6.81,8.08-12.15,17.72-14.73,27.89,19.11,35.89,29.41,51.97,33.76,57.72l.03-.03Z"/><path class="cls-22" d="M1329.43,747.49c105.61-64.31,224.23-107.44,346.69-126.04,14.6-2.22,30.55-3.66,45.03-1.31-16.26-26.75-20.17-32.23-20.69-32.94-1.1-1.11-2.19-2.91-3.55-5.18-7.85-13.04-24.19-40.17-86.72-12.66-82.22,36.16-278.99,113.67-280.97,114.45l-.22,.07c-.52,.13-52.18,13.07-68.52,48.82-8.17,17.89-6.24,38.61,5.76,61.6,2.49,4.77,4.85,9.24,7.09,13.45,2.58-10.16,7.92-19.81,14.73-27.89,11.32-13.43,26.34-23.22,41.37-32.37Z"/><line class="cls-1" x1="1368.27" y1="678.56" x2="1640.36" y2="570.21"/><line class="cls-1" x1="1368.27" y1="678.56" x2="1628.51" y2="574.93"/><line class="cls-2" x1="1560.04" y1="536.72" x2="1559.51" y2="534.53"/><path class="cls-26" d="M1350.38,1017.29c.56,6.11-1.09,15.56,4.76,17.41,5.1,1.61,16.81-2.38,21.79-4.34,64.05-25.18,127.74-49.97,191.79-75.15-21.31,7.32-42.62,13.18-63.93,20.5-42.03,14.44-85.92,40.06-130.36,39.26-3.51-.06-10.89-3.78-12.81-10.37-.63-2.14-2.77-21.06-5.22-20.33-5.2,1.56-6.4,28.86-6.01,33.03Z"/><path class="cls-26" d="M1345.62,988.97c-.1,6.03-.24,12.22-3.74,17.54-.91,1.38-2.07,2.61-3.45,3.53-7.18,4.8-16.2,1.2-22.38-3.21,12.12,15.56,18.85,26.48,43.06,28.16,3.11-29.76-2.05-65.7-7.08-95.19,0,0-.77-.06-1.88-.05-.12,0-3.71-.34-3.71-.34,.14,.71-.03,3.25-.06,5.07-.09,4.94-.17,9.89-.26,14.83-.17,9.89-.34,19.78-.51,29.67Z"/><path class="cls-4" d="M1262.62,874.74c.71,1.26,1.61,3.17,2.74,4.12,1.24,1.04,2.95,1.57,4.38,1.81,1.66,.28,3.24-.33,5.16-1.76,.69-.51,1.62-1.52,1.9-2.33,.6-1.7,1.85-3.56-3.05-1.19-2.14,1.04-4.23-2.12-6-3.72-2.59-2.35-5.09-4.81-7.48-7.37s-4.58-4.24-7.01-6.78c.76,1.42,.97,1.81,1.43,2.63,.93,1.65,1.9,3.56,2.83,5.21,1.85,3.27,3.24,6.11,5.09,9.38Z"/><path class="cls-26" d="M1783.85,772.86c-8.2,6.77-7.37,7.67-21.74,14.71-10.14,4.96-10.14,3.83-18.94,7.31,8.8-3.48,7.12-1.46,12.08-3.27s3.96-1.31,8.55-3.08c6.57-2.53,4.03-2.39,10.64-4.81,4.99-1.83,10.54-3.37,15.54-1.57,4.14,1.49,7.24,5.11,9.07,9.12s3.27,8.41,4,12.75c-.72-12.77-1.6-26.12-2.27-39.16-.16-3.21-.31-6.32-.47-9.53-.09-1.74,.1-13.29-.63-10.39-.6,2.39-1.32,4.18-1.65,5.15-.82,2.44-1.88,4.74-3.09,7.16-2.69,5.38-7.29,12.47-11.09,15.61Z"/><path class="cls-26" d="M1356.65,968.87c-1.34-5.45,1.4-11.24,5.51-15.06s9.41-6.04,14.59-8.19c48.08-19.98,302.67-124.37,350.74-144.34-38.23,13.71-282.98,111.83-321.21,125.55-18.05,6.47-37.21,13.04-54.82,13.04"/><path class="cls-26" d="M1766.8,864.21c-6.93,4.98-14.55,8.9-22.14,12.8-18.52,9.52-37.05,21.75-55.57,31.27,22.4-8.62,44.23-16.31,65.91-24.46,15.17-5.7,22.09-6.01,35.19-20.98,9.57-10.94,15.64-25.35,13.71-45.08-.37-3.83-.67-12.87-1.04-16.49-1.2,1.31-1.22,7.3-1.57,9.07-.46,2.32-1.01,4.62-1.66,6.89-1.3,4.54-2.97,8.98-4.98,13.26-3.99,8.49-9.33,16.35-15.79,23.17-3.68,3.89-7.72,7.43-12.06,10.55Z"/><path class="cls-26" d="M1322.37,926.94s4.26,4,10.73,7.87c3.59,2.15,.22,.4,9.75,3.89,1.28,.47,7.89-.08,7.52,6.42-.42,7.31-4.01,15.17-4.16,22.5,.15-5.83-2.34-11.46-5.77-16.18-3.43-4.72-7.77-8.68-11.9-12.79-10.28-10.24-19.12-22.57-26.89-34.82"/><path class="cls-26" d="M1245.76,696.98c-13.98,11.43-23.82,27.09-29.13,44.07-6.56,21-4.37,44.99-.86,66.71,1.08-3.48,1.57-8.53,2.36-12.08s2.94-7.24,6.49-8.04c2.52-.57,5.19,.48,7.17,2.15s4.8,5.28,6.17,7.47c-4.64-12.82-10.73-27.12-12.7-40.61-1.97-13.49-.25-27.18,5.82-39.39,1.76-3.53,3.99-6.88,6.48-9.93,1.47-1.8,2.95-3.61,4.42-5.41,1.41-1.72,2.37-3.21,3.78-4.93Z"/><path class="cls-26" d="M1254.72,870.09c2.52,4.4,8.74,14.97,13.23,17.34s11.05,1.53,13.32-3.01c1.16-2.32,.97-5.15-.04-7.54s-3.92-7.7-5.85-9.43c1.7,2.2,2.27,7.81,.81,10.18s-3.72,3.57-6.45,3.04c-4.02-.78-5.61-3.34-7.52-6.96-5.1-9.65-10.93-19.71-15.93-29.41-2.58-5.01-5.63-11.41-8.98-15.88,2.22,7.86,6.64,19.84,8.15,23.15,1.92,4.19,3.93,8.33,6.03,12.42,1.05,2.05,2.13,4.08,3.23,6.11,.75,1.38,0-1.5,0,0Z"/><path class="cls-26" d="M1258.45,939.18c-9.35-9.22-16.14-18.92-23.74-28.47-2.78-3.5-5.75-6.91-7.69-10.94-2.48-5.16-4.03-10.46-4.5-15.99-1.69-19.64-3.42-38.06-5.38-60.38,1.22,20.1,6.74,40.84,11.92,60.3,1.9,7.13,4.07,14.24,7.35,20.85,1.8,3.64,3.93,7.11,6.05,10.58,3.39,5.53,6.77,11.05,10.16,16.58"/><path class="cls-27" d="M1769.77,740.76c-2.05,4.99,1.97,11.9,7.15,13.39,3.75,1.08,7.79-1.34,9.85-4.65s2.6-7.32,3.09-11.19c1.34-10.59,2.68-21.19,4.02-31.78,1.25-9.88,2.38-20.48-2.24-29.31-6.96-13.27-33.04-13.32-27.75,.97,6.77,18.29,13.06,45.07,5.87,62.56Z"/><g><path class="cls-10" d="M1342.79,687.95c1.93,0,1.93-3,0-3s-1.93,3,0,3h0Z"/><path class="cls-40" d="M1360.37,885.76l-100.62-152.79c-6.83-10.37-3.96-24.32,6.41-31.15l76.71-50.52c10.37-6.83,24.32-3.96,31.15,6.41l100.62,152.79c6.83,10.37,3.96,24.32-6.41,31.15l-76.71,50.52c-10.37,6.83-24.32,3.96-31.15-6.41Zm18.97,24.96l103.07-67.88c7.98-5.25,10.18-15.98,4.93-23.95l-116.01-176.15c-5.25-7.98-15.98-10.18-23.95-4.93l-103.07,67.88c-7.98,5.25-10.18,15.98-4.93,23.95l116.01,176.15c5.25,7.98,15.98,10.18,23.95,4.93Z"/><path class="cls-22" d="M1471.36,844.77c10.37-6.83,13.24-20.78,6.41-31.15l-104.77-160.5c-6.83-10.37-20.78-13.24-31.15-6.41l-79.47,50.82c-10.37,6.83-13.24,20.78-6.41,31.15l104.77,160.5c6.83,10.37,20.78,13.24,31.15,6.41l79.47-50.82Z"/><path class="cls-39" d="M1388.89,902.66s-22.76,25.51-38.79-7c-16.03-32.51,12.23,20.25-3.71-5.36-15.94-25.61-6.53-10.16-6.53-10.16l-5.16-8.17-2.7-3.66-3.99-6.48-4.32-6.45-2.56-3.84-2.95-4.46-2.95-4.46-3.18-5.09-2.36-3.53-2.01-3.4-2.38-3.69-2.92-4.13-3.62-6.03-4.07-5.65-2.32-3.21-1.82-3.1-2.5-3.35-2.99-4.78-6.32-9.69-11.51-18.18-6.05-8.73-5.26-8.65-3.63-5.04-2.74-3.98-1.96-2.92-2.32-3.19-2.75-4.16-1.89-3.75-.92-1.73-2.04-6.77,.18-2.06,.62-3.36,2.25-3.54,1.72-2.33,2.22-1.79,3.84-2.34c-.03-1.34-8.38,14.33-3.86,21.24,2.5,3.81,10.35,17.11,10.35,17.11l4.01,6.48,3.88,6.66,4.72,7.06,7.65,11.36,6.54,8.75,5.75,7.54,5.22,8.66,2.55,5.32,4.98,8.02,4.97,6.38,4.37,6.94,4.7,6.9,9.27,12.66,12.17,16.63,10.13,14.55,11.38,18.03s9.57,17.41,31.6,7.94Z"/><path class="cls-19" d="M1285.72,688.95c-10.57,6.61-24.73,10.23-28.64,22.07-4.76,14.4,4.68,22.58,12.79,35.39,10.26,16.21,13.34,34.38,28.46,46.18,8.49,6.63,11.59,18.05,16.71,26.55,8.82,14.64,27.45,34.6,33.69,50.52,11.13,28.44,21.17,29.34,35.45,27.66,11.85-1.4,9.22-8.21,25.85-15.8s32.18-21.19,46.19-31.33c9.49-6.87,34.11-12.39,26.63-21.41-19.67-23.7-27.67-49.05-36.17-55.47-37.99-28.66-21.67-48.14-45.35-68.73-27.89-24.25-22.19-48.56-37.84-56.36s-30.16,13.1-47.77,16.31c-12.69,2.31-19.04,17.58-29.98,24.42Z"/><circle class="cls-30" cx="1401.6" cy="822.92" r="54.81"/><ellipse class="cls-41" cx="1403.65" cy="822.69" rx="48.06" ry="50.31" transform="translate(-80.29 155.62) rotate(-6.17)"/><ellipse class="cls-20" cx="1403.65" cy="822.69" rx="42.48" ry="44.47" transform="translate(-80.29 155.62) rotate(-6.17)"/><path class="cls-24" d="M1428.66,817.07c1.69-.11,3.49-.06,4.95,.82,1.45,.88,2.38,2.83,1.61,4.34-6.9,.97-15.09,.52-21.46-2.51,4.54-1.36,10.19-2.33,14.9-2.65Z"/><path class="cls-24" d="M1404.74,798.84c.16-1.69,.5-3.46,1.6-4.75,1.1-1.29,3.18-1.89,4.54-.89-.15,6.96-1.92,14.98-5.93,20.77-.61-4.7-.66-10.43-.21-15.14Z"/><path class="cls-24" d="M1382.36,816.92c-1.6-.57-3.23-1.34-4.21-2.73-.98-1.39-1.05-3.54,.27-4.62,6.71,1.87,14.04,5.56,18.66,10.89-4.71-.57-10.27-1.94-14.72-3.54Z"/><path class="cls-24" d="M1390.3,839.69c-1.36,1.01-2.91,1.94-4.61,1.98s-3.53-1.1-3.7-2.79c5.28-4.54,12.42-8.59,19.42-9.47-3.09,3.6-7.32,7.46-11.12,10.28Z"/><path class="cls-24" d="M1422.37,841.55c.93,1.42,1.77,3.01,1.73,4.71s-1.29,3.46-2.99,3.54c-4.24-5.52-7.89-12.87-8.39-19.91,3.42,3.28,7.05,7.72,9.65,11.67Z"/><circle class="cls-30" cx="1336.15" cy="727.48" r="54.81"/><ellipse class="cls-41" cx="1338.2" cy="727.26" rx="48.06" ry="50.31" transform="translate(-70.41 148.03) rotate(-6.17)"/><ellipse class="cls-20" cx="1338.2" cy="727.26" rx="42.48" ry="44.47" transform="translate(-70.41 148.03) rotate(-6.17)"/><path class="cls-24" d="M1363.21,721.64c1.69-.11,3.49-.06,4.95,.82s2.38,2.83,1.61,4.34c-6.9,.97-15.09,.52-21.46-2.51,4.54-1.36,10.19-2.33,14.9-2.65Z"/><path class="cls-24" d="M1339.29,703.4c.16-1.69,.5-3.46,1.6-4.75s3.18-1.89,4.54-.89c-.15,6.96-1.92,14.98-5.93,20.77-.61-4.7-.66-10.43-.21-15.14Z"/><path class="cls-24" d="M1316.91,721.48c-1.6-.57-3.23-1.34-4.21-2.73s-1.05-3.54,.27-4.62c6.71,1.87,14.04,5.56,18.66,10.89-4.71-.57-10.27-1.94-14.72-3.54Z"/><path class="cls-24" d="M1324.85,744.26c-1.36,1.01-2.91,1.94-4.61,1.98s-3.53-1.1-3.7-2.79c5.28-4.54,12.42-8.59,19.42-9.47-3.09,3.6-7.32,7.46-11.12,10.28Z"/><path class="cls-24" d="M1356.93,746.11c.93,1.42,1.77,3.01,1.73,4.71s-1.29,3.46-2.99,3.54c-4.24-5.52-7.89-12.87-8.39-19.91,3.42,3.28,7.05,7.72,9.65,11.67Z"/><path class="cls-1" d="M1310.49,913.47l-.46,.05"/><path class="cls-37" d="M1303.13,675.92c-4.78,3.36-7.79,8.72-12.78,11.76-11.39,6.92-18.92,19.79-19.4,33.1-.47,13.32,16.68,38.81,27.54,46.52-15.33-17.04-18.66-35.02-16.5-46.65,2.06-11.06,6.63-25.52,15.48-32.47,5.95-4.67,14.49-15.47,43.14-15.33,3.96,.02-24.93-1.13-28.64-.14s-5.92,1.16-8.83,3.21Z"/><path class="cls-37" d="M1368.79,771c-4.78,3.36-7.79,8.72-12.78,11.76-11.39,6.92-18.92,19.79-19.4,33.1s16.68,38.81,27.54,46.52c-15.33-17.04-18.66-35.02-16.5-46.65,2.06-11.06,6.63-25.52,15.48-32.47,5.95-4.67,14.49-15.47,43.14-15.33,3.96,.02-24.93-1.13-28.64-.14-3.54,.94-5.92,1.16-8.83,3.21Z"/><path class="cls-15" d="M1265.34,729.54c3.74,16.07,18.16,32.63,20.67,48.62-4.7-8.99-12.13-23.54-18.08-33.27-14.28-23.38-11.5-27.03-11.38-32.07,.18-7.89,16.48-19.21,24.07-20.98-5.76,3.31-12.53,14.3-13.87,17.9-2.33,6.28-2.93,13.25-1.41,19.8Z"/><path class="cls-42" d="M1236.59,721.99c-.01-.2,0-.39,.01-.59l.17-2.33c.18-1.91,1.75-8.75,7.94-12.72,15.94-10.23,44.04-30.07,48.45-31.91,.47-.19,3.02-1.99,3.45-2.27l49.14-32.36c1.36-.88,4.58-2.67,6.11-3.2,6.62-2.3,15.39,.28,19.61,7.06l116.01,176.15c7.1,11.45-.82,21.74-4.2,23.81-21.28,13.02-90.46,60.03-105.43,68.96-.15,.09-.98,.48-1.15,.55-1.02,.38-2.89,1-3.78,1.11-1.94,.25-3.79,.42-5.96,.01-.39-.07-1.93-.46-2.3-.58l-1.5-.57c-2.11-.82-4.07-2.3-5.66-3.91-1.98-2.01-2.73-3.79-3.25-4.53-13.13-18.79-97.63-148.29-114.41-173.48-2.27-3.4-3.14-7.39-3.25-9.19Z"/><circle class="cls-45" cx="1401.6" cy="822.92" r="54.81"/><circle class="cls-45" cx="1338.48" cy="728.4" r="54.81"/></g><path d="M1219.45,734.31c-.07-.56-.16-1.1-.21-1.66-.57,0-1.14-.09-1.69-.22,.06,.59,.14,1.17,.21,1.75,.5,.09,1,.15,1.51,.15,.06,0,.13-.02,.19-.02Z"/><path d="M1220.9,732.44c-.55,.13-1.11,.21-1.66,.21,.06,.56,.15,1.11,.21,1.66,.56-.01,1.11-.08,1.66-.19-.07-.56-.16-1.11-.22-1.68Z"/><g><path class="cls-10" d="M1477.21,632.93c1.93,0,1.93-3,0-3s-1.93,3,0,3h0Z"/><path class="cls-40" d="M1495.12,834.46l-102.5-155.64c-6.96-10.57-4.03-24.77,6.53-31.73l78.15-51.47c10.57-6.96,24.77-4.03,31.73,6.53l102.5,155.64c6.96,10.57,4.03,24.77-6.53,31.73l-78.15,51.47c-10.57,6.96-24.77,4.03-31.73-6.53Zm19.32,25.43l104.99-69.15c8.12-5.35,10.37-16.27,5.02-24.4l-118.18-179.44c-5.35-8.12-16.27-10.37-24.4-5.02l-104.99,69.15c-8.12,5.35-10.37,16.27-5.02,24.4l118.18,179.44c5.35,8.12,16.27,10.37,24.4,5.02Z"/><path class="cls-22" d="M1608.18,792.7c10.57-6.96,13.49-21.16,6.53-31.73l-106.73-163.5c-6.96-10.57-21.16-13.49-31.73-6.53l-80.96,51.77c-10.57,6.96-13.49,21.16-6.53,31.73l106.73,163.5c6.96,10.57,21.16,13.49,31.73,6.53l80.96-51.77Z"/><path class="cls-39" d="M1524.17,851.67s-23.19,25.99-39.51-7.13c-16.33-33.12,12.46,20.62-3.78-5.46-16.24-26.09-6.65-10.35-6.65-10.35l-5.26-8.32-2.75-3.73-4.07-6.6-4.4-6.57-2.6-3.91-3.01-4.54-3.01-4.54-3.24-5.18-2.4-3.6-2.05-3.47-2.42-3.76-2.97-4.21-3.68-6.14-4.14-5.76-2.37-3.27-1.85-3.15-2.55-3.41-3.04-4.87-6.43-9.87-11.73-18.52-6.16-8.89-5.36-8.81-3.7-5.14-2.79-4.06-2-2.97-2.36-3.25-2.81-4.24-1.92-3.82-.94-1.77-2.08-6.9,.18-2.09,.64-3.42,2.29-3.6,1.76-2.37,2.26-1.83,3.91-2.39c-.03-1.36-8.54,14.6-3.93,21.63,2.55,3.89,10.54,17.43,10.54,17.43l4.09,6.6,3.95,6.79,4.8,7.2,7.79,11.57,6.67,8.91,5.86,7.68,5.31,8.82,2.6,5.42,5.08,8.17,5.06,6.5,4.45,7.07,4.79,7.03,9.45,12.9,12.4,16.94,10.32,14.82,11.59,18.37s9.75,17.73,32.19,8.09Z"/><circle class="cls-5" cx="1469.85" cy="667.78" r="55.84"/><ellipse class="cls-13" cx="1474.59" cy="667.27" rx="51.07" ry="53.46" transform="translate(-63.17 162.34) rotate(-6.17)"/><circle class="cls-5" cx="1537.11" cy="770.44" r="55.84"/><ellipse class="cls-13" cx="1541.85" cy="769.93" rx="51.07" ry="53.46" transform="translate(-73.82 170.17) rotate(-6.17)"/><circle class="cls-11" cx="1474.59" cy="667.27" r="32.14"/><circle class="cls-11" cx="1539.99" cy="770.13" r="32.14"/><path class="cls-10" d="M1491.54,658.31c1.52,6.23,1.93,14.93-5.03,18.06-.74,.34-.91,1.4-.54,2.05,.44,.76,1.32,.87,2.05,.54,3.36-1.51,5.67-4.7,6.76-8.16,1.36-4.32,.7-8.99-.35-13.29-.46-1.87-3.35-1.08-2.89,.8h0Z"/><path class="cls-10" d="M1560.13,762.9c1.52,6.23,1.93,14.93-5.03,18.06-.74,.34-.91,1.4-.54,2.05,.44,.76,1.32,.87,2.05,.54,3.36-1.51,5.67-4.7,6.76-8.16,1.36-4.32,.7-8.99-.35-13.29-.46-1.87-3.35-1.08-2.89,.8h0Z"/><path class="cls-42" d="M1370.01,666.63c-.01-.2,0-.4,.01-.6l.17-2.37c.18-1.94,1.78-8.91,8.09-12.96,16.24-10.42,44.86-30.63,49.35-32.5,.48-.2,3.08-2.03,3.51-2.31l50.06-32.97c1.38-.9,4.67-2.72,6.22-3.26,6.74-2.34,15.68,.28,19.98,7.19l118.18,179.44c7.23,11.67-.84,22.14-4.28,24.25-21.67,13.26-92.15,61.16-107.4,70.25-.15,.09-1,.49-1.17,.56-1.04,.38-2.95,1.01-3.85,1.13-1.98,.26-3.86,.43-6.07,.01-.4-.07-1.97-.47-2.34-.59l-1.53-.58c-2.15-.84-4.14-2.34-5.76-3.99-2.02-2.05-2.78-3.86-3.31-4.62-13.38-19.14-99.45-151.07-116.55-176.72-2.31-3.47-3.2-7.53-3.31-9.36Z"/><ellipse class="cls-45" cx="1469.85" cy="667.78" rx="55.84" ry="56.46" transform="translate(-63.25 161.84) rotate(-6.17)"/><circle class="cls-45" cx="1537.11" cy="770.44" r="55.84"/><path class="cls-16" d="M1479.08,740.78c-2.26,5.51-1.89,11.76-4.5,17.11-5.96,12.2-5.36,27.37,1.55,39.06s31.63,27.59,45.19,28.24c-22.52-6.19-31.25-23.26-35.78-34.42-4.31-10.62-6.37-25.2-2.61-36.03,2.53-7.28,5.65-21.38,31.38-34.71,3.58-1.86-26.77,10.25-29.41,13.14s-4.44,4.25-5.81,7.61Z"/><path class="cls-16" d="M1411.77,638.02c-2.26,5.51-1.89,11.76-4.5,17.11-5.96,12.2-5.36,27.37,1.55,39.06,6.91,11.69,31.63,27.59,45.19,28.24-22.52-6.19-31.25-23.26-35.78-34.42-4.31-10.62-6.37-25.2-2.61-36.03,2.53-7.28,5.65-21.38,31.38-34.71,3.58-1.86-26.77,10.25-29.41,13.14s-4.44,4.25-5.81,7.61Z"/></g><path class="cls-10" d="M1618.74,589.1c1.93,0,1.93-3,0-3s-1.93,3,0,3h0Z"/><path class="cls-40" d="M1635.97,782.92l-98.61-149.73c-6.69-10.16-3.88-23.83,6.28-30.52l75.18-49.51c10.16-6.69,23.83-3.88,30.52,6.28l98.61,149.73c6.69,10.16,3.88,23.83-6.28,30.52l-75.18,49.51c-10.16,6.69-23.83,3.88-30.52-6.28Zm18.59,24.46l101.01-66.52c7.82-5.15,9.98-15.66,4.83-23.47l-113.69-172.63c-5.15-7.82-15.66-9.98-23.47-4.83l-101.01,66.52c-7.82,5.15-9.98,15.66-4.83,23.47l113.69,172.63c5.15,7.82,15.66,9.98,23.47,4.83Z"/><path class="cls-22" d="M1744.74,742.75c10.16-6.69,12.98-20.36,6.28-30.52l-102.67-157.29c-6.69-10.16-20.36-12.98-30.52-6.28l-77.89,49.8c-10.16,6.69-12.98,20.36-6.28,30.52l102.67,157.29c6.69,10.16,20.36,12.98,30.52,6.28l77.89-49.8Z"/><circle class="cls-32" cx="1615.09" cy="626.48" r="49.47"/><circle class="cls-32" cx="1674.29" cy="713.89" r="49.47"/><path class="cls-39" d="M1663.91,799.48s-22.31,25-38.01-6.86c-15.71-31.86,11.99,19.84-3.63-5.25-15.62-25.1-6.4-9.96-6.4-9.96l-5.06-8-2.65-3.59-3.91-6.35-4.23-6.32-2.5-3.76-2.89-4.37-2.89-4.37-3.12-4.99-2.31-3.46-1.97-3.34-2.33-3.62-2.86-4.05-3.54-5.91-3.99-5.54-2.28-3.14-1.78-3.03-2.45-3.28-2.93-4.69-6.19-9.5-11.28-17.82-5.93-8.56-5.15-8.48-3.56-4.94-2.68-3.91-1.92-2.86-2.27-3.13-2.7-4.08-1.85-3.67-.91-1.7-2-6.64,.17-2.01,.61-3.29,2.21-3.47,1.69-2.28,2.18-1.76,3.76-2.3c-.03-1.31-8.22,14.05-3.79,20.81,2.45,3.74,10.14,16.77,10.14,16.77l3.93,6.35,3.8,6.53,4.62,6.92,7.5,11.13,6.41,8.58,5.64,7.39,5.11,8.48,2.5,5.22,4.88,7.86,4.87,6.25,4.28,6.8,4.6,6.76,9.09,12.41,11.93,16.3,9.93,14.25,11.15,17.67s9.38,17.06,30.97,7.79Z"/><circle class="cls-21" cx="1617.37" cy="628.28" r="45.37"/><circle class="cls-21" cx="1677.38" cy="715.14" r="45.37"/><circle class="cls-10" cx="1640.04" cy="610.55" r=".85"/><circle class="cls-10" cx="1590.62" cy="636.67" r=".85"/><circle class="cls-10" cx="1609.76" cy="611.95" r=".85"/><circle class="cls-10" cx="1618.86" cy="595.99" r=".85"/><circle class="cls-10" cx="1621.56" cy="628.88" r=".85"/><circle class="cls-10" cx="1610.6" cy="635.63" r=".85"/><circle class="cls-10" cx="1628" cy="649.38" r=".85"/><circle class="cls-10" cx="1642.97" cy="632.99" r=".85"/><circle class="cls-10" cx="1650.03" cy="609.47" r=".85"/><circle class="cls-10" cx="1604.22" cy="593.54" r=".85"/><circle class="cls-10" cx="1623.7" cy="609.58" r=".85"/><circle class="cls-10" cx="1633.92" cy="598.34" r=".85"/><circle class="cls-10" cx="1632.14" cy="624.63" r=".85"/><circle class="cls-10" cx="1587.63" cy="616.22" r=".85"/><circle class="cls-10" cx="1592.19" cy="651.18" r=".85"/><circle class="cls-10" cx="1602.5" cy="652.7" r=".85"/><circle class="cls-10" cx="1644.26" cy="649.55" r=".85"/><circle class="cls-10" cx="1618.46" cy="657.69" r=".85"/><circle class="cls-10" cx="1599.3" cy="628.18" r=".85"/><circle class="cls-10" cx="1593.94" cy="605.26" r=".85"/><circle class="cls-10" cx="1653.15" cy="626.8" r=".85"/><circle class="cls-10" cx="1636.13" cy="661.51" r=".85"/><circle class="cls-10" cx="1608.68" cy="664.22" r=".85"/><circle class="cls-10" cx="1700.4" cy="700.62" r=".85"/><circle class="cls-10" cx="1650.98" cy="726.73" r=".85"/><circle class="cls-10" cx="1670.11" cy="702.02" r=".85"/><circle class="cls-10" cx="1679.22" cy="686.05" r=".85"/><circle class="cls-10" cx="1681.92" cy="718.95" r=".85"/><circle class="cls-10" cx="1670.96" cy="725.69" r=".85"/><circle class="cls-10" cx="1688.36" cy="739.44" r=".85"/><circle class="cls-10" cx="1664.58" cy="683.6" r=".85"/><circle class="cls-10" cx="1684.06" cy="699.65" r=".85"/><circle class="cls-10" cx="1694.28" cy="688.41" r=".85"/><circle class="cls-10" cx="1692.5" cy="714.7" r=".85"/><circle class="cls-10" cx="1647.99" cy="706.28" r=".85"/><circle class="cls-10" cx="1652.55" cy="741.24" r=".85"/><circle class="cls-10" cx="1662.86" cy="742.77" r=".85"/><circle class="cls-10" cx="1704.62" cy="739.62" r=".85"/><circle class="cls-10" cx="1678.82" cy="747.76" r=".85"/><circle class="cls-10" cx="1659.66" cy="718.25" r=".85"/><circle class="cls-10" cx="1654.3" cy="695.32" r=".85"/><circle class="cls-10" cx="1696.49" cy="751.57" r=".85"/><circle class="cls-10" cx="1669.04" cy="754.29" r=".85"/><path class="cls-42" d="M1514.13,621.01c-.01-.19,0-.38,.01-.58l.16-2.28c.18-1.87,1.71-8.57,7.78-12.46,15.62-10.03,43.16-29.47,47.48-31.27,.46-.19,2.96-1.95,3.38-2.23l48.16-31.72c1.33-.87,4.49-2.62,5.99-3.14,6.49-2.25,15.08,.27,19.22,6.92l113.69,172.63c6.96,11.22-.81,21.3-4.12,23.33-20.85,12.76-88.65,58.83-103.32,67.58-.15,.09-.96,.48-1.12,.54-1,.37-2.83,.98-3.71,1.09-1.9,.25-3.71,.41-5.84,.01-.38-.07-1.89-.46-2.25-.57l-1.47-.56c-2.07-.8-3.99-2.25-5.54-3.83-1.95-1.97-2.68-3.71-3.19-4.44-12.87-18.42-95.68-145.33-112.12-170.01-2.22-3.34-3.08-7.24-3.18-9Z"/><circle class="cls-45" cx="1614.76" cy="626" r="49.97"/><ellipse class="cls-45" cx="1673.89" cy="712.68" rx="49.97" ry="48.23" transform="translate(-66.9 184.03) rotate(-6.17)"/><path class="cls-16" d="M1565.84,599.92c-2.17,5.3-1.82,11.31-4.33,16.46-5.74,11.73-5.16,26.33,1.49,37.57,6.65,11.24,33.17,21.67,46.22,22.3-21.66-5.96-32.81-17.5-37.17-28.24-4.15-10.22-6.13-24.25-2.51-34.66,2.44-7,5.43-20.57,30.19-33.39,3.45-1.79-25.75,9.86-28.3,12.65s-4.27,4.09-5.59,7.32Z"/><path class="cls-16" d="M1624.16,687.02c-2.17,5.3-1.82,11.31-4.33,16.46-5.74,11.73-5.16,26.33,1.49,37.57,6.65,11.24,33.17,21.67,46.22,22.3-21.66-5.96-31.72-19.04-37.17-28.24-5.62-9.49-6.13-24.25-2.51-34.66,2.44-7,5.43-20.57,30.19-33.39,3.45-1.79-25.75,9.86-28.3,12.65-2.42,2.65-4.27,4.09-5.59,7.32Z"/><path class="cls-44" d="M1488.27,538.94c10.32-20.09,29.66-35.88,44.53-53.9,14.87-18.02,25.47-41.3,15.42-61.49-10.84-21.78-42.7-33.75-49.48-56.63-4.4-14.84,3.48-30.71,15.89-42.02,12.4-11.31,28.83-18.91,44.95-26.32-30.47,21.31-33.74,64.26-6.75,88.58,21.41,19.29,59.37,30.05,62.78,56.12,3.85,29.44-41.14,48.59-46.51,77.87-4.28,23.37,17.65,43.79,37.41,60.82,19.76,17.03,40.45,38.98,33.18,61.83-3.39,10.66-68.97,10.24-79.43,9.5-17.34-1.23-27.38-4.72-39.93-14.47-32.33-25.12-50.23-64.51-32.07-99.87Z"/><path class="cls-44" d="M1274.81,610.26c10.82-19.25,31.09-34.39,46.68-51.65,15.59-17.27,26.7-39.58,16.17-58.92-11.36-20.87-44.76-32.34-51.86-54.27-4.61-14.22,3.65-29.43,16.65-40.26,13-10.83,30.22-18.12,47.12-25.22-31.94,20.42-35.37,61.58-7.07,84.88,22.44,18.48,62.23,28.8,65.81,53.78,4.04,28.21-43.12,46.57-48.75,74.62-4.49,22.39,18.5,41.96,39.21,58.28,20.71,16.32,42.4,37.35,34.78,59.25-3.56,10.22-72.29,9.82-83.26,9.1-18.17-1.18-28.7-4.52-41.86-13.87-33.89-24.07-52.65-61.82-33.61-95.7Z"/><ellipse class="cls-23" cx="1453.59" cy="497.08" rx="12.65" ry="7.26" transform="translate(157.04 1321.08) rotate(-51.32)"/><ellipse class="cls-23" cx="1428.76" cy="518.51" rx="12.89" ry="7.13" transform="translate(-39.98 909.68) rotate(-34.86)"/><ellipse cx="1441.81" cy="508.78" rx="11.78" ry="9.73"/><ellipse class="cls-23" cx="1453.59" cy="497.08" rx="12.65" ry="7.26" transform="translate(157.04 1321.08) rotate(-51.32)"/><ellipse class="cls-23" cx="1428.76" cy="518.51" rx="12.89" ry="7.13" transform="translate(-39.98 909.68) rotate(-34.86)"/><ellipse cx="1441.81" cy="508.78" rx="11.78" ry="9.73"/><path class="cls-43" d="M1526,550.63c13.25-14.08,34.18-23.08,51.33-34.68,17.15-11.6,31.22-28.17,25.38-46.07-6.3-19.32-34.05-34.7-36.34-54.15-1.49-12.62,8.72-23.79,22.36-30.5,13.64-6.71,30.39-9.74,46.82-12.67-32.36,11.34-43.05,44.9-22.05,69.21,16.65,19.28,50.34,34.83,48.91,56.19-1.62,24.12-47.21,31.08-57.43,53.38-8.16,17.8,8.78,38.07,24.28,55.26,15.5,17.18,31.01,38.44,20.14,55.28-5.08,7.86-66.49-4.54-76.17-7.06-16.04-4.17-24.83-8.79-34.88-18.86-25.86-25.93-35.65-60.56-12.34-85.34Z"/><path class="cls-43" d="M1380.13,588.5c8.75-8.48,25.33-15.35,38.03-23.06,12.7-7.71,21.66-17.51,12.78-25.63-9.57-8.77-37.24-13.1-43.31-22.4-3.94-6.03,2.74-12.72,13.36-17.62,10.63-4.89,24.77-8.34,38.64-11.7-26.16,9.36-28.6,27.12-5.03,36.64,18.69,7.54,51.62,11.26,54.81,21.94,3.6,12.06-35.15,20.81-39.52,32.98-3.49,9.71,15.66,17.71,32.91,24.36,17.24,6.64,35.34,15.3,29.26,24.85-2.84,4.46-59.56,5.53-68.62,5.42-15.01-.18-23.72-1.43-34.67-5.21-28.19-9.74-44.03-25.64-28.64-40.55Z"/><ellipse class="cls-23" cx="1266.49" cy="622.95" rx="12.65" ry="7.26" transform="translate(-11.38 1222.22) rotate(-51.32)"/><ellipse class="cls-23" cx="1241.66" cy="644.39" rx="12.89" ry="7.13" transform="translate(-145.5 825.33) rotate(-34.86)"/><ellipse cx="1254.7" cy="634.66" rx="11.78" ry="9.73"/><ellipse class="cls-23" cx="1638.88" cy="525.64" rx="12.65" ry="7.26" transform="translate(204.23 1476.42) rotate(-51.32)"/><ellipse class="cls-23" cx="1614.05" cy="547.07" rx="12.89" ry="7.13" transform="translate(-23.05 1020.71) rotate(-34.86)"/><ellipse cx="1627.09" cy="537.34" rx="11.78" ry="9.73"/><ellipse class="cls-23" cx="1448.71" cy="681.85" rx="12.65" ry="7.26" transform="translate(10.98 1386.55) rotate(-51.32)"/><ellipse class="cls-23" cx="1423.88" cy="703.29" rx="12.89" ry="7.13" transform="translate(-146.47 940.05) rotate(-34.86)"/><path d="M1436.92,683.82c6.51,0,11.78,4.36,11.78,9.73s-5.28,9.73-11.78,9.73"/><ellipse cx="1436.92" cy="693.56" rx="11.78" ry="9.73"/><ellipse class="cls-23" cx="1448.71" cy="681.85" rx="12.65" ry="7.26" transform="translate(10.98 1386.55) rotate(-51.32)"/><ellipse class="cls-23" cx="1423.88" cy="703.29" rx="12.89" ry="7.13" transform="translate(-146.47 940.05) rotate(-34.86)"/><ellipse cx="1436.92" cy="693.56" rx="11.78" ry="9.73"/><ellipse class="cls-23" cx="1448.71" cy="681.85" rx="12.65" ry="7.26" transform="translate(10.98 1386.55) rotate(-51.32)"/><ellipse class="cls-23" cx="1423.88" cy="703.29" rx="12.89" ry="7.13" transform="translate(-146.47 940.05) rotate(-34.86)"/><ellipse cx="1436.92" cy="693.56" rx="11.78" ry="9.73"/><ellipse class="cls-23" cx="1448.71" cy="681.85" rx="12.65" ry="7.26" transform="translate(10.98 1386.55) rotate(-51.32)"/><ellipse class="cls-23" cx="1423.88" cy="703.29" rx="12.89" ry="7.13" transform="translate(-146.47 940.05) rotate(-34.86)"/><ellipse cx="1436.92" cy="693.56" rx="11.78" ry="9.73"/><path class="cls-43" d="M1208.13,678.52c8.75-8.48,25.33-15.35,38.03-23.06,12.7-7.71,21.66-17.51,12.78-25.63-9.57-8.77-37.24-13.1-43.31-22.4-3.94-6.03,2.74-12.72,13.36-17.62,10.63-4.89,24.77-8.34,38.64-11.7-26.16,9.36-28.6,27.12-5.03,36.64,18.69,7.54,51.62,11.26,54.81,21.94,3.6,12.06-35.15,20.81-39.52,32.98-3.49,9.71,15.66,17.71,32.91,24.36,17.24,6.64,35.34,15.3,29.26,24.85-2.84,4.46-59.56,5.53-68.62,5.42-15.01-.18-23.72-1.43-34.67-5.21-28.19-9.74-44.03-25.64-28.64-40.55Z"/><ellipse class="cls-23" cx="1335.02" cy="498.8" rx="12.65" ry="7.26" transform="translate(111.24 1229.17) rotate(-51.32)"/><ellipse class="cls-23" cx="1310.19" cy="520.23" rx="12.89" ry="7.13" transform="translate(-62.24 842.22) rotate(-34.86)"/><ellipse cx="1323.24" cy="510.5" rx="11.78" ry="9.73"/></g><g><path class="cls-12" d="M580.56,935.64c0,146.46-82.16,196.71-188.96,196.71s-197.82-50.25-197.82-196.71,86.58-265.19,193.39-265.19,193.39,118.73,193.39,265.19Z"/><path class="cls-10" d="M375.92,389.48l-2.59,.19c5.25,9.75,9.51,19.98,12.76,30.54,.73-.52,1.38-1.14,1.92-1.88-3.14-9.95-7.19-19.61-12.09-28.85Z"/><ellipse class="cls-12" cx="380.55" cy="547.49" rx="156.64" ry="155.99"/><path class="cls-28" d="M232.36,452.26c11.92-45.75,44.46-85.15,86.07-104.2,4.89,8.19,14.97,11.98,24.14,10.75,11.66-1.57,22.04-10.81,25.36-22.58,15.65-2.7,32.19-3.6,47.63,.23,27.21,6.75,51.59,23.43,70.88,44.57,16.18,17.73,29.27,39.18,34.31,63.1-85.06,5.37-170.12,10.75-255.19,16.12-11.29,.71-24.43-.52-33.2-7.97Z"/><path class="cls-1" d="M326.81,345.9c-32.84,25.99-57.37,63.2-68.88,104.5"/><path class="cls-1" d="M383.32,361.55c14.81,2.61,29.48,6.6,43.13,13.15,13.65,6.55,26.28,15.73,35.93,27.74,14.18,17.65,21.19,40.21,27.87,62.17"/><path class="cls-1" d="M360.74,342.28c18.95,7.15,33.46,23.85,42.74,42.51,9.28,18.66,13.96,39.37,18.56,59.84"/><path class="cls-1" d="M336.92,352.78c-22.62,25.99-33.73,62.47-29.63,97.31"/><path class="cls-1" d="M346.4,350.74c13.34,30.38,20.4,63.75,20.56,97.17"/><path class="cls-6" d="M524.74,444.17l-289.58,8.38c-5.8,.17-10.41,5.25-10.25,11.3l.85,31.98c.16,6.05,5.04,10.86,10.83,10.69l289.58-8.38c5.8-.17,10.41-5.25,10.25-11.3l-.85-31.98c-.16-6.05-5.04-10.86-10.83-10.69Z"/><path class="cls-28" d="M317.18,348.74c-2.28,1.15-4.74,2.71-5.14,5.15-.28,1.76,.63,3.5,1.68,4.97,6.33,8.89,18.64,12.88,29.71,11.08,11.06-1.8,20.76-8.71,27.34-17.43,1.6-2.12,9.88-7.88,10.03-10.49,.33-5.9-5.16-6.21-9.42-6.36-5.64-.21-12.97,1-18.62,1.52-11.02,1-25.77,6.63-35.58,11.57Z"/><ellipse class="cls-6" cx="373.33" cy="325.35" rx="28.78" ry="30.03"/><path class="cls-12" d="M318,637.64c-.54-.15-1.1-.16-1.65-.09,.51-.04,1.05-.03,1.65,.09Z"/><path class="cls-12" d="M206.21,531.83c-5.33,12.16-.17,26.58,11.49,32.14,5.52,2.63,11.79,2.86,17.47,.75-2.12-15.05-2.22-30.43-.17-45.71-11.19-4.08-23.76,1.35-28.79,12.82Z"/><path class="cls-12" d="M546.37,527.14l1.02,35.22c.94-11.8,.58-23.61-1.02-35.22Z"/><polygon class="cls-12" points="547.54 567.56 547.48 565.57 547.54 567.56 547.54 567.56"/><path class="cls-7" d="M335.83,522.91c-16.75-7.41-36.16,.79-43.25,18.27-6.86,16.91,.28,36.36,15.92,44.33-2.86-1.77-4.98-4.52-5.95-7.87-1.02-3.53-.65-7.26,1.02-10.51,1.68-3.25,4.46-5.62,7.85-6.68,3.39-1.06,6.96-.68,10.07,1.07,3.11,1.75,5.39,4.66,6.4,8.19,1.02,3.53,.65,7.27-1.02,10.51-1.67,3.25-4.46,5.62-7.85,6.68-2.3,.72-4.69,.76-6.97,.17,16.28,5.96,34.47-2.22,41.29-19.02,7.1-17.48-.76-37.73-17.51-45.13Zm-11.15,40.2c-9.6-4.24-14.1-15.85-10.03-25.86,4.07-10.02,15.19-14.71,24.79-10.47,9.6,4.24,14.1,15.84,10.03,25.86-4.07,10.02-15.19,14.71-24.78,10.47Z"/><path d="M357.83,570.03c8.15-20.07-.87-43.31-20.1-51.81-19.23-8.5-41.51,.91-49.65,20.97-8.15,20.07,.87,43.31,20.1,51.81,19.23,8.5,41.51-.91,49.65-20.97Zm-67.51-29.84c7.63-18.8,28.43-27.59,46.45-19.62,18.02,7.97,26.44,29.67,18.81,48.47-7.63,18.8-28.43,27.59-46.45,19.62-18.02-7.97-26.44-29.67-18.81-48.47Z"/><path d="M355.58,569.04c7.63-18.8-.78-40.51-18.81-48.47-18.02-7.97-38.82,.82-46.45,19.62-7.63,18.8,.78,40.51,18.81,48.47,18.02,7.97,38.82-.82,46.45-19.62Zm-43.53,18.03c-.67-.17-1.33-.39-1.97-.67-.38-.17-.76-.36-1.13-.57-.16-.09-.3-.22-.46-.32-15.63-7.96-22.78-27.42-15.92-44.33,7.1-17.48,26.5-25.68,43.25-18.27,16.75,7.41,24.61,27.65,17.51,45.13-6.82,16.8-25.01,24.98-41.29,19.02Z"/><path class="cls-10" d="M337.52,531.47c-7.12-3.15-15.37,.34-18.39,7.77-3.02,7.43,.32,16.04,7.44,19.18,7.12,3.15,15.37-.34,18.39-7.77,3.02-7.43-.32-16.04-7.44-19.18Z"/><path d="M339.43,526.78c-9.6-4.24-20.72,.45-24.79,10.47-4.07,10.02,.43,21.62,10.03,25.86,9.6,4.24,20.72-.45,24.78-10.47,4.07-10.02-.43-21.62-10.03-25.86Zm-13.8,33.99c-8.37-3.7-12.29-13.79-8.74-22.52,3.55-8.74,13.21-12.82,21.59-9.12,8.37,3.7,12.29,13.79,8.74,22.52s-13.21,12.82-21.59,9.12Z"/><path d="M338.47,529.13c-8.37-3.7-18.04,.38-21.59,9.12-3.55,8.74,.36,18.82,8.74,22.52,8.37,3.7,18.04-.38,21.59-9.12s-.36-18.82-8.74-22.52Zm-11.89,29.3c-7.12-3.15-10.46-11.75-7.44-19.18,3.02-7.43,11.27-10.91,18.39-7.77,7.12,3.15,10.46,11.75,7.44,19.18-3.02,7.43-11.27,10.91-18.39,7.77Z"/><path class="cls-10" d="M323.21,571.17c-.64-2.23-2.07-4.06-4.04-5.17-.23-.13-.47-.25-.71-.36-1.79-.79-3.76-.91-5.64-.32-2.14,.67-3.89,2.17-4.95,4.21-1.06,2.05-1.29,4.41-.65,6.63,.64,2.23,2.08,4.06,4.04,5.17,1.96,1.09,4.22,1.34,6.36,.67,2.14-.67,3.89-2.17,4.95-4.21,1.06-2.05,1.29-4.41,.65-6.63Z"/><path d="M326.87,580.22c1.68-3.25,2.04-6.98,1.02-10.51-1.02-3.53-3.29-6.44-6.4-8.19-3.11-1.75-6.69-2.13-10.07-1.07-3.39,1.06-6.17,3.43-7.85,6.68-1.68,3.25-2.04,6.98-1.02,10.51,.96,3.35,3.08,6.1,5.95,7.87,.53,.27,1.04,.56,1.59,.81,.65,.29,1.31,.51,1.97,.75,2.27,.59,4.66,.55,6.97-.17,3.39-1.06,6.17-3.43,7.85-6.68Zm-21.99-3.31c-1.71-5.96,1.53-12.23,7.23-14.02,5.71-1.79,11.72,1.59,13.44,7.55,1.71,5.96-1.53,12.23-7.23,14.02-5.71,1.79-11.72-1.59-13.44-7.55Z"/><path d="M308.49,585.51c.16,.1,.29,.23,.46,.32,.37,.21,.75,.4,1.13,.57,.64,.28,1.3,.5,1.97,.67-.66-.24-1.32-.46-1.97-.75-.55-.24-1.06-.54-1.59-.81Z"/><polygon points="246.3 490.18 246.34 490.17 246.3 490.18 246.3 490.18"/><path class="cls-14" d="M436.11,611.74c-.11,8.74,11.59,15.98,26.11,16.18,14.53,.19,26.39-6.74,26.5-15.48,.11-8.74-11.59-15.98-26.11-16.18-14.53-.19-26.39,6.74-26.5,15.48Z"/><ellipse class="cls-14" cx="308.25" cy="612.09" rx="15.83" ry="26.31" transform="translate(-308.02 911.88) rotate(-89.21)"/><path d="M392.37,616.64c6.55-1.32,12.81-3.85,18.45-7.49h0c-6.06,2.4-12.29,4.5-18.75,4.86-5.43,.2-12.59,0-15.33-5.52l-4.36,2.29c4.11,7.1,13.21,7.13,20,5.85Z"/><path d="M402.77,604.9c-6.37-5.35-9.87-15.17-6.83-23.02l-4.67-1.49c-1.65,6.64,0,13.86,3.87,19.21,3.68,5.08,9.09,8.96,15.08,10.06h0c-2.68-1.38-5.27-2.78-7.46-4.76Z"/><path class="cls-12" d="M551.4,545.26c4.87-12.37-.82-26.57-12.68-31.65-5.61-2.4-11.89-2.38-17.48-.04,2.68,14.96,3.35,30.31,1.87,45.67,11.34,3.62,23.7-2.31,28.29-13.98Z"/><ellipse cx="450.13" cy="554.6" rx="38.35" ry="40.02"/><path class="cls-10" d="M442.26,531.47c-7.12-3.15-15.37,.34-18.39,7.77s.32,16.04,7.44,19.18c7.12,3.15,15.37-.34,18.39-7.77,3.02-7.43-.32-16.04-7.44-19.18Z"/><path class="cls-10" d="M325.55,570.44c-1.71-5.96-7.73-9.34-13.44-7.55-5.71,1.79-8.95,8.06-7.23,14.02,1.71,5.96,7.73,9.34,13.44,7.55,5.71-1.79,8.95-8.06,7.23-14.02Zm-7.94,11.58c-2.14,.67-4.4,.42-6.36-.67-1.96-1.1-3.4-2.94-4.04-5.17-.64-2.23-.41-4.58,.65-6.63,1.06-2.05,2.82-3.55,4.95-4.21,1.88-.59,3.86-.47,5.64,.32,.24,.11,.48,.23,.71,.36,1.96,1.1,3.4,2.94,4.04,5.17,.64,2.23,.41,4.59-.65,6.63-1.06,2.05-2.82,3.55-4.95,4.21Zm134.92,0c-2.14,.67-4.4,.42-6.36-.67-1.96-1.1-3.4-2.94-4.04-5.17-.64-2.23-.41-4.58,.65-6.63,1.06-2.05,2.82-3.55,4.95-4.21,1.88-.59,3.86-.47,5.64,.32,.24,.11,.48,.23,.71,.36,1.96,1.1,3.4,2.94,4.04,5.17,.64,2.23,.41,4.59-.65,6.63-1.06,2.05-2.82,3.55-4.95,4.21Z"/><path class="cls-10" d="M417.64,364.82c22.74,4.59,42.35,18.58,54.53,38.28,3.38,5.46,12.03,.45,8.63-5.05-13.47-21.78-35.29-37.78-60.51-42.87-6.28-1.27-8.97,8.37-2.66,9.64h0Z"/><path d="M347.48,671.18c12.3,4.05,24.84,6.66,37.46,7.81,11.31,1.03,23.31,.65,33.05-7.27,5.59-4.55,10.25-11.78,11.72-20.45s-.78-18.7-6.21-23.61c-3.91-3.54-8.83-4.12-13.51-4.58-13.3-1.3-26.61-2.43-39.93-3.39-10.09-.73-24.15-5.13-33.88,.16-7.14,3.88-9.98,13.13-9.88,23.31,.17,17.38,10.11,24.38,21.16,28.02Z"/><path class="cls-12" d="M580.56,955.26l6.49-6.86c49.07-51.17,83.39-71.51,83.86-71.78l2.77-1.61-2.85-1.55c-1.35-.73-135.05-74.1-177.96-141.83-.22-.29-8.94-11.2-3.52-22.05,.45-.02,1-.04,1.65-.04,14.42,0,78.16,7.41,205.27,120.98l.33,.25c2.63,1.71,63.65,42.53,4.69,104.58-62.66,65.95-97.97,97.5-110.11,105.05-12.96,8.05-69.68,36.28-84.15,29.67-5.24-2.4-9.47-12.4,21.05-52.45,18.81-24.69,36.76-45.59,53.23-63.16l-.75,.8h0Z"/><path class="cls-6" d="M110.66,756.51c6.62,6.95,16.42,12.22,20.36,16.9,1.49,1.77,2.77,3.09,3.86,4.36,6.18,7.19,23.75,40.75,24.54,80.63,.06,3.15,3.27,5.29,6.24,4.61,3.55-.82,8.48-.47,13.41-.11,7.11,.52,12.67,6.58,12.8,13.96,1.11,61.99,.03,85.68,.03,85.68,8.22,10.06,42.71,67.23,42.71,67.23l35.84,42.2c-39.12,20.68-56.9-29.44-58.57,11.39-2.13,51.94,4.49,45.45,21.74,45.88,63.66,1.62,329.91,3.23,329.2-.1-15.07-70.8,31.55-180.48,16.48-251.27-2.33-10.95,9.79-18.96,18.4-12.17l7.99,6.3c2.94,2.32,7.16,.78,8.14-2.9,10.22-38.24-.95-82.68,35.26-113.4,3.16-2.68,2.32-7.89-1.54-9.27-55.78-20.05-122.93-30.42-177.37-51.61-1.79-.7-40.35,61.66-78.95,52.64-104.8-24.49-53.11-65.64-83.98-55.25-135.45,45.58-148.82,38.16-194.67,55.54-3.51,1.33-4.56,6-1.94,8.75Z"/><path class="cls-12" d="M251.7,1029.4c-19.88-26.1-38.87-48.22-56.29-66.85l-6.53-6.89c-52.27-54.51-88.84-76.18-89.33-76.47l-2.95-1.72,3.03-1.65c.64-.35,28.98-15.9,64.32-39.39-1.73-15.85-6.59-31.59-14.1-45.39-.81-1.49-1.48-2.96-2.08-4.43-.42-.54-.79-1.12-1.12-1.73-.59-.53-1.15-1.11-1.59-1.81-28.15,14.76-54.26,30.68-72.53,47.01l-.36,.27c-2.8,1.82-67.81,45.3-5,111.41,66.75,70.26,104.36,103.87,117.3,111.91,13.81,8.57,74.23,38.65,89.64,31.6,5.58-2.55,10.08-13.21-22.42-55.87Z"/><path class="cls-12" d="M348.52,520.63c-12.97-10.48-30.01-11.9-43.91-3.67-8.19,4.85-15.16,12.99-19.96,22.84-3.36,6.89-10.61,24.87,1.33,19.53,10.27-4.59,20.32-14.93,30.24-21.08,10.54-6.53,21.32-12.41,32.29-17.61Z"/><path class="cls-12" d="M492.71,550.44c-4.65-15.68-17.15-28.74-32.2-33.66-8.87-2.9-18.49-2.91-27.31-.32-6.17,1.81-21.11,7.61-9.06,12.89,10.35,4.54,23.51,5.41,34.39,8.75,11.56,3.54,22.98,7.66,34.19,12.34Z"/><path d="M448.12,503.05l-4.31,5.87c17.68,14.13,39.98,24.89,47.13,15.13l-5.62-4.49c-2.16,2.94-17.92-1.1-37.21-16.5Z"/><path d="M283.78,526.31l-4.4,4.66c7.42,7.65,25.7-4.67,39.54-19.32l-4.47-4.59c-15.09,15.99-28.43,21.57-30.68,19.25Z"/><path class="cls-12" d="M412.93,567.29c4.7,15.82,17.44,26.53,32.81,27.61,9.06,.63,18.89-2.1,27.92-7.44,6.32-3.74,21.6-14.35,9.31-16.68-10.57-2.01-24.01,.79-35.13,.25-11.81-.57-23.46-1.82-34.91-3.73Z"/><path class="cls-12" d="M288.78,577.12c7.81,14.42,22.44,22.07,37.67,19.72,8.98-1.39,18.03-6.23,25.77-13.46,5.41-5.05,18.2-18.8,5.71-18.36-10.74,.38-23.31,6.09-34.28,8.02-11.66,2.05-23.3,3.42-34.87,4.08Z"/><path class="cls-36" d="M334.56,669.93c5.36,14.76,15.17,29.35,12.08,44.8-3.43,17.14-21.95,28.74-22.37,46.24-.4,16.53,15.44,28.32,20.39,44.03,4.59,14.57-.75,30.3-6.04,44.62-4.25,11.52-8.5,23.04-12.76,34.56-4.56,12.34-9.11,24.69-13.19,37.22-9.35,28.73-16.14,58.36-20.26,88.39-.63,4.59,4.71,7.36,7.9,4.12,20.06-20.38,31.69,8.26,42.45,7.55,31.69-2.09,49.96,32.72,86.08,17.79,20.45-8.45,35.65,11.72,45.8-11.5,2.91-6.65,23.09,11.49,22.29,4.23-4.1-37.27-12.34-84.33-16.43-121.6-4.47-40.71-8.95-81.41-13.42-122.12-4.61-42-10.37-86.8-37.02-118.64,10.72-7.93,5.38-27.26-6.19-33.76-11.57-6.5-25.61-4.42-38.66-2.86-12.19,1.45-32.02-6.96-42.55-1.65-12.47,6.29-12.19,27.31-8.1,38.59Z"/><path class="cls-31" d="M347.42,684.11c4.07,13.49,11.54,26.82,9.19,40.94-2.61,15.66-16.69,26.26-17.01,42.25-.3,15.1,11.74,25.88,15.5,40.23,3.49,13.31-.57,27.69-4.59,40.77-3.23,10.53-6.47,21.05-9.7,31.58-3.46,11.28-6.93,22.56-10.03,34.01-6.91,25.52-11.98,51.82-15.14,78.47-.74,6.25,3.91,11.87,9.95,11.89,5.02,0,12.37-5.75,17.22-3.98,26.64,9.73,30.53,26.78,63.17,30.49,15.37,1.74,25.14,3.11,34.22-12.16,5.66-9.51,30.8,6.15,29.72-5.64-2.82-30.84-8.71-78.3-11.53-109.14-3.4-37.19-6.8-74.39-10.2-111.58-3.29-35.99-7.35-74.25-24.56-102.86-1.81-3.01-1.87-6.69-.5-9.93,3.57-8.42-.47-21.51-7.8-26.46-8.8-5.94-19.47-4.04-29.4-2.62-9.27,1.33-24.35-6.36-32.35-1.51-9.48,5.74-9.27,24.95-6.16,35.27Z"/><path class="cls-29" d="M356.11,694.62c3.33,10.98,9.44,21.83,7.52,33.32-2.13,12.75-13.66,21.38-13.92,34.39-.25,12.29,9.61,21.07,12.68,32.75,2.85,10.84-.47,22.54-3.76,33.18-2.65,8.57-5.29,17.14-7.94,25.71-2.83,9.18-5.67,18.36-8.21,27.68-5.05,18.55-8.9,37.6-11.51,56.92-1.11,8.2,4.29,15.57,12.08,17.17,2.59,.53,15.35-6.29,17.77-7.23,13.26-5.14,21.52,18.98,43.32,26.9,11.94,4.34,26.93-1.61,34.37-14.04,4.63-7.74,18.5,14.53,17.62,4.94-2.31-25.1-6.92-67.75-9.23-92.85-2.78-30.28-5.57-60.55-8.35-90.83-2.6-28.31-5.79-58.33-18.7-81.34-2-3.57-2.49-7.86-1.32-11.82,2.02-6.83-1.24-16.43-6.86-20.21-7.2-4.84-15.93-3.29-24.06-2.13-7.58,1.08-19.93-5.17-26.47-1.23-7.76,4.68-7.59,20.31-5.04,28.71Z"/><path class="cls-35" d="M379.48,698.83c2.02,9.18,5.72,18.25,4.55,27.85-1.29,10.65-8.27,17.87-8.43,28.75-.15,10.27,5.82,17.61,7.68,27.37,1.73,9.06-.28,18.84-2.27,27.74-1.6,7.16-3.2,14.32-4.8,21.49-1.72,7.67-3.43,15.35-4.97,23.14-3.06,15.5-5.39,31.43-6.96,47.58-.67,6.85,2.6,13.02,7.31,14.35,1.57,.44,9.29-5.26,10.76-6.04,8.03-4.3,13.03,15.86,26.22,22.48,7.23,3.63,16.3-1.35,20.8-11.74,2.8-6.47,11.2,12.15,10.67,4.13-1.4-20.98-4.19-56.63-5.59-77.61-1.68-25.31-3.37-50.61-5.05-75.92-1.58-23.66-3.5-48.75-11.32-67.98-1.21-2.98-1.51-6.57-.8-9.88,1.22-5.71-.75-13.73-4.15-16.89-4.36-4.04-9.65-2.75-14.56-1.78-4.59,.9-12.06-4.32-16.03-1.03-4.7,3.91-4.59,16.98-3.05,23.99Z"/><ellipse class="cls-38" cx="435.85" cy="769.3" rx="4.78" ry="4.99"/><ellipse class="cls-38" cx="368.67" cy="717.52" rx="4.49" ry="4.68"/><ellipse class="cls-38" cx="429.3" cy="822.19" rx="4.49" ry="4.68"/><ellipse class="cls-38" cx="349.69" cy="897.8" rx="3.45" ry="3.6"/><ellipse class="cls-38" cx="357.14" cy="908.1" rx="2.62" ry="2.73"/><ellipse class="cls-38" cx="459.62" cy="998.37" rx="3.22" ry="3.36"/><ellipse class="cls-38" cx="426.97" cy="765.22" rx="2.82" ry="2.94"/><ellipse class="cls-38" cx="364.18" cy="724.7" rx="2.39" ry="2.49"/><ellipse class="cls-38" cx="419.57" cy="669.85" rx="2.39" ry="2.49"/><ellipse class="cls-38" cx="416.47" cy="653.92" rx="4.78" ry="4.99"/><path class="cls-36" d="M333.81,822.66c.72-1.05,2.32-.59,2.39,.7,.35,6.9-.67,13.88-3,20.35-1.19,3.29-3.48,6.96-6.84,6.74-1.92-.13-.64-13.1,1.54-17.24,1.89-3.59,3.63-7.22,5.92-10.56Z"/><path class="cls-36" d="M499.57,984.91c.14-1.28,1.76-1.68,2.42-.59,3.5,5.87,5.83,12.5,6.78,19.34,.48,3.48,.17,7.85-2.88,9.35-1.74,.86-6.62-11.15-6.62-15.87,0-4.09-.15-8.15,.3-12.23Z"/><path class="cls-36" d="M504.25,972.89c.07-.63,.87-.83,1.19-.29,1.72,2.89,2.87,6.15,3.34,9.52,.24,1.71,.08,3.87-1.42,4.61-.86,.42-3.26-5.49-3.26-7.82,0-2.02-.08-4.01,.15-6.02Z"/><path class="cls-36" d="M339.11,690.96c.31-.55,1.11-.4,1.2,.23,.47,3.37,.28,6.84-.58,10.12-.44,1.67-1.4,3.58-3.06,3.63-.95,.03-.89-6.39,0-8.52,.77-1.85,1.47-3.71,2.44-5.46Z"/><path class="cls-36" d="M437.93,668.16c-.14-.62,.55-1.09,1.03-.69,2.56,2.11,4.7,4.77,6.24,7.77,.78,1.53,1.34,3.61,.17,4.83-.67,.7-4.85-4.01-5.61-6.2-.66-1.89-1.38-3.75-1.82-5.72Z"/><path class="cls-34" d="M462.73,877.2c.05-1.29,1.64-1.81,2.37-.77,3.9,5.59,6.69,12.02,8.12,18.77,.73,3.43,.72,7.82-2.21,9.55-1.68,.99-7.38-10.61-7.72-15.32-.29-4.08-.73-8.11-.56-12.22Z"/><path class="cls-33" d="M320.97,999.44c.72-1.05,2.32-.59,2.39,.7,.35,6.9-.67,13.88-3,20.35-1.19,3.29-3.48,6.96-6.84,6.74-1.92-.13-.64-13.1,1.54-17.24,1.89-3.59,3.63-7.22,5.92-10.56Z"/><ellipse class="cls-38" cx="431.15" cy="760.63" rx="1.2" ry="1.25"/><ellipse class="cls-38" cx="460.56" cy="801.33" rx="1.2" ry="1.25"/><ellipse class="cls-38" cx="457.68" cy="809.21" rx="4.78" ry="4.99"/><ellipse class="cls-38" cx="424.93" cy="828.91" rx="2.24" ry="2.34"/><path class="cls-36" d="M439.77,664.13c-.26-.28-.04-.75,.33-.7,1.98,.26,3.9,.94,5.61,2.01,.87,.54,1.79,1.44,1.55,2.47-.14,.59-3.75-.5-4.81-1.39-.92-.77-1.85-1.5-2.68-2.39Z"/><path class="cls-36" d="M336.74,689.17c.44-.13,.77,.38,.49,.76-1.49,2.08-3.37,3.85-5.49,5.17-1.08,.67-2.55,1.19-3.41,.34-.49-.49,2.83-3.93,4.38-4.62,1.34-.59,2.64-1.23,4.03-1.66Z"/><path class="cls-33" d="M312.61,1001.14c.62-.61,1.64-.07,1.52,.81-.66,4.7-2.25,9.26-4.66,13.29-1.22,2.05-3.25,4.2-5.48,3.58-1.28-.36,1.26-8.91,3.27-11.39,1.74-2.15,3.38-4.35,5.36-6.28Z"/><path class="cls-36" d="M328.29,821.39c.43-.35,1.06,.05,.93,.61-.67,2.98-1.94,5.81-3.7,8.26-.9,1.25-2.31,2.51-3.71,1.98-.8-.3,1.29-5.65,2.71-7.12,1.23-1.28,2.4-2.59,3.78-3.72Z"/><path class="cls-34" d="M467.99,872.59c-.21-.92,.81-1.61,1.52-1.03,3.79,3.12,6.96,7.05,9.24,11.5,1.16,2.26,1.98,5.33,.25,7.15-.99,1.04-7.18-5.93-8.31-9.16-.98-2.8-2.04-5.54-2.7-8.46Z"/><path class="cls-34" d="M470.87,867.23c-.21-.48,.27-1,.72-.76,2.43,1.25,4.61,3.02,6.36,5.2,.89,1.11,1.68,2.71,.92,3.93-.43,.7-4.61-2.37-5.59-4.02-.85-1.43-1.73-2.81-2.41-4.35Z"/><path class="cls-34" d="M420.68,928.15c.05-1.29,1.64-1.81,2.37-.77,3.9,5.59,6.69,12.02,8.12,18.77,.73,3.43,.72,7.82-2.21,9.55-1.68,.99-7.38-10.61-7.72-15.32-.29-4.08-.73-8.11-.56-12.22Z"/><path class="cls-34" d="M425.95,923.54c-.21-.92,.81-1.61,1.52-1.03,3.79,3.12,6.96,7.05,9.24,11.5,1.16,2.26,1.98,5.33,.25,7.15-.99,1.04-7.18-5.93-8.31-9.16-.98-2.8-2.04-5.54-2.7-8.46Z"/><path class="cls-34" d="M428.83,918.18c-.21-.48,.27-1,.72-.76,2.43,1.25,4.61,3.02,6.36,5.2,.89,1.11,1.68,2.71,.92,3.93-.43,.7-4.61-2.37-5.59-4.02-.85-1.43-1.73-2.81-2.41-4.35Z"/><path class="cls-34" d="M379.61,800.81c-.05-1.29-1.64-1.81-2.37-.77-3.9,5.59-6.69,12.02-8.12,18.77-.73,3.43-.72,7.82,2.21,9.55,1.68,.99,7.38-10.61,7.72-15.32,.29-4.08,.73-8.11,.56-12.22Z"/><path class="cls-34" d="M374.35,796.19c.21-.92-.81-1.61-1.52-1.03-3.79,3.12-6.96,7.05-9.24,11.5-1.16,2.26-1.98,5.33-.25,7.15,.99,1.04,7.18-5.93,8.31-9.16,.98-2.8,2.04-5.54,2.7-8.46Z"/><path class="cls-34" d="M371.47,790.83c.21-.48-.27-1-.72-.76-2.43,1.25-4.61,3.02-6.36,5.2-.89,1.11-1.68,2.71-.92,3.93,.43,.7,4.61-2.37,5.59-4.02,.85-1.43,1.73-2.81,2.41-4.35Z"/><ellipse class="cls-38" cx="344.03" cy="996.68" rx="4.78" ry="4.99"/><ellipse class="cls-38" cx="335.14" cy="992.59" rx="2.82" ry="2.94"/><ellipse class="cls-38" cx="339.33" cy="988" rx="1.2" ry="1.25"/><ellipse class="cls-38" cx="351.98" cy="656.39" rx="4.78" ry="4.99"/><ellipse class="cls-38" cx="343.09" cy="652.3" rx="2.82" ry="2.94"/><ellipse class="cls-38" cx="347.27" cy="647.71" rx="1.2" ry="1.25"/><path class="cls-36" d="M421.44,722.25c-.14-.62,.55-1.09,1.03-.69,2.56,2.11,4.7,4.77,6.24,7.77,.78,1.53,1.34,3.61,.17,4.83-.67,.7-4.85-4.01-5.61-6.2-.66-1.89-1.38-3.75-1.82-5.72Z"/><path class="cls-36" d="M423.28,718.22c-.26-.28-.04-.75,.33-.7,1.98,.26,3.9,.94,5.61,2.01,.87,.54,1.79,1.44,1.55,2.47-.14,.59-3.75-.5-4.81-1.39-.92-.77-1.85-1.5-2.68-2.39Z"/><path class="cls-36" d="M413.8,854.42c-.14-.62,.55-1.09,1.03-.69,2.56,2.11,4.7,4.77,6.24,7.77,.78,1.53,1.34,3.61,.17,4.83-.67,.7-4.85-4.01-5.61-6.2-.66-1.89-1.38-3.75-1.82-5.72Z"/><path class="cls-36" d="M415.64,850.39c-.26-.28-.04-.75,.33-.7,1.98,.26,3.9,.94,5.61,2.01,.87,.54,1.79,1.44,1.55,2.47-.14,.59-3.75-.5-4.81-1.39-.92-.77-1.85-1.5-2.68-2.39Z"/><path class="cls-33" d="M376.15,862.08c.72-1.05,2.32-.59,2.39,.7,.35,6.9-.67,13.88-3,20.35-1.19,3.29-3.48,6.96-6.84,6.74-1.92-.13-.64-13.1,1.54-17.24,1.89-3.59,3.63-7.22,5.92-10.56Z"/><path class="cls-33" d="M367.79,863.78c.62-.61,1.64-.07,1.52,.81-.66,4.7-2.25,9.26-4.66,13.29-1.22,2.05-3.25,4.2-5.48,3.58-1.28-.36,1.26-8.91,3.27-11.39,1.74-2.15,3.38-4.35,5.36-6.28Z"/><path class="cls-36" d="M428.43,1014.83c.14-1.28,1.76-1.68,2.42-.59,3.5,5.87,5.83,12.5,6.78,19.34,.48,3.48,.17,7.85-2.88,9.35-1.74,.86-6.62-11.15-6.62-15.87,0-4.09-.15-8.15,.3-12.23Z"/><path class="cls-36" d="M433.12,1002.81c.07-.63,.87-.83,1.19-.29,1.72,2.89,2.87,6.15,3.34,9.52,.24,1.71,.08,3.87-1.42,4.61-.86,.42-3.26-5.49-3.26-7.82,0-2.02-.08-4.01,.15-6.02Z"/><ellipse class="cls-38" cx="404.14" cy="889.96" rx="3.22" ry="3.36"/><ellipse class="cls-38" cx="408.39" cy="884.75" rx="2.41" ry="2.51"/></g><g><path class="cls-18" d="M501.51,274.56c0,3.61-2.34,6.79-5.78,7.86-10.01,3.12-25.34,6.76-42.89,6.76-23.98,0-43.74-6.11-59.26-20.93-13.64-13.17-22.1-34.33-22.1-59.02,.24-47.26,32.69-81.83,85.83-81.83,13.1,0,24.17,2.04,31.9,4.41,4.3,1.32,6.71,5.88,5.44,10.19l-.26,.88c-1.31,4.43-5.99,6.9-10.39,5.5-7.1-2.26-15.75-3.81-27.16-3.81-38.56,0-63.72,23.98-63.72,63.72s24.22,63.96,61.14,63.96c8.87,0,15.89-.82,20.98-2.06,3.7-.9,6.3-4.2,6.3-8v-33.2c0-4.55-3.68-8.23-8.23-8.23h-15.76c-4.55,0-8.23-3.68-8.23-8.23h0c0-4.55,3.68-8.23,8.23-8.23h35.74c4.55,0,8.23,3.68,8.23,8.23v62.04Z"/><path class="cls-18" d="M556.56,243.33l-12.73,38.55c-1.11,3.37-4.26,5.65-7.81,5.65h-3.73c-5.64,0-9.61-5.54-7.79-10.88l48.26-142.03c1.13-3.34,4.27-5.58,7.79-5.58h12.91c3.52,0,6.65,2.24,7.79,5.57l48.47,142.03c1.82,5.34-2.15,10.89-7.79,10.89h-4.47c-3.53,0-6.66-2.25-7.79-5.58l-13.14-38.68c-1.13-3.34-4.27-5.58-7.79-5.58h-44.35c-3.55,0-6.7,2.28-7.81,5.65Zm42.34-21.64c5.64,0,9.61-5.54,7.79-10.88l-11.82-34.74c-3.53-10.35-5.88-19.75-8.23-28.92h-.47c-2.35,9.41-4.94,19.05-7.99,28.69l-11.84,34.98c-1.81,5.34,2.16,10.87,7.8,10.87h24.77Z"/><path class="cls-18" d="M809.32,217.93c-1.18-22.1-2.59-48.68-2.35-68.43h-.71c-5.41,18.58-11.99,38.33-19.99,60.2l-26.01,71.48c-1.18,3.25-4.27,5.42-7.73,5.42h-3.86c-3.53,0-6.66-2.25-7.79-5.58l-23.74-69.9c-7.52-22.34-13.87-42.8-18.34-61.61h-.47c-.47,19.75-1.65,46.32-3.06,70.07l-3.75,60.24c-.27,4.34-3.87,7.72-8.21,7.72h-2.96c-4.77,0-8.54-4.04-8.21-8.8l9.9-142.03c.3-4.31,3.89-7.66,8.21-7.66h12.6c3.49,0,6.6,2.2,7.76,5.49l25.1,71.16c6.58,19.52,11.99,36.92,15.99,53.38h.7c4-15.99,9.64-33.39,16.7-53.38l26.23-71.27c1.19-3.24,4.27-5.39,7.72-5.39h12.63c4.35,0,7.94,3.38,8.21,7.72l8.85,142.03c.3,4.74-3.47,8.74-8.21,8.74h-3.46c-4.36,0-7.97-3.4-8.22-7.76l-3.55-61.84Z"/><path class="cls-18" d="M938.66,213.23h-45.15c-4.55,0-8.23,3.68-8.23,8.23v40.68c0,4.55,3.68,8.23,8.23,8.23h52.2c4.55,0,8.23,3.68,8.23,8.23v.71c0,4.55-3.68,8.23-8.23,8.23h-72.66c-4.55,0-8.23-3.68-8.23-8.23V137.28c0-4.55,3.68-8.23,8.23-8.23h69.13c4.55,0,8.23,3.68,8.23,8.23v.71c0,4.55-3.68,8.23-8.23,8.23h-48.68c-4.55,0-8.23,3.68-8.23,8.23v33.63c0,4.55,3.68,8.23,8.23,8.23h45.15c4.55,0,8.23,3.68,8.23,8.23v.47c0,4.55-3.68,8.23-8.23,8.23Z"/><path class="cls-18" d="M1165.8,206.64c0,54.55-33.16,83.48-73.6,83.48s-71.25-32.45-71.25-80.42c0-50.32,31.28-83.24,73.6-83.24s71.25,33.16,71.25,80.18Zm-122.98,2.59c0,33.86,18.34,64.19,50.56,64.19s50.79-29.86,50.79-65.84c0-31.51-16.46-64.43-50.56-64.43s-50.79,31.27-50.79,66.08Z"/><path class="cls-18" d="M1225.32,281.86l-46.36-142.03c-1.74-5.32,2.23-10.78,7.82-10.78h4.73c3.59,0,6.76,2.33,7.85,5.75l22.87,72.32c6.82,21.4,12.7,40.68,16.93,59.26h.47c4.47-18.34,11.05-38.33,18.11-59.02l24.9-72.74c1.14-3.33,4.27-5.56,7.79-5.56h4.3c5.69,0,9.67,5.64,7.75,11l-50.78,142.03c-1.17,3.27-4.27,5.46-7.75,5.46h-10.81c-3.56,0-6.72-2.29-7.82-5.68Z"/><path class="cls-18" d="M1397.43,213.23h-45.15c-4.55,0-8.23,3.68-8.23,8.23v40.68c0,4.55,3.68,8.23,8.23,8.23h52.2c4.55,0,8.23,3.68,8.23,8.23v.71c0,4.55-3.68,8.23-8.23,8.23h-72.66c-4.55,0-8.23-3.68-8.23-8.23V137.28c0-4.55,3.68-8.23,8.23-8.23h69.13c4.55,0,8.23,3.68,8.23,8.23v.71c0,4.55-3.68,8.23-8.23,8.23h-48.68c-4.55,0-8.23,3.68-8.23,8.23v33.63c0,4.55,3.68,8.23,8.23,8.23h45.15c4.55,0,8.23,3.68,8.23,8.23v.47c0,4.55-3.68,8.23-8.23,8.23Z"/><path class="cls-18" d="M1439.28,138.11c0-4.1,3.01-7.57,7.08-8.15,9.47-1.35,21.05-2.08,32.19-2.08,21.87,0,35.98,4,45.85,12.93,7.99,7.05,12.46,17.87,12.46,30.1,0,20.93-13.17,34.8-29.86,40.44v.71c12.23,4.23,19.52,15.52,23.28,31.98,3.23,13.81,5.91,24.97,8.28,32.88,1.58,5.29-2.35,10.62-7.87,10.62h-3.85c-3.53,0-6.67-2.25-7.8-5.6-2.26-6.72-5.01-17.87-8.27-32.26-4.7-21.87-13.17-30.1-31.75-30.8h-11.05c-4.55,0-8.23,3.68-8.23,8.23v52.2c0,4.55-3.68,8.23-8.23,8.23h-4c-4.55,0-8.23-3.68-8.23-8.23V138.11Zm20.46,57.02c0,4.55,3.68,8.23,8.23,8.23h12.7c21.87,0,35.74-11.99,35.74-30.1,0-20.46-14.81-29.39-36.45-29.63-5.1,0-9.44,.25-12.91,.62-4.17,.45-7.32,3.99-7.32,8.18v42.69Z"/></g><g><path d="M508.11,274.56c0,3.61-2.34,6.79-5.78,7.86-10.01,3.12-25.34,6.76-42.89,6.76-23.98,0-43.74-6.11-59.26-20.93-13.64-13.17-22.1-34.33-22.1-59.02,.24-47.26,32.69-81.83,85.83-81.83,13.1,0,24.17,2.04,31.9,4.41,4.3,1.32,6.71,5.88,5.44,10.19l-.26,.88c-1.31,4.43-5.99,6.9-10.39,5.5-7.1-2.26-15.75-3.81-27.16-3.81-38.56,0-63.72,23.98-63.72,63.72s24.22,63.96,61.14,63.96c8.87,0,15.89-.82,20.98-2.06,3.7-.9,6.3-4.2,6.3-8v-33.2c0-4.55-3.68-8.23-8.23-8.23h-15.76c-4.55,0-8.23-3.68-8.23-8.23h0c0-4.55,3.68-8.23,8.23-8.23h35.74c4.55,0,8.23,3.68,8.23,8.23v62.04Z"/><path d="M563.15,243.33l-12.73,38.55c-1.11,3.37-4.26,5.65-7.81,5.65h-3.73c-5.64,0-9.61-5.54-7.79-10.88l48.26-142.03c1.13-3.34,4.27-5.58,7.79-5.58h12.91c3.52,0,6.65,2.24,7.79,5.57l48.47,142.03c1.82,5.34-2.15,10.89-7.79,10.89h-4.47c-3.53,0-6.66-2.25-7.79-5.58l-13.14-38.68c-1.13-3.34-4.27-5.58-7.79-5.58h-44.35c-3.55,0-6.7,2.28-7.81,5.65Zm42.34-21.64c5.64,0,9.61-5.54,7.79-10.88l-11.82-34.74c-3.53-10.35-5.88-19.75-8.23-28.92h-.47c-2.35,9.41-4.94,19.05-7.99,28.69l-11.84,34.98c-1.81,5.34,2.16,10.87,7.8,10.87h24.77Z"/><path d="M815.92,217.93c-1.18-22.1-2.59-48.68-2.35-68.43h-.71c-5.41,18.58-11.99,38.33-19.99,60.2l-26.01,71.48c-1.18,3.25-4.27,5.42-7.73,5.42h-3.86c-3.53,0-6.66-2.25-7.79-5.58l-23.74-69.9c-7.52-22.34-13.87-42.8-18.34-61.61h-.47c-.47,19.75-1.65,46.32-3.06,70.07l-3.75,60.24c-.27,4.34-3.87,7.72-8.21,7.72h-2.96c-4.77,0-8.54-4.04-8.21-8.8l9.9-142.03c.3-4.31,3.89-7.66,8.21-7.66h12.6c3.49,0,6.6,2.2,7.76,5.49l25.1,71.16c6.58,19.52,11.99,36.92,15.99,53.38h.7c4-15.99,9.64-33.39,16.7-53.38l26.23-71.27c1.19-3.24,4.27-5.39,7.72-5.39h12.63c4.35,0,7.94,3.38,8.21,7.72l8.85,142.03c.3,4.74-3.47,8.74-8.21,8.74h-3.46c-4.36,0-7.97-3.4-8.22-7.76l-3.55-61.84Z"/><path d="M945.25,213.23h-45.15c-4.55,0-8.23,3.68-8.23,8.23v40.68c0,4.55,3.68,8.23,8.23,8.23h52.2c4.55,0,8.23,3.68,8.23,8.23v.71c0,4.55-3.68,8.23-8.23,8.23h-72.66c-4.55,0-8.23-3.68-8.23-8.23V137.28c0-4.55,3.68-8.23,8.23-8.23h69.13c4.55,0,8.23,3.68,8.23,8.23v.71c0,4.55-3.68,8.23-8.23,8.23h-48.68c-4.55,0-8.23,3.68-8.23,8.23v33.63c0,4.55,3.68,8.23,8.23,8.23h45.15c4.55,0,8.23,3.68,8.23,8.23v.47c0,4.55-3.68,8.23-8.23,8.23Z"/><path d="M1172.4,206.64c0,54.55-33.16,83.48-73.6,83.48s-71.25-32.45-71.25-80.42c0-50.32,31.28-83.24,73.6-83.24s71.25,33.16,71.25,80.18Zm-122.98,2.59c0,33.86,18.34,64.19,50.56,64.19s50.79-29.86,50.79-65.84c0-31.51-16.46-64.43-50.56-64.43s-50.79,31.27-50.79,66.08Z"/><path d="M1231.92,281.86l-46.36-142.03c-1.74-5.32,2.23-10.78,7.82-10.78h4.73c3.59,0,6.76,2.33,7.85,5.75l22.87,72.32c6.82,21.4,12.7,40.68,16.93,59.26h.47c4.47-18.34,11.05-38.33,18.11-59.02l24.9-72.74c1.14-3.33,4.27-5.56,7.79-5.56h4.3c5.69,0,9.67,5.64,7.75,11l-50.78,142.03c-1.17,3.27-4.27,5.46-7.75,5.46h-10.81c-3.56,0-6.72-2.29-7.82-5.68Z"/><path d="M1404.02,213.23h-45.15c-4.55,0-8.23,3.68-8.23,8.23v40.68c0,4.55,3.68,8.23,8.23,8.23h52.2c4.55,0,8.23,3.68,8.23,8.23v.71c0,4.55-3.68,8.23-8.23,8.23h-72.66c-4.55,0-8.23-3.68-8.23-8.23V137.28c0-4.55,3.68-8.23,8.23-8.23h69.13c4.55,0,8.23,3.68,8.23,8.23v.71c0,4.55-3.68,8.23-8.23,8.23h-48.68c-4.55,0-8.23,3.68-8.23,8.23v33.63c0,4.55,3.68,8.23,8.23,8.23h45.15c4.55,0,8.23,3.68,8.23,8.23v.47c0,4.55-3.68,8.23-8.23,8.23Z"/><path d="M1445.88,138.11c0-4.1,3.01-7.57,7.08-8.15,9.47-1.35,21.05-2.08,32.19-2.08,21.87,0,35.98,4,45.85,12.93,7.99,7.05,12.46,17.87,12.46,30.1,0,20.93-13.17,34.8-29.86,40.44v.71c12.23,4.23,19.52,15.52,23.28,31.98,3.23,13.81,5.91,24.97,8.28,32.88,1.58,5.29-2.35,10.62-7.87,10.62h-3.85c-3.53,0-6.67-2.25-7.8-5.6-2.26-6.72-5.01-17.87-8.27-32.26-4.7-21.87-13.17-30.1-31.75-30.8h-11.05c-4.55,0-8.23,3.68-8.23,8.23v52.2c0,4.55-3.68,8.23-8.23,8.23h-4c-4.55,0-8.23-3.68-8.23-8.23V138.11Zm20.46,57.02c0,4.55,3.68,8.23,8.23,8.23h12.7c21.87,0,35.74-11.99,35.74-30.1,0-20.46-14.81-29.39-36.45-29.63-5.1,0-9.44,.25-12.91,.62-4.17,.45-7.32,3.99-7.32,8.18v42.69Z"/></g><g><path d="M770.66,382.59l2.02-2.87c-2.27-2.43-3.61-6.04-3.61-10.09,0-8.63,5.47-14.26,12.6-14.26,2.51,0,4.86,.73,6.81,2.15l1.86-2.55c.3-.41,.87-.51,1.29-.22l.75,.51c.35,.24,.44,.72,.19,1.07l-2.06,2.85c2.27,2.47,3.52,6.04,3.52,10.05,0,9.52-5.87,14.34-12.4,14.34-2.59,0-4.98-.77-6.93-2.19l-1.94,2.64c-.34,.46-.99,.55-1.43,.19l-.5-.4c-.38-.3-.45-.84-.18-1.23Zm16.08-22.47c-1.38-1.17-3.08-1.9-5.1-1.9-5.96,0-8.95,5.51-8.95,11.22,0,3.04,.81,5.23,2.03,7.33l.04-.04,11.99-16.61Zm-10.29,18.68c1.34,1.26,2.92,1.94,5.1,1.94,5.71,0,8.87-5.23,8.87-11.38,0-2.31-.49-4.78-1.9-7.09h-.12l-11.95,16.53Z"/><path d="M804.3,382.23l-8.06-24.69c-.28-.85,.35-1.71,1.24-1.71h1.05c.57,0,1.08,.37,1.25,.91l3.96,12.54c1.17,3.69,2.19,7.01,2.92,10.21h.08c.77-3.16,1.9-6.6,3.12-10.17l4.32-12.61c.18-.53,.68-.88,1.24-.88h.97c.91,0,1.54,.9,1.23,1.75l-8.83,24.69c-.19,.52-.68,.87-1.23,.87h-2.02c-.57,0-1.07-.36-1.24-.9Z"/><path d="M820.48,381.79c-.38-1.75,.63-3.12,2.12-3.23s2.64,1.19,2.57,2.65-1.17,2.57-2.83,2.34c-.91-.13-1.67-.85-1.87-1.76Zm.91-7.18l-.53-18.12c-.01-.36,.28-.66,.64-.66h2.7c.29,0,.52,.24,.52,.53l-.54,18.34c0,.32-.27,.57-.59,.57h-1.52c-.37,0-.67-.29-.69-.67Z"/><path d="M854.74,354.37c.66,0,1.2,.54,1.2,1.2v22.5c0,1.26,.02,2.64,.08,3.82,.03,.68-.51,1.25-1.2,1.25h-.78c-.64,0-1.17-.5-1.2-1.14l-.11-2.26h-.08c-1.09,2.19-3.48,3.85-6.68,3.85-4.74,0-8.39-4.01-8.39-9.97-.04-6.52,4.01-10.53,8.79-10.53,3,0,5.02,1.42,5.91,3h.08v-10.51c0-.66,.54-1.2,1.2-1.2h1.17Zm-2.37,17.14c0-.45-.04-1.05-.16-1.5-.53-2.27-2.47-4.13-5.14-4.13-3.69,0-5.87,3.24-5.87,7.58,0,3.97,1.94,7.25,5.79,7.25,2.39,0,4.58-1.58,5.23-4.25,.12-.49,.16-.97,.16-1.54v-3.4Z"/><path d="M878.26,377.78c0,1.34,.02,2.57,.06,3.7,.04,.9-.68,1.65-1.58,1.65h0c-.83,0-1.53-.65-1.58-1.48l-.11-1.72h-.08c-.93,1.58-3,3.65-6.48,3.65-3.08,0-6.77-1.7-6.77-8.59v-9.88c0-.87,.71-1.58,1.58-1.58h.4c.87,0,1.58,.71,1.58,1.58v9.27c0,3.73,1.13,6.24,4.38,6.24,2.39,0,4.05-1.66,4.7-3.24,.2-.53,.32-1.17,.32-1.82v-10.45c0-.87,.71-1.58,1.58-1.58h.4c.87,0,1.58,.71,1.58,1.58v12.68Z"/><path d="M894.54,354.37h0c.98,0,1.78,.8,1.78,1.78v10.45h.08c.57-1.01,1.46-1.9,2.55-2.51,1.05-.61,2.31-1.01,3.65-1.01,2.63,0,6.85,1.62,6.85,8.39v9.89c0,.98-.8,1.78-1.78,1.78h0c-.98,0-1.78-.8-1.78-1.78v-9.48c0-3.16-1.17-5.83-4.54-5.83-2.31,0-4.13,1.62-4.78,3.56-.2,.49-.24,1.01-.24,1.7v10.05c0,.98-.8,1.78-1.78,1.78h0c-.98,0-1.78-.8-1.78-1.78v-25.2c0-.98,.8-1.78,1.78-1.78Z"/><path d="M927.21,383.13c-.63,0-1.16-.47-1.23-1.1l-.16-1.37h-.12c-1.09,1.54-3.2,2.92-6,2.92-3.97,0-6-2.79-6-5.63,0-4.74,4.21-7.33,11.79-7.29v-.41c0-1.62-.45-4.54-4.46-4.54-1.35,0-2.75,.31-3.94,.84-.65,.29-1.4-.07-1.64-.74h0c-.2-.59,.05-1.25,.61-1.52,1.53-.74,3.47-1.21,5.49-1.21,6,0,7.45,4.09,7.45,8.02v7.33c0,1.15,.04,2.29,.14,3.32,.07,.74-.49,1.38-1.23,1.38h-.72Zm-1.63-8.76c0-.7-.57-1.26-1.27-1.24-3.52,.1-7.04,1.01-7.04,4.41,0,2.31,1.54,3.4,3.36,3.4,2.55,0,4.17-1.62,4.74-3.28,.12-.37,.2-.77,.2-1.13v-2.16Z"/><path d="M934.78,369.64c0-1.7-.02-3.23-.08-4.64-.03-.81,.61-1.47,1.41-1.47h.05c.88,0,1.6,.7,1.63,1.58l.07,2.27h.16c.89-2.63,3.04-4.29,5.43-4.29,.41,0,.69,.04,1.01,.12v3.36c-.36-.08-.73-.12-1.21-.12-2.51,0-4.29,1.9-4.78,4.58-.08,.49-.16,1.05-.16,1.66v9.48c0,.54-.44,.98-.98,.98h-1.57c-.54,0-.98-.44-.98-.98v-12.51Z"/><path d="M971.98,363.53c.83,0,1.49,.69,1.45,1.51-.05,1.06-.08,2.29-.08,3.87v11.38c0,4.5-.89,7.25-2.79,8.95-1.9,1.78-4.66,2.35-7.13,2.35-1.64,0-3.41-.28-4.86-.81-.97-.35-1.45-1.45-1.13-2.43v-.03c.19-.55,.81-.79,1.33-.55,1.25,.58,2.89,1.02,4.78,1.02,3.65,0,6.32-1.9,6.32-6.85v-2.19h-.08c-1.09,1.82-3.2,3.28-6.24,3.28-4.86,0-8.35-4.13-8.35-9.56,0-6.64,4.33-10.41,8.83-10.41,3.4,0,5.27,1.78,6.12,3.4h.08l.08-1.44c.05-.85,.75-1.52,1.6-1.52h.07Zm-2.16,7.74c0-.61-.04-1.13-.2-1.62-.65-2.07-2.39-3.77-4.98-3.77-3.78,0-6.35,3.54-5.74,8.96,.26,2.3,1.7,4.4,3.87,5.18,2.83,1.01,5.79-.43,6.77-3.32,.2-.61,.28-1.3,.28-1.9v-3.52Z"/><path d="M974.6,389.7c-.06-.48,.27-.92,.75-.99,1.26-.2,2.33-.64,3.03-1.4,.97-1.13,1.34-2.67,1.34-7.37v-15.51c0-.49,.4-.89,.89-.89h1.78c.49,0,.89,.4,.89,.89v16.89c0,3.81-.61,6.28-2.35,8.06-1.35,1.35-3.45,2.02-5.21,2.19-.48,.04-.91-.3-.97-.78l-.14-1.08Zm9.08-31.68c.04,1.17-.81,2.19-2.23,2.19-1.34,0-2.19-1.01-2.19-2.19,0-1.26,.93-2.23,2.27-2.23s2.15,.97,2.15,2.23Z"/><path d="M1006.85,373.17c0,7.25-5.02,10.41-9.76,10.41-5.31,0-9.4-3.89-9.4-10.09,0-6.56,4.29-10.41,9.72-10.41s9.44,4.09,9.44,10.09Zm-15.56,.2c0,4.29,2.47,7.54,5.96,7.54s5.96-3.2,5.96-7.62c0-3.32-1.66-7.54-5.87-7.54s-6.04,3.89-6.04,7.62Z"/><path d="M1011.35,369.64c0-1.66-.02-3.16-.08-4.54-.04-.86,.65-1.58,1.51-1.58h.06c.82,0,1.49,.65,1.51,1.47l.07,2.38h.16c.89-2.63,3.04-4.29,5.43-4.29,.41,0,.69,.04,1.01,.12v3.36c-.36-.08-.73-.12-1.21-.12-2.51,0-4.29,1.9-4.78,4.58-.08,.49-.16,1.05-.16,1.66v8.94c0,.84-.68,1.51-1.51,1.51h-.5c-.84,0-1.51-.68-1.51-1.51v-11.98Z"/><path d="M1029.86,359.59v2.64c0,.72,.58,1.3,1.3,1.3h2.5c.72,0,1.3,.58,1.3,1.3v.11c0,.72-.58,1.3-1.3,1.3h-2.5c-.72,0-1.3,.58-1.3,1.3v9.27c0,2.43,.69,3.81,2.67,3.81,.27,0,.53-.01,.76-.03,.73-.06,1.35,.49,1.39,1.22v.2c.05,.65-.39,1.24-1.03,1.36-.58,.11-1.27,.17-2.05,.17-1.66,0-3-.53-3.85-1.5-1.01-1.05-1.38-2.79-1.38-5.1v-9.39c0-.72-.58-1.3-1.3-1.3h-.44c-.72,0-1.3-.58-1.3-1.3v-.11c0-.72,.58-1.3,1.3-1.3h.44c.72,0,1.3-.58,1.3-1.3v-2.4c0-.59,.4-1.1,.96-1.26l.88-.24c.83-.22,1.64,.4,1.64,1.26Z"/><path d="M1071.03,369.2c0,9.4-5.71,14.38-12.68,14.38s-12.28-5.59-12.28-13.85c0-8.67,5.39-14.34,12.68-14.34s12.28,5.71,12.28,13.81Zm-21.19,.45c0,5.83,3.16,11.06,8.71,11.06s8.75-5.15,8.75-11.34c0-5.43-2.84-11.1-8.71-11.1s-8.75,5.39-8.75,11.38Z"/><path d="M1077.27,354.37h0c.98,0,1.78,.8,1.78,1.78v25.2c0,.98-.8,1.78-1.78,1.78h0c-.98,0-1.78-.8-1.78-1.78v-25.2c0-.98,.8-1.78,1.78-1.78Z"/><path d="M1088.47,373.98c-.79,0-1.44,.7-1.3,1.48,.63,3.75,3.42,5.32,6.59,5.32,1.78,0,3.07-.22,4.14-.54,.71-.22,1.46,.23,1.63,.96h0c.16,.66-.21,1.34-.86,1.55-1.28,.42-3.07,.78-5.39,.78-6.04,0-9.64-3.97-9.64-9.88s3.48-10.57,9.2-10.57c6.4,0,8.1,5.63,8.1,9.24,0,.15,0,.29,0,.43-.03,.69-.62,1.24-1.31,1.24h-11.14Zm7.6-2.55c.8,0,1.44-.72,1.3-1.51-.36-2.05-1.63-4.28-4.82-4.28-2.78,0-4.36,1.98-5.06,4.02-.3,.87,.32,1.77,1.24,1.77h7.35Z"/><path d="M1112.95,380.99c.25-.75,1.07-1.13,1.8-.83,.99,.42,2.21,.74,3.4,.74,2.59,0,3.81-1.3,3.81-2.92,0-1.7-1.01-2.63-3.65-3.61-3.52-1.26-5.19-3.2-5.19-5.55,0-3.16,2.55-5.75,6.77-5.75,1.38,0,2.64,.27,3.65,.66,.68,.26,1.01,1.02,.78,1.7h0c-.25,.73-1.05,1.09-1.77,.82s-1.67-.5-2.73-.5c-2.11,0-3.28,1.22-3.28,2.67,0,1.62,1.17,2.35,3.73,3.32,3.4,1.3,5.14,3,5.14,5.92,0,3.44-2.67,5.87-7.33,5.87-1.62,0-3.15-.3-4.4-.8-.65-.26-.96-1-.74-1.66l.03-.08Z"/><path d="M1130.14,363.53c.68,0,1.29,.42,1.52,1.06l3.9,10.53c.45,1.3,.93,2.84,1.26,4.01h.08c.37-1.17,.77-2.67,1.26-4.09l3.52-10.4c.22-.66,.84-1.1,1.54-1.1h.24c1.14,0,1.92,1.14,1.52,2.2l-4.5,11.77c-2.55,6.72-4.29,10.17-6.73,12.27-.92,.81-1.84,1.37-2.64,1.73-.89,.41-1.93-.08-2.21-1.02h0c-.22-.76,.12-1.56,.83-1.91,.61-.31,1.26-.71,1.88-1.23,.97-.77,2.19-2.15,3-3.97,.16-.36,.28-.65,.28-.85s-.08-.49-.24-.93l-6.36-15.84c-.43-1.07,.36-2.23,1.51-2.23h.36Z"/><path d="M1164.31,363.53c.67,0,1.21,.56,1.17,1.23-.05,1.13-.1,2.43-.1,4.16v11.38c0,4.5-.89,7.25-2.79,8.95-1.9,1.78-4.66,2.35-7.13,2.35-1.67,0-3.46-.29-4.93-.83-.93-.35-1.4-1.39-1.09-2.34h0c.19-.58,.84-.88,1.39-.63,1.24,.57,2.87,1,4.75,1,3.65,0,6.32-1.9,6.32-6.85v-2.19h-.08c-1.09,1.82-3.2,3.28-6.24,3.28-4.86,0-8.35-4.13-8.35-9.56,0-6.64,4.33-10.41,8.83-10.41,3.4,0,5.27,1.78,6.12,3.4h.08l.11-2.03c.03-.52,.46-.93,.98-.93h.95Zm-2.45,7.74c0-.61-.04-1.13-.2-1.62-.65-2.07-2.39-3.77-4.98-3.77-3.78,0-6.35,3.54-5.74,8.96,.26,2.3,1.7,4.4,3.87,5.18,2.83,1.01,5.79-.43,6.77-3.32,.2-.61,.28-1.3,.28-1.9v-3.52Z"/><path d="M794.08,417.45c0-2.03-.04-3.69-.16-5.31h3.12l.16,3.16h.12c1.09-1.86,2.92-3.61,6.16-3.61,2.67,0,4.7,1.62,5.55,3.93h.08c.61-1.09,1.38-1.94,2.19-2.55,1.17-.89,2.47-1.38,4.33-1.38,2.59,0,6.44,1.7,6.44,8.51v11.55h-3.48v-11.1c0-3.77-1.38-6.04-4.25-6.04-2.03,0-3.61,1.5-4.21,3.24-.16,.49-.28,1.13-.28,1.78v12.11h-3.48v-11.75c0-3.12-1.38-5.39-4.09-5.39-2.23,0-3.85,1.78-4.42,3.57-.2,.53-.28,1.13-.28,1.74v11.83h-3.48v-14.3Z"/><path d="M829.86,422.6c.08,4.82,3.16,6.81,6.73,6.81,2.55,0,4.09-.45,5.43-1.01l.61,2.55c-1.26,.57-3.4,1.22-6.52,1.22-6.04,0-9.64-3.97-9.64-9.88s3.48-10.57,9.2-10.57c6.4,0,8.1,5.63,8.1,9.24,0,.73-.08,1.3-.12,1.66h-13.77Zm10.45-2.55c.04-2.27-.93-5.79-4.94-5.79-3.61,0-5.19,3.32-5.47,5.79h10.41Z"/><path d="M865.11,402.99v23.7c0,1.74,.04,3.73,.16,5.06h-3.2l-.16-3.4h-.08c-1.09,2.19-3.48,3.85-6.68,3.85-4.74,0-8.39-4.01-8.39-9.97-.04-6.52,4.01-10.53,8.79-10.53,3,0,5.02,1.42,5.91,3h.08v-11.71h3.57Zm-3.57,17.14c0-.45-.04-1.05-.16-1.5-.53-2.27-2.47-4.13-5.14-4.13-3.69,0-5.87,3.24-5.87,7.58,0,3.97,1.94,7.25,5.79,7.25,2.39,0,4.58-1.58,5.23-4.25,.12-.49,.16-.97,.16-1.54v-3.4Z"/><path d="M896.55,402.99v23.7c0,1.74,.04,3.73,.16,5.06h-3.2l-.16-3.4h-.08c-1.09,2.19-3.48,3.85-6.68,3.85-4.74,0-8.39-4.01-8.39-9.97-.04-6.52,4.01-10.53,8.79-10.53,3,0,5.02,1.42,5.91,3h.08v-11.71h3.57Zm-3.57,17.14c0-.45-.04-1.05-.16-1.5-.53-2.27-2.47-4.13-5.14-4.13-3.69,0-5.87,3.24-5.87,7.58,0,3.97,1.94,7.25,5.79,7.25,2.39,0,4.58-1.58,5.23-4.25,.12-.49,.16-.97,.16-1.54v-3.4Z"/><path d="M904.45,422.6c.08,4.82,3.16,6.81,6.73,6.81,2.55,0,4.09-.45,5.43-1.01l.61,2.55c-1.26,.57-3.4,1.22-6.52,1.22-6.04,0-9.64-3.97-9.64-9.88s3.48-10.57,9.2-10.57c6.4,0,8.1,5.63,8.1,9.24,0,.73-.08,1.3-.12,1.66h-13.77Zm10.45-2.55c.04-2.27-.93-5.79-4.94-5.79-3.61,0-5.19,3.32-5.47,5.79h10.41Z"/><path d="M922.76,417.45c0-2.03-.04-3.69-.16-5.31h3.16l.2,3.24h.08c.97-1.86,3.24-3.69,6.48-3.69,2.71,0,6.93,1.62,6.93,8.35v11.71h-3.57v-11.3c0-3.16-1.17-5.79-4.54-5.79-2.35,0-4.17,1.66-4.78,3.65-.16,.45-.24,1.05-.24,1.66v11.79h-3.57v-14.3Z"/><path d="M969.18,402.99c.88,0,1.59,.71,1.59,1.59v22.11c0,1.11,.02,2.33,.06,3.41,.04,.9-.68,1.66-1.59,1.66h0c-.85,0-1.54-.67-1.59-1.51l-.09-1.89h-.08c-1.09,2.19-3.48,3.85-6.68,3.85-4.74,0-8.39-4.01-8.39-9.97-.04-6.52,4.01-10.53,8.79-10.53,3,0,5.02,1.42,5.91,3h.08v-10.12c0-.88,.71-1.59,1.59-1.59h.39Zm-1.98,17.14c0-.45-.04-1.05-.16-1.5-.53-2.27-2.47-4.13-5.14-4.13-3.69,0-5.87,3.24-5.87,7.58,0,3.97,1.94,7.25,5.79,7.25,2.39,0,4.58-1.58,5.23-4.25,.12-.49,.16-.97,.16-1.54v-3.4Z"/><path d="M988.65,431.75c-.63,0-1.16-.47-1.23-1.1l-.16-1.37h-.12c-1.09,1.54-3.2,2.92-6,2.92-3.97,0-6-2.79-6-5.63,0-4.74,4.21-7.33,11.79-7.29v-.41c0-1.62-.45-4.54-4.46-4.54-1.35,0-2.75,.31-3.94,.84-.65,.29-1.4-.07-1.64-.74h0c-.2-.59,.05-1.25,.61-1.52,1.53-.74,3.47-1.21,5.49-1.21,6,0,7.45,4.09,7.45,8.02v7.33c0,1.15,.04,2.29,.14,3.32,.07,.74-.49,1.38-1.23,1.38h-.72Zm-1.63-8.76c0-.7-.57-1.26-1.27-1.24-3.52,.1-7.04,1.01-7.04,4.41,0,2.31,1.54,3.4,3.36,3.4,2.55,0,4.17-1.62,4.74-3.28,.12-.37,.2-.77,.2-1.13v-2.16Zm-7.66-16.68c0-2.15,1.58-3.85,4.13-3.85s4.01,1.66,4.01,3.81-1.74,3.73-4.05,3.73c-2.43,0-4.09-1.62-4.09-3.69Zm6.16-.08c0-1.22-.81-2.23-2.11-2.23s-1.99,1.05-1.99,2.31c0,1.05,.81,2.19,1.99,2.19,1.3,0,2.11-1.05,2.11-2.27Z"/><path d="M996.21,418.26c0-1.66-.02-3.16-.08-4.55-.04-.86,.65-1.57,1.5-1.57h0c.85,0,1.55,.68,1.58,1.53l.07,2.32h.16c.89-2.63,3.04-4.29,5.43-4.29,.41,0,.69,.04,1.01,.12v3.36c-.36-.08-.73-.12-1.21-.12-2.51,0-4.29,1.9-4.78,4.58-.08,.49-.16,1.05-.16,1.66v9.43c0,.57-.46,1.02-1.02,1.02h-1.47c-.57,0-1.03-.46-1.03-1.03v-12.46Z"/><path d="M1011.1,402.99h.62c.81,0,1.47,.66,1.47,1.47v25.82c0,.81-.66,1.47-1.47,1.47h-.62c-.81,0-1.47-.66-1.47-1.47v-25.82c0-.81,.66-1.47,1.47-1.47Z"/><path d="M1023.16,406.63c.04,1.21-.85,2.19-2.27,2.19-1.26,0-2.15-.97-2.15-2.19s.93-2.23,2.23-2.23,2.19,.97,2.19,2.23Zm-3.97,23.69v-16.76c0-.79,.64-1.43,1.43-1.43h.71c.79,0,1.43,.64,1.43,1.43v16.76c0,.79-.64,1.43-1.43,1.43h-.71c-.79,0-1.43-.64-1.43-1.43Z"/><path d="M1044.35,412.14c.65,0,1.18,.54,1.14,1.2-.05,1.13-.1,2.45-.1,4.19v11.38c0,4.5-.89,7.25-2.79,8.95-1.9,1.78-4.66,2.35-7.13,2.35-1.9,0-3.97-.37-5.52-1.07-.59-.27-.86-.96-.66-1.57h0c.28-.86,1.23-1.27,2.06-.94,1.17,.46,2.61,.79,4.24,.79,3.65,0,6.32-1.9,6.32-6.85v-2.19h-.08c-1.09,1.82-3.2,3.28-6.24,3.28-4.86,0-8.35-4.13-8.35-9.56,0-6.64,4.33-10.41,8.83-10.41,3.4,0,5.27,1.78,6.12,3.4h.08l.09-1.59c.04-.77,.68-1.37,1.45-1.37h.54Zm-2.48,7.74c0-.61-.04-1.13-.2-1.62-.65-2.07-2.39-3.77-4.98-3.77-3.78,0-6.35,3.54-5.74,8.96,.26,2.3,1.7,4.4,3.87,5.18,2.83,1.01,5.79-.43,6.77-3.32,.2-.61,.28-1.3,.28-1.9v-3.52Z"/><path d="M1054.74,422.6c-.79,0-1.44,.7-1.3,1.48,.63,3.75,3.42,5.32,6.59,5.32,1.78,0,3.07-.22,4.14-.54,.71-.22,1.46,.23,1.63,.96h0c.16,.66-.21,1.34-.86,1.55-1.28,.42-3.07,.78-5.39,.78-6.04,0-9.64-3.97-9.64-9.88s3.48-10.57,9.2-10.57c6.4,0,8.1,5.63,8.1,9.24,0,.15,0,.29,0,.43-.03,.69-.62,1.24-1.31,1.24h-11.14Zm7.6-2.55c.8,0,1.44-.72,1.3-1.51-.36-2.05-1.63-4.28-4.82-4.28-2.78,0-4.36,1.98-5.06,4.02-.3,.87,.32,1.77,1.24,1.77h7.35Z"/><path d="M1080.2,417.45c0-1.36-.02-2.55-.07-3.68-.04-.89,.66-1.63,1.55-1.63h0c.83,0,1.51,.65,1.55,1.47l.09,1.69h.12c1.09-1.86,2.92-3.61,6.16-3.61,2.67,0,4.7,1.62,5.55,3.93h.08c.61-1.09,1.38-1.94,2.19-2.55,1.17-.89,2.47-1.38,4.33-1.38,2.59,0,6.44,1.7,6.44,8.51v9.99c0,.86-.69,1.55-1.55,1.55h-.38c-.86,0-1.55-.69-1.55-1.55v-9.55c0-3.77-1.38-6.04-4.25-6.04-2.03,0-3.61,1.5-4.21,3.24-.16,.49-.28,1.13-.28,1.78v10.56c0,.86-.69,1.55-1.55,1.55h-.38c-.86,0-1.55-.69-1.55-1.55v-10.2c0-3.12-1.38-5.39-4.09-5.39-2.23,0-3.85,1.78-4.42,3.57-.2,.53-.28,1.13-.28,1.74v10.28c0,.86-.69,1.55-1.55,1.55h-.38c-.86,0-1.55-.69-1.55-1.55v-12.75Z"/><path d="M1125.96,431.75c-.63,0-1.16-.47-1.23-1.1l-.16-1.37h-.12c-1.09,1.54-3.2,2.92-6,2.92-3.97,0-6-2.79-6-5.63,0-4.74,4.21-7.33,11.79-7.29v-.41c0-1.62-.45-4.54-4.46-4.54-1.35,0-2.75,.31-3.94,.84-.65,.29-1.4-.07-1.64-.74h0c-.2-.59,.05-1.25,.61-1.52,1.53-.74,3.47-1.21,5.49-1.21,6,0,7.45,4.09,7.45,8.02v7.33c0,1.15,.04,2.29,.14,3.32,.07,.74-.49,1.38-1.23,1.38h-.72Zm-1.63-8.76c0-.7-.57-1.26-1.27-1.24-3.52,.1-7.04,1.01-7.04,4.41,0,2.31,1.54,3.4,3.36,3.4,2.55,0,4.17-1.62,4.74-3.28,.12-.37,.2-.77,.2-1.13v-2.16Z"/><path d="M1148.87,402.99c.88,0,1.59,.71,1.59,1.59v22.11c0,1.11,.02,2.33,.06,3.41,.04,.9-.68,1.66-1.59,1.66h0c-.85,0-1.55-.67-1.59-1.51l-.09-1.89h-.08c-1.09,2.19-3.48,3.85-6.68,3.85-4.74,0-8.39-4.01-8.39-9.97-.04-6.52,4.01-10.53,8.79-10.53,3,0,5.02,1.42,5.91,3h.08v-10.12c0-.88,.71-1.59,1.59-1.59h.39Zm-1.98,17.14c0-.45-.04-1.05-.16-1.5-.53-2.27-2.47-4.13-5.14-4.13-3.69,0-5.87,3.24-5.87,7.58,0,3.97,1.94,7.25,5.79,7.25,2.39,0,4.58-1.58,5.23-4.25,.12-.49,.16-.97,.16-1.54v-3.4Z"/></g></svg>