<?xml version="1.0" encoding="UTF-8"?><svg id="Lag_2" xmlns="http://www.w3.org/2000/svg" width="80.29" height="69.63" viewBox="0 0 80.29 69.63"><defs><style>.cls-1{fill:none;}.cls-2{fill:#fff;}.cls-3{fill:#ff88b9;}.cls-4{fill:#ff66ac;}</style></defs><g id="Lag_2-2"><g><path class="cls-4" d="M40.17,66.85s26.54-17.55,33.69-30.17l1.58-2.83c1.7-3.66,2.38-7.89,1.53-12.36-1.62-8.52-8.71-15.18-17.32-16.22-8.16-.99-15.49,2.88-19.51,9.1-4.03-6.22-11.35-10.09-19.51-9.1C12.02,6.31,4.93,12.97,3.31,21.49c-.85,4.47-.17,8.7,1.53,12.36l1.58,2.83c7.15,12.62,33.69,30.17,33.69,30.17h.05Z"/><path class="cls-3" d="M40.19,62.92s26.53-17.57,33.67-30.2l1.58-2.83c1.7-3.66,2.38-7.89,1.53-12.36-1.63-8.52-8.72-15.17-17.33-16.21-8.16-.99-15.48,2.89-19.51,9.11C36.1,4.22,28.77,.35,20.61,1.35,12,2.4,4.91,9.07,3.3,17.59c-.85,4.47-.16,8.7,1.54,12.36l1.58,2.83c7.16,12.61,33.71,30.15,33.71,30.15h.05Z"/><path class="cls-1" d="M40.63,69.63h-.97l-.38-.26c-1.14-.78-27.97-19.32-35.48-33.09l-1.65-3.06c-1.44-3.21-2.15-6.51-2.15-9.9C0,10.46,10.09,0,22.5,0c6.94,0,13.39,3.28,17.64,8.87C44.4,3.28,50.85,0,57.79,0c12.41,0,22.5,10.46,22.5,23.32,0,3.39-.71,6.69-2.1,9.8l-1.69,3.15c-7.52,13.78-34.35,32.32-35.49,33.1l-.38,.26ZM22.5,2.95C11.72,2.95,2.95,12.09,2.95,23.32c0,2.97,.62,5.86,1.85,8.59l1.6,2.96c6.47,11.87,29.16,28.26,33.75,31.5,4.59-3.24,27.28-19.64,33.75-31.51l1.64-3.05c1.18-2.64,1.8-5.53,1.8-8.5,0-11.23-8.77-20.36-19.55-20.36-6.63,0-12.76,3.48-16.39,9.3l-1.25,2.01-1.25-2.01c-3.63-5.82-9.76-9.3-16.39-9.3Z"/><path class="cls-2" d="M55.54,10.9c1.03-.22,2.52-.18,3.59,.07,1.43,.34,2.41,.78,3.66,1.61,.56,.37,.79,.55,1.35,1.06,.51,.46,.99,.94,1.44,1.46,.53,.6,.75,.88,1.15,1.45s.8,1.21,1.17,1.84c.6,1.03,2,1.4,3.03,.79s1.4-1.99,.79-3.03c-1.73-2.96-3.98-5.66-6.9-7.53-3.1-1.98-6.86-2.77-10.46-2-1.17,.25-1.85,1.62-1.55,2.73,.33,1.21,1.55,1.8,2.73,1.55h0Z"/></g></g></svg>