<?xml version="1.0" encoding="UTF-8"?><svg id="Lag_2" xmlns="http://www.w3.org/2000/svg" width="233.81" height="202.06" viewBox="0 0 233.81 202.06"><defs><style>.cls-1{fill:#fff;}.cls-2{fill:#93856c;}.cls-3{fill:#84c967;}.cls-4{fill:#a67c52;}.cls-5{fill:#afef95;}.cls-6{fill:#374c1a;}.cls-7{fill:#605643;}.cls-8{fill:#603813;}.cls-9{fill:#754c24;}.cls-10{fill:#71ba56;}</style></defs><g id="Lag_2-2"><g><path class="cls-1" d="M41.78,111.77c1.93,0,1.93-3,0-3s-1.93,3,0,3h0Z"/><path class="cls-9" d="M209.66,113.57L73.11,183.75c-9.27,4.76-20.65,1.11-25.41-8.16L12.46,107.03c-4.76-9.27-1.11-20.65,8.16-25.41L157.18,11.44c9.27-4.76,20.65-1.11,25.41,8.16l35.24,68.56c4.76,9.27,1.11,20.65-8.16,25.41Zm22.54-13.57L184.86,7.88c-3.66-7.13-12.41-9.94-19.54-6.27L7.88,82.52c-7.13,3.66-9.94,12.41-6.27,19.54l47.34,92.12c3.66,7.13,12.41,9.94,19.54,6.27L225.93,119.54c7.13-3.66,9.94-12.41,6.27-19.54Z"/><path class="cls-4" d="M185.47,17.27c-4.76-9.27-16.14-12.92-25.41-8.16L16.69,82.05c-9.27,4.76-12.92,16.14-8.16,25.41l35.24,70.9c4.76,9.27,16.14,12.92,25.41,8.16L212.55,113.57c9.27-4.76,12.92-16.14,8.16-25.41L185.47,17.27Z"/><path class="cls-8" d="M226.33,91.31s19.23,21.29-9.34,31.73,18-8.38-4.81,2.61-9.07,4.53-9.07,4.53l-7.28,3.57-3.3,1.92-5.77,2.75-5.77,3.02-3.43,1.79-3.98,2.06-3.98,2.06-4.53,2.2-3.16,1.65-3.02,1.37-3.3,1.65-3.71,2.06-5.36,2.47-5.08,2.88-2.88,1.65-2.75,1.24-3.02,1.79-4.26,2.06-8.65,4.4-16.21,7.97-7.83,4.26-7.69,3.61-4.53,2.57-3.57,1.92-2.61,1.37-2.87,1.65-3.72,1.92-3.3,1.24-1.53,.62-5.84,1.09-1.7-.33-2.75-.82-2.75-2.2-1.79-1.65-1.3-2.01-1.61-3.41c-1.12-.1,11.2,8.29,17.37,5.14,3.41-1.74,15.21-7.09,15.21-7.09l5.77-2.76,5.91-2.63,6.32-3.3,10.17-5.36,7.89-4.67,6.81-4.12,7.69-3.57,4.67-1.65,7.14-3.43,5.77-3.57,6.18-3.02,6.18-3.3,11.4-6.59,14.97-8.65,13.05-7.14,16.07-7.87s15.39-6.42,9.48-25.65Z"/><path class="cls-2" d="M38.71,158.12c4.56,9.42,6.31,21.56,15.83,25.89,11.58,5.27,19.26-1.87,30.68-7.48,14.45-7.1,29.89-8.03,41.1-19.58,6.29-6.49,16.1-8.04,23.66-11.55,13.01-6.04,31.35-19.79,45.19-23.55,24.73-6.72,26.39-15.02,26.28-27.08-.1-10.02-6.02-8.43-10.85-22.99s-14.78-28.76-21.98-41.37c-4.88-8.54-7.26-29.58-15.46-24.15-21.55,14.27-43.42,18.66-49.54,25.18-27.34,29.11-42.12,13.74-61.44,31.64-22.75,21.09-42.52,14.13-50.44,26.49s8.21,26.35,9.3,41.33c.79,10.8,12.95,17.48,17.67,27.22Z"/><circle class="cls-6" cx="160.94" cy="73.51" r="46"/><ellipse class="cls-10" cx="160.94" cy="71.78" rx="42.22" ry="40.34"/><ellipse class="cls-3" cx="160.94" cy="71.78" rx="37.32" ry="35.65"/><path class="cls-5" d="M158.51,50.4c.06-1.42,.26-2.92,1.13-4.05s2.58-1.73,3.77-.95c.19,5.84-.92,12.64-4.03,17.68-.73-3.91-1.02-8.71-.87-12.67Z"/><path class="cls-5" d="M141.14,68.71c-1.4-.29-2.84-.73-3.82-1.77s-1.29-2.82-.33-3.87c5.8,.76,12.32,2.95,16.8,6.83-3.98,.09-8.76-.39-12.65-1.19Z"/><path class="cls-5" d="M154.21,89.02c-.62,1.28-1.41,2.57-2.66,3.26s-3.05,.55-3.83-.64c2.17-5.43,5.9-11.21,10.77-14.59-.9,3.87-2.55,8.39-4.28,11.96Z"/><path class="cls-5" d="M173.92,84.45c.72,1.23,1.35,2.6,1.24,4.02s-1.23,2.85-2.66,2.83c-3.31-4.82-6.04-11.14-6.15-17.06,2.72,2.9,5.57,6.78,7.57,10.2Z"/><path class="cls-5" d="M178.36,57.85c1.27-.65,2.67-1.21,4.08-1.02s2.77,1.39,2.68,2.81c-4.99,3.04-11.45,5.42-17.37,5.2,3.05-2.56,7.08-5.18,10.6-7Z"/><circle class="cls-6" cx="75.41" cy="119.51" r="46"/><ellipse class="cls-10" cx="75.41" cy="117.78" rx="42.22" ry="40.34"/><ellipse class="cls-3" cx="75.41" cy="117.78" rx="37.32" ry="35.65"/><path class="cls-5" d="M72.98,96.4c.06-1.42,.26-2.92,1.13-4.05s2.58-1.73,3.77-.95c.19,5.84-.92,12.64-4.03,17.68-.73-3.91-1.02-8.71-.87-12.67Z"/><path class="cls-5" d="M55.61,114.72c-1.4-.29-2.84-.73-3.82-1.77s-1.29-2.82-.33-3.87c5.8,.76,12.32,2.95,16.8,6.83-3.98,.09-8.76-.39-12.65-1.19Z"/><path class="cls-5" d="M68.67,135.02c-.62,1.28-1.41,2.57-2.66,3.26s-3.05,.55-3.83-.64c2.17-5.43,5.9-11.21,10.77-14.59-.9,3.87-2.55,8.39-4.28,11.96Z"/><path class="cls-5" d="M88.39,130.45c.72,1.23,1.35,2.6,1.24,4.02s-1.23,2.85-2.66,2.83c-3.31-4.82-6.04-11.14-6.15-17.06,2.72,2.9,5.57,6.78,7.57,10.2Z"/><path class="cls-5" d="M92.83,103.85c1.27-.65,2.67-1.21,4.08-1.02s2.77,1.39,2.68,2.81c-4.99,3.04-11.45,5.42-17.37,5.2,3.05-2.56,7.08-5.18,10.6-7Z"/><path class="cls-7" d="M29.41,142.41c2.37,4.29,6.58,7.29,8.66,11.72,4.75,10.13,14.8,17.58,25.87,19.17s33.89-10.42,41.3-18.79c-15.6,11.26-30.91,12.41-40.41,9.56-9.05-2.71-20.69-7.83-25.7-15.84-3.36-5.38-11.6-13.49-8.9-37.37,.37-3.3-3.19,20.7-2.7,23.89s.44,5.04,1.88,7.66Z"/><path class="cls-7" d="M114.67,96.2c2.37,4.29,6.58,7.29,8.66,11.72,4.75,10.13,14.8,17.58,25.87,19.17s33.89-10.42,41.3-18.79c-15.6,11.26-30.91,12.41-40.41,9.56-9.05-2.71-20.69-7.83-25.7-15.84-3.36-5.38-11.6-13.49-8.9-37.37,.37-3.3-3.19,20.7-2.7,23.89s.44,5.04,1.88,7.66Z"/></g></g></svg>