<?xml version="1.0" encoding="UTF-8"?><svg id="Lag_2" xmlns="http://www.w3.org/2000/svg" width="1920" height="1080" viewBox="0 0 1920 1080"><defs><style>.cls-1,.cls-2{fill:none;}.cls-3{fill:#f49c45;}.cls-4{fill:#fc3d3d;}.cls-5{fill:#020100;}.cls-6{fill:#f15a24;}.cls-7{fill:#f7931e;}.cls-8{fill:#fff;}.cls-9{fill:#fccea7;}.cls-10{fill:#ff9699;}.cls-11{fill:#7dd4ef;}.cls-12{fill:#92dbff;}.cls-13{fill:#8c6239;}.cls-14{fill:#a67c52;}.cls-15{fill:#cc9d3e;}.cls-16{fill:#e25124;}.cls-17{fill:#c69c6d;}.cls-18{fill:#202359;}.cls-2{stroke:#000;stroke-miterlimit:10;stroke-width:2px;}</style></defs><path class="cls-15" d="M636.82,969.73c-71.39-160.86-193.39-288.68-329.19-385.79C171.84,486.82,21.62,417.77-127.66,349.25c-38.09-17.48-82.59-34.73-118.78-12.83-41.49,25.12-48.74,86.68-51.08,139.07-5.87,131.32-11.74,262.64-17.61,393.96-7.29,163.07-12.09,337.56,65.17,476.5,86.16,154.95,259.04,229.01,423.06,230.77,95.22,1.02,189.3-18.8,280.87-46.4,54.1-16.3,157.46-29.51,201.37-71.02,103.34-97.71,29.74-380.82-18.52-489.58Z"/><g><path class="cls-12" d="M943.24,47.6c13.56-13.67,35.46-18.28,53.38-11.25,17.92,7.03,30.83,25.31,31.48,44.55,19.04-22.6,54.58-29.18,80.45-14.9,25.87,14.28,39.24,47.87,30.26,76.02,14.93-1.39,30.27-2.74,44.68,1.39,14.41,4.13,27.89,15.07,30.5,29.83,2.76,15.63-7.45,31.26-20.9,39.67-13.45,8.42-29.6,11.12-45.28,13.51-106.05,16.12-214.34,25.39-320.44,9.58-11.8-1.76-24.41-4.26-32.71-12.83-9.61-9.93-10.64-26.21-4.59-38.63,6.05-12.42,18.04-21.17,30.99-25.99,12.95-4.82,26.91-6.11,40.7-6.89-4.63-14.96-5.71-31.5-.05-46.1s18.91-26.75,34.49-28.34c14.83-1.51,26.14,7.26,33.26,19.24,1.95-2.3-.31-8.49-.41-11.89-.13-4.46,.33-8.94,1.34-13.29,2.06-8.86,6.44-17.21,12.87-23.69Z"/><path class="cls-8" d="M1061.04,84.56c13.12-3.25,28.09-5.38,40.11,2.39,5.45,3.53,8.94,9.03,11.31,14.96,1.75,4.37,2.09,11.83,6.36,14.47,2.43,1.51,5.33,.38,6.84-1.79l.21-.29c1.13-1.62,.85-4.79-.78-6.06l-.21-.17c-5.01-3.92-12.14,3.11-7.07,7.07l.21,.17-.78-6.06-.21,.29,6.84-1.79c2.77,1.72,.35-2.45-.13-3.9-.51-1.55-1.04-3.08-1.64-4.6-1.32-3.39-2.82-6.76-4.81-9.82-3.59-5.52-8.49-10.09-14.42-13-14.07-6.91-29.76-5.16-44.49-1.51-6.24,1.55-3.6,11.19,2.66,9.64h0Z"/><path class="cls-11" d="M813.82,188.66c2.34,10.72,10.67,19.36,20.29,24.63,9.62,5.27,20.52,7.65,31.26,9.85,42.02,8.58,84.43,15.27,127.06,20.05-53.36-.38-108.76,3.96-161.35-5.1-10.3-1.78-26.77-3.12-39.32-16.08-9.88-10.21-7.87-27.87-1.69-40.66,5.84-12.08,32.83-29.89,71.67-29.67-37.49,5.86-40.75,12.3-44.06,17.06-3.94,5.68-5.34,13.2-3.86,19.93Z"/></g><g><path class="cls-12" d="M1170.79,70c11.55-11.64,30.21-15.57,45.47-9.58,15.27,5.99,26.27,21.56,26.81,37.96,16.22-19.25,46.5-24.86,68.54-12.69,22.04,12.17,33.43,40.78,25.78,64.76,12.72-1.18,25.78-2.34,38.06,1.18s23.76,12.83,25.98,25.41c2.35,13.31-6.35,26.63-17.81,33.8-11.46,7.17-25.21,9.47-38.58,11.51-90.35,13.73-182.6,21.63-272.99,8.16-10.06-1.5-20.79-3.63-27.86-10.93-8.18-8.46-9.07-22.33-3.91-32.91,5.16-10.58,15.37-18.03,26.4-22.14,11.03-4.1,22.92-5.21,34.67-5.87-3.94-12.75-4.87-26.83-.04-39.27,4.82-12.44,16.11-22.79,29.39-24.14,12.63-1.29,22.27,6.18,28.34,16.39,1.66-1.96-.26-7.24-.35-10.13-.11-3.8,.28-7.62,1.14-11.32,1.76-7.55,5.49-14.66,10.96-20.18Z"/><path class="cls-8" d="M1271.35,102.2c10.79-2.66,23.24-4.56,33.21,1.7,4.23,2.66,7.05,6.63,9.08,11.13s2.33,9.79,5.35,13.42c2.22,2.67,6.18,1.39,7.85-1.01l.18-.25c1.13-1.62,.85-4.79-.78-6.06l-.18-.14c-5.01-3.92-12.14,3.11-7.07,7.07l.18,.14-.78-6.06-.18,.25,7.85-1.01c.77,.92-.41-2.5-.53-2.86-.48-1.5-.98-2.99-1.55-4.46-1.08-2.81-2.3-5.62-3.89-8.18-3.08-4.97-7.35-9.1-12.57-11.76-12.22-6.24-25.98-4.73-38.84-1.56-6.25,1.54-3.6,11.19,2.66,9.64h0Z"/><path class="cls-11" d="M1060.53,190.17c1.99,9.13,9.09,16.49,17.28,20.98,8.19,4.49,17.48,6.52,26.63,8.39,35.8,7.31,71.93,13.01,108.24,17.08-45.46-.32-92.65,3.37-137.45-4.35-8.78-1.51-22.8-2.66-33.49-13.7-8.42-8.7-6.7-23.74-1.44-34.64,4.97-10.29,27.97-25.46,61.06-25.27-31.94,4.99-34.72,10.47-37.54,14.53-3.36,4.83-4.54,11.24-3.29,16.98Z"/></g><line class="cls-1" x1="1094.6" y1="715.51" x2="1365.58" y2="607.6"/><line class="cls-1" x1="1094.6" y1="715.51" x2="1353.78" y2="612.3"/><path class="cls-15" d="M2030.12,1130.56c60.37-7.2,100.15-133.26,57.64-190.84-100.06-135.52-502.69-3.75-666.26-25.43-241.93-32.07-913.58,2.04-949.58-149.73-42.42-178.83-5.42,103.22-146.46,183.6-35.99,20.51-73.71,46.22-55.44,86.9,20.95,46.64,102.49,86.26,173.11,116.95,177,76.92,306.79-58.4,483.78,18.52,219.79,95.52,438.39,24.34,652.33,39.69"/><g><path class="cls-7" d="M974.97,831.83l.34,.05c5.13,.72,8.22,3.24,6.88,5.6l-19.23,33.77c-1.34,2.36-6.64,3.7-11.77,2.98l-.34-.05c-5.13-.72-8.22-3.24-6.88-5.6l19.23-33.77c1.34-2.36,6.64-3.7,11.77-2.98Z"/><line class="cls-2" x1="1618.76" y1="985.83" x2="1648.68" y2="1042.43"/><path class="cls-6" d="M1624.81,817s95.7,5.84,113.61,51.51c17.91,45.67,26.27,67.89,26.27,67.89,0,0,2.83,9.19-20.91,30.85-24.18,22.06-67.24,65.83-67.24,65.83,0,0-17.09,15.17-58.62,11.15-28.5-2.76-434.27-29.15-560.63-37.35-27.29-1.77-50.76-10.49-60.6-22.58-1.5-1.85-4.72-6.06-4.72-6.06-8.68-22.52-30.87-67.06-30.87-67.06l40.64-104.01s26.38-30.02,203.96-18.07c177.58,11.95,419.12,27.88,419.12,27.88Z"/><path class="cls-17" d="M1575.35,811.81s167.66,1.05,139.15,69.06c-18.42,43.92-31.43,60.8-34.06,62.47-1.13,.71,4.34-5.21,3.65-4.37-45.64,54.92-48.33,51.27-173.7,44.34-148.63-8.21-473.78-33.11-473.78-33.11,0,0-112.27-4.26-75-81.45,29.39-60.87,36.9-64.41,36.9-64.41,0,0,29-30.97,151.07-21.86,122.08,9.11,425.78,29.34,425.78,29.34Z"/><path class="cls-7" d="M1717.9,895.97l.34,.04c5.16,.66,8.4,3.14,7.19,5.52l-17.31,34.03c-1.21,2.38-6.42,3.79-11.58,3.13l-.34-.04c-5.16-.66-8.4-3.14-7.19-5.52l17.31-34.03c1.21-2.38,6.42-3.79,11.58-3.13Z"/><path class="cls-13" d="M1648.24,934.7l-1.14,.89c-.65,.52-1.4,1.12-1.44,1.65-38.18,42.5-42.8,42.25-134.75,37.29-5.72-.31-11.77-.64-18.18-.97-130.89-6.85-419.02-27.86-421.91-28.07-.5-.02-34.6-1.54-55.33-15.13-18.74-12.29-21.17-30.35-7.23-53.68,8.42-14.09,14.86-24.62,19.77-32.51,17.85-3.46,38.9-4.82,58.51-5.53,164.4-5.92,332.52,3.56,491.33,27.7,22.61,3.44,45.41,7.26,64.75,13.81,11.63,3.94,21.92,9.03,28.83,14.83-11.96,24.43-19.57,35.62-23.14,39.72h-.06Z"/><path class="cls-14" d="M1577.86,866.36c-158.81-24.15-326.93-33.63-491.33-27.7-19.61,.71-40.66,2.07-58.51,5.53,11.52-18.5,14.62-22.36,15.05-22.86,1.03-.83,1.79-2.07,2.75-3.64,5.52-9,17-27.74,107.3-19.85,118.73,10.37,399.71,29.71,402.53,29.91h.3c.71,.02,71.87,.61,105.54,19.97,16.84,9.69,21.66,22.52,14.32,38.14-1.52,3.24-2.98,6.28-4.39,9.15-6.91-5.8-17.19-10.89-28.83-14.83-19.33-6.55-42.14-10.37-64.75-13.81Z"/><line class="cls-1" x1="1503.48" y1="830.04" x2="1114.55" y2="802.58"/><line class="cls-1" x1="1503.48" y1="830.04" x2="1131.49" y2="803.78"/><path class="cls-16" d="M1646.06,1032.79c1.43,3.78,6.89,9.28,0,11.22-6,1.69-22.51,.92-29.62,.43-91.44-6.27-182.28-12.35-273.72-18.62,30.05,1.45,59.58,2,89.63,3.45,59.28,2.85,124.88,12.21,181.88,5.49,4.5-.53,12.7-3.82,12.86-8.09,.05-1.39-3.86-13.15-.45-13.05,7.26,.22,18.43,16.59,19.41,19.17Z"/><path class="cls-16" d="M1642.21,1014.97c2.26,3.64,4.62,7.37,11,10.1,1.66,.71,3.6,1.29,5.7,1.66,10.94,1.9,21.31-1.55,27.71-5.09-10.13,11.13-14.95,18.7-45.57,23.11-14.51-17.6-20.54-40.1-24.47-58.68,0,0,.97-.14,2.4-.29,.15-.02,4.66-.73,4.66-.73,.07,.45,1.18,1.97,1.86,3.06,1.86,2.98,3.71,5.97,5.57,8.95,3.71,5.97,7.42,11.94,11.13,17.91Z"/><path class="cls-3" d="M1708.88,934.09c-.47,.87-.95,2.15-2.07,2.88-1.23,.8-3.25,1.36-5.01,1.71-2.04,.4-4.29,.26-7.28-.34-1.07-.21-2.62-.7-3.27-1.15-1.37-.94-3.64-1.9,3.51-1.15,3.13,.33,4.71-1.88,6.42-3.1,2.51-1.79,4.86-3.63,7.04-5.52s4.41-3.21,6.65-5.09c-.48,.97-.61,1.23-.91,1.8-.62,1.13-1.19,2.42-1.81,3.56-1.23,2.24-2.03,4.16-3.25,6.4Z"/><path class="cls-16" d="M1001.12,945.53c12.96,2.95,12.2,3.61,33.22,5.86,14.82,1.59,14.42,.9,26.99,1.77-12.57-.87-9.69,.11-16.73-.29-7.04-.4-5.57-.24-12.1-.67-9.36-.61-6.04-.88-15.41-1.42-7.08-.41-14.77-.56-20.59,1.23-4.81,1.49-7.52,4.12-8.48,6.8-.95,2.68-1.25,5.55-.65,8.29-3.58-7.84-7.16-16.05-10.9-24.05-.92-1.97-1.84-3.87-2.76-5.84-.5-1.07-4.82-8.04-2.85-6.38,1.62,1.36,3.18,2.35,3.94,2.89,1.92,1.37,4.09,2.61,6.51,3.91,5.36,2.88,13.79,6.53,19.8,7.9Z"/><path class="cls-16" d="M1620.9,1004.33c-.2-3.49-5.78-6.62-12.42-8.35-6.64-1.74-14.26-2.34-21.69-2.92-69.02-5.36-433.99-32.87-503.01-38.23,54.12,2.94,404.19,28.04,458.31,30.98,25.54,1.39,52.56,2.68,75.26,.21"/><path class="cls-16" d="M1055.32,998.49c10.69,2.04,21.89,3.35,33.05,4.65,27.23,3.17,55.42,7.98,82.66,11.15-31.92-2.08-62.76-3.68-93.58-5.57-21.56-1.32-30.59-.54-52.76-7.77-16.19-5.29-29.1-13.16-33.58-25.39-.87-2.37-3.68-7.89-4.48-10.14,2.01,.62,4.15,4.25,5.23,5.28,1.41,1.34,2.93,2.65,4.57,3.94,3.28,2.57,6.99,5.03,11.1,7.34,8.14,4.59,17.8,8.6,28.52,11.82,6.11,1.84,12.57,3.42,19.27,4.7Z"/><path class="cls-16" d="M1650.28,974.11s-4.08,3.02-11.05,6.28c-3.87,1.81-.14,.27-11.19,3.73-1.49,.47-10.19,1.06-7.42,4.95,3.12,4.37,10.52,8.63,13.3,13.05-2.26-3.51-1.02-7.28,1.73-10.62,2.75-3.34,6.95-6.35,10.82-9.42,9.63-7.65,16.68-16.36,22.37-24.88"/><path class="cls-16" d="M1667.88,824c22.05,4.97,40.26,13.07,53.09,22.61,15.87,11.81,21.51,26.65,24.65,40.3-2.62-1.95-5.04-4.95-7.3-6.99-2.27-2.04-6.35-3.97-11.2-3.96-3.45,0-6.52,1.02-8.48,2.31s-4.32,3.87-5.32,5.4c1.46-8.42,4.26-17.94,2.04-26.39-2.22-8.45-9.27-16.51-21.4-23.05-3.51-1.89-7.56-3.61-11.86-5.11-2.54-.89-5.07-1.77-7.61-2.66-2.42-.84-4.19-1.61-6.61-2.46Z"/><path class="cls-16" d="M1717.42,930.17c-1.7,3.02-5.99,10.3-10.94,12.37-4.95,2.06-13.7,2.48-18.22,.05-2.31-1.24-3.07-2.99-2.61-4.58s2.33-5.22,4.21-6.54c-1.41,1.57-.16,5.05,2.55,6.28,2.72,1.23,6.05,1.64,9.38,.94,4.91-1.03,6.05-2.81,7.24-5.28,3.17-6.56,7.13-13.48,10.15-20.06,1.55-3.4,3.23-7.7,5.98-10.89-.09,5.08-1.55,12.95-2.34,15.17-.99,2.81-2.12,5.6-3.39,8.38-.63,1.39-1.3,2.77-2.01,4.15-.48,.94-.53-.91,0,0Z"/><path class="cls-16" d="M1736.99,972.55c8.8-6.9,14.13-13.73,20.55-20.59,2.35-2.51,4.98-5,6.06-7.71,1.38-3.47,1.5-6.91,.16-10.32-4.75-12.14-9.02-23.54-14.37-37.35,5.52,12.35,5.72,25.69,5.91,38.22,.07,4.59-.22,9.2-2.11,13.67-1.04,2.46-2.56,4.86-4.07,7.26-2.41,3.82-4.83,7.65-7.24,11.47"/><path class="cls-17" d="M1007.94,924.1c4.4,2.74,1.66,7.49-4.5,9.12-4.45,1.18-10.52,.28-14.34-1.43s-5.93-4.07-7.93-6.35c-5.47-6.23-10.93-12.46-16.4-18.7-5.1-5.81-10.3-12.08-7.45-18.07,4.29-9.02,37.88-12.71,36.11-3.31-2.27,12.04-.93,29.14,14.51,38.74Z"/></g><path class="cls-9" d="M631.49,827.46c0,147.79-86.5,198.49-198.95,198.49s-208.28-50.71-208.28-198.49,91.16-267.59,203.61-267.59,203.61,119.8,203.61,267.59Z"/><circle class="cls-8" cx="743.25" cy="876.91" r="1.88"/><circle class="cls-8" cx="693.47" cy="855.89" r="1.88"/><circle class="cls-8" cx="732.12" cy="853.17" r="1.88"/><path class="cls-8" d="M416.04,276.35l-2.73,.19c5.52,9.83,10.01,20.17,13.44,30.81,.77-.52,1.46-1.15,2.02-1.9-3.31-10.04-7.57-19.78-12.72-29.11Z"/><ellipse class="cls-9" cx="420.92" cy="435.79" rx="164.92" ry="157.4"/><path class="cls-18" d="M264.89,339.7c12.55-46.16,46.81-85.92,90.62-105.15,5.14,8.26,15.77,12.09,25.42,10.85,12.28-1.58,23.21-10.91,26.7-22.79,16.48-2.73,33.89-3.63,50.15,.23,28.65,6.81,54.32,23.64,74.62,44.97,17.03,17.89,30.81,39.54,36.12,63.67-89.56,5.42-179.12,10.85-268.68,16.27-11.89,.72-25.72-.52-34.95-8.04Z"/><path class="cls-1" d="M364.33,232.37c-34.58,26.22-60.41,63.78-72.52,105.44"/><path class="cls-1" d="M423.83,248.17c15.59,2.64,31.04,6.66,45.41,13.27,14.37,6.61,27.67,15.87,37.83,27.99,14.93,17.81,22.31,40.58,29.34,62.73"/><path class="cls-1" d="M400.06,228.73c19.95,7.21,35.23,24.06,45,42.89,9.77,18.83,14.7,39.73,19.55,60.38"/><path class="cls-1" d="M374.97,239.32c-23.82,26.22-35.51,63.03-31.19,98.19"/><rect class="cls-4" x="257.43" y="335.75" width="327.21" height="54.49" rx="11.1" ry="11.1" transform="translate(-9.91 11.82) rotate(-1.59)"/><path class="cls-18" d="M354.19,235.24c-2.4,1.16-4.99,2.74-5.41,5.2-.3,1.78,.66,3.53,1.77,5.01,6.67,8.97,19.63,13,31.28,11.18,11.65-1.82,21.85-8.79,28.79-17.59,1.69-2.14,10.4-7.95,10.56-10.59,.35-5.96-5.44-6.26-9.92-6.42-5.93-.21-13.66,1.01-19.6,1.53-11.6,1.01-27.13,6.69-37.46,11.67Z"/><circle class="cls-4" cx="413.31" cy="211.64" r="30.3"/><path class="cls-9" d="M355.05,526.76c-.57-.15-1.16-.16-1.74-.09,.53-.04,1.11-.03,1.74,.09Z"/><path class="cls-9" d="M237.36,419.99c-5.61,12.27-.18,26.82,12.09,32.43,5.81,2.65,12.41,2.89,18.39,.76-2.23-15.19-2.34-30.7-.17-46.12-11.78-4.11-25.02,1.36-30.31,12.94Z"/><path class="cls-9" d="M595.5,415.26l1.07,35.54c.99-11.91,.61-23.82-1.07-35.54Z"/><polygon class="cls-9" points="596.73 456.05 596.67 454.04 596.73 456.05 596.73 456.05"/><path class="cls-5" d="M373.82,410.99c-17.64-7.47-38.07,.8-45.54,18.44-7.23,17.06,.3,36.69,16.76,44.73-3.02-1.79-5.25-4.56-6.26-7.94-1.07-3.56-.69-7.33,1.08-10.61,1.76-3.28,4.7-5.67,8.26-6.74,3.57-1.07,7.33-.69,10.61,1.08,3.28,1.76,5.67,4.7,6.74,8.26,1.07,3.56,.69,7.33-1.08,10.61-1.76,3.28-4.7,5.67-8.26,6.74-2.43,.73-4.94,.77-7.34,.17,17.14,6.02,36.29-2.24,43.47-19.19,7.47-17.64-.8-38.07-18.44-45.54Zm-11.74,40.57c-10.11-4.28-14.85-15.99-10.57-26.1,4.28-10.11,15.99-14.85,26.1-10.56,10.11,4.28,14.85,15.99,10.56,26.1-4.28,10.11-15.99,14.85-26.1,10.56Z"/><path d="M396.99,458.54c8.58-20.25-.92-43.7-21.16-52.28-20.25-8.58-43.7,.92-52.28,21.16-8.58,20.25,.92,43.7,21.16,52.28,20.25,8.58,43.7-.92,52.28-21.16Zm-71.08-30.11c8.04-18.97,29.94-27.84,48.91-19.8,18.97,8.04,27.84,29.94,19.8,48.91-8.04,18.97-29.94,27.84-48.91,19.8-18.97-8.04-27.84-29.94-19.8-48.91Z"/><path d="M394.63,457.54c8.04-18.97-.83-40.87-19.8-48.91-18.97-8.04-40.87,.83-48.91,19.8-8.04,18.97,.83,40.87,19.8,48.91,18.97,8.04,40.87-.83,48.91-19.8Zm-45.84,18.19c-.7-.17-1.4-.39-2.08-.68-.4-.17-.8-.36-1.19-.57-.17-.09-.31-.22-.48-.32-16.46-8.03-23.98-27.67-16.76-44.73,7.47-17.64,27.9-25.91,45.54-18.44,17.64,7.47,25.91,27.9,18.44,45.54-7.18,16.95-26.33,25.21-43.47,19.19Z"/><path class="cls-8" d="M375.61,419.63c-7.5-3.18-16.18,.34-19.36,7.84s.34,16.18,7.84,19.36c7.5,3.18,16.18-.34,19.36-7.84,3.18-7.5-.34-16.18-7.84-19.36Z"/><path d="M377.61,414.9c-10.11-4.28-21.81,.46-26.1,10.56-4.28,10.11,.46,21.81,10.57,26.1,10.11,4.28,21.81-.46,26.1-10.56,4.28-10.11-.46-21.81-10.56-26.1Zm-14.53,34.29c-8.82-3.74-12.94-13.91-9.2-22.73,3.74-8.82,13.91-12.94,22.73-9.2,8.82,3.74,12.94,13.91,9.2,22.73-3.74,8.82-13.91,12.94-22.73,9.2Z"/><path d="M376.61,417.27c-8.82-3.74-18.99,.38-22.73,9.2-3.74,8.82,.38,18.99,9.2,22.73,8.82,3.74,18.99-.38,22.73-9.2,3.74-8.82-.38-18.99-9.2-22.73Zm-12.52,29.56c-7.5-3.18-11.01-11.86-7.84-19.36s11.86-11.01,19.36-7.84,11.01,11.86,7.84,19.36c-3.18,7.5-11.86,11.01-19.36,7.84Z"/><path class="cls-8" d="M360.54,459.69c-.67-2.25-2.18-4.1-4.25-5.21-.25-.13-.5-.25-.75-.36-1.88-.8-3.96-.91-5.94-.32-2.25,.67-4.1,2.18-5.21,4.25-1.11,2.07-1.35,4.45-.68,6.69,.68,2.25,2.19,4.1,4.25,5.22,2.07,1.1,4.44,1.35,6.69,.68,2.25-.67,4.1-2.18,5.21-4.25,1.11-2.07,1.35-4.45,.68-6.69Z"/><path d="M364.39,468.82c1.76-3.28,2.15-7.04,1.08-10.61-1.07-3.56-3.46-6.5-6.74-8.26-3.28-1.77-7.04-2.15-10.61-1.08-3.56,1.07-6.5,3.46-8.26,6.74-1.76,3.28-2.15,7.04-1.08,10.61,1.01,3.38,3.24,6.15,6.26,7.94,.56,.27,1.1,.57,1.68,.81,.68,.29,1.38,.51,2.07,.76,2.4,.6,4.91,.56,7.34-.17,3.56-1.07,6.5-3.46,8.26-6.74Zm-23.15-3.34c-1.8-6.01,1.61-12.34,7.62-14.15,6.01-1.8,12.34,1.61,14.15,7.62s-1.61,12.34-7.62,14.15c-6.01,1.8-12.34-1.61-14.15-7.62Z"/><path d="M345.04,474.16c.17,.1,.31,.23,.48,.32,.39,.21,.79,.4,1.19,.57,.68,.29,1.37,.5,2.08,.68-.69-.24-1.39-.47-2.07-.76-.58-.25-1.12-.54-1.68-.81Z"/><polygon points="279.56 377.96 279.61 377.96 279.56 377.96 279.56 377.96"/><path class="cls-10" d="M479.41,500.63c-.11,8.82,12.2,16.13,27.49,16.32,15.3,.19,27.79-6.8,27.9-15.62,.11-8.82-12.2-16.13-27.49-16.32-15.3-.19-27.79,6.8-27.9,15.62Z"/><ellipse class="cls-10" cx="344.79" cy="500.98" rx="15.97" ry="27.7" transform="translate(-160.49 839.42) rotate(-89.28)"/><path d="M433.36,505.57c6.89-1.33,13.49-3.88,19.42-7.56h0c-6.38,2.42-12.94,4.54-19.75,4.9-5.71,.2-13.25,0-16.15-5.57l-4.59,2.32c4.33,7.17,13.91,7.2,21.06,5.91Z"/><path d="M444.31,493.72c-6.71-5.4-10.39-15.31-7.19-23.23l-4.91-1.5c-1.74,6.7,0,13.98,4.07,19.39,3.87,5.13,9.57,9.04,15.88,10.15h0c-2.82-1.39-5.54-2.8-7.85-4.8Z"/><path d="M531.43,414.31l3.79-3.47c-10.91-11.93-25.52-22.14-31.82-16.38l3.47,3.79c1.9-1.74,12.67,3.04,24.56,16.05Z"/><path d="M348.01,400.9l4.12-3.07c-5.09-6.87-21.38,.4-34.35,10.04l3.07,4.13c14.15-10.52,25.62-13.18,27.16-11.1Z"/><path class="cls-9" d="M600.8,433.54c5.12-12.48-.86-26.81-13.35-31.93-5.91-2.43-12.51-2.41-18.41-.04,2.82,15.09,3.53,30.59,1.97,46.08,11.94,3.65,24.95-2.33,29.78-14.11Z"/><circle cx="494.17" cy="442.96" r="40.38"/><path class="cls-8" d="M485.88,419.63c-7.5-3.18-16.18,.34-19.36,7.84-3.18,7.5,.34,16.18,7.84,19.36,7.5,3.18,16.18-.34,19.36-7.84,3.18-7.5-.34-16.18-7.84-19.36Z"/><path class="cls-8" d="M363.01,458.95c-1.8-6.01-8.14-9.42-14.15-7.62-6.01,1.8-9.42,8.14-7.62,14.15s8.14,9.42,14.15,7.62c6.01-1.8,9.42-8.14,7.62-14.15Zm-8.36,11.69c-2.25,.67-4.63,.42-6.69-.68-2.07-1.11-3.58-2.97-4.25-5.22-.67-2.25-.43-4.63,.68-6.69,1.11-2.07,2.97-3.58,5.21-4.25,1.98-.6,4.06-.48,5.94,.32,.26,.11,.51,.23,.75,.36,2.07,1.11,3.58,2.96,4.25,5.21,.68,2.25,.43,4.63-.68,6.69-1.11,2.07-2.96,3.58-5.21,4.25Zm142.05,0c-2.25,.67-4.63,.42-6.69-.68-2.07-1.11-3.58-2.97-4.25-5.22-.67-2.25-.43-4.63,.68-6.69,1.11-2.07,2.97-3.58,5.21-4.25,1.98-.6,4.06-.48,5.94,.32,.26,.11,.51,.23,.75,.36,2.07,1.11,3.58,2.96,4.25,5.21,.68,2.25,.43,4.63-.68,6.69-1.11,2.07-2.96,3.58-5.21,4.25Z"/><path class="cls-8" d="M460.03,251.43c23.6,4.56,44.52,18.4,57.57,38.65,3.48,5.39,12.14,.38,8.63-5.05-14.39-22.32-37.43-38.19-63.55-43.24-6.29-1.22-8.98,8.42-2.66,9.64h0Z"/><path d="M388.9,561.9c14.31,3.44,28.91,5.67,43.59,6.65,13.16,.88,27.13,.56,38.46-6.19,6.51-3.87,11.93-10.02,13.64-17.4,1.7-7.38-.91-15.91-7.22-20.1-4.55-3.02-10.27-3.51-15.72-3.9-15.48-1.1-30.97-2.07-46.46-2.88-11.74-.62-28.1-4.37-39.42,.13-8.31,3.3-11.61,11.17-11.5,19.84,.2,14.79,11.76,20.75,24.63,23.85Z"/><path class="cls-9" d="M631.49,847.26l6.83-6.92c51.67-51.63,87.8-72.16,88.29-72.43l2.91-1.62-3-1.57c-1.42-.74-142.19-74.77-187.37-143.12-.23-.29-9.41-11.3-3.7-22.25,.47-.02,1.05-.04,1.73-.04,15.18,0,82.29,7.48,216.12,122.07l.35,.26c2.77,1.72,67.02,42.91,4.94,105.53-65.98,66.55-103.15,98.39-115.93,106-13.65,8.12-73.37,36.61-88.6,29.93-5.51-2.42-9.97-12.51,22.16-52.92,19.8-24.91,38.71-46,56.04-63.73l-.79,.81h0Z"/><path class="cls-4" d="M141.08,646.71c6.92,7.01,17.16,12.33,21.27,17.05,1.56,1.78,2.89,3.12,4.04,4.4,6.46,7.25,24.82,41.12,25.64,81.36,.07,3.18,3.41,5.34,6.52,4.65,3.71-.83,8.86-.47,14.01-.11,7.43,.52,13.24,6.64,13.38,14.09,1.16,62.55,.04,86.46,.04,86.46,8.59,10.15,44.62,67.84,44.62,67.84l37.45,42.58c-40.88,20.87-59.45-29.71-61.2,11.49-2.23,52.41,4.69,45.86,22.71,46.3,66.52,1.63,344.71,3.26,343.97-.1-15.75-71.44,32.97-182.11,17.22-253.55-2.44-11.05,10.23-19.14,19.23-12.28l8.35,6.36c3.07,2.34,7.48,.79,8.51-2.93,10.68-38.59-.99-83.43,36.84-114.43,3.3-2.71,2.43-7.96-1.61-9.36-58.28-20.23-128.44-30.7-185.32-52.08-1.87-.7-42.16,62.21-82.49,53.11-109.5-24.72-55.49-66.23-87.75-55.75-141.53,45.99-155.49,38.5-203.4,56.05-3.66,1.34-4.77,6.05-2.03,8.83Z"/><path class="cls-9" d="M282.12,921.31c-20.93-26.34-40.92-48.65-59.27-67.45l-6.87-6.96c-55.04-55-93.53-76.87-94.06-77.16l-3.1-1.73,3.19-1.67c.67-.35,30.51-16.05,67.72-39.75-1.82-16-6.94-31.87-14.84-45.8-.85-1.5-1.56-2.99-2.19-4.47-.44-.55-.83-1.13-1.18-1.74-.63-.54-1.21-1.12-1.67-1.82-29.64,14.9-57.12,30.96-76.37,47.44l-.37,.27c-2.95,1.84-71.4,45.71-5.26,112.42,70.28,70.89,109.88,104.81,123.5,112.92,14.54,8.65,78.16,39,94.38,31.89,5.87-2.58,10.62-13.32-23.61-56.38Z"/><g><path class="cls-12" d="M1388.67,72.54c12.23-10.93,31.09-13.73,45.97-6.83,14.88,6.9,24.92,23.1,24.49,39.5,17.34-18.24,47.91-22.02,69.18-8.55,21.27,13.47,30.92,42.71,21.84,66.19,12.76-.42,25.88-.78,37.92,3.47s22.95,14.24,24.41,26.93c1.55,13.43-7.94,26.2-19.81,32.67-11.87,6.47-25.74,7.94-39.2,9.17-91.01,8.28-183.57,10.63-272.98-8.25-9.95-2.1-20.54-4.87-27.16-12.59-7.66-8.93-7.71-22.84-1.93-33.08,5.78-10.25,16.42-17.08,27.68-20.51,11.26-3.43,23.2-3.82,34.96-3.78-3.17-12.96-3.25-27.08,2.31-39.2,5.56-12.13,17.45-21.78,30.78-22.33,12.69-.52,21.86,7.51,27.3,18.07,1.78-1.86,.17-7.24,.26-10.13,.11-3.8,.74-7.59,1.82-11.23,2.21-7.43,6.36-14.31,12.15-19.48Z"/><path class="cls-8" d="M1487.4,110.65c10.71-1.97,22.87-2.96,32.35,3.49,4.19,2.85,6.94,7.04,8.71,11.73,1.48,3.92,1.59,9.78,4.05,13.12,1.68,2.29,5.66,3.79,7.85,1.01l.19-.24c1.59-2.01,2.21-5.12,0-7.07l-.17-.15c-4.81-4.25-11.91,2.8-7.07,7.07l.17,.15v-7.07l-.19,.24,7.85,1.01c-1.39-1.89-1.54-6.21-2.28-8.52-.92-2.86-2.03-5.73-3.46-8.37-2.77-5.15-6.91-9.42-11.95-12.39-11.81-6.95-25.75-6.04-38.72-3.66-6.32,1.16-3.64,10.8,2.66,9.64h0Z"/><path class="cls-11" d="M1271.39,185.87c1.44,9.23,8.08,17.01,15.99,21.98,7.91,4.98,17.05,7.56,26.08,9.97,35.3,9.44,71.02,17.3,107.02,23.55-45.35-3.05-92.69-2.2-136.94-12.59-8.67-2.04-22.6-4.03-32.61-15.69-7.88-9.19-5.27-24.1,.65-34.66,5.58-9.97,29.45-23.74,62.47-21.56-32.18,3.06-35.29,8.37-38.34,12.25-3.64,4.62-5.21,10.95-4.31,16.75Z"/></g><g><path class="cls-12" d="M1604.3,50.3c13.53-12.09,34.4-15.19,50.87-7.56,16.46,7.63,27.58,25.57,27.1,43.71,19.19-20.19,53.02-24.37,76.55-9.47,23.53,14.9,34.21,47.27,24.17,73.25,14.13-.46,28.64-.87,41.96,3.84s25.39,15.76,27.01,29.8c1.71,14.86-8.78,28.99-21.92,36.15-13.14,7.16-28.48,8.79-43.38,10.14-100.71,9.16-203.14,11.76-302.08-9.13-11.01-2.32-22.73-5.39-30.05-13.93-8.48-9.89-8.53-25.27-2.13-36.61,6.4-11.34,18.18-18.9,30.63-22.7s25.67-4.23,38.69-4.18c-3.51-14.34-3.59-29.96,2.56-43.38,6.15-13.42,19.31-24.1,34.06-24.71,14.04-.58,24.19,8.31,30.21,19.99,1.97-2.06,.19-8.01,.29-11.21,.13-4.21,.81-8.4,2.01-12.43,2.44-8.22,7.04-15.83,13.45-21.56Z"/><path class="cls-8" d="M1713.41,91.96c12.52-2.3,27.22-3.4,37.84,5.08,4.81,3.85,7.51,9.45,9.3,15.21,1.32,4.27,1.27,10.35,5.18,13.11,1.62,1.15,4.78,.83,6.06-.78l.21-.27c1.59-2.01,2.21-5.12,0-7.07l-.19-.17c-4.81-4.25-11.91,2.8-7.07,7.07l.19,.17v-7.07l-.21,.27,6.06-.78-.32-.23,2.3,2.99c-2.26-6.17-3.02-12.61-5.99-18.61s-7.52-10.93-13.19-14.35c-12.98-7.84-28.49-6.85-42.81-4.21-6.32,1.16-3.64,10.8,2.66,9.64h0Z"/><path class="cls-11" d="M1474.52,175.7c1.6,10.22,8.94,18.82,17.69,24.33,8.75,5.51,18.87,8.36,28.86,11.04,39.06,10.45,78.59,19.15,118.42,26.06-50.19-3.38-102.56-2.43-151.54-13.94-9.59-2.25-25.01-4.45-36.09-17.36-8.72-10.17-5.83-26.67,.72-38.36,6.18-11.03,32.59-26.27,69.13-23.86-35.61,3.39-39.05,9.26-42.43,13.56-4.03,5.12-5.77,12.11-4.77,18.53Z"/></g></svg>