<?xml version="1.0" encoding="UTF-8"?><svg id="Lag_2" xmlns="http://www.w3.org/2000/svg" width="157.92" height="157.32" viewBox="0 0 157.92 157.32"><defs><style>.cls-1{fill:none;}.cls-2{fill:#fff;}.cls-3{fill:#ff9e3e;}.cls-4{fill:#fc704f;}.cls-5{fill:#ff8f29;}</style></defs><g id="Lag_1-2"><g><rect class="cls-5" x="6.08" y="13.16" width="142.84" height="137.47" rx="20.81" ry="20.81"/><rect class="cls-3" x="11.79" y="2.11" width="134.63" height="134.12" rx="20.81" ry="20.81"/><path class="cls-4" d="M122.65,156.73H35.63c-19.28,0-34.97-15.63-34.97-34.84V35.05C.66,15.84,16.35,.22,35.63,.22H122.65c19.28,0,34.97,15.63,34.97,34.84V121.89c0,19.21-15.69,34.84-34.97,34.84ZM35.63,12.09c-12.71,0-23.05,10.3-23.05,22.96V121.89c0,12.66,10.34,22.96,23.05,22.96H122.65c12.71,0,23.05-10.3,23.05-22.96V35.05c0-12.66-10.34-22.96-23.05-22.96H35.63Z"/><path class="cls-1" d="M127.01,157.32H30.9c-17.04,0-30.9-13.81-30.9-30.79V30.79C0,13.81,13.86,0,30.9,0H127.01c17.04,0,30.9,13.81,30.9,30.79V126.54c0,16.98-13.86,30.79-30.9,30.79ZM30.9,3.78C15.96,3.78,3.79,15.89,3.79,30.79V126.54c0,14.89,12.16,27.01,27.11,27.01H127.01c14.95,0,27.11-12.12,27.11-27.01V30.79c0-14.89-12.16-27.01-27.11-27.01H30.9Z"/><path class="cls-2" d="M110.3,26.64c4.85,.03,10.11,.17,14.51,2.46,1.92,1,3.18,1.97,4.58,3.62,.16,.19,.02,0,.26,.33,.14,.19,.27,.39,.4,.59,.29,.45,.55,.91,.78,1.39,.27,.56-.22-.66,.16,.36,.08,.22,.16,.44,.22,.67s.13,.45,.18,.68c0-.01,.18,1,.12,.54,.21,1.74,1.35,3.24,3.25,3.24,1.6,0,3.46-1.49,3.25-3.24-.69-5.79-4.25-10.55-9.29-13.43-5.55-3.18-12.16-3.66-18.43-3.69-4.18-.02-4.19,6.46,0,6.48h0Z"/></g></g></svg>