<?xml version="1.0" encoding="UTF-8"?><svg id="Lag_2" xmlns="http://www.w3.org/2000/svg" width="322.44" height="128.2" viewBox="0 0 322.44 128.2"><defs><style>.cls-1{fill:#fff;}.cls-2{fill:#7def7d;}.cls-3{fill:#666;}.cls-4{fill:#b0f7b0;}.cls-5{fill:#39d167;}</style></defs><g id="Lag_1-2"><g><g><rect class="cls-2" x="11.79" y="6.99" width="288.76" height="111.48" rx="27.29" ry="27.29"/><rect class="cls-4" x="24.21" y="1.87" width="273.74" height="107.47" rx="26.48" ry="26.48"/><path class="cls-5" d="M250.6,128.2H71.83C32.22,128.2,0,115.4,0,99.67V28.53C0,12.8,32.22,0,71.83,0H250.6c39.61,0,71.83,12.8,71.83,28.53V99.67c0,15.73-32.22,28.53-71.83,28.53ZM71.83,9.73c-26.11,0-47.34,8.44-47.34,18.81V99.67c0,10.37,21.24,18.81,47.34,18.81H250.6c26.11,0,47.34-8.44,47.34-18.81V28.53c0-10.37-21.24-18.81-47.34-18.81H71.83Z"/></g><g><path class="cls-3" d="M29.9,42.53c0-.91,.67-1.69,1.57-1.81,2.19-.3,4.87-.52,8.11-.52,4.99,0,8.64,1.16,10.95,3.25,2.15,1.85,3.42,4.7,3.42,8.17s-1.04,6.32-3.01,8.35c-2.67,2.84-7.01,4.29-11.94,4.29-.73,0-1.43-.01-2.1-.06-1.06-.08-1.96,.76-1.96,1.82v11.71c0,1.01-.82,1.83-1.83,1.83h-1.38c-1.01,0-1.83-.82-1.83-1.83V42.53Zm5.04,15.73c0,.94,.71,1.72,1.65,1.82,.75,.08,1.59,.12,2.52,.12,6.09,0,9.8-2.96,9.8-8.35s-3.65-7.65-9.22-7.65c-1.22,0-2.27,.05-3.12,.14-.93,.09-1.63,.88-1.63,1.82v12.1Z"/><path class="cls-3" d="M60.73,42.55c0-.9,.65-1.68,1.54-1.81,2.37-.35,5.31-.54,8.14-.54,5.39,0,8.87,.99,11.3,3.19,1.97,1.74,3.07,4.41,3.07,7.42,0,5.16-3.25,8.58-7.36,9.97v.17c3.01,1.04,4.81,3.83,5.74,7.88,.83,3.55,1.51,6.39,2.11,8.35,.36,1.18-.51,2.37-1.75,2.37h-1.36c-.78,0-1.47-.49-1.73-1.22-.57-1.64-1.26-4.45-2.09-8.11-1.16-5.39-3.25-7.42-7.83-7.59h-2.92c-1.01,0-1.83,.82-1.83,1.83v13.27c0,1.01-.82,1.83-1.83,1.83h-1.38c-1.01,0-1.83-.82-1.83-1.83V42.55Zm5.04,14.42c0,1.01,.82,1.83,1.83,1.83h3.33c5.39,0,8.81-2.96,8.81-7.42,0-5.04-3.65-7.25-8.98-7.3-1.36,0-2.5,.07-3.38,.18s-1.6,.89-1.6,1.82v10.9Z"/><path class="cls-3" d="M92.33,78.38l1.78-2.53c.46-.66,.45-1.54-.05-2.17-2.72-3.43-4.29-8.16-4.29-13.42,0-12.35,7.83-20.4,18.03-20.4,3.02,0,5.88,.74,8.37,2.18,.81,.47,1.83,.25,2.38-.5l1.36-1.87c.58-.8,1.69-.99,2.51-.44l.05,.04c.85,.58,1.06,1.75,.46,2.58l-1.66,2.3c-.47,.65-.46,1.54,.03,2.18,2.7,3.46,4.18,8.15,4.18,13.35,0,13.62-8.4,20.52-17.74,20.52-3.12,0-6.03-.78-8.53-2.23-.81-.47-1.84-.27-2.4,.49l-1.51,2.06c-.61,.84-1.8,1-2.61,.35h0c-.76-.6-.91-1.69-.36-2.49Zm21.64-30.26c.63-.88,.37-2.1-.56-2.66-1.64-.98-3.53-1.55-5.67-1.55-8.52,0-12.81,7.88-12.81,16.06,0,4.35,1.16,7.48,2.9,10.49l.06-.06,16.09-22.28Zm-12.63,23.82c-.62,.86-.4,2.03,.48,2.61,1.59,1.04,3.45,1.59,5.8,1.59,8.17,0,12.69-7.48,12.69-16.29,0-3.3-.7-6.84-2.72-10.14h-.17l-16.07,22.23Z"/><path class="cls-3" d="M140.2,78.3l-11.56-35.41c-.39-1.18,.5-2.4,1.74-2.4h1.59c.8,0,1.5,.52,1.74,1.28l5.68,17.97c1.68,5.28,3.13,10.03,4.17,14.61h.12c1.1-4.52,2.72-9.45,4.46-14.55l6.18-18.07c.25-.74,.95-1.24,1.73-1.24h1.49c1.27,0,2.15,1.25,1.72,2.45l-12.66,35.41c-.26,.73-.95,1.21-1.72,1.21h-2.95c-.79,0-1.49-.51-1.74-1.26Z"/><path class="cls-3" d="M181.71,42.32v35.41c0,1.01-.82,1.83-1.83,1.83h-1.38c-1.01,0-1.83-.82-1.83-1.83V42.32c0-1.01,.82-1.83,1.83-1.83h1.38c1.01,0,1.83,.82,1.83,1.83Z"/><path class="cls-3" d="M220.25,76.51c0,.8-.51,1.5-1.28,1.74-2.46,.78-6.31,1.71-10.72,1.71-5.91,0-10.78-1.51-14.61-5.16-3.36-3.25-5.45-8.46-5.45-14.55,.06-11.65,8.06-20.17,21.16-20.17,3.33,0,6.13,.53,8.04,1.14,.96,.3,1.51,1.31,1.22,2.27l-.18,.6c-.29,.99-1.35,1.54-2.33,1.21-1.78-.59-3.96-1-6.87-1-9.51,0-15.71,5.91-15.71,15.71s5.97,15.77,15.07,15.77c2.32,0,4.12-.23,5.39-.56,.8-.21,1.33-.94,1.33-1.77v-8.54c0-1.01-.82-1.83-1.83-1.83h-4.28c-1.01,0-1.83-.82-1.83-1.83v-.4c0-1.01,.82-1.83,1.83-1.83h9.21c1.01,0,1.83,.82,1.83,1.83v15.64Z"/><path class="cls-3" d="M246.36,61.24h-11.53c-1.01,0-1.83,.82-1.83,1.83v10.43c0,1.01,.82,1.83,1.83,1.83h13.27c1.01,0,1.83,.82,1.83,1.83v.57c0,1.01-.82,1.83-1.83,1.83h-18.31c-1.01,0-1.83-.82-1.83-1.83V42.32c0-1.01,.82-1.83,1.83-1.83h17.44c1.01,0,1.83,.82,1.83,1.83v.57c0,1.01-.82,1.83-1.83,1.83h-12.4c-1.01,0-1.83,.82-1.83,1.83v8.69c0,1.01,.82,1.83,1.83,1.83h11.53c1.01,0,1.83,.82,1.83,1.83v.52c0,1.01-.82,1.83-1.83,1.83Z"/><path class="cls-3" d="M256.48,77.73V42.32c0-1.01,.82-1.83,1.83-1.83h2.67c.63,0,1.21,.32,1.55,.85l11.98,18.92c2.9,4.58,5.16,8.69,7.01,12.69l.12-.06c-.46-5.22-.58-9.97-.58-16.06v-14.52c0-1.01,.82-1.83,1.83-1.83h1.09c1.01,0,1.83,.82,1.83,1.83v35.41c0,1.01-.82,1.83-1.83,1.83h-2.26c-.63,0-1.22-.32-1.55-.86l-11.87-18.97c-2.72-4.35-5.33-8.81-7.3-13.04l-.17,.06c.29,4.93,.41,9.62,.41,16.11v14.87c0,1.01-.82,1.83-1.83,1.83h-1.09c-1.01,0-1.83-.82-1.83-1.83Z"/></g><path d="M32.29,42.04c0-.91,.67-1.69,1.57-1.81,2.19-.3,4.87-.52,8.11-.52,4.99,0,8.64,1.16,10.95,3.25,2.15,1.85,3.42,4.7,3.42,8.17s-1.04,6.32-3.01,8.35c-2.67,2.84-7.01,4.29-11.94,4.29-.73,0-1.43-.01-2.1-.06-1.06-.08-1.96,.76-1.96,1.82v11.71c0,1.01-.82,1.83-1.83,1.83h-1.38c-1.01,0-1.83-.82-1.83-1.83V42.04Zm5.04,15.73c0,.94,.71,1.72,1.65,1.82,.75,.08,1.59,.12,2.52,.12,6.09,0,9.8-2.96,9.8-8.35s-3.65-7.65-9.22-7.65c-1.22,0-2.27,.05-3.12,.14-.93,.09-1.63,.88-1.63,1.82v12.1Z"/><path d="M63.13,42.07c0-.9,.65-1.68,1.54-1.81,2.37-.35,5.31-.54,8.14-.54,5.39,0,8.87,.99,11.3,3.19,1.97,1.74,3.07,4.41,3.07,7.42,0,5.16-3.25,8.58-7.36,9.97v.17c3.01,1.04,4.81,3.83,5.74,7.88,.83,3.55,1.51,6.39,2.11,8.35,.36,1.18-.51,2.37-1.75,2.37h-1.36c-.78,0-1.47-.49-1.73-1.22-.57-1.64-1.26-4.45-2.09-8.11-1.16-5.39-3.25-7.42-7.83-7.59h-2.92c-1.01,0-1.83,.82-1.83,1.83v13.27c0,1.01-.82,1.83-1.83,1.83h-1.38c-1.01,0-1.83-.82-1.83-1.83V42.07Zm5.04,14.42c0,1.01,.82,1.83,1.83,1.83h3.33c5.39,0,8.81-2.96,8.81-7.42,0-5.04-3.65-7.25-8.98-7.3-1.36,0-2.5,.07-3.38,.18s-1.6,.89-1.6,1.82v10.9Z"/><path d="M94.73,77.89l1.78-2.53c.46-.66,.45-1.54-.05-2.17-2.72-3.43-4.29-8.16-4.29-13.42,0-12.35,7.83-20.4,18.03-20.4,3.02,0,5.88,.74,8.37,2.18,.81,.47,1.83,.25,2.38-.5l1.36-1.87c.58-.8,1.69-.99,2.51-.44l.05,.04c.85,.58,1.06,1.75,.46,2.58l-1.66,2.3c-.47,.65-.46,1.54,.03,2.18,2.7,3.46,4.18,8.15,4.18,13.35,0,13.62-8.4,20.52-17.74,20.52-3.12,0-6.03-.78-8.53-2.23-.81-.47-1.84-.27-2.4,.49l-1.51,2.06c-.61,.84-1.8,1-2.61,.35h0c-.76-.6-.91-1.69-.36-2.49Zm21.64-30.26c.63-.88,.37-2.1-.56-2.66-1.64-.98-3.53-1.55-5.67-1.55-8.52,0-12.81,7.88-12.81,16.06,0,4.35,1.16,7.48,2.9,10.49l.06-.06,16.09-22.28Zm-12.63,23.82c-.62,.86-.4,2.03,.48,2.61,1.59,1.04,3.45,1.59,5.8,1.59,8.17,0,12.69-7.48,12.69-16.29,0-3.3-.7-6.84-2.72-10.14h-.17l-16.07,22.23Z"/><path d="M142.59,77.81l-11.56-35.41c-.39-1.18,.5-2.4,1.74-2.4h1.59c.8,0,1.5,.52,1.74,1.28l5.68,17.97c1.68,5.28,3.13,10.03,4.17,14.61h.12c1.1-4.52,2.72-9.45,4.46-14.55l6.18-18.07c.25-.74,.95-1.24,1.73-1.24h1.49c1.27,0,2.15,1.25,1.72,2.45l-12.66,35.41c-.26,.73-.95,1.21-1.72,1.21h-2.95c-.79,0-1.49-.51-1.74-1.26Z"/><path d="M184.1,41.83v35.41c0,1.01-.82,1.83-1.83,1.83h-1.38c-1.01,0-1.83-.82-1.83-1.83V41.83c0-1.01,.82-1.83,1.83-1.83h1.38c1.01,0,1.83,.82,1.83,1.83Z"/><path d="M222.65,76.02c0,.8-.51,1.5-1.28,1.74-2.46,.78-6.31,1.71-10.72,1.71-5.91,0-10.78-1.51-14.61-5.16-3.36-3.25-5.45-8.46-5.45-14.55,.06-11.65,8.06-20.17,21.16-20.17,3.33,0,6.13,.53,8.04,1.14,.96,.3,1.51,1.31,1.22,2.27l-.18,.6c-.29,.99-1.35,1.54-2.33,1.21-1.78-.59-3.96-1-6.87-1-9.51,0-15.71,5.91-15.71,15.71s5.97,15.77,15.07,15.77c2.32,0,4.12-.23,5.39-.56,.8-.21,1.33-.94,1.33-1.77v-8.54c0-1.01-.82-1.83-1.83-1.83h-4.28c-1.01,0-1.83-.82-1.83-1.83v-.4c0-1.01,.82-1.83,1.83-1.83h9.21c1.01,0,1.83,.82,1.83,1.83v15.64Z"/><path d="M248.76,60.75h-11.53c-1.01,0-1.83,.82-1.83,1.83v10.43c0,1.01,.82,1.83,1.83,1.83h13.27c1.01,0,1.83,.82,1.83,1.83v.57c0,1.01-.82,1.83-1.83,1.83h-18.31c-1.01,0-1.83-.82-1.83-1.83V41.83c0-1.01,.82-1.83,1.83-1.83h17.44c1.01,0,1.83,.82,1.83,1.83v.57c0,1.01-.82,1.83-1.83,1.83h-12.4c-1.01,0-1.83,.82-1.83,1.83v8.69c0,1.01,.82,1.83,1.83,1.83h11.53c1.01,0,1.83,.82,1.83,1.83v.52c0,1.01-.82,1.83-1.83,1.83Z"/><path d="M258.88,77.24V41.83c0-1.01,.82-1.83,1.83-1.83h2.67c.63,0,1.21,.32,1.55,.85l11.98,18.92c2.9,4.58,5.16,8.69,7.01,12.69l.12-.06c-.46-5.22-.58-9.97-.58-16.06v-14.52c0-1.01,.82-1.83,1.83-1.83h1.09c1.01,0,1.83,.82,1.83,1.83v35.41c0,1.01-.82,1.83-1.83,1.83h-2.26c-.63,0-1.22-.32-1.55-.86l-11.87-18.97c-2.72-4.35-5.33-8.81-7.3-13.04l-.17,.06c.29,4.93,.41,9.62,.41,16.11v14.87c0,1.01-.82,1.83-1.83,1.83h-1.09c-1.01,0-1.83-.82-1.83-1.83Z"/><path class="cls-1" d="M47.86,42.29c1.21-.06,2.38,.47,3.15,1.43,.14,.18,.45,.15,.6,0,.18-.18,.14-.42,0-.6-.88-1.11-2.33-1.75-3.74-1.68-.23,.01-.42,.19-.42,.42,0,.22,.19,.43,.42,.42h0Z"/><path class="cls-1" d="M80.42,43.07c1.21-.06,2.38,.47,3.15,1.43,.14,.18,.45,.15,.6,0,.18-.18,.14-.42,0-.6-.88-1.11-2.33-1.75-3.74-1.68-.23,.01-.42,.19-.42,.42,0,.22,.19,.43,.42,.42h0Z"/><path class="cls-1" d="M158.13,41.22c.13,0,.25,0,.38,0,.06,0,.11,0,.17,.02-.07,0,.02,0,.03,0,.03,0,.06,0,.08,.01,.12,.02,.25,.05,.37,.09,.06,.02,.12,.04,.18,.06,.03,0,.05,.02,.08,.03-.05-.02,.01,0,.03,.02,.11,.05,.21,.1,.32,.17,.05,.03,.11,.07,.16,.1,.02,.02,.05,.03,.07,.05,.02,.01,.08,.06,.03,.02,.2,.15,.38,.33,.53,.53,.14,.18,.45,.15,.6,0,.18-.18,.14-.42,0-.6-.71-.89-1.88-1.41-3.02-1.35-.22,.01-.43,.19-.42,.42,0,.22,.19,.43,.42,.42h0Z"/><path class="cls-1" d="M181,41.13c.11,0,.22,0,.33,0,.05,0,.1,0,.15,.01,.02,0,.1,.02,.02,0,.03,0,.05,0,.08,.01,.21,.04,.42,.1,.62,.18-.04-.01-.03-.01,0,0,.02,.01,.05,.02,.07,.03,.05,.02,.09,.04,.13,.07,.09,.05,.18,.1,.27,.16,.03,.02,.05,.04,.08,.05,.03,.02,.03,.03,0,0,.04,.03,.08,.06,.11,.09,.08,.07,.16,.15,.23,.23,.15,.17,.45,.16,.6,0,.16-.18,.16-.42,0-.6-.66-.75-1.7-1.14-2.69-1.1-.22,0-.43,.19-.42,.42,0,.22,.19,.43,.42,.42h0Z"/><path class="cls-1" d="M217.12,41.81c.13,0,.26,0,.39,0,.06,0,.12,0,.17,.02-.07,0,.03,0,.04,0,.03,0,.06,0,.09,.02,.13,.02,.26,.06,.38,.1,.06,.02,.12,.04,.19,.06,.03,.01,.05,.02,.08,.03-.05-.02,.02,.01,.04,.02,.11,.05,.22,.11,.33,.17,.06,.03,.11,.07,.17,.11,.02,.02,.05,.03,.07,.05,.01,0,.08,.06,.04,.03,.21,.16,.39,.35,.56,.55,.14,.18,.45,.15,.6,0,.18-.18,.14-.42,0-.6-.74-.93-1.95-1.47-3.14-1.41-.23,.01-.42,.19-.42,.42,0,.22,.19,.43,.42,.42h0Z"/><path class="cls-1" d="M284.64,41.47c.13,0,.26,0,.39,0,.06,0,.12,0,.17,.02-.07,0,.03,0,.04,0,.03,0,.06,0,.09,.02,.13,.02,.26,.06,.38,.1,.06,.02,.12,.04,.19,.06,.03,.01,.05,.02,.08,.03-.05-.02,.02,.01,.04,.02,.11,.05,.22,.11,.33,.17,.06,.03,.11,.07,.17,.11,.02,.02,.05,.03,.07,.05,.01,0,.08,.06,.04,.03,.21,.16,.39,.35,.56,.55,.14,.18,.45,.15,.6,0,.18-.18,.14-.42,0-.6-.74-.93-1.95-1.47-3.14-1.41-.23,.01-.42,.19-.42,.42,0,.22,.19,.43,.42,.42h0Z"/><path class="cls-1" d="M247.42,41.47c.13,0,.26,0,.39,0,.06,0,.12,0,.17,.02-.07,0,.03,0,.04,0,.03,0,.06,0,.09,.02,.13,.02,.26,.06,.38,.1,.06,.02,.12,.04,.19,.06,.03,.01,.05,.02,.08,.03-.05-.02,.02,.01,.04,.02,.11,.05,.22,.11,.33,.17,.06,.03,.11,.07,.17,.11,.02,.02,.05,.03,.07,.05,.01,0,.08,.06,.04,.03,.21,.16,.39,.35,.56,.55,.14,.18,.45,.15,.6,0,.18-.18,.14-.42,0-.6-.74-.93-1.95-1.47-3.14-1.41-.23,.01-.42,.19-.42,.42,0,.22,.19,.43,.42,.42h0Z"/><path class="cls-1" d="M115.36,41.84c.13,0,.25,0,.38,0,.06,0,.11,0,.17,.02-.07,0,.02,0,.03,0,.03,0,.06,0,.08,.01,.12,.02,.25,.05,.37,.09,.06,.02,.12,.04,.18,.06,.03,0,.05,.02,.08,.03-.05-.02,.01,0,.03,.02,.11,.05,.21,.1,.32,.17,.05,.03,.11,.07,.16,.1,.02,.02,.05,.03,.07,.05,.02,.01,.08,.06,.03,.02,.2,.15,.38,.33,.53,.53,.14,.18,.45,.15,.6,0,.18-.18,.14-.42,0-.6-.71-.89-1.88-1.41-3.02-1.35-.22,.01-.43,.19-.42,.42,0,.22,.19,.43,.42,.42h0Z"/></g></g></svg>