<?xml version="1.0" encoding="UTF-8"?><svg id="Lag_2" xmlns="http://www.w3.org/2000/svg" width="234.57" height="283.6" viewBox="0 0 234.57 283.6"><defs><style>.cls-1{fill:#fff;}.cls-2{fill:#a0927a;}.cls-3{fill:#93856c;}.cls-4{fill:#84c967;}.cls-5{fill:#a67c52;}.cls-6{fill:#a9daff;}.cls-7{fill:#afef95;}.cls-8{fill:#374c1a;}.cls-9{fill:#605643;}.cls-10{fill:#603813;}.cls-11{fill:#754c24;}.cls-12{fill:#71ba56;}.cls-13{opacity:.14;}.cls-13,.cls-14{fill:#3f2a07;}.cls-14{opacity:.5;}.cls-15{fill:#5f7f2d;opacity:.28;}.cls-16{fill:#5b450c;opacity:.45;}</style></defs><g id="Lag_1-2"><g><path class="cls-1" d="M41.78,193.27c1.93,0,1.93-3,0-3s-1.93,3,0,3h0Z"/><path class="cls-11" d="M209.66,195.08l-136.56,70.18c-9.27,4.76-20.65,1.11-25.41-8.16L12.46,188.54c-4.76-9.27-1.11-20.65,8.16-25.41L157.18,92.95c9.27-4.76,20.65-1.11,25.41,8.16l35.24,68.56c4.76,9.27,1.11,20.65-8.16,25.41Zm22.54-13.57l-47.34-92.12c-3.66-7.13-12.41-9.94-19.54-6.27L7.88,164.02c-7.13,3.66-9.94,12.41-6.27,19.54l47.34,92.12c3.66,7.13,12.41,9.94,19.54,6.27l157.44-80.91c7.13-3.66,9.94-12.41,6.27-19.54Z"/><path class="cls-5" d="M185.47,98.78c-4.76-9.27-16.14-12.92-25.41-8.16L16.69,163.56c-9.27,4.76-12.92,16.14-8.16,25.41l35.24,70.9c4.76,9.27,16.14,12.92,25.41,8.16l143.37-72.94c9.27-4.76,12.92-16.14,8.16-25.41l-35.24-70.9Z"/><path class="cls-10" d="M226.33,172.81s19.23,21.29-9.34,31.73,18-8.38-4.81,2.61-9.07,4.53-9.07,4.53l-7.28,3.57-3.3,1.92-5.77,2.75-5.77,3.02-3.43,1.79-3.98,2.06-3.98,2.06-4.53,2.2-3.16,1.65-3.02,1.37-3.3,1.65-3.71,2.06-5.36,2.47-5.08,2.88-2.88,1.65-2.75,1.24-3.02,1.79-4.26,2.06-8.65,4.4-16.21,7.97-7.83,4.26-7.69,3.61-4.53,2.57-3.57,1.92-2.61,1.37-2.87,1.65-3.72,1.92-3.3,1.24-1.53,.62-5.84,1.09-1.7-.33-2.75-.82-2.75-2.2-1.79-1.65-1.3-2.01-1.61-3.41c-1.12-.1,11.2,8.29,17.37,5.14,3.41-1.74,15.21-7.09,15.21-7.09l5.77-2.76,5.91-2.63,6.32-3.3,10.17-5.36,7.89-4.67,6.81-4.12,7.69-3.57,4.67-1.65,7.14-3.43,5.77-3.57,6.18-3.02,6.18-3.3,11.4-6.59,14.97-8.65,13.05-7.14,16.07-7.87s15.39-6.42,9.48-25.65Z"/><path class="cls-3" d="M38.71,239.62c4.56,9.42,6.31,21.56,15.83,25.89,11.58,5.27,19.26-1.87,30.68-7.48,14.45-7.1,29.89-8.03,41.1-19.58,6.29-6.49,16.1-8.04,23.66-11.55,13.01-6.04,31.35-19.79,45.19-23.55,24.73-6.72,26.39-15.02,26.28-27.08-.1-10.02-6.02-8.43-10.85-22.99s-14.78-28.76-21.98-41.37c-4.88-8.54-7.26-29.58-15.46-24.15-21.55,14.27-43.42,18.66-49.54,25.18-27.34,29.11-42.12,13.74-61.44,31.64-22.75,21.09-42.52,14.13-50.44,26.49s8.21,26.35,9.3,41.33c.79,10.8,12.95,17.48,17.67,27.22Z"/><circle class="cls-8" cx="160.94" cy="155.02" r="46"/><ellipse class="cls-12" cx="160.94" cy="153.28" rx="42.22" ry="40.34"/><ellipse class="cls-4" cx="160.94" cy="153.28" rx="37.32" ry="35.65"/><path class="cls-7" d="M158.51,131.91c.06-1.42,.26-2.92,1.13-4.05s2.58-1.73,3.77-.95c.19,5.84-.92,12.64-4.03,17.68-.73-3.91-1.02-8.71-.87-12.67Z"/><path class="cls-7" d="M141.14,150.22c-1.4-.29-2.84-.73-3.82-1.77s-1.29-2.82-.33-3.87c5.8,.76,12.32,2.95,16.8,6.83-3.98,.09-8.76-.39-12.65-1.19Z"/><path class="cls-7" d="M154.21,170.53c-.62,1.28-1.41,2.57-2.66,3.26s-3.05,.55-3.83-.64c2.17-5.43,5.9-11.21,10.77-14.59-.9,3.87-2.55,8.39-4.28,11.96Z"/><path class="cls-7" d="M173.92,165.96c.72,1.23,1.35,2.6,1.24,4.02s-1.23,2.85-2.66,2.83c-3.31-4.82-6.04-11.14-6.15-17.06,2.72,2.9,5.57,6.78,7.57,10.2Z"/><path class="cls-7" d="M178.36,139.36c1.27-.65,2.67-1.21,4.08-1.02s2.77,1.39,2.68,2.81c-4.99,3.04-11.45,5.42-17.37,5.2,3.05-2.56,7.08-5.18,10.6-7Z"/><circle class="cls-8" cx="75.41" cy="201.02" r="46"/><ellipse class="cls-12" cx="75.41" cy="199.28" rx="42.22" ry="40.34"/><ellipse class="cls-4" cx="75.41" cy="199.28" rx="37.32" ry="35.65"/><path class="cls-7" d="M72.98,177.91c.06-1.42,.26-2.92,1.13-4.05s2.58-1.73,3.77-.95c.19,5.84-.92,12.64-4.03,17.68-.73-3.91-1.02-8.71-.87-12.67Z"/><path class="cls-7" d="M55.61,196.22c-1.4-.29-2.84-.73-3.82-1.77s-1.29-2.82-.33-3.87c5.8,.76,12.32,2.95,16.8,6.83-3.98,.09-8.76-.39-12.65-1.19Z"/><path class="cls-7" d="M68.67,216.53c-.62,1.28-1.41,2.57-2.66,3.26s-3.05,.55-3.83-.64c2.17-5.43,5.9-11.21,10.77-14.59-.9,3.87-2.55,8.39-4.28,11.96Z"/><path class="cls-7" d="M88.39,211.96c.72,1.23,1.35,2.6,1.24,4.02s-1.23,2.85-2.66,2.83c-3.31-4.82-6.04-11.14-6.15-17.06,2.72,2.9,5.57,6.78,7.57,10.2Z"/><path class="cls-7" d="M92.83,185.36c1.27-.65,2.67-1.21,4.08-1.02s2.77,1.39,2.68,2.81c-4.99,3.04-11.45,5.42-17.37,5.2,3.05-2.56,7.08-5.18,10.6-7Z"/><path class="cls-9" d="M29.41,223.92c2.37,4.29,6.58,7.29,8.66,11.72,4.75,10.13,14.8,17.58,25.87,19.17s33.89-10.42,41.3-18.79c-15.6,11.26-30.91,12.41-40.41,9.56-9.05-2.71-20.69-7.83-25.7-15.84-3.36-5.38-11.6-13.49-8.9-37.37,.37-3.3-3.19,20.7-2.7,23.89s.44,5.04,1.88,7.66Z"/><path class="cls-9" d="M114.67,177.71c2.37,4.29,6.58,7.29,8.66,11.72,4.75,10.13,14.8,17.58,25.87,19.17s33.89-10.42,41.3-18.79c-15.6,11.26-30.91,12.41-40.41,9.56-9.05-2.71-20.69-7.83-25.7-15.84-3.36-5.38-11.6-13.49-8.9-37.37,.37-3.3-3.19,20.7-2.7,23.89s.44,5.04,1.88,7.66Z"/><path class="cls-2" d="M70.74,260.29c13.75-1.67,28.86-12.21,42.43-12.86-7.93,3.11-20.73,8-29.39,12.09-20.8,9.81-23.59,7.16-27.78,6.6-6.57-.87-14.54-15.48-15.34-21.98,2.24,5.11,10.8,11.75,13.69,13.19,5.03,2.51,10.79,3.64,16.39,2.96Z"/><path class="cls-15" d="M61.85,283.59c-.17,0-.33-.03-.49-.06l-1.93-.35c-1.58-.32-7.14-2.25-9.9-7.77-7.1-14.23-21.12-39.46-22.25-43.3-.12-.41-1.39-2.7-1.58-3.08L3.13,185.1c-.62-1.21-1.81-4.06-2.12-5.39-1.32-5.73,1.62-12.82,7.66-15.73L166.11,83.08c10.2-4.89,18.06,2.65,19.48,5.65,8.95,18.93,41.93,80.89,48.03,94.19,.06,.13,.32,.86,.35,1.01,.22,.88,.57,2.5,.59,3.26,.04,1.64,.01,3.2-.53,4.97-.1,.32-.56,1.57-.69,1.87l-.61,1.2c-.88,1.69-2.29,3.19-3.77,4.37-1.86,1.47-3.41,1.94-4.08,2.3-16.86,9.26-132.54,68.08-155.07,79.81-3.05,1.59-6.45,1.96-7.96,1.88Z"/><circle class="cls-16" cx="160.94" cy="155.02" r="46"/><circle class="cls-16" cx="76.39" cy="199.15" r="46"/><path class="cls-14" d="M117.46,94.23c3.79-7.88,10.9-14.07,16.37-21.13s9.36-16.19,5.67-24.1c-3.98-8.54-15.69-13.23-18.19-22.2-1.62-5.82,1.28-12.04,5.84-16.47,4.56-4.43,10.6-7.41,16.52-10.32-11.2,8.35-12.4,25.19-2.48,34.72,7.87,7.56,21.82,11.78,23.08,22,1.42,11.54-15.12,19.05-17.09,30.53-1.57,9.16,6.49,17.16,13.75,23.84,7.26,6.68,14.87,15.28,12.19,24.24-1.25,4.18-25.35,4.02-29.2,3.72-6.37-.48-10.06-1.85-14.68-5.67-11.88-9.85-18.46-25.29-11.79-39.15Z"/><path class="cls-14" d="M34.49,119.25c3.98-7.55,11.43-13.48,17.16-20.25s9.81-15.52,5.94-23.1c-4.18-8.18-16.45-12.68-19.06-21.27-1.7-5.58,1.34-11.54,6.12-15.78s11.11-7.11,17.32-9.89c-11.74,8-13,24.14-2.6,33.28,8.25,7.25,22.87,11.29,24.19,21.08,1.48,11.06-15.85,18.26-17.92,29.25-1.65,8.78,6.8,16.45,14.41,22.85,7.61,6.4,15.58,14.64,12.78,23.23-1.31,4.01-26.57,3.85-30.6,3.57-6.68-.46-10.55-1.77-15.38-5.44-12.46-9.44-19.35-24.24-12.35-37.52Z"/><ellipse class="cls-6" cx="117.26" cy="59.7" rx="4.85" ry="2.73" transform="translate(.88 121.08) rotate(-54.79)"/><ellipse class="cls-6" cx="108.13" cy="68.1" rx="4.85" ry="2.73" transform="translate(-18.95 81.52) rotate(-38.23)"/><ellipse cx="112.92" cy="64.28" rx="4.33" ry="3.81"/><path class="cls-13" d="M129,88.34c4.87-5.52,12.56-9.05,18.87-13.6,6.3-4.55,11.47-11.04,9.33-18.06-2.32-7.57-12.51-13.6-13.36-21.23-.55-4.95,3.2-9.33,8.22-11.96s11.17-3.82,17.21-4.97c-11.89,4.45-15.82,17.6-8.1,27.13,6.12,7.56,18.5,13.65,17.98,22.03-.59,9.46-17.35,12.19-21.11,20.93-3,6.98,3.23,14.93,8.92,21.66,5.7,6.74,11.4,15.07,7.4,21.67-1.87,3.08-24.44-1.78-28-2.77-5.9-1.63-9.13-3.45-12.82-7.39-9.5-10.16-13.1-23.74-4.53-33.45Z"/><path class="cls-13" d="M80.35,112.08c3.28-3.25,9.43-5.8,14.16-8.71,4.73-2.91,8.1-6.67,4.9-9.94-3.45-3.52-13.58-5.45-15.73-9.15-1.4-2.4,1.11-4.96,5.05-6.79,3.94-1.83,9.17-3.06,14.29-4.25-9.69,3.44-10.73,10.38-2.14,14.32,6.81,3.12,18.88,4.86,19.96,9.07,1.22,4.76-13.08,7.85-14.79,12.58-1.36,3.78,5.61,7.08,11.9,9.83s12.86,6.3,10.55,9.99c-1.08,1.72-21.93,1.66-25.26,1.54-5.51-.2-8.71-.76-12.7-2.34-10.28-4.06-15.97-10.43-10.2-16.14Z"/><path class="cls-13" d="M4.19,155.02c3.28-3.25,9.43-5.8,14.16-8.71,4.73-2.91,8.1-6.67,4.9-9.94-3.45-3.52-13.58-5.45-15.73-9.15-1.4-2.4,1.11-4.96,5.05-6.79s9.17-3.06,14.29-4.25c-9.69,3.44-10.73,10.38-2.14,14.32,6.81,3.12,18.88,4.86,19.96,9.07,1.22,4.76-13.08,7.85-14.79,12.58-1.36,3.78,5.61,7.08,11.9,9.83s12.86,6.3,10.55,9.99c-1.08,1.72-21.93,1.66-25.26,1.54-5.51-.2-8.71-.76-12.7-2.34-10.28-4.06-15.97-10.43-10.2-16.14Z"/><ellipse class="cls-6" cx="18.59" cy="131.65" rx="4.85" ry="2.73" transform="translate(-99.7 70.94) rotate(-54.79)"/><ellipse class="cls-6" cx="9.47" cy="140.06" rx="4.85" ry="2.73" transform="translate(-84.64 35.9) rotate(-38.23)"/><ellipse cx="14.26" cy="136.24" rx="4.33" ry="3.81"/></g></g></svg>