<?xml version="1.0" encoding="UTF-8"?><svg id="Lag_2" xmlns="http://www.w3.org/2000/svg" width="234.36" height="278.84" viewBox="0 0 234.36 278.84"><defs><style>.cls-1{fill:#fff;}.cls-2{fill:#8c6749;}.cls-3{fill:#a83d35;}.cls-4{fill:#a67c52;}.cls-5{fill:#a9daff;}.cls-6{fill:#892f25;}.cls-7{fill:#603813;}.cls-8{fill:#754c24;}.cls-9{opacity:.14;}.cls-9,.cls-10{fill:#3f2a07;}.cls-10{opacity:.5;}.cls-11{fill:#5f7f2d;opacity:.28;}.cls-12{fill:#5b450c;opacity:.45;}</style></defs><g id="Lag_2-2"><g><path class="cls-1" d="M42.33,188.19c1.93,0,1.93-3,0-3s-1.93,3,0,3h0Z"/><path class="cls-8" d="M210.22,190l-136.56,70.18c-9.27,4.76-20.65,1.11-25.41-8.16L13.01,183.45c-4.76-9.27-1.11-20.65,8.16-25.41L157.73,87.87c9.27-4.76,20.65-1.11,25.41,8.16l35.24,68.56c4.76,9.27,1.11,20.65-8.16,25.41Zm22.54-13.57l-47.34-92.12c-3.66-7.13-12.41-9.94-19.54-6.27L8.44,158.94c-7.13,3.66-9.94,12.41-6.27,19.54l47.34,92.12c3.66,7.13,12.41,9.94,19.54,6.27l157.44-80.91c7.13-3.66,9.94-12.41,6.27-19.54Z"/><path class="cls-4" d="M186.03,93.69c-4.76-9.27-16.14-12.92-25.41-8.16L17.25,158.47c-9.27,4.76-12.92,16.14-8.16,25.41l35.24,70.9c4.76,9.27,16.14,12.92,25.41,8.16l143.37-72.94c9.27-4.76,12.92-16.14,8.16-25.41l-35.24-70.9Z"/><circle class="cls-6" cx="75.1" cy="193.38" r="42.36"/><circle class="cls-6" cx="154.97" cy="151.02" r="42.36"/><path class="cls-7" d="M226.89,167.73s19.23,21.29-9.34,31.73c-28.57,10.44,18-8.38-4.81,2.61-22.8,10.99-9.07,4.53-9.07,4.53l-7.28,3.57-3.3,1.92-5.77,2.75-5.77,3.02-3.43,1.79-3.98,2.06-3.98,2.06-4.53,2.2-3.16,1.65-3.02,1.37-3.3,1.65-3.71,2.06-5.36,2.47-5.08,2.88-2.88,1.65-2.75,1.24-3.02,1.79-4.26,2.06-8.65,4.4-16.21,7.97-7.83,4.26-7.69,3.61-4.53,2.57-3.57,1.92-2.61,1.37-2.87,1.65-3.72,1.92-3.3,1.24-1.53,.62-5.84,1.09-1.7-.33-2.75-.82-2.75-2.2-1.79-1.65-1.3-2.01-1.61-3.41c-1.12-.1,11.2,8.29,17.37,5.14,3.41-1.74,15.21-7.09,15.21-7.09l5.77-2.76,5.91-2.63,6.32-3.3,10.17-5.36,7.89-4.67,6.81-4.12,7.69-3.57,4.67-1.65,7.14-3.43,5.77-3.57,6.18-3.02,6.18-3.3,11.4-6.59,14.97-8.65,13.05-7.14,16.07-7.87s15.39-6.42,9.48-25.65Z"/><circle class="cls-3" cx="76.84" cy="191.6" r="38.86"/><circle class="cls-3" cx="156.32" cy="148.5" r="38.86"/><circle class="cls-1" cx="63.83" cy="170.67" r=".73"/><circle class="cls-1" cx="81.52" cy="215.15" r=".73"/><circle class="cls-1" cx="62.24" cy="196.58" r=".73"/><circle class="cls-1" cx="49.49" cy="187.36" r=".73"/><circle class="cls-1" cx="77.74" cy="188.09" r=".73"/><circle class="cls-1" cx="82.48" cy="198.04" r=".73"/><circle class="cls-1" cx="95.79" cy="184.49" r=".73"/><circle class="cls-1" cx="83.21" cy="170.24" r=".73"/><circle class="cls-1" cx="63.83" cy="162.06" r=".73"/><circle class="cls-1" cx="46.05" cy="199.6" r=".73"/><circle class="cls-1" cx="61.51" cy="184.49" r=".73"/><circle class="cls-1" cx="52.88" cy="174.75" r=".73"/><circle class="cls-1" cx="75.1" cy="178.69" r=".73"/><circle class="cls-1" cx="63.83" cy="215.81" r=".73"/><circle class="cls-1" cx="94.02" cy="215.15" r=".73"/><circle class="cls-1" cx="96.27" cy="206.51" r=".73"/><circle class="cls-1" cx="97.43" cy="170.67" r=".73"/><circle class="cls-1" cx="101.98" cy="193.38" r=".73"/><circle class="cls-1" cx="75.1" cy="206.97" r=".73"/><circle class="cls-1" cx="55.09" cy="209.43" r=".73"/><circle class="cls-1" cx="78.87" cy="161" r=".73"/><circle class="cls-1" cx="106.86" cy="178.69" r=".73"/><circle class="cls-1" cx="106.65" cy="202.31" r=".73"/><circle class="cls-1" cx="146.07" cy="127.57" r=".73"/><circle class="cls-1" cx="163.76" cy="172.05" r=".73"/><circle class="cls-1" cx="144.48" cy="153.48" r=".73"/><circle class="cls-1" cx="131.72" cy="144.26" r=".73"/><circle class="cls-1" cx="159.98" cy="144.99" r=".73"/><circle class="cls-1" cx="164.71" cy="154.94" r=".73"/><circle class="cls-1" cx="178.02" cy="141.39" r=".73"/><circle class="cls-1" cx="128.29" cy="156.5" r=".73"/><circle class="cls-1" cx="143.75" cy="141.39" r=".73"/><circle class="cls-1" cx="135.12" cy="131.65" r=".73"/><circle class="cls-1" cx="157.34" cy="135.59" r=".73"/><circle class="cls-1" cx="146.07" cy="172.71" r=".73"/><circle class="cls-1" cx="176.26" cy="172.05" r=".73"/><circle class="cls-1" cx="178.51" cy="163.41" r=".73"/><circle class="cls-1" cx="179.67" cy="127.57" r=".73"/><circle class="cls-1" cx="184.22" cy="150.28" r=".73"/><circle class="cls-1" cx="157.34" cy="163.87" r=".73"/><circle class="cls-1" cx="137.32" cy="166.33" r=".73"/><circle class="cls-1" cx="189.1" cy="135.59" r=".73"/><circle class="cls-1" cx="188.88" cy="159.21" r=".73"/><path class="cls-11" d="M61.15,278.83c-.17,0-.33-.03-.49-.06l-1.93-.35c-1.58-.32-7.14-2.25-9.9-7.77-7.1-14.23-21.12-39.46-22.25-43.3-.12-.41-1.39-2.7-1.58-3.08L2.43,180.34c-.62-1.21-1.81-4.06-2.12-5.39-1.32-5.73,1.62-12.82,7.66-15.73L165.41,78.31c10.2-4.89,18.06,2.65,19.48,5.65,8.95,18.93,41.93,80.89,48.03,94.19,.06,.13,.32,.86,.35,1.01,.22,.88,.57,2.5,.59,3.26,.04,1.64,.01,3.2-.53,4.97-.1,.32-.56,1.57-.69,1.87l-.61,1.2c-.88,1.69-2.29,3.19-3.77,4.37-1.86,1.47-3.41,1.94-4.08,2.3-16.86,9.26-132.54,68.08-155.07,79.81-3.05,1.59-6.45,1.96-7.96,1.88Z"/><circle class="cls-12" cx="74.67" cy="193.61" r="42.79"/><ellipse class="cls-12" cx="153.91" cy="151.25" rx="41.3" ry="42.79"/><path class="cls-2" d="M47.96,232.87c4.31,2.34,9.47,2.59,13.61,5.2,9.46,5.96,21.94,6.82,32.13,2.19,10.18-4.62,21.5-26.25,23.24-37.3-7.07,17.9-17.92,26.32-27.47,29.05-9.08,2.59-21.21,2.99-29.74-1.06-5.74-2.72-17.01-6.52-25.65-28.78-1.2-3.1,6.03,22.83,8.16,25.26s3.09,4.01,5.72,5.43Z"/><path class="cls-2" d="M127.48,191.23c4.31,2.34,9.47,2.59,13.61,5.2,9.46,5.96,21.94,6.82,32.13,2.19,10.18-4.62,21.5-26.25,23.24-37.3-7.07,17.9-19.13,25.25-27.47,29.05s-21.21,2.99-29.74-1.06c-5.74-2.72-17.01-6.52-25.65-28.78-1.2-3.1,6.03,22.83,8.16,25.26s3.09,4.01,5.72,5.43Z"/><path class="cls-10" d="M114.23,94.23c3.79-7.88,10.9-14.07,16.37-21.13s9.36-16.19,5.67-24.1c-3.98-8.54-15.69-13.23-18.19-22.2-1.62-5.82,1.28-12.04,5.84-16.47s10.6-7.41,16.52-10.32c-11.2,8.35-12.4,25.19-2.48,34.72,7.87,7.56,21.82,11.78,23.08,22,1.42,11.54-15.12,19.05-17.09,30.53-1.57,9.16,6.49,17.16,13.75,23.84s14.87,15.28,12.19,24.24c-1.25,4.18-25.35,4.02-29.2,3.72-6.37-.48-10.06-1.85-14.68-5.67-11.88-9.85-18.46-25.29-11.79-39.15Z"/><path class="cls-10" d="M35.78,122.19c3.98-7.55,11.43-13.48,17.16-20.25s9.81-15.52,5.94-23.1c-4.18-8.18-16.45-12.68-19.06-21.27-1.7-5.58,1.34-11.54,6.12-15.78s11.11-7.11,17.32-9.89c-11.74,8-13,24.14-2.6,33.28,8.25,7.25,22.87,11.29,24.19,21.08,1.48,11.06-15.85,18.26-17.92,29.25-1.65,8.78,6.8,16.45,14.41,22.85s15.58,14.64,12.78,23.23c-1.31,4.01-26.57,3.85-30.6,3.57-6.68-.46-10.55-1.77-15.38-5.44-12.46-9.44-19.35-24.24-12.35-37.52Z"/><ellipse class="cls-5" cx="32.03" cy="120.69" rx="4.85" ry="2.73" transform="translate(-14.36 4.76) rotate(-6.95)"/><ellipse class="cls-5" cx="19.67" cy="119.57" rx="2.73" ry="4.85" transform="translate(-101.5 118.99) rotate(-80.39)"/><ellipse cx="25.72" cy="120.56" rx="3.81" ry="4.33" transform="translate(-74.26 48.44) rotate(-42.15)"/><ellipse class="cls-5" cx="101.48" cy="77.82" rx="4.85" ry="2.73" transform="translate(-20.61 115.87) rotate(-54.79)"/><ellipse class="cls-5" cx="92.36" cy="86.22" rx="4.85" ry="2.73" transform="translate(-33.55 75.65) rotate(-38.23)"/><ellipse cx="97.15" cy="82.41" rx="4.33" ry="3.81"/><path class="cls-9" d="M112.79,90.37c4.87-5.52,12.56-9.05,18.87-13.6,6.3-4.55,11.47-11.04,9.33-18.06-2.32-7.57-12.51-13.6-13.36-21.23-.55-4.95,3.2-9.33,8.22-11.96,5.01-2.63,11.17-3.82,17.21-4.97-11.89,4.45-15.82,17.6-8.1,27.13,6.12,7.56,18.5,13.65,17.98,22.03-.59,9.46-17.35,12.19-21.11,20.93-3,6.98,3.23,14.93,8.92,21.66,5.7,6.74,11.4,15.07,7.4,21.67-1.87,3.08-24.44-1.78-28-2.77-5.9-1.63-9.13-3.45-12.82-7.39-9.5-10.16-13.1-23.74-4.53-33.45Z"/><path class="cls-9" d="M74.27,113.12c3.28-3.25,9.43-5.8,14.16-8.71,4.73-2.91,8.1-6.67,4.9-9.94-3.45-3.52-13.58-5.45-15.73-9.15-1.4-2.4,1.11-4.96,5.05-6.79s9.17-3.06,14.29-4.25c-9.69,3.44-10.73,10.38-2.14,14.32,6.81,3.12,18.88,4.86,19.96,9.07,1.22,4.76-13.08,7.85-14.79,12.58-1.36,3.78,5.61,7.08,11.9,9.83s12.86,6.3,10.55,9.99c-1.08,1.72-21.93,1.66-25.26,1.54-5.51-.2-8.71-.76-12.7-2.34-10.28-4.06-15.97-10.43-10.2-16.14Z"/><path class="cls-9" d="M8.71,145.74c3.28-3.25,9.43-5.8,14.16-8.71,4.73-2.91,8.1-6.67,4.9-9.94-3.45-3.52-13.58-5.45-15.73-9.15-1.4-2.4,1.11-4.96,5.05-6.79s9.17-3.06,14.29-4.25c-9.69,3.44-10.73,10.38-2.14,14.32,6.81,3.12,18.88,4.86,19.96,9.07,1.22,4.76-13.08,7.85-14.79,12.58-1.36,3.78,5.61,7.08,11.9,9.83s12.86,6.3,10.55,9.99c-1.08,1.72-21.93,1.66-25.26,1.54-5.51-.2-8.71-.76-12.7-2.34-10.28-4.06-15.97-10.43-10.2-16.14Z"/></g></g></svg>