<?xml version="1.0" encoding="UTF-8"?><svg id="Lag_2" xmlns="http://www.w3.org/2000/svg" width="287.12" height="114.16" viewBox="0 0 287.12 114.16"><defs><style>.cls-1{fill:#fff;}.cls-2{fill:#7def7d;}.cls-3{fill:#b0f7b0;}.cls-4{fill:#595959;}.cls-5{fill:#39d167;}</style></defs><g id="Lag_1-2"><g><g><rect class="cls-2" x="10.5" y="6.22" width="257.13" height="99.27" rx="24.3" ry="24.3"/><rect class="cls-3" x="21.56" y="1.67" width="243.76" height="95.7" rx="23.58" ry="23.58"/><path class="cls-5" d="M223.16,114.16H63.96C28.69,114.16,0,102.76,0,88.75V25.41C0,11.4,28.69,0,63.96,0H223.16c35.27,0,63.96,11.4,63.96,25.41v63.34c0,14.01-28.69,25.41-63.96,25.41ZM63.96,8.66c-23.25,0-42.16,7.51-42.16,16.75v63.34c0,9.23,18.91,16.75,42.16,16.75H223.16c23.25,0,42.16-7.51,42.16-16.75V25.41c0-9.23-18.91-16.75-42.16-16.75H63.96Z"/></g><g><path class="cls-4" d="M46.88,51.99c0,1.33,1.08,2.41,2.41,2.41h3.73c6.42,0,10.49-3.52,10.49-8.83,0-6-4.35-8.63-10.7-8.69-1.49,0-2.76,.07-3.78,.18-1.23,.13-2.16,1.17-2.16,2.4v12.53Zm-6-16.73c0-1.19,.86-2.22,2.04-2.39,2.79-.4,6.2-.62,9.48-.62,6.42,0,10.56,1.17,13.46,3.8,2.35,2.07,3.66,5.24,3.66,8.83,0,6.14-3.86,10.21-8.76,11.87v.21c3.59,1.24,5.73,4.55,6.83,9.38,.95,4.07,1.74,7.35,2.44,9.68,.46,1.54-.71,3.09-2.32,3.09h-1.13c-1.03,0-1.95-.64-2.28-1.62-.66-1.97-1.48-5.25-2.43-9.49-1.38-6.42-3.86-8.83-9.32-9.04h-3.24c-1.33,0-2.41,1.08-2.41,2.41v15.32c0,1.33-1.08,2.41-2.41,2.41h-1.17c-1.33,0-2.41-1.08-2.41-2.41V35.26Z"/><path class="cls-4" d="M99.67,57.31h-13.25c-1.33,0-2.41,1.08-2.41,2.41v11.94c0,1.33,1.08,2.41,2.41,2.41h15.32c1.33,0,2.41,1.08,2.41,2.41v.21c0,1.33-1.08,2.41-2.41,2.41h-21.32c-1.33,0-2.41-1.08-2.41-2.41V35.02c0-1.33,1.08-2.41,2.41-2.41h20.29c1.33,0,2.41,1.08,2.41,2.41v.21c0,1.33-1.08,2.41-2.41,2.41h-14.28c-1.33,0-2.41,1.08-2.41,2.41v9.87c0,1.33,1.08,2.41,2.41,2.41h13.25c1.33,0,2.41,1.08,2.41,2.41v.14c0,1.33-1.08,2.41-2.41,2.41Z"/><path class="cls-4" d="M147.35,75.3c0,1.06-.68,1.99-1.69,2.3-2.94,.92-7.44,1.99-12.6,1.99-7.04,0-12.84-1.79-17.39-6.14-4-3.86-6.49-10.07-6.49-17.32,.07-13.87,9.59-24.01,25.19-24.01,3.84,0,7.08,.6,9.35,1.29,1.27,.39,1.98,1.72,1.61,3l-.08,.26c-.39,1.31-1.78,2.02-3.08,1.6-2.08-.66-4.61-1.11-7.94-1.11-11.32,0-18.7,7.04-18.7,18.7s7.11,18.77,17.94,18.77c2.6,0,4.66-.24,6.16-.61,1.09-.26,1.85-1.23,1.85-2.35v-9.74c0-1.33-1.08-2.41-2.41-2.41h-4.62c-1.33,0-2.41-1.08-2.41-2.41h0c0-1.33,1.08-2.41,2.41-2.41h10.49c1.33,0,2.41,1.08,2.41,2.41v18.2Z"/><path class="cls-4" d="M158.94,32.6h1.17c1.33,0,2.41,1.08,2.41,2.41v36.64c0,1.33,1.08,2.41,2.41,2.41h15.04c1.33,0,2.41,1.08,2.41,2.41v.21c0,1.33-1.08,2.41-2.41,2.41h-21.05c-1.33,0-2.41-1.08-2.41-2.41V35.02c0-1.33,1.08-2.41,2.41-2.41Z"/><path class="cls-4" d="M210.76,57.31h-13.25c-1.33,0-2.41,1.08-2.41,2.41v11.94c0,1.33,1.08,2.41,2.41,2.41h15.32c1.33,0,2.41,1.08,2.41,2.41v.21c0,1.33-1.08,2.41-2.41,2.41h-21.32c-1.33,0-2.41-1.08-2.41-2.41V35.02c0-1.33,1.08-2.41,2.41-2.41h20.29c1.33,0,2.41,1.08,2.41,2.41v.21c0,1.33-1.08,2.41-2.41,2.41h-14.29c-1.33,0-2.41,1.08-2.41,2.41v9.87c0,1.33,1.08,2.41,2.41,2.41h13.25c1.33,0,2.41,1.08,2.41,2.41v.14c0,1.33-1.08,2.41-2.41,2.41Z"/><path class="cls-4" d="M229.04,51.99c0,1.33,1.08,2.41,2.41,2.41h3.73c6.42,0,10.49-3.52,10.49-8.83,0-6-4.35-8.63-10.7-8.69-1.49,0-2.76,.07-3.78,.18-1.23,.13-2.16,1.17-2.16,2.4v12.53Zm-6-16.73c0-1.19,.86-2.22,2.04-2.39,2.79-.4,6.2-.62,9.48-.62,6.42,0,10.56,1.17,13.46,3.8,2.35,2.07,3.66,5.24,3.66,8.83,0,6.14-3.86,10.21-8.76,11.87v.21c3.59,1.24,5.73,4.55,6.83,9.38,.95,4.07,1.74,7.35,2.44,9.68,.46,1.54-.71,3.09-2.32,3.09h-1.13c-1.03,0-1.95-.64-2.28-1.62-.66-1.97-1.48-5.25-2.43-9.49-1.38-6.42-3.86-8.83-9.32-9.04h-3.24c-1.33,0-2.41,1.08-2.41,2.41v15.32c0,1.33-1.08,2.41-2.41,2.41h-1.17c-1.33,0-2.41-1.08-2.41-2.41V35.26Z"/></g><g><path d="M49.25,51.99c0,1.33,1.08,2.41,2.41,2.41h3.73c6.42,0,10.49-3.52,10.49-8.83,0-6-4.35-8.63-10.7-8.69-1.49,0-2.76,.07-3.78,.18-1.23,.13-2.16,1.17-2.16,2.4v12.53Zm-6-16.73c0-1.19,.86-2.22,2.04-2.39,2.79-.4,6.2-.62,9.48-.62,6.42,0,10.56,1.17,13.46,3.8,2.35,2.07,3.66,5.24,3.66,8.83,0,6.14-3.86,10.21-8.76,11.87v.21c3.59,1.24,5.73,4.55,6.83,9.38,.95,4.07,1.74,7.35,2.44,9.68,.46,1.54-.71,3.09-2.32,3.09h-1.13c-1.03,0-1.95-.64-2.28-1.62-.66-1.97-1.48-5.25-2.43-9.49-1.38-6.42-3.86-8.83-9.32-9.04h-3.24c-1.33,0-2.41,1.08-2.41,2.41v15.32c0,1.33-1.08,2.41-2.41,2.41h-1.17c-1.33,0-2.41-1.08-2.41-2.41V35.26Z"/><path d="M102.04,57.31h-13.25c-1.33,0-2.41,1.08-2.41,2.41v11.94c0,1.33,1.08,2.41,2.41,2.41h15.32c1.33,0,2.41,1.08,2.41,2.41v.21c0,1.33-1.08,2.41-2.41,2.41h-21.32c-1.33,0-2.41-1.08-2.41-2.41V35.02c0-1.33,1.08-2.41,2.41-2.41h20.29c1.33,0,2.41,1.08,2.41,2.41v.21c0,1.33-1.08,2.41-2.41,2.41h-14.28c-1.33,0-2.41,1.08-2.41,2.41v9.87c0,1.33,1.08,2.41,2.41,2.41h13.25c1.33,0,2.41,1.08,2.41,2.41v.14c0,1.33-1.08,2.41-2.41,2.41Z"/><path d="M149.72,75.3c0,1.06-.68,1.99-1.69,2.3-2.94,.92-7.44,1.99-12.6,1.99-7.04,0-12.84-1.79-17.39-6.14-4-3.86-6.49-10.07-6.49-17.32,.07-13.87,9.59-24.01,25.19-24.01,3.84,0,7.08,.6,9.35,1.29,1.27,.39,1.98,1.72,1.61,3l-.08,.26c-.39,1.31-1.78,2.02-3.08,1.6-2.08-.66-4.61-1.11-7.94-1.11-11.32,0-18.7,7.04-18.7,18.7s7.11,18.77,17.94,18.77c2.6,0,4.66-.24,6.16-.61,1.09-.26,1.85-1.23,1.85-2.35v-9.74c0-1.33-1.08-2.41-2.41-2.41h-4.62c-1.33,0-2.41-1.08-2.41-2.41h0c0-1.33,1.08-2.41,2.41-2.41h10.49c1.33,0,2.41,1.08,2.41,2.41v18.2Z"/><path d="M161.31,32.6h1.17c1.33,0,2.41,1.08,2.41,2.41v36.64c0,1.33,1.08,2.41,2.41,2.41h15.04c1.33,0,2.41,1.08,2.41,2.41v.21c0,1.33-1.08,2.41-2.41,2.41h-21.05c-1.33,0-2.41-1.08-2.41-2.41V35.02c0-1.33,1.08-2.41,2.41-2.41Z"/><path d="M213.13,57.31h-13.25c-1.33,0-2.41,1.08-2.41,2.41v11.94c0,1.33,1.08,2.41,2.41,2.41h15.32c1.33,0,2.41,1.08,2.41,2.41v.21c0,1.33-1.08,2.41-2.41,2.41h-21.32c-1.33,0-2.41-1.08-2.41-2.41V35.02c0-1.33,1.08-2.41,2.41-2.41h20.29c1.33,0,2.41,1.08,2.41,2.41v.21c0,1.33-1.08,2.41-2.41,2.41h-14.29c-1.33,0-2.41,1.08-2.41,2.41v9.87c0,1.33,1.08,2.41,2.41,2.41h13.25c1.33,0,2.41,1.08,2.41,2.41v.14c0,1.33-1.08,2.41-2.41,2.41Z"/><path d="M231.41,51.99c0,1.33,1.08,2.41,2.41,2.41h3.73c6.42,0,10.49-3.52,10.49-8.83,0-6-4.35-8.63-10.7-8.69-1.49,0-2.76,.07-3.78,.18-1.23,.13-2.16,1.17-2.16,2.4v12.53Zm-6-16.73c0-1.19,.86-2.22,2.04-2.39,2.79-.4,6.2-.62,9.48-.62,6.42,0,10.56,1.17,13.46,3.8,2.35,2.07,3.66,5.24,3.66,8.83,0,6.14-3.86,10.21-8.76,11.87v.21c3.59,1.24,5.73,4.55,6.83,9.38,.95,4.07,1.74,7.35,2.44,9.68,.46,1.54-.71,3.09-2.32,3.09h-1.13c-1.03,0-1.95-.64-2.28-1.62-.66-1.97-1.48-5.25-2.43-9.49-1.38-6.42-3.86-8.83-9.32-9.04h-3.24c-1.33,0-2.41,1.08-2.41,2.41v15.32c0,1.33-1.08,2.41-2.41,2.41h-1.17c-1.33,0-2.41-1.08-2.41-2.41V35.26Z"/></g><path class="cls-1" d="M62.21,34.62c1.08-.05,2.12,.42,2.8,1.27,.13,.16,.4,.13,.53,0,.16-.16,.13-.37,0-.53-.79-.99-2.07-1.56-3.33-1.49-.2,.01-.38,.17-.38,.38,0,.2,.17,.39,.38,.38h0Z"/><path class="cls-1" d="M101.09,33.93c1.08-.05,2.12,.42,2.8,1.27,.13,.16,.4,.13,.53,0,.16-.16,.13-.37,0-.53-.79-.99-2.07-1.56-3.33-1.49-.2,.01-.38,.17-.38,.38,0,.2,.17,.39,.38,.38h0Z"/><path class="cls-1" d="M142.7,34.62c1.08-.05,2.12,.42,2.8,1.27,.13,.16,.4,.13,.53,0,.16-.16,.13-.37,0-.53-.79-.99-2.07-1.56-3.33-1.49-.2,.01-.38,.17-.38,.38,0,.2,.17,.39,.38,.38h0Z"/><path class="cls-1" d="M161.25,34.52c.92-.04,1.83,.3,2.44,1,.13,.15,.39,.14,.53,0,.15-.15,.13-.38,0-.53-.73-.83-1.88-1.26-2.97-1.21-.2,0-.38,.17-.38,.38,0,.2,.17,.38,.38,.38h0Z"/><path class="cls-1" d="M212.18,33.93c1.08-.05,2.12,.42,2.8,1.27,.13,.16,.4,.13,.53,0,.16-.16,.13-.37,0-.53-.79-.99-2.07-1.56-3.33-1.49-.2,.01-.38,.17-.38,.38,0,.2,.17,.39,.38,.38h0Z"/><path class="cls-1" d="M244.14,34.62c1.08-.05,2.12,.42,2.8,1.27,.13,.16,.4,.13,.53,0,.16-.16,.13-.37,0-.53-.79-.99-2.07-1.56-3.33-1.49-.2,.01-.38,.17-.38,.38,0,.2,.17,.39,.38,.38h0Z"/></g></g></svg>