<?xml version="1.0" encoding="UTF-8"?><svg id="Lag_2" xmlns="http://www.w3.org/2000/svg" width="233.81" height="202.06" viewBox="0 0 233.81 202.06"><defs><style>.cls-1{fill:#fff;}.cls-2{fill:#8c6749;}.cls-3{fill:#a83d35;}.cls-4{fill:#a67c52;}.cls-5{fill:#892f25;}.cls-6{fill:#603813;}.cls-7{fill:#754c24;}</style></defs><g id="Lag_1-2"><g><path class="cls-1" d="M41.78,111.77c1.93,0,1.93-3,0-3s-1.93,3,0,3h0Z"/><path class="cls-7" d="M209.66,113.57L73.11,183.75c-9.27,4.76-20.65,1.11-25.41-8.16L12.46,107.03c-4.76-9.27-1.11-20.65,8.16-25.41L157.18,11.44c9.27-4.76,20.65-1.11,25.41,8.16l35.24,68.56c4.76,9.27,1.11,20.65-8.16,25.41Zm22.54-13.57L184.86,7.88c-3.66-7.13-12.41-9.94-19.54-6.27L7.88,82.52c-7.13,3.66-9.94,12.41-6.27,19.54l47.34,92.12c3.66,7.13,12.41,9.94,19.54,6.27L225.93,119.54c7.13-3.66,9.94-12.41,6.27-19.54Z"/><path class="cls-4" d="M185.47,17.27c-4.76-9.27-16.14-12.92-25.41-8.16L16.69,82.05c-9.27,4.76-12.92,16.14-8.16,25.41l35.24,70.9c4.76,9.27,16.14,12.92,25.41,8.16L212.55,113.57c9.27-4.76,12.92-16.14,8.16-25.41L185.47,17.27Z"/><circle class="cls-5" cx="74.54" cy="116.96" r="42.36"/><circle class="cls-5" cx="154.41" cy="74.6" r="42.36"/><path class="cls-6" d="M226.33,91.31s19.23,21.29-9.34,31.73c-28.57,10.44,18-8.38-4.81,2.61s-9.07,4.53-9.07,4.53l-7.28,3.57-3.3,1.92-5.77,2.75-5.77,3.02-3.43,1.79-3.98,2.06-3.98,2.06-4.53,2.2-3.16,1.65-3.02,1.37-3.3,1.65-3.71,2.06-5.36,2.47-5.08,2.88-2.88,1.65-2.75,1.24-3.02,1.79-4.26,2.06-8.65,4.4-16.21,7.97-7.83,4.26-7.69,3.61-4.53,2.57-3.57,1.92-2.61,1.37-2.87,1.65-3.72,1.92-3.3,1.24-1.53,.62-5.84,1.09-1.7-.33-2.75-.82-2.75-2.2-1.79-1.65-1.3-2.01-1.61-3.41c-1.12-.1,11.2,8.29,17.37,5.14,3.41-1.74,15.21-7.09,15.21-7.09l5.77-2.76,5.91-2.63,6.32-3.3,10.17-5.36,7.89-4.67,6.81-4.12,7.69-3.57,4.67-1.65,7.14-3.43,5.77-3.57,6.18-3.02,6.18-3.3,11.4-6.59,14.97-8.65,13.05-7.14,16.07-7.87s15.39-6.42,9.48-25.65Z"/><circle class="cls-3" cx="76.29" cy="115.18" r="38.86"/><circle class="cls-3" cx="155.76" cy="72.08" r="38.86"/><circle class="cls-1" cx="63.28" cy="94.24" r=".73"/><circle class="cls-1" cx="80.97" cy="138.73" r=".73"/><circle class="cls-1" cx="61.69" cy="120.16" r=".73"/><circle class="cls-1" cx="48.93" cy="110.94" r=".73"/><circle class="cls-1" cx="77.19" cy="111.67" r=".73"/><circle class="cls-1" cx="81.92" cy="121.62" r=".73"/><circle class="cls-1" cx="95.23" cy="108.07" r=".73"/><circle class="cls-1" cx="82.65" cy="93.82" r=".73"/><circle class="cls-1" cx="63.28" cy="85.64" r=".73"/><circle class="cls-1" cx="45.5" cy="123.17" r=".73"/><circle class="cls-1" cx="60.95" cy="108.07" r=".73"/><circle class="cls-1" cx="52.33" cy="98.33" r=".73"/><circle class="cls-1" cx="74.54" cy="102.27" r=".73"/><circle class="cls-1" cx="63.28" cy="139.39" r=".73"/><circle class="cls-1" cx="93.47" cy="138.73" r=".73"/><circle class="cls-1" cx="95.71" cy="130.09" r=".73"/><circle class="cls-1" cx="96.87" cy="94.24" r=".73"/><circle class="cls-1" cx="101.43" cy="116.96" r=".73"/><circle class="cls-1" cx="74.54" cy="130.55" r=".73"/><circle class="cls-1" cx="54.53" cy="133.01" r=".73"/><circle class="cls-1" cx="78.32" cy="84.58" r=".73"/><circle class="cls-1" cx="106.3" cy="102.27" r=".73"/><circle class="cls-1" cx="106.09" cy="125.88" r=".73"/><circle class="cls-1" cx="145.52" cy="51.14" r=".73"/><circle class="cls-1" cx="163.21" cy="95.63" r=".73"/><circle class="cls-1" cx="143.92" cy="77.06" r=".73"/><circle class="cls-1" cx="131.17" cy="67.84" r=".73"/><circle class="cls-1" cx="159.43" cy="68.57" r=".73"/><circle class="cls-1" cx="164.16" cy="78.52" r=".73"/><circle class="cls-1" cx="177.47" cy="64.97" r=".73"/><circle class="cls-1" cx="164.89" cy="50.72" r=".73"/><circle class="cls-1" cx="145.52" cy="42.54" r=".73"/><circle class="cls-1" cx="127.74" cy="80.07" r=".73"/><circle class="cls-1" cx="143.19" cy="64.97" r=".73"/><circle class="cls-1" cx="134.56" cy="55.23" r=".73"/><circle class="cls-1" cx="156.78" cy="59.17" r=".73"/><circle class="cls-1" cx="145.52" cy="96.29" r=".73"/><circle class="cls-1" cx="175.71" cy="95.63" r=".73"/><circle class="cls-1" cx="177.95" cy="86.99" r=".73"/><circle class="cls-1" cx="179.11" cy="51.14" r=".73"/><circle class="cls-1" cx="183.67" cy="73.86" r=".73"/><circle class="cls-1" cx="156.78" cy="87.45" r=".73"/><circle class="cls-1" cx="136.77" cy="89.91" r=".73"/><circle class="cls-1" cx="160.56" cy="41.48" r=".73"/><circle class="cls-1" cx="188.54" cy="59.17" r=".73"/><circle class="cls-1" cx="188.33" cy="82.78" r=".73"/><path class="cls-2" d="M126.33,115.54c4.31,2.34,9.47,2.59,13.61,5.2,9.46,5.96,21.94,6.82,32.13,2.19,10.18-4.62,21.5-26.25,23.24-37.3-7.07,17.9-17.92,26.32-27.47,29.05-9.08,2.59-21.21,2.99-29.74-1.06-5.74-2.72-17.01-6.52-25.65-28.78-1.2-3.1,6.03,22.83,8.16,25.26s3.09,4.01,5.72,5.43Z"/><path class="cls-2" d="M46.67,156.84c4.31,2.34,9.47,2.59,13.61,5.2,9.46,5.96,21.94,6.82,32.13,2.19,10.18-4.62,21.5-26.25,23.24-37.3-7.07,17.9-17.92,26.32-27.47,29.05-9.08,2.59-21.21,2.99-29.74-1.06-5.74-2.72-17.01-6.52-25.65-28.78-1.2-3.1,6.03,22.83,8.16,25.26s3.09,4.01,5.72,5.43Z"/></g></g></svg>