<?xml version="1.0" encoding="UTF-8"?><svg id="Lag_2" xmlns="http://www.w3.org/2000/svg" width="1920" height="1080" viewBox="0 0 1920 1080"><defs><style>.cls-1,.cls-2{fill:none;}.cls-3{fill:#f49c45;}.cls-4{fill:#fc3d3d;}.cls-5{fill:#020100;}.cls-6{fill:#f15a24;}.cls-7{fill:#f7931e;}.cls-8{fill:#fff;}.cls-9{fill:#fccea7;}.cls-10{fill:#ff9699;}.cls-11{fill:#7dd4ef;}.cls-12{fill:#96e096;}.cls-13{fill:#8ab58a;}.cls-14{fill:#92dbff;}.cls-15{fill:#8c6239;}.cls-16{fill:#b8f2b8;}.cls-17{fill:#a67c52;}.cls-18{fill:#b0f7b0;}.cls-19{fill:#cc9d3e;}.cls-20{fill:#c49249;}.cls-21{fill:#e25124;}.cls-22{fill:#ad7e31;}.cls-23{fill:#c69c6d;}.cls-24{fill:#202359;}.cls-2{stroke:#000;stroke-miterlimit:10;stroke-width:2px;}</style></defs><g><path class="cls-22" d="M1866.84,530.13c16.2,80.73,32.4,161.47,48.6,242.2-51.77-17.07-110.21-21.33-165.07-12.04,10.72-51.75,21.43-103.5,32.15-155.25,3.66-17.66,2.04-52.91,14.9-67.72,13.77-15.86,47.53-7.96,69.43-7.19Z"/><circle class="cls-12" cx="1743.71" cy="545.82" r="48.06"/><circle class="cls-12" cx="1915.92" cy="528.71" r="54.91"/><path class="cls-20" d="M1859.34,705.41c1.36,14.65-.68,50.63,9.76,53.09,36.82,8.68,11.94,1.47,43.77,13.83-7.26-52.99-17.48-109.98-20.94-164.55-.4-6.36-.78-12.82-2.39-18.8-1.61-5.98-4.67-11.51-8.96-13.74-7.17-3.73-14.84,2.58-21.16,8.61-6.44,6.15-5,9.42-3.68,18.21,1.52,10.18,.02,22.25,.09,32.69,.16,23.62,1.33,47.23,3.51,70.66Z"/><circle class="cls-18" cx="1833.17" cy="515.19" r="41.4"/><ellipse class="cls-12" cx="1839.83" cy="527.49" rx="66.19" ry="70.53" transform="translate(-20.27 76.65) rotate(-2.37)"/><circle class="cls-12" cx="1791.77" cy="473.8" r="41.4"/><circle class="cls-12" cx="1854.61" cy="458.46" r="52.62"/><path class="cls-16" d="M1807.3,435.41c-2.48,5.99,24.35-22.93,41.27-22.81,8.62,.06,24.52,4.4,36.25,15.3,6.13,5.69,17.32,17.31,18.23,24.94,2.17,18.11,.49,30.11,2.48,20.3,.72-3.57,1.69-12.72,1.68-14.68-.04-18.72-2.37-22.8-11.56-32.97-19-21.02-36.35-20.1-44.58-19.65-6.05,.33-20.97,5.57-24.67,8.19-4.49,3.18-14.47,10.14-19.11,21.37Z"/><path class="cls-16" d="M1891.02,480.25c-5.23,3.83,32.71-6.94,47.11,1.95,7.33,4.53,18.67,16.5,23.03,31.9,2.28,8.05,5.81,23.79,2.63,30.78-7.56,16.6-13.87,27.47-7.08,20.13,2.47-2.67,6.74-7.7,8.77-12.63,6.6-16.06,7.19-21.01,6.2-34.71-2.04-28.26-20.62-36.05-27.89-39.94-5.34-2.86-20.82-6.14-25.34-5.81-5.49,.39-17.63,1.15-27.43,8.33Z"/><path class="cls-16" d="M1772.68,438.14c-3.59,2.63,22.48-4.77,32.37,1.34,5.04,3.11,12.83,11.33,15.83,21.92,1.57,5.53,3.99,16.35,1.8,21.15-5.19,11.41-9.53,18.87-4.87,13.83,1.7-1.84,4.63-5.29,6.02-8.67,4.53-11.03,4.94-14.44,4.26-23.85-1.4-19.42-14.17-24.77-19.16-27.45-3.67-1.97-14.3-4.22-17.41-3.99-3.77,.27-12.12,.79-18.85,5.73Z"/><g><path class="cls-13" d="M1881.03,584.42c3.65-4.5-28.97,13.84-46.05,9.87-8.69-2.02-23.93-9.32-33.7-21.21-5.1-6.21-14.19-18.59-13.65-25.25,1.27-15.82,3.42-26.5-.46-18.66-1.41,2.85-3.71,8.12-3.88,12.76-.55,15.12-4.77,19.96,1.14,31.24,12.18,23.28,38.32,24.77,46.72,26.27,6.18,1.1,22.25,.08,26.49-1.3,5.14-1.67,16.56-5.28,23.39-13.71Z"/><path class="cls-16" d="M1772.34,584.41c3.17-1.7,8.45-6.27,12.1-11.25,10.15-13.85,11.09-19.82,10.82-32.97-.56-27.13-20.73-34.54-27.2-37.95-4.76-2.51-18.77-4.95-22.92-4.43-5.04,.63-16.19,1.93-25.5,9.3-4.97,3.94,30.26-8.21,43.03-.31,6.5,4.02,13.39,12.63,16.68,27.27"/></g><path class="cls-13" d="M1764.68,589.07c3.52-1.34-23.08-.74-31.7-2.76-4.39-1.03-13.28-2.87-17.86-10.48-2.39-3.98-6.68-11.55-8.86-15.5-6.09-11.07-7.78-32.22-9.1-26.5-1.51,6.57-1.09,15.06-1.11,18.19-.09,10.08,4.48,15.12,9.18,22.2,8.91,13.4,21.26,16.58,25.28,18.16,1.39,.55,11.57,2.3,16.13,1.6,9.2-1.4,5.45-.1,18.05-4.91Z"/><path class="cls-13" d="M1942.44,575.43c1.59-1.78-14.82,6.18-24.76,5.45-5.07-.37-14.32-2.39-20.98-6.28-3.48-2.03-9.8-6.14-10.17-8.56-.88-5.76-.75-9.71-2.13-6.72-.5,1.09-1.26,3.09-.89,4.77,1.21,5.48-.66,7.4,3.77,11.24,9.15,7.91,23.92,7.38,28.77,7.58,3.56,.14,12.45-.88,14.68-1.55,2.71-.81,8.73-2.58,11.71-5.91Z"/><path class="cls-16" d="M1830.67,486.88c-5.98,2.69,32.58-.49,43.55,10.74,5.59,5.72,12.82,19.33,12.56,34.91-.13,8.14-1.27,23.89-6.22,29.99-11.75,14.49-20.73,23.71-12.31,17.96,3.07-2.1,8.48-6.11,11.77-10.45,10.7-14.15,12.66-18.79,15.59-32.1,6.06-27.47-9.13-38.44-14.84-43.53-4.19-3.75-17.75-9.8-22.08-10.34-5.25-.66-16.83-2.22-28.03,2.82Z"/><path class="cls-8" d="M1857.42,421.5c9.39-.19,17.54,3.88,23.33,11.22,3.98,5.05,11.02-2.07,7.07-7.07-7.32-9.27-18.63-14.39-30.4-14.15-6.43,.13-6.45,10.13,0,10h0Z"/><path class="cls-8" d="M1759.39,513.44c8.17,3.15,14.15,10.15,16.47,18.51,1.72,6.19,11.37,3.56,9.64-2.66-3.32-11.95-11.95-21.06-23.45-25.5-6.01-2.32-8.61,7.35-2.66,9.64h0Z"/></g><path class="cls-19" d="M642.98,869.95c-99.36-116.35-234.13-192.81-373.37-240.35-139.24-47.54-284.12-68.21-428.07-88.65-36.73-5.22-78.89-8.67-104.6,18.42-29.48,31.06-21.01,84.05-10.52,128.21,26.28,110.69,52.55,221.38,78.83,332.07,32.63,137.46,70.11,283.8,169.27,380.47,110.59,107.81,276.03,127.1,416.67,88.39,81.65-22.47,157.36-62,229.07-107.38,42.36-26.81,127.58-63.11,155.23-108.4,65.06-106.59-65.33-324.11-132.51-402.78Z"/><line class="cls-1" x1="1094.6" y1="715.51" x2="1365.58" y2="607.6"/><line class="cls-1" x1="1094.6" y1="715.51" x2="1353.78" y2="612.3"/><path class="cls-19" d="M1875.89,1188.73c60.56-5.42,104.03-130.26,63.22-189.06-96.03-138.4-502.36-18.52-665.22-44.99-240.89-39.16-913.24-24.8-944.77-177.57-37.15-180-8.45,103.02-151.79,179.22-36.57,19.44-75.04,44.03-57.97,85.23,19.57,47.24,99.91,89.23,169.6,121.98,174.66,82.09,308.37-49.36,483.03,32.73,216.89,101.93,437.49,37.21,650.88,58.84"/><g><path class="cls-9" d="M423.92,910.23c0,127.03-74.35,170.62-171.01,170.62s-179.03-43.59-179.03-170.62,78.36-230.01,175.02-230.01,175.02,102.98,175.02,230.01Z"/><circle class="cls-8" cx="477.19" cy="934.67" r="1.61"/><circle class="cls-8" cx="510.41" cy="932.33" r="1.61"/><path class="cls-8" d="M238.73,436.53l-2.35,.16c4.75,8.45,8.6,17.33,11.55,26.49,.66-.45,1.25-.99,1.73-1.63-2.85-8.63-6.51-17-10.94-25.02Z"/><ellipse class="cls-9" cx="242.92" cy="573.58" rx="141.76" ry="135.29"/><path class="cls-24" d="M108.8,490.98c10.79-39.68,40.24-73.85,77.89-90.38,4.42,7.1,13.55,10.39,21.85,9.32,10.55-1.36,19.95-9.38,22.95-19.59,14.17-2.34,29.13-3.12,43.1,.2,24.63,5.85,46.69,20.32,64.14,38.65,14.64,15.38,26.49,33.99,31.05,54.73-76.98,4.66-153.96,9.32-230.94,13.98-10.22,.62-22.11-.45-30.04-6.91Z"/><path class="cls-1" d="M194.28,398.72c-29.72,22.54-51.92,54.82-62.34,90.64"/><path class="cls-1" d="M245.42,412.3c13.4,2.27,26.68,5.73,39.03,11.41,12.35,5.68,23.78,13.65,32.52,24.06,12.84,15.31,19.17,34.88,25.22,53.92"/><path class="cls-1" d="M224.99,395.59c17.15,6.2,30.29,20.68,38.68,36.87,8.4,16.19,12.64,34.15,16.8,51.9"/><path class="cls-1" d="M203.43,404.69c-20.47,22.54-30.52,54.18-26.81,84.4"/><rect class="cls-4" x="102.4" y="487.59" width="281.25" height="46.84" rx="9.54" ry="9.54" transform="translate(-14.08 6.94) rotate(-1.59)"/><path class="cls-24" d="M185.57,401.19c-2.06,.99-4.29,2.35-4.65,4.47-.26,1.53,.57,3.03,1.52,4.31,5.73,7.71,16.87,11.17,26.89,9.61,10.01-1.56,18.79-7.56,24.75-15.12,1.45-1.84,8.94-6.83,9.07-9.1,.3-5.12-4.67-5.38-8.53-5.52-5.1-.18-11.74,.87-16.85,1.32-9.97,.87-23.32,5.75-32.2,10.03Z"/><circle class="cls-4" cx="236.38" cy="380.91" r="26.05"/><path class="cls-9" d="M186.3,651.76c-.49-.13-1-.14-1.49-.08,.46-.04,.95-.02,1.49,.08Z"/><path class="cls-9" d="M85.14,559.99c-4.82,10.55-.16,23.06,10.39,27.88,4.99,2.28,10.67,2.48,15.81,.65-1.92-13.06-2.01-26.39-.15-39.65-10.13-3.54-21.51,1.17-26.05,11.12Z"/><path class="cls-9" d="M392.98,555.92l.92,30.55c.85-10.24,.53-20.48-.92-30.55Z"/><polygon class="cls-9" points="394.04 590.99 393.99 589.26 394.04 590.99 394.04 590.99"/><path class="cls-5" d="M202.44,552.26c-15.16-6.42-32.72,.69-39.15,15.85-6.21,14.66,.26,31.54,14.4,38.45-2.59-1.54-4.51-3.92-5.38-6.83-.92-3.06-.59-6.3,.93-9.12s4.04-4.87,7.1-5.79c3.06-.92,6.3-.59,9.12,.93,2.82,1.52,4.87,4.04,5.79,7.1s.59,6.3-.93,9.12c-1.52,2.82-4.04,4.87-7.1,5.79-2.08,.63-4.25,.66-6.31,.15,14.73,5.17,31.19-1.92,37.37-16.5,6.42-15.16-.69-32.72-15.85-39.15Zm-10.09,34.87c-8.69-3.68-12.76-13.74-9.08-22.43s13.74-12.76,22.43-9.08c8.69,3.68,12.76,13.74,9.08,22.43-3.68,8.69-13.74,12.76-22.43,9.08Z"/><path d="M222.36,593.13c7.37-17.4-.79-37.56-18.19-44.94-17.4-7.37-37.56,.79-44.94,18.19-7.37,17.4,.79,37.56,18.19,44.94,17.4,7.37,37.56-.79,44.94-18.19Zm-61.1-25.88c6.91-16.31,25.73-23.93,42.04-17.02,16.31,6.91,23.93,25.73,17.02,42.04-6.91,16.31-25.73,23.93-42.04,17.02-16.31-6.91-23.93-25.73-17.02-42.04Z"/><path d="M220.32,592.26c6.91-16.31-.71-35.13-17.02-42.04-16.31-6.91-35.13,.71-42.04,17.02-6.91,16.31,.71,35.13,17.02,42.04,16.31,6.91,35.13-.71,42.04-17.02Zm-39.4,15.64c-.61-.15-1.2-.33-1.79-.58-.35-.15-.69-.31-1.03-.49-.15-.08-.27-.19-.41-.28-14.15-6.91-20.62-23.78-14.4-38.45,6.42-15.16,23.98-22.27,39.15-15.85,15.16,6.42,22.27,23.98,15.85,39.15-6.17,14.57-22.63,21.67-37.37,16.5Z"/><path class="cls-8" d="M203.98,559.68c-6.45-2.73-13.91,.29-16.64,6.74-2.73,6.44,.29,13.91,6.74,16.64,6.44,2.73,13.91-.29,16.64-6.74s-.29-13.91-6.74-16.64Z"/><path d="M205.7,555.62c-8.69-3.68-18.75,.39-22.43,9.08s.39,18.75,9.08,22.43c8.69,3.68,18.75-.39,22.43-9.08,3.68-8.69-.39-18.75-9.08-22.43Zm-12.49,29.48c-7.58-3.21-11.12-11.96-7.91-19.53s11.96-11.12,19.53-7.91c7.58,3.21,11.12,11.96,7.91,19.53-3.21,7.58-11.96,11.12-19.53,7.91Z"/><path d="M204.84,557.65c-7.58-3.21-16.32,.33-19.53,7.91s.33,16.32,7.91,19.53c7.58,3.21,16.32-.33,19.53-7.91,3.21-7.58-.33-16.32-7.91-19.53Zm-10.76,25.41c-6.45-2.73-9.47-10.2-6.74-16.64,2.73-6.44,10.2-9.47,16.64-6.74,6.44,2.73,9.47,10.2,6.74,16.64s-10.2,9.47-16.64,6.74Z"/><path class="cls-8" d="M191.03,594.11c-.58-1.93-1.88-3.52-3.66-4.48-.21-.11-.43-.22-.65-.31-1.62-.68-3.4-.79-5.11-.27-1.93,.58-3.52,1.88-4.48,3.65-.96,1.78-1.16,3.82-.58,5.75,.58,1.93,1.88,3.53,3.66,4.48,1.78,.94,3.82,1.16,5.75,.58,1.93-.58,3.52-1.88,4.48-3.66,.96-1.78,1.16-3.82,.58-5.75Z"/><path d="M194.33,601.96c1.52-2.82,1.85-6.05,.93-9.12s-2.98-5.59-5.79-7.1c-2.82-1.52-6.05-1.85-9.12-.93-3.06,.92-5.59,2.98-7.1,5.79s-1.85,6.06-.93,9.12c.87,2.9,2.79,5.29,5.38,6.83,.48,.23,.95,.49,1.44,.7,.59,.25,1.19,.44,1.78,.65,2.06,.51,4.22,.48,6.31-.15,3.06-.92,5.59-2.98,7.1-5.79Zm-19.9-2.87c-1.55-5.17,1.38-10.61,6.55-12.16,5.17-1.55,10.61,1.38,12.16,6.55s-1.38,10.61-6.55,12.16c-5.17,1.55-10.61-1.38-12.16-6.55Z"/><path d="M177.7,606.55c.14,.09,.26,.2,.41,.28,.34,.18,.68,.34,1.03,.49,.58,.25,1.18,.43,1.79,.58-.59-.21-1.19-.4-1.78-.65-.5-.21-.96-.47-1.44-.7Z"/><polygon points="121.41 523.87 121.46 523.86 121.41 523.87 121.41 523.87"/><path class="cls-10" d="M293.2,629.3c-.1,7.58,10.49,13.86,23.63,14.03,13.15,.17,23.88-5.85,23.98-13.43,.1-7.58-10.49-13.86-23.63-14.03-13.15-.17-23.88,5.85-23.98,13.43Z"/><ellipse class="cls-10" cx="177.49" cy="629.6" rx="13.73" ry="23.81" transform="translate(-454.31 799.13) rotate(-89.28)"/><path d="M253.61,633.55c5.92-1.14,11.6-3.34,16.69-6.5h0c-5.48,2.08-11.12,3.91-16.97,4.21-4.91,.17-11.39,0-13.88-4.78l-3.94,1.99c3.72,6.16,11.95,6.19,18.1,5.08Z"/><path d="M263.03,623.37c-5.77-4.64-8.93-13.16-6.18-19.97l-4.22-1.29c-1.49,5.76,0,12.02,3.5,16.67,3.33,4.41,8.22,7.77,13.65,8.72h0c-2.42-1.19-4.77-2.41-6.75-4.13Z"/><path d="M337.91,555.11l3.26-2.98c-9.37-10.26-21.93-19.03-27.36-14.08l2.98,3.26c1.63-1.49,10.89,2.61,21.11,13.8Z"/><path d="M180.26,543.58l3.54-2.64c-4.38-5.9-18.38,.34-29.53,8.63l2.63,3.55c12.16-9.04,22.02-11.32,23.35-9.54Z"/><path class="cls-9" d="M397.54,571.64c4.4-10.73-.74-23.04-11.47-27.45-5.08-2.09-10.76-2.07-15.82-.04,2.42,12.97,3.03,26.29,1.69,39.61,10.26,3.14,21.44-2.01,25.6-12.13Z"/><circle cx="305.89" cy="579.74" r="34.71"/><path class="cls-8" d="M298.76,559.68c-6.45-2.73-13.91,.29-16.64,6.74s.29,13.91,6.74,16.64c6.44,2.73,13.91-.29,16.64-6.74,2.73-6.44-.29-13.91-6.74-16.64Z"/><path class="cls-8" d="M193.14,593.48c-1.55-5.17-6.99-8.1-12.16-6.55-5.17,1.55-8.1,6.99-6.55,12.16s6.99,8.1,12.16,6.55c5.17-1.55,8.1-6.99,6.55-12.16Zm-7.18,10.04c-1.93,.58-3.98,.36-5.75-.58-1.78-.96-3.08-2.55-3.66-4.48-.58-1.93-.37-3.98,.58-5.75,.96-1.78,2.55-3.07,4.48-3.65,1.7-.51,3.49-.41,5.11,.27,.22,.09,.43,.2,.65,.31,1.78,.96,3.08,2.55,3.66,4.48,.58,1.93,.37,3.98-.58,5.75-.96,1.78-2.55,3.08-4.48,3.66Zm122.1,0c-1.93,.58-3.98,.36-5.75-.58-1.78-.96-3.08-2.55-3.66-4.48-.58-1.93-.37-3.98,.58-5.75,.96-1.78,2.55-3.07,4.48-3.65,1.7-.51,3.49-.41,5.11,.27,.22,.09,.43,.2,.65,.31,1.78,.96,3.08,2.55,3.66,4.48,.58,1.93,.37,3.98-.58,5.75-.96,1.78-2.55,3.08-4.48,3.66Z"/><path class="cls-8" d="M276.35,415.78c20.13,3.92,37.9,15.63,49.07,32.9,3.48,5.38,12.14,.38,8.63-5.05-12.51-19.34-32.38-33.08-55.04-37.49-6.29-1.23-8.98,8.41-2.66,9.64h0Z"/><path d="M215.4,681.97c12.3,2.96,24.85,4.87,37.47,5.71,11.31,.75,23.32,.48,33.06-5.32,5.6-3.33,10.26-8.61,11.72-14.96,1.46-6.34-.78-13.68-6.21-17.27-3.91-2.59-8.83-3.02-13.51-3.35-13.3-.95-26.62-1.78-39.94-2.48-10.09-.53-24.15-3.75-33.88,.11-7.14,2.84-9.98,9.6-9.88,17.05,.17,12.71,10.11,17.83,21.17,20.5Z"/><path class="cls-9" d="M425.06,931.6l5.95-6.07c45.01-45.29,76.49-63.29,76.91-63.53l2.54-1.42-2.61-1.37c-1.23-.65-123.87-65.58-163.23-125.53-.2-.26-8.2-9.91-3.23-19.51,.41-.02,.92-.03,1.51-.03,13.23,0,71.69,6.56,188.27,107.07l.31,.22c2.41,1.51,58.38,37.64,4.3,92.56-57.47,58.37-89.86,86.29-100.99,92.97-11.89,7.12-63.91,32.11-77.18,26.25-4.8-2.12-8.68-10.97,19.31-46.42,17.25-21.85,33.72-40.35,48.82-55.9l-.68,.71h0Z"/><path class="cls-4" d="M-1.91,754.87c6.05,6.03,15,10.6,18.6,14.66,1.36,1.53,2.53,2.68,3.53,3.78,5.65,6.24,21.69,35.35,22.42,69.94,.06,2.73,2.98,4.59,5.7,4,3.25-.71,7.74-.4,12.25-.09,6.49,.45,11.57,5.71,11.69,12.11,1.02,53.77,.03,74.32,.03,74.32,7.51,8.72,39.01,58.31,39.01,58.31l32.74,36.6c-35.74,17.94-51.97-25.54-53.5,9.88-1.95,45.05,4.1,39.42,19.85,39.8,58.15,1.4,301.34,2.8,300.7-.08-13.77-61.4,28.82-156.53,15.05-217.94-2.13-9.5,8.94-16.45,16.81-10.56l7.3,5.47c2.68,2.01,6.54,.68,7.44-2.52,9.33-33.17-.86-71.71,32.21-98.36,2.89-2.33,2.12-6.84-1.4-8.04-50.95-17.39-112.28-26.39-162.01-44.77-1.64-.6-36.86,53.48-72.11,45.65-95.72-21.24-48.51-56.93-76.71-47.92C53.95,738.63,41.74,732.2-.14,747.28c-3.2,1.15-4.17,5.2-1.77,7.59Z"/><path class="cls-9" d="M123.62,990.9c-17.99-22.64-35.17-41.82-50.95-57.98l-5.91-5.98c-47.31-47.28-80.4-66.07-80.85-66.32l-2.67-1.49,2.75-1.43c.57-.3,26.23-13.79,58.21-34.17-1.57-13.75-5.96-27.4-12.76-39.37-.73-1.29-1.34-2.57-1.88-3.84-.38-.47-.71-.97-1.02-1.5-.54-.46-1.04-.96-1.44-1.57-25.47,12.81-49.1,26.61-65.64,40.77l-.32,.23c-2.53,1.58-61.37,39.29-4.52,96.63,60.41,60.94,94.45,90.09,106.16,97.06,12.5,7.44,67.18,33.52,81.13,27.41,5.05-2.21,9.13-11.45-20.29-48.46Z"/></g><path class="cls-19" d="M1865.77,1196.75c98.34-28.04,178.29-81.16,240.24-141.87,61.95-60.71,107.49-129.23,152.68-197.32,11.53-17.37,23.1-37.79,10.99-55.65-13.89-20.48-50.56-26.08-81.88-29.03-78.49-7.41-156.99-14.81-235.48-22.22-97.47-9.2-201.85-17.62-287.22,13.97-95.21,35.23-144.38,114.27-150,191.68-3.26,44.94,5.99,90.08,19.97,134.3,8.26,26.13,13.29,75.41,36.93,97.62,55.65,52.26,227.27,27.49,293.76,8.53Z"/><g><g><path class="cls-14" d="M1086.79-83.4c12.23-10.93,31.09-13.73,45.97-6.83,14.88,6.9,24.92,23.1,24.49,39.5,17.34-18.24,47.91-22.02,69.18-8.55,21.27,13.47,30.92,42.71,21.84,66.19,12.76-.42,25.88-.78,37.92,3.47s22.95,14.24,24.41,26.93c1.55,13.43-7.94,26.2-19.81,32.67-11.87,6.47-25.74,7.94-39.2,9.17-91.01,8.28-183.57,10.63-272.98-8.25-9.95-2.1-20.54-4.87-27.16-12.59-7.66-8.93-7.71-22.84-1.93-33.08,5.78-10.25,16.42-17.08,27.68-20.51,11.26-3.43,23.2-3.82,34.96-3.78-3.17-12.96-3.25-27.08,2.31-39.2,5.56-12.13,17.45-21.78,30.78-22.33,12.69-.52,21.86,7.51,27.3,18.07,1.78-1.86,.17-7.24,.26-10.13,.11-3.8,.74-7.59,1.82-11.23,2.21-7.43,6.36-14.31,12.15-19.48Z"/><path class="cls-11" d="M969.51,29.92c1.44,9.23,8.08,17.01,15.99,21.98,7.91,4.98,17.05,7.56,26.08,9.97,35.3,9.44,71.02,17.3,107.02,23.55-45.35-3.05-92.69-2.2-136.94-12.59-8.67-2.04-22.6-4.03-32.61-15.69-7.88-9.19-5.27-24.1,.65-34.66,5.58-9.97,29.45-23.74,62.47-21.56-32.18,3.06-35.29,8.37-38.34,12.25-3.64,4.62-5.21,10.95-4.31,16.75Z"/></g><g><path class="cls-14" d="M643.12-56.24c13.56-13.67,35.46-18.28,53.38-11.25,17.92,7.03,30.83,25.31,31.48,44.55,19.04-22.6,54.58-29.18,80.45-14.9,25.87,14.28,39.24,47.87,30.26,76.02,14.93-1.39,30.27-2.74,44.68,1.39,14.41,4.13,27.89,15.07,30.5,29.83,2.76,15.63-7.45,31.26-20.9,39.67-13.45,8.42-29.6,11.12-45.28,13.51-106.05,16.12-214.34,25.39-320.44,9.58-11.8-1.76-24.41-4.26-32.71-12.83-9.61-9.93-10.64-26.21-4.59-38.63,6.05-12.42,18.04-21.17,30.99-25.99,12.95-4.82,26.91-6.11,40.7-6.89-4.63-14.96-5.71-31.5-.05-46.1s18.91-26.75,34.49-28.34c14.83-1.51,26.14,7.26,33.26,19.24,1.95-2.3-.31-8.49-.41-11.89-.13-4.46,.33-8.94,1.34-13.29,2.06-8.86,6.44-17.21,12.87-23.69Z"/><path class="cls-8" d="M760.93-19.28c13.12-3.25,28.09-5.38,40.11,2.39,5.45,3.53,8.94,9.03,11.31,14.96,1.75,4.37,2.09,11.83,6.36,14.47,2.43,1.51,5.33,.38,6.84-1.79l.21-.29c1.13-1.62,.85-4.79-.78-6.06l-.21-.17c-5.01-3.92-12.14,3.11-7.07,7.07l.21,.17-.78-6.06-.21,.29,6.84-1.79c2.77,1.72,.35-2.45-.13-3.9-.51-1.55-1.04-3.08-1.64-4.6-1.32-3.39-2.82-6.76-4.81-9.82-3.59-5.52-8.49-10.09-14.42-13-14.07-6.91-29.76-5.16-44.49-1.51-6.24,1.55-3.6,11.19,2.66,9.64h0Z"/><path class="cls-11" d="M513.7,84.81c2.34,10.72,10.67,19.36,20.29,24.63,9.62,5.27,20.52,7.65,31.26,9.85,42.02,8.58,84.43,15.27,127.06,20.05-53.36-.38-108.76,3.96-161.35-5.1-10.3-1.78-26.77-3.12-39.32-16.08-9.88-10.21-7.87-27.87-1.69-40.66,5.84-12.08,32.83-29.89,71.67-29.67-37.49,5.86-40.75,12.3-44.06,17.06-3.94,5.68-5.34,13.2-3.86,19.93Z"/></g><g><path class="cls-14" d="M848.41-22.55c11.55-11.64,30.21-15.57,45.47-9.58,15.27,5.99,26.27,21.56,26.81,37.96,16.22-19.25,46.5-24.86,68.54-12.69,22.04,12.17,33.43,40.78,25.78,64.76,12.72-1.18,25.78-2.34,38.06,1.18s23.76,12.83,25.98,25.41c2.35,13.31-6.35,26.63-17.81,33.8-11.46,7.17-25.21,9.47-38.58,11.51-90.35,13.73-182.6,21.63-272.99,8.16-10.06-1.5-20.79-3.63-27.86-10.93-8.18-8.46-9.07-22.33-3.91-32.91,5.16-10.58,15.37-18.03,26.4-22.14,11.03-4.1,22.92-5.21,34.67-5.87-3.94-12.75-4.87-26.83-.04-39.27,4.82-12.44,16.11-22.79,29.39-24.14,12.63-1.29,22.27,6.18,28.34,16.39,1.66-1.96-.26-7.24-.35-10.13-.11-3.8,.28-7.62,1.14-11.32,1.76-7.55,5.49-14.66,10.96-20.18Z"/><path class="cls-8" d="M948.96,9.65c10.79-2.66,23.24-4.56,33.21,1.7,4.23,2.66,7.05,6.63,9.08,11.13s2.33,9.79,5.35,13.42c2.22,2.67,6.18,1.39,7.85-1.01l.18-.25c1.13-1.62,.85-4.79-.78-6.06l-.18-.14c-5.01-3.92-12.14,3.11-7.07,7.07l.18,.14-.78-6.06-.18,.25,7.85-1.01c.77,.92-.41-2.5-.53-2.86-.48-1.5-.98-2.99-1.55-4.46-1.08-2.81-2.3-5.62-3.89-8.18-3.08-4.97-7.35-9.1-12.57-11.76-12.22-6.24-25.98-4.73-38.84-1.56-6.25,1.54-3.6,11.19,2.66,9.64h0Z"/><path class="cls-11" d="M738.15,97.61c1.99,9.13,9.09,16.49,17.28,20.98,8.19,4.49,17.48,6.52,26.63,8.39,35.8,7.31,71.93,13.01,108.24,17.08-45.46-.32-92.65,3.37-137.45-4.35-8.78-1.51-22.8-2.66-33.49-13.7-8.42-8.7-6.7-23.74-1.44-34.64,4.97-10.29,27.97-25.46,61.06-25.27-31.94,4.99-34.72,10.47-37.54,14.53-3.36,4.83-4.54,11.24-3.29,16.98Z"/></g><g><path class="cls-14" d="M1267-36.66c13.53-12.09,34.4-15.19,50.87-7.56,16.46,7.63,27.58,25.57,27.1,43.71,19.19-20.19,53.02-24.37,76.55-9.47,23.53,14.9,34.21,47.27,24.17,73.25,14.13-.46,28.64-.87,41.96,3.84s25.39,15.76,27.01,29.8c1.71,14.86-8.78,28.99-21.92,36.15-13.14,7.16-28.48,8.79-43.38,10.14-100.71,9.16-203.14,11.76-302.08-9.13-11.01-2.32-22.73-5.39-30.05-13.93-8.48-9.89-8.53-25.27-2.13-36.61,6.4-11.34,18.18-18.9,30.63-22.7s25.67-4.23,38.69-4.18c-3.51-14.34-3.59-29.96,2.56-43.38,6.15-13.42,19.31-24.1,34.06-24.71,14.04-.58,24.19,8.31,30.21,19.99,1.97-2.06,.19-8.01,.29-11.21,.13-4.21,.81-8.4,2.01-12.43,2.44-8.22,7.04-15.83,13.45-21.56Z"/><path class="cls-8" d="M1376.11,5c12.52-2.3,27.22-3.4,37.84,5.08,4.81,3.85,7.51,9.45,9.3,15.21,1.32,4.27,1.27,10.35,5.18,13.11,1.62,1.15,4.78,.83,6.06-.78l.21-.27c1.59-2.01,2.21-5.12,0-7.07l-.19-.17c-4.81-4.25-11.91,2.8-7.07,7.07l.19,.17v-7.07l-.21,.27,6.06-.78-.32-.23,2.3,2.99c-2.26-6.17-3.02-12.61-5.99-18.61s-7.52-10.93-13.19-14.35c-12.98-7.84-28.49-6.85-42.81-4.21-6.32,1.16-3.64,10.8,2.66,9.64h0Z"/><path class="cls-11" d="M1137.22,88.74c1.6,10.22,8.94,18.82,17.69,24.33,8.75,5.51,18.87,8.36,28.86,11.04,39.06,10.45,78.59,19.15,118.42,26.06-50.19-3.38-102.56-2.43-151.54-13.94-9.59-2.25-25.01-4.45-36.09-17.36-8.72-10.17-5.83-26.67,.72-38.36,6.18-11.03,32.59-26.27,69.13-23.86-35.61,3.39-39.05,9.26-42.43,13.56-4.03,5.12-5.77,12.11-4.77,18.53Z"/></g><g><g><path class="cls-14" d="M1319.17,37.94c12.43-11.45,31.81-14.63,47.25-7.76,15.44,6.87,26.04,23.41,25.85,40.3,17.58-19.06,49.01-23.44,71.13-9.9,22.12,13.54,32.52,43.52,23.54,67.85,13.14-.63,26.65-1.21,39.12,2.98,12.47,4.19,23.86,14.31,25.57,27.35,1.8,13.81-7.76,27.11-19.89,33.96-12.13,6.85-26.39,8.59-40.24,10.06-93.62,9.96-188.94,13.83-281.35-4.21-10.28-2.01-21.23-4.69-28.17-12.54-8.03-9.08-8.3-23.4-2.5-34.05,5.8-10.65,16.65-17.85,28.19-21.56,11.54-3.71,23.83-4.3,35.96-4.44-3.47-13.3-3.77-27.84,1.77-40.42,5.54-12.58,17.64-22.71,31.36-23.49,13.06-.74,22.63,7.39,28.41,18.18,1.8-1.94,.06-7.46,.11-10.44,.06-3.92,.64-7.83,1.7-11.6,2.16-7.69,6.33-14.84,12.21-20.26Z"/><path class="cls-8" d="M1421.56,77.41c10.74-2.12,23.55-3.69,33.03,3.22,4.51,3.29,7.01,8.05,8.77,13.25,1.41,4.17,1.67,8.66,4.37,12.23,2.88,3.8,8.4,2.29,10.85-.91l.19-.25c1.65-2.16,1.46-6.52-.7-8.37l-.18-.15c-6.64-5.69-16.86,3.52-10.15,9.28l.18,.15c-.23-2.79-.47-5.58-.7-8.37l-.19,.25c3.62-.3,7.23-.6,10.85-.91,1.3,1.72-.01-2.23-.18-2.83-.39-1.42-.82-2.83-1.29-4.22-1-2.96-2.11-5.95-3.63-8.69-3.13-5.65-7.71-10.49-13.38-13.63-12.69-7.03-27.11-6.17-40.9-3.46-8.68,1.71-5.64,15.12,3.06,13.41h0Z"/><path class="cls-11" d="M1200.14,156.52c1.63,9.49,8.59,17.39,16.82,22.4,8.23,5,17.69,7.52,27.02,9.86,36.51,9.18,73.43,16.71,110.62,22.58-46.77-2.43-95.52-.81-141.27-10.82-8.96-1.96-23.35-3.79-33.84-15.65-8.27-9.34-5.8-24.74,.12-35.72,5.59-10.36,29.96-24.92,64.01-23.19-33.1,3.66-36.22,9.18-39.31,13.23-3.68,4.82-5.2,11.36-4.17,17.32Z"/></g><path class="cls-11" d="M1241.12,105.85c1.26-12.2,.27-12.05,5.66-23.15s16.96-19.3,29.22-20.65,26.69,6.1,29.15,18.2c-4.07-9.41-16.33-11.42-26.52-10.25-11.97,1.37-20,8.31-24.91,15.07-6.7,9.24-9.68,31.27-10.11,40.91"/><path class="cls-11" d="M1305.26,69.81c-.06-10.41,.21-12.39,5.6-23.49s19.22-18.24,31.47-19.77c12.77-1.59,31.2-.28,43.1,20.38-4.07-9.41-30.29-13.6-40.47-12.44-11.97,1.37-20.99,5.22-27.3,12.12-7.7,8.42-10.99,21.85-11.42,31.49"/><path class="cls-11" d="M1392.26,70.48c8.1-8.19,9.15-8.66,19.94-14.64,11.18-6.19,33.66-4.95,44.84,.28,11.66,5.45,42.52,32.81,29.89,72.31,7.13-45.53-18.11-59.77-32.42-65.93-11.07-4.77-19.11-4.61-28.47-4.92-10.87-.35-28.29,4.96-33.78,12.9"/></g><g><g><path class="cls-14" d="M648.26,40.12c12.11-11.01,30.9-13.97,45.8-7.22,14.9,6.75,25.07,22.83,24.77,39.19,17.15-18.35,47.61-22.39,68.94-9.13,21.33,13.25,31.21,42.35,22.36,65.85,12.73-.53,25.81-1.01,37.86,3.13s23.02,14.01,24.58,26.65c1.66,13.38-7.69,26.21-19.48,32.76-11.79,6.56-25.61,8.15-39.03,9.49-90.72,9.05-183.05,12.19-272.42-5.86-9.94-2.01-20.53-4.68-27.2-12.32-7.72-8.85-7.89-22.72-2.21-32.99,5.68-10.28,16.24-17.18,27.44-20.7s23.11-4.01,34.85-4.07c-3.27-12.9-3.47-26.99,1.97-39.13,5.44-12.15,17.22-21.88,30.52-22.55,12.65-.63,21.87,7.3,27.39,17.79,1.76-1.87,.11-7.22,.17-10.11,.08-3.79,.67-7.58,1.72-11.22,2.14-7.43,6.22-14.33,11.95-19.54Z"/><path class="cls-8" d="M747.16,78.99c10.42-1.98,22.83-3.42,31.96,3.33,4.35,3.21,6.73,7.84,8.41,12.88,1.34,4.04,1.56,8.4,4.16,11.87,2.77,3.7,8.12,2.27,10.51-.81l.19-.24c1.62-2.08,1.45-6.31-.63-8.11l-.17-.15c-6.4-5.55-16.35,3.3-9.88,8.92l.17,.15c-.21-2.7-.42-5.41-.63-8.11l-.19,.24c3.5-.27,7.01-.54,10.51-.81,1.25,1.67,0-2.16-.16-2.74-.37-1.38-.77-2.74-1.22-4.1-.95-2.88-2-5.77-3.46-8.44-3-5.49-7.4-10.21-12.87-13.29-12.25-6.89-26.21-6.15-39.58-3.61-8.41,1.6-5.55,14.6,2.87,13h0Z"/><path class="cls-11" d="M532.24,154.2c1.52,9.2,8.21,16.9,16.14,21.79s17.08,7.39,26.11,9.72c35.3,9.12,71,16.65,106.97,22.56-45.27-2.65-92.49-1.39-136.73-11.38-8.67-1.96-22.58-3.82-32.67-15.37-7.94-9.1-5.46-24,.34-34.59,5.48-10,29.17-23.94,62.14-22.05-32.08,3.34-35.13,8.66-38.15,12.56-3.59,4.65-5.1,10.97-4.15,16.75Z"/></g><path class="cls-11" d="M572.25,105.39c1.3-11.81,.34-11.67,5.63-22.38,5.29-10.72,16.54-18.58,28.43-19.82,11.89-1.24,25.81,6.08,28.11,17.81-3.88-9.14-15.74-11.16-25.62-10.1-11.6,1.25-19.42,7.92-24.21,14.44-6.55,8.91-9.57,30.22-10.05,39.55"/><path class="cls-11" d="M634.59,70.89c0-10.08,.28-11.99,5.57-22.71s18.73-17.54,30.6-18.94c12.38-1.46,30.21-.07,41.61,20.01-3.88-9.14-29.24-13.37-39.11-12.3-11.6,1.25-20.36,4.92-26.52,11.57-7.51,8.11-10.78,21.09-11.26,30.42"/><path class="cls-11" d="M718.83,72.1c7.9-7.87,8.91-8.32,19.4-14.05,10.86-5.93,32.62-4.58,43.42,.55,11.26,5.35,40.97,32.04,28.48,70.21,7.19-44.04-17.16-57.99-30.98-64.05-10.69-4.68-18.48-4.59-27.54-4.94-10.53-.41-27.43,4.63-32.79,12.28"/></g><g><g><path class="cls-14" d="M984.02,35.1c12.15-11.75,31.45-15.4,47.04-8.9,15.6,6.5,26.6,22.77,26.81,39.67,17.11-19.48,48.43-24.62,70.87-11.62,22.44,13,33.56,42.72,25.17,67.26,13.12-.95,26.61-1.86,39.18,2.03,12.57,3.89,24.2,13.73,26.22,26.73,2.14,13.76-7.1,27.29-19.06,34.43-11.96,7.14-26.17,9.22-39.98,11.03-93.35,12.22-188.55,18.4-281.37,2.6-10.33-1.76-21.34-4.18-28.47-11.85-8.25-8.89-8.86-23.2-3.33-33.98,5.54-10.79,16.21-18.25,27.66-22.24s23.72-4.88,35.84-5.31c-3.79-13.21-4.44-27.74,.79-40.45,5.23-12.71,17.08-23.13,30.78-24.24,13.04-1.05,22.81,6.84,28.84,17.49,1.76-1.99-.12-7.46-.14-10.44-.04-3.92,.45-7.84,1.42-11.64,1.97-7.74,5.96-14.99,11.72-20.55Z"/><path class="cls-8" d="M1087.33,72.08c10.69-2.37,23.46-4.26,33.1,2.42,4.59,3.18,7.2,7.88,9.08,13.03,1.51,4.13,1.87,8.62,4.67,12.12,2.97,3.73,8.45,2.08,10.82-1.17l.19-.25c1.6-2.2,1.3-6.56-.9-8.35l-.18-.15c-6.78-5.53-16.77,3.93-9.92,9.52l.18,.15c-.3-2.78-.6-5.57-.9-8.35l-.19,.25c3.61-.39,7.21-.78,10.82-1.17,1.34,1.69-.07-2.23-.25-2.83-.43-1.41-.88-2.81-1.39-4.19-1.07-2.94-2.25-5.89-3.84-8.6-3.27-5.57-7.96-10.3-13.71-13.3-12.86-6.72-27.25-5.52-40.97-2.47-8.63,1.92-5.27,15.25,3.38,13.33h0Z"/><path class="cls-11" d="M867.89,156.53c1.86,9.45,9.01,17.18,17.35,21.98,8.35,4.8,17.86,7.09,27.26,9.21,36.72,8.29,73.81,14.93,111.13,19.89-46.82-1.3-95.51,1.51-141.49-7.4-9.01-1.74-23.43-3.23-34.21-14.83-8.49-9.14-6.4-24.6-.74-35.71,5.34-10.49,29.35-25.63,63.43-24.73-33,4.46-35.99,10.05-38.98,14.17-3.56,4.91-4.92,11.48-3.75,17.42Z"/></g><path class="cls-11" d="M907.63,104.89c.96-12.23-.02-12.05,5.1-23.28,5.12-11.23,16.49-19.7,28.72-21.36,12.23-1.65,26.83,5.46,29.58,17.49-4.3-9.31-16.61-11.02-26.76-9.61-11.94,1.66-19.8,8.79-24.53,15.67-6.47,9.4-8.92,31.5-9.12,41.14"/><path class="cls-11" d="M970.88,67.3c-.31-10.4-.09-12.39,5.03-23.62s18.77-18.7,30.98-20.52c12.73-1.9,31.18-1.03,43.58,19.34-4.3-9.31-30.61-12.87-40.76-11.46-11.94,1.66-20.85,5.72-27,12.78-7.5,8.61-10.46,22.11-10.66,31.76"/><path class="cls-11" d="M1057.87,65.87c7.9-8.38,8.94-8.88,19.58-15.12,11.02-6.46,33.53-5.76,44.83-.81,11.79,5.16,43.3,31.77,31.63,71.57,6.02-45.69-19.55-59.31-34.01-65.12-11.18-4.5-19.22-4.15-28.58-4.23-10.88-.09-28.16,5.65-33.46,13.71"/></g></g><g><path class="cls-22" d="M1757.4,643.16c10.47,52.16,20.93,104.31,31.4,156.47-33.44-11.03-71.2-13.78-106.64-7.78,6.92-33.43,13.84-66.87,20.77-100.3,2.36-11.41,1.32-34.18,9.63-43.75,8.89-10.24,30.71-5.14,44.85-4.65Z"/><circle class="cls-12" cx="1677.85" cy="653.29" r="31.05"/><circle class="cls-12" cx="1789.1" cy="642.24" r="35.48"/><path class="cls-20" d="M1752.65,756.47c.92,9.46-.29,32.71,6.46,34.27,23.81,5.49,7.72,.92,28.32,8.8-4.85-34.21-11.63-71-14.02-106.24-.28-4.11-.54-8.28-1.6-12.14s-3.05-7.42-5.83-8.85c-4.64-2.39-9.58,1.71-13.64,5.63-4.14,3.99-3.2,6.1-2.33,11.77,1.01,6.57,.08,14.37,.16,21.12,.17,15.26,1,30.51,2.48,45.64Z"/><circle class="cls-18" cx="1735.64" cy="633.51" r="26.74"/><ellipse class="cls-12" cx="1739.94" cy="641.45" rx="42.76" ry="45.57" transform="translate(-25.07 72.61) rotate(-2.37)"/><circle class="cls-12" cx="1708.9" cy="606.77" r="26.74"/><circle class="cls-12" cx="1749.49" cy="596.86" r="33.99"/><path class="cls-16" d="M1718.93,581.97c-1.6,3.87,15.73-14.81,26.66-14.73,5.57,.04,15.84,2.84,23.42,9.88,3.96,3.68,11.19,11.18,11.78,16.11,1.4,11.7,.32,19.45,1.6,13.12,.47-2.3,1.09-8.21,1.09-9.49-.02-12.09-1.53-14.73-7.47-21.3-12.27-13.58-23.48-12.98-28.8-12.69-3.91,.21-13.55,3.6-15.94,5.29-2.9,2.06-9.35,6.55-12.35,13.81Z"/><path class="cls-16" d="M1773.02,610.93c-3.38,2.48,21.13-4.49,30.44,1.26,4.74,2.93,12.06,10.66,14.88,20.61,1.47,5.2,3.75,15.37,1.7,19.88-4.88,10.73-8.96,17.75-4.58,13,1.6-1.73,4.36-4.97,5.66-8.16,4.26-10.37,4.65-13.58,4.01-22.42-1.32-18.26-13.32-23.29-18.02-25.81-3.45-1.85-13.45-3.96-16.37-3.76-3.55,.25-11.39,.74-17.72,5.38Z"/><path class="cls-16" d="M1696.56,583.73c-2.32,1.7,14.52-3.08,20.91,.87,3.26,2.01,8.29,7.32,10.22,14.16,1.01,3.57,2.58,10.56,1.17,13.66-3.35,7.37-6.16,12.19-3.14,8.93,1.1-1.19,2.99-3.42,3.89-5.6,2.93-7.13,3.19-9.33,2.75-15.41-.91-12.55-9.15-16-12.38-17.73-2.37-1.27-9.24-2.72-11.25-2.58-2.44,.17-7.83,.51-12.18,3.7Z"/><g><path class="cls-13" d="M1766.56,678.23c2.36-2.91-18.72,8.94-29.75,6.38-5.62-1.3-15.46-6.02-21.77-13.7-3.3-4.01-9.17-12.01-8.82-16.31,.82-10.22,2.21-17.12-.3-12.06-.91,1.84-2.4,5.25-2.5,8.25-.35,9.77-3.08,12.89,.73,20.18,7.87,15.04,24.76,16,30.18,16.97,3.99,.71,14.38,.05,17.11-.84,3.32-1.08,10.7-3.41,15.11-8.86Z"/><path class="cls-16" d="M1696.35,678.23c2.05-1.1,5.46-4.05,7.81-7.27,6.56-8.95,7.16-12.8,6.99-21.3-.36-17.53-13.4-22.31-17.57-24.51-3.07-1.62-12.12-3.2-14.81-2.86-3.26,.41-10.46,1.24-16.47,6.01-3.21,2.54,19.55-5.3,27.8-.2,4.2,2.6,8.65,8.16,10.77,17.62"/></g><path class="cls-13" d="M1691.4,681.24c2.27-.87-14.91-.48-20.48-1.78-2.84-.67-8.58-1.85-11.54-6.77-1.54-2.57-4.32-7.46-5.72-10.02-3.94-7.15-5.03-20.81-5.88-17.12-.98,4.24-.7,9.73-.72,11.75-.06,6.51,2.89,9.77,5.93,14.34,5.75,8.66,13.74,10.71,16.33,11.73,.9,.35,7.47,1.49,10.42,1.04,5.94-.91,3.52-.06,11.66-3.17Z"/><path class="cls-13" d="M1806.23,672.43c1.03-1.15-9.57,3.99-16,3.52-3.27-.24-9.25-1.54-13.55-4.06-2.25-1.31-6.33-3.96-6.57-5.53-.57-3.72-.48-6.27-1.38-4.34-.33,.7-.81,1.99-.57,3.08,.78,3.54-.43,4.78,2.44,7.26,5.91,5.11,15.45,4.77,18.59,4.89,2.3,.09,8.05-.57,9.49-1,1.75-.53,5.64-1.67,7.56-3.82Z"/><path class="cls-16" d="M1734.03,615.22c-3.86,1.74,21.05-.32,28.13,6.94,3.61,3.7,8.28,12.49,8.12,22.56-.09,5.26-.82,15.44-4.02,19.38-7.59,9.36-13.39,15.32-7.95,11.6,1.98-1.35,5.48-3.94,7.6-6.75,6.92-9.14,8.18-12.14,10.07-20.74,3.91-17.75-5.9-24.83-9.59-28.12-2.71-2.42-11.47-6.33-14.26-6.68-3.39-.43-10.87-1.43-18.11,1.82Z"/><path class="cls-8" d="M1751.31,572.98c6.06-.13,11.33,2.51,15.07,7.25,2.57,3.26,7.12-1.34,4.57-4.57-4.73-5.99-12.04-9.3-19.64-9.14-4.15,.09-4.17,6.55,0,6.46h0Z"/><path class="cls-8" d="M1795.92,618.02c6.58-1.7,13.47,1.29,16.83,7.17,2.06,3.61,7.64,.36,5.58-3.26-4.78-8.4-14.79-12.55-24.12-10.14-4.02,1.04-2.32,7.27,1.72,6.23h0Z"/><path class="cls-8" d="M1812.06,639.96v6.1c0,4.16,6.46,4.16,6.46,0v-6.1c0-4.16-6.46-4.16-6.46,0h0Z"/><path class="cls-8" d="M1687.98,632.37c5.28,2.04,9.14,6.56,10.64,11.96,1.11,4,7.34,2.3,6.23-1.72-2.14-7.72-7.72-13.61-15.15-16.47-3.88-1.5-5.56,4.75-1.72,6.23h0Z"/></g><g><path class="cls-7" d="M618.2,894.83l.4,.04c5.96,.68,9.56,3.05,8,5.27l-22.37,31.75c-1.56,2.22-7.72,3.48-13.69,2.8l-.4-.04c-5.96-.68-9.56-3.05-8-5.27l22.37-31.75c1.56-2.22,7.72-3.48,13.69-2.8Z"/><line class="cls-2" x1="1366.86" y1="1039.61" x2="1401.65" y2="1092.82"/><path class="cls-6" d="M1373.9,880.89s111.29,5.49,132.12,48.42c20.83,42.94,30.54,63.83,30.54,63.83,0,0,3.29,8.64-24.31,29-28.12,20.74-78.2,61.89-78.2,61.89,0,0-19.88,14.26-68.17,10.48-33.14-2.59-505.01-27.4-651.96-35.11-31.74-1.66-59.03-9.87-70.48-21.23-1.75-1.73-5.49-5.69-5.49-5.69-10.09-21.17-35.9-63.04-35.9-63.04l47.26-97.78s30.68-28.22,237.18-16.99c206.5,11.23,487.4,26.21,487.4,26.21Z"/><path class="cls-23" d="M1316.38,876.01s194.97,.99,161.81,64.92c-21.42,41.29-36.55,57.16-39.61,58.73-1.31,.67,5.05-4.89,4.24-4.11-53.07,51.63-56.2,48.2-202,41.69-172.84-7.72-550.96-31.13-550.96-31.13,0,0-130.56-4.01-87.22-76.58,34.18-57.23,42.91-60.55,42.91-60.55,0,0,33.72-29.12,175.68-20.55,141.96,8.56,495.15,27.58,495.15,27.58Z"/><path class="cls-7" d="M1482.15,955.13l.4,.04c6,.62,9.76,2.95,8.36,5.19l-20.13,31.99c-1.41,2.24-7.47,3.56-13.47,2.94l-.4-.04c-6-.62-9.76-2.95-8.36-5.19l20.13-31.99c1.41-2.24,7.47-3.56,13.47-2.94Z"/><path class="cls-15" d="M1401.13,991.54l-1.32,.84c-.76,.49-1.63,1.05-1.67,1.55-44.4,39.96-49.77,39.72-156.7,35.06-6.65-.29-13.69-.6-21.15-.91-152.21-6.44-487.28-26.19-490.64-26.39-.58-.02-40.24-1.45-64.34-14.22-21.8-11.55-24.62-28.53-8.41-50.46,9.8-13.25,17.28-23.15,22.99-30.56,20.75-3.25,45.24-4.53,68.04-5.2,191.18-5.57,386.69,3.34,571.36,26.05,26.29,3.23,52.81,6.83,75.3,12.98,13.53,3.7,25.49,8.49,33.52,13.94-13.91,22.97-22.75,33.49-26.91,37.34h-.06Z"/><path class="cls-17" d="M1319.29,927.29c-184.68-22.7-380.18-31.61-571.36-26.05-22.8,.66-47.28,1.95-68.04,5.2,13.4-17.39,17-21.02,17.5-21.5,1.19-.78,2.08-1.95,3.2-3.42,6.42-8.46,19.77-26.08,124.78-18.66,138.07,9.75,464.82,27.93,468.1,28.11h.35c.83,.01,83.58,.57,122.74,18.78,19.59,9.11,25.19,21.17,16.65,35.85-1.77,3.05-3.47,5.9-5.1,8.6-8.04-5.45-20-10.24-33.52-13.94-22.48-6.16-49-9.75-75.3-12.98Z"/><line class="cls-1" x1="1232.8" y1="893.15" x2="780.51" y2="867.33"/><line class="cls-1" x1="1232.8" y1="893.15" x2="800.21" y2="868.46"/><path class="cls-21" d="M1398.61,1083.76c1.66,3.55,8.02,8.72,.01,10.55-6.98,1.59-26.18,.86-34.44,.4-106.34-5.89-211.97-11.61-318.31-17.5,34.95,1.36,69.29,1.88,104.23,3.24,68.93,2.68,145.23,11.48,211.51,5.16,5.24-.5,14.77-3.59,14.95-7.6,.06-1.3-4.49-12.37-.52-12.27,8.44,.2,21.43,15.59,22.57,18.02Z"/><path class="cls-21" d="M1394.13,1067c2.63,3.42,5.37,6.93,12.8,9.5,1.93,.67,4.18,1.22,6.62,1.56,12.73,1.78,24.78-1.45,32.23-4.78-11.78,10.46-17.38,17.58-52.99,21.72-16.87-16.54-23.88-37.7-28.45-55.17,0,0,1.13-.13,2.79-.28,.18-.02,5.42-.68,5.42-.68,.09,.42,1.38,1.85,2.17,2.88,2.16,2.81,4.31,5.61,6.47,8.42,4.31,5.61,8.63,11.22,12.94,16.83Z"/><path class="cls-3" d="M1471.65,990.97c-.55,.81-1.1,2.02-2.41,2.71-1.43,.75-3.78,1.28-5.82,1.61-2.37,.38-4.99,.24-8.46-.32-1.24-.2-3.05-.65-3.81-1.08-1.6-.89-4.24-1.78,4.08-1.08,3.64,.31,5.48-1.77,7.46-2.91,2.92-1.68,5.65-3.41,8.19-5.19s5.13-3.02,7.73-4.79c-.55,.91-.7,1.16-1.06,1.69-.72,1.07-1.38,2.28-2.1,3.34-1.43,2.11-2.36,3.91-3.78,6.01Z"/><path class="cls-21" d="M648.6,1001.72c15.07,2.77,14.19,3.39,38.63,5.51,17.23,1.49,16.77,.84,31.39,1.66-14.62-.82-11.27,.11-19.46-.27-8.18-.38-6.48-.22-14.07-.63-10.89-.58-7.02-.83-17.92-1.34-8.24-.38-17.18-.53-23.94,1.16-5.6,1.4-8.75,3.87-9.86,6.39-1.11,2.52-1.46,5.22-.76,7.79-4.16-7.37-8.32-15.09-12.67-22.61-1.07-1.85-2.14-3.64-3.21-5.49-.58-1-5.61-7.56-3.31-6,1.89,1.28,3.7,2.21,4.58,2.72,2.23,1.28,4.76,2.45,7.57,3.67,6.23,2.71,16.04,6.14,23.03,7.43Z"/><path class="cls-21" d="M1369.35,1057c-.23-3.28-6.72-6.22-14.44-7.85-7.73-1.63-16.58-2.2-25.22-2.74-80.26-5.04-504.69-30.9-584.95-35.94,62.93,2.77,470.04,26.36,532.97,29.13,29.7,1.31,61.12,2.52,87.53,.19"/><path class="cls-21" d="M711.64,1051.51c12.43,1.92,25.46,3.15,38.44,4.37,31.67,2.98,64.45,7.5,96.12,10.48-37.12-1.95-72.98-3.46-108.82-5.24-25.07-1.24-35.58-.51-61.36-7.31-18.83-4.97-33.84-12.38-39.05-23.87-1.01-2.23-4.27-7.42-5.21-9.53,2.33,.59,4.82,4,6.08,4.96,1.64,1.26,3.41,2.5,5.32,3.7,3.81,2.42,8.13,4.73,12.9,6.9,9.47,4.31,20.7,8.08,33.17,11.12,7.11,1.73,14.62,3.22,22.41,4.42Z"/><path class="cls-21" d="M1403.51,1028.59s-4.75,2.84-12.85,5.9c-4.5,1.7-.17,.25-13.01,3.5-1.73,.44-11.86,.99-8.63,4.65,3.63,4.11,12.24,8.11,15.47,12.27-2.62-3.3-1.19-6.84,2.01-9.98,3.2-3.14,8.08-5.97,12.59-8.86,11.2-7.19,19.4-15.38,26.02-23.39"/><path class="cls-21" d="M1423.98,887.47c25.64,4.67,46.82,12.29,61.74,21.26,18.46,11.1,25.01,25.05,28.67,37.89-3.04-1.84-5.86-4.65-8.49-6.57-2.63-1.92-7.38-3.73-13.03-3.73-4.02,0-7.59,.96-9.86,2.17s-5.03,3.64-6.19,5.07c1.7-7.91,4.96-16.87,2.38-24.81-2.58-7.94-10.78-15.52-24.89-21.67-4.08-1.78-8.8-3.39-13.79-4.8-2.95-.83-5.9-1.67-8.85-2.5-2.81-.79-4.88-1.52-7.69-2.31Z"/><path class="cls-21" d="M1481.59,987.28c-1.98,2.84-6.96,9.68-12.72,11.62-5.76,1.94-15.94,2.33-21.19,.05-2.69-1.17-3.57-2.81-3.03-4.3s2.71-4.9,4.89-6.15c-1.64,1.48-.19,4.75,2.97,5.9,3.16,1.16,7.03,1.54,10.91,.88,5.71-.97,7.03-2.65,8.42-4.96,3.68-6.17,8.3-12.67,11.8-18.86,1.81-3.19,3.76-7.24,6.95-10.23-.1,4.77-1.81,12.18-2.72,14.26-1.15,2.64-2.47,5.26-3.94,7.87-.74,1.31-1.52,2.61-2.33,3.9-.56,.89-.61-.85,0,0Z"/><path class="cls-21" d="M1504.35,1027.13c10.23-6.48,16.43-12.91,23.9-19.36,2.73-2.36,5.79-4.7,7.04-7.25,1.61-3.27,1.74-6.49,.18-9.7-5.53-11.41-10.49-22.13-16.71-35.11,6.42,11.61,6.65,24.16,6.88,35.93,.08,4.31-.26,8.65-2.46,12.85-1.21,2.31-2.97,4.57-4.73,6.83-2.81,3.59-5.61,7.19-8.42,10.78"/><path class="cls-23" d="M656.54,981.58c5.12,2.57,1.93,7.04-5.23,8.57-5.18,1.11-12.23,.27-16.68-1.35s-6.9-3.83-9.22-5.96c-6.36-5.86-12.71-11.72-19.07-17.58-5.93-5.46-11.98-11.36-8.66-16.99,4.98-8.48,44.05-11.95,41.99-3.11-2.64,11.31-1.08,27.4,16.87,36.42Z"/></g></svg>