<?xml version="1.0" encoding="UTF-8"?><svg id="Lag_2" xmlns="http://www.w3.org/2000/svg" width="371.47" height="145.9" viewBox="0 0 371.47 145.9"><defs><style>.cls-1{fill:#000200;}.cls-2{fill:#fff;}.cls-3{fill:#7def7d;}.cls-4{fill:#b0f7b0;}.cls-5{fill:#39d167;}.cls-6{fill:#7a7a7a;}</style></defs><g id="Lag_1-2"><g><g><rect class="cls-3" x="15.41" y="9.77" width="338.06" height="127.74" rx="31.61" ry="31.61"/><rect class="cls-4" x="27.89" y="2.13" width="315.36" height="122.31" rx="30.33" ry="30.33"/><path class="cls-5" d="M288.71,145.9H82.76C37.12,145.9,0,131.34,0,113.43V32.47C0,14.57,37.12,0,82.76,0h205.95c45.63,0,82.76,14.57,82.76,32.47V113.43c0,17.91-37.12,32.47-82.76,32.47ZM82.76,11.07c-30.07,0-54.54,9.6-54.54,21.4V113.43c0,11.8,24.47,21.4,54.54,21.4h205.95c30.07,0,54.54-9.6,54.54-21.4V32.47c0-11.8-24.47-21.4-54.54-21.4H82.76Z"/></g><g><path class="cls-6" d="M65.46,93.9c.61-2,2.84-2.98,4.78-2.16,3.25,1.36,7.16,2.31,11.21,2.31,8.43,0,13.36-4.41,13.36-10.77,0-5.9-3.42-9.27-12.04-12.54-10.42-3.65-16.87-8.99-16.87-17.88,0-9.83,8.24-17.14,20.66-17.14,4.58,0,8.28,.74,11.06,1.72,1.76,.63,2.65,2.58,2.05,4.34l-.03,.07c-.63,1.85-2.67,2.81-4.52,2.14-2.26-.81-5.26-1.53-8.84-1.53-8.72,0-12.03,5.15-12.03,9.45,0,5.9,3.88,8.8,12.69,12.17,10.8,4.12,16.3,9.26,16.3,18.53,0,9.74-7.3,18.16-22.37,18.16-4.72,0-9.79-1.05-13.43-2.55-1.67-.69-2.56-2.5-2.04-4.21l.04-.13Z"/><path class="cls-6" d="M123.17,43.68h-12.41c-1.94,0-3.51-1.55-3.51-3.46h0c0-1.91,1.57-3.46,3.51-3.46h40.27c1.94,0,3.51,1.55,3.51,3.46h0c0,1.91-1.57,3.46-3.51,3.46h-12.51c-1.94,0-3.51,1.55-3.51,3.46v49.24c0,1.91-1.57,3.46-3.51,3.46h-1.33c-1.94,0-3.51-1.55-3.51-3.46V47.15c0-1.91-1.57-3.46-3.51-3.46Z"/><path class="cls-6" d="M164.09,82.38l-5.05,15.09c-.47,1.42-1.82,2.38-3.33,2.38h-1.1c-2.4,0-4.09-2.33-3.32-4.58l19.31-56.17c.48-1.41,1.82-2.35,3.32-2.35h4.93c1.5,0,2.83,.94,3.32,2.35l19.4,56.17c.78,2.25-.91,4.58-3.32,4.58h-1.4c-1.5,0-2.84-.94-3.32-2.35l-5.21-15.15c-.48-1.4-1.82-2.35-3.32-2.35h-17.6c-1.51,0-2.86,.96-3.33,2.38Zm16.84-8.74c2.4,0,4.09-2.33,3.32-4.58l-4.67-13.58c-1.43-4.12-2.37-7.87-3.32-11.52h-.19c-.95,3.74-1.99,7.58-3.22,11.42l-4.69,13.68c-.77,2.25,.92,4.58,3.32,4.58h9.45Z"/><path class="cls-6" d="M212.59,40.53c0-1.74,1.3-3.2,3.04-3.44,3.78-.52,8.37-.8,12.79-.8,8.82,0,14.5,1.59,18.48,5.15,3.23,2.81,5.02,7.12,5.02,11.98,0,8.34-5.31,13.86-12.04,16.11v.28c4.93,1.68,7.87,6.17,9.38,12.73,1.27,5.38,2.34,9.75,3.28,12.89,.66,2.22-1.02,4.43-3.37,4.43h-1.16c-1.49,0-2.84-.93-3.31-2.33-.91-2.68-2-7.09-3.3-12.74-1.9-8.71-5.31-11.98-12.79-12.26h-4.26c-1.94,0-3.51,1.55-3.51,3.46v20.41c0,1.91-1.57,3.46-3.51,3.46h-1.23c-1.94,0-3.51-1.55-3.51-3.46V40.53Zm8.25,22.34c0,1.91,1.57,3.46,3.51,3.46h4.93c8.81,0,14.41-4.77,14.41-11.98,0-8.14-5.97-11.7-14.69-11.79-1.96,0-3.65,.09-5.01,.23-1.79,.18-3.14,1.67-3.14,3.45v16.63Z"/><path class="cls-6" d="M273.07,43.68h-12.41c-1.94,0-3.51-1.55-3.51-3.46h0c0-1.91,1.57-3.46,3.51-3.46h40.27c1.94,0,3.51,1.55,3.51,3.46h0c0,1.91-1.57,3.46-3.51,3.46h-12.51c-1.94,0-3.51,1.55-3.51,3.46v49.24c0,1.91-1.57,3.46-3.51,3.46h-1.33c-1.94,0-3.51-1.55-3.51-3.46V47.15c0-1.91-1.57-3.46-3.51-3.46Z"/></g><g><path class="cls-1" d="M68.07,93.71c.61-2,2.84-2.98,4.78-2.16,3.25,1.36,7.16,2.31,11.21,2.31,8.43,0,13.36-4.41,13.36-10.77,0-5.9-3.42-9.27-12.04-12.54-10.42-3.65-16.87-8.99-16.87-17.88,0-9.83,8.24-17.14,20.66-17.14,4.58,0,8.28,.74,11.06,1.72,1.76,.63,2.65,2.58,2.05,4.34l-.03,.07c-.63,1.85-2.67,2.81-4.52,2.14-2.26-.81-5.26-1.53-8.84-1.53-8.72,0-12.03,5.15-12.03,9.45,0,5.9,3.88,8.8,12.69,12.17,10.8,4.12,16.3,9.26,16.3,18.53,0,9.74-7.3,18.16-22.37,18.16-4.72,0-9.79-1.05-13.43-2.55-1.67-.69-2.56-2.5-2.04-4.21l.04-.13Z"/><path class="cls-1" d="M125.78,43.5h-12.41c-1.94,0-3.51-1.55-3.51-3.46h0c0-1.91,1.57-3.46,3.51-3.46h40.27c1.94,0,3.51,1.55,3.51,3.46h0c0,1.91-1.57,3.46-3.51,3.46h-12.51c-1.94,0-3.51,1.55-3.51,3.46v49.24c0,1.91-1.57,3.46-3.51,3.46h-1.33c-1.94,0-3.51-1.55-3.51-3.46V46.96c0-1.91-1.57-3.46-3.51-3.46Z"/><path class="cls-1" d="M166.7,82.19l-5.05,15.09c-.47,1.42-1.82,2.38-3.33,2.38h-1.1c-2.4,0-4.09-2.33-3.32-4.58l19.31-56.17c.48-1.41,1.82-2.35,3.32-2.35h4.93c1.5,0,2.83,.94,3.32,2.35l19.4,56.17c.78,2.25-.91,4.58-3.32,4.58h-1.4c-1.5,0-2.84-.94-3.32-2.35l-5.21-15.15c-.48-1.4-1.82-2.35-3.32-2.35h-17.6c-1.51,0-2.86,.96-3.33,2.38Zm16.84-8.74c2.4,0,4.09-2.33,3.32-4.58l-4.67-13.58c-1.43-4.12-2.37-7.87-3.32-11.52h-.19c-.95,3.74-1.99,7.58-3.22,11.42l-4.69,13.68c-.77,2.25,.92,4.58,3.32,4.58h9.45Z"/><path class="cls-1" d="M215.2,40.34c0-1.74,1.3-3.2,3.04-3.44,3.78-.52,8.37-.8,12.79-.8,8.82,0,14.5,1.59,18.48,5.15,3.23,2.81,5.02,7.12,5.02,11.98,0,8.34-5.31,13.86-12.04,16.11v.28c4.93,1.68,7.87,6.17,9.38,12.73,1.27,5.38,2.34,9.75,3.28,12.89,.66,2.22-1.02,4.43-3.37,4.43h-1.16c-1.49,0-2.84-.93-3.31-2.33-.91-2.68-2-7.09-3.3-12.74-1.9-8.71-5.31-11.98-12.79-12.26h-4.26c-1.94,0-3.51,1.55-3.51,3.46v20.41c0,1.91-1.57,3.46-3.51,3.46h-1.23c-1.94,0-3.51-1.55-3.51-3.46V40.34Zm8.25,22.34c0,1.91,1.57,3.46,3.51,3.46h4.93c8.81,0,14.41-4.77,14.41-11.98,0-8.14-5.97-11.7-14.69-11.79-1.96,0-3.65,.09-5.01,.23-1.79,.18-3.14,1.67-3.14,3.45v16.63Z"/><path class="cls-1" d="M275.68,43.5h-12.41c-1.94,0-3.51-1.55-3.51-3.46h0c0-1.91,1.57-3.46,3.51-3.46h40.27c1.94,0,3.51,1.55,3.51,3.46h0c0,1.91-1.57,3.46-3.51,3.46h-12.51c-1.94,0-3.51,1.55-3.51,3.46v49.24c0,1.91-1.57,3.46-3.51,3.46h-1.33c-1.94,0-3.51-1.55-3.51-3.46V46.96c0-1.91-1.57-3.46-3.51-3.46Z"/></g><path class="cls-2" d="M97.79,38.87c.05,0,.12,0,.17,.01-.09-.03-.01,0,.01,0,.03,0,.06,.01,.08,.02,.1,.02,.23,.05,.32,.1-.08-.05,0,0,.01,0,.03,.01,.05,.02,.08,.04,.05,.03,.1,.05,.15,.08s.09,.06,.14,.09c.07,.05-.05-.04,.01,0,.03,.02,.05,.04,.07,.06,.08,.07,.16,.15,.23,.24,0,.01,.02,.02,.03,.03-.03-.04-.03-.04-.02-.02,.02,.02,.03,.04,.05,.07,.03,.05,.06,.09,.09,.14s.05,.1,.08,.15c0,.01,.04,.1,.02,.04s.01,.04,.02,.05c.04,.11,.07,.22,.09,.34,.03,.19,.28,.32,.46,.26,.21-.07,.3-.25,.26-.46-.18-1.12-1.24-1.97-2.35-2.01-.2,0-.38,.18-.38,.38,0,.21,.16,.37,.38,.38h0Z"/><path class="cls-2" d="M151.7,38.87c.05,0,.12,0,.17,.01-.09-.03-.01,0,.01,0,.03,0,.06,.01,.08,.02,.1,.02,.23,.05,.32,.1-.08-.05,0,0,.01,0,.03,.01,.05,.02,.08,.04,.05,.03,.1,.05,.15,.08s.09,.06,.14,.09c.07,.05-.05-.04,.01,0,.03,.02,.05,.04,.07,.06,.08,.07,.16,.15,.23,.24,0,.01,.02,.02,.03,.03-.03-.04-.03-.04-.02-.02,.02,.02,.03,.04,.05,.07,.03,.05,.06,.09,.09,.14s.05,.1,.08,.15c0,.01,.04,.1,.02,.04s.01,.04,.02,.05c.04,.11,.07,.22,.09,.34,.03,.19,.28,.32,.46,.26,.21-.07,.3-.25,.26-.46-.18-1.12-1.24-1.97-2.35-2.01-.2,0-.38,.18-.38,.38,0,.21,.16,.37,.38,.38h0Z"/><path class="cls-2" d="M180.61,38.87c.05,0,.12,0,.17,.01-.09-.03-.01,0,.01,0,.03,0,.06,.01,.08,.02,.1,.02,.23,.05,.32,.1-.08-.05,0,0,.01,0,.03,.01,.05,.02,.08,.04,.05,.03,.1,.05,.15,.08s.09,.06,.14,.09c.07,.05-.05-.04,.01,0,.03,.02,.05,.04,.07,.06,.08,.07,.16,.15,.23,.24,0,.01,.02,.02,.03,.03-.03-.04-.03-.04-.02-.02,.02,.02,.03,.04,.05,.07,.03,.05,.06,.09,.09,.14s.05,.1,.08,.15c0,.01,.04,.1,.02,.04s.01,.04,.02,.05c.04,.11,.07,.22,.09,.34,.03,.19,.28,.32,.46,.26,.21-.07,.3-.25,.26-.46-.18-1.12-1.24-1.97-2.35-2.01-.2,0-.38,.18-.38,.38,0,.21,.16,.37,.38,.38h0Z"/><path class="cls-2" d="M302.6,38.82c.05,0,.12,0,.17,.01-.09-.03-.01,0,.01,0,.03,0,.06,.01,.08,.02,.1,.02,.23,.05,.32,.1-.08-.05,0,0,.01,0,.03,.01,.05,.02,.08,.04,.05,.03,.1,.05,.15,.08s.09,.06,.14,.09c.07,.05-.05-.04,.01,0,.03,.02,.05,.04,.07,.06,.08,.07,.16,.15,.23,.24,0,.01,.02,.02,.03,.03-.03-.04-.03-.04-.02-.02,.02,.02,.03,.04,.05,.07,.03,.05,.06,.09,.09,.14s.05,.1,.08,.15c0,.01,.04,.1,.02,.04s.01,.04,.02,.05c.04,.11,.07,.22,.09,.34,.03,.19,.28,.32,.46,.26,.21-.07,.3-.25,.26-.46-.18-1.12-1.24-1.97-2.35-2.01-.2,0-.38,.18-.38,.38,0,.21,.16,.37,.38,.38h0Z"/><path class="cls-2" d="M243.5,40.02c.5,.03,.96,.24,1.39,.48s.82,.49,1.2,.78c.74,.57,1.4,1.27,1.93,2.04,.27,.39,.92,.02,.65-.38-.61-.88-1.34-1.65-2.19-2.3s-1.88-1.3-2.98-1.37c-.48-.03-.48,.72,0,.75h0Z"/></g></g></svg>