<?xml version="1.0" encoding="UTF-8"?><svg id="Lag_2" xmlns="http://www.w3.org/2000/svg" width="1920" height="1080" xmlns:xlink="http://www.w3.org/1999/xlink" viewBox="0 0 1920 1080"><defs><style>.cls-1,.cls-2{fill:none;}.cls-3{fill:#f49c45;}.cls-4{fill:#f7f3da;}.cls-5{fill:#fc3d3d;}.cls-6{fill:#f9ff00;}.cls-7{fill:#020100;}.cls-8{fill:#f15a24;}.cls-9{fill:#f7931e;}.cls-10{fill:#fff;}.cls-11{fill:#ffe04a;}.cls-12{fill:#fccea7;}.cls-13{fill:#fcfcf0;}.cls-14{fill:#ff9699;}.cls-15{fill:#8c6749;}.cls-16{fill:#8c6239;}.cls-17{fill:#93856c;}.cls-18{fill:#84c967;}.cls-19{fill:#a83d35;}.cls-20{fill:#a67c52;}.cls-21{fill:#afef95;}.cls-22{fill:#cc9d3e;}.cls-23{fill:#e25124;}.cls-24{fill:#c69c6d;}.cls-25{fill:#202359;}.cls-26{fill:#374c1a;}.cls-27{fill:#892f25;}.cls-28{fill:#605643;}.cls-29{fill:#603813;}.cls-30{fill:#754c24;}.cls-31{fill:#71ba56;}.cls-32{fill:#514f4f;}.cls-33{fill:url(#Ikke-navngivet_forløb);}.cls-2{stroke:#000;stroke-miterlimit:10;stroke-width:2px;}</style><linearGradient id="Ikke-navngivet_forløb" x1="961.25" y1="1081.89" x2="961.25" y2="6.15" gradientTransform="translate(0 1080) scale(1 -1)" gradientUnits="userSpaceOnUse"><stop offset=".03" stop-color="#7f8bff"/><stop offset=".18" stop-color="#94b3ff"/><stop offset=".4" stop-color="#aab9ff"/><stop offset=".7" stop-color="#fbffd4"/><stop offset="1" stop-color="#fbffd4"/></linearGradient></defs><rect class="cls-33" x="-2.28" y="-1.89" width="1927.07" height="1075.74"/><circle class="cls-10" cx="827.35" cy="926.72" r="1.93"/><circle class="cls-10" cx="776.07" cy="905.08" r="1.93"/><circle class="cls-10" cx="815.88" cy="902.27" r="1.93"/><path class="cls-1" d="M437.03,262.81c-35.61,27.01-62.22,65.7-74.7,108.62"/><path class="cls-1" d="M498.32,279.08c16.06,2.71,31.97,6.86,46.77,13.67,14.8,6.81,28.5,16.35,38.97,28.83,15.38,18.34,22.98,41.8,30.23,64.62"/><path class="cls-1" d="M473.83,259.05c20.55,7.43,36.29,24.79,46.36,44.18,10.07,19.4,15.15,40.92,20.13,62.2"/><path class="cls-1" d="M447.99,269.96c-24.53,27.01-36.58,64.93-32.13,101.14"/><path class="cls-12" d="M427.47,566.04c-.59-.15-1.2-.16-1.79-.09,.55-.04,1.14-.03,1.79,.09Z"/><polygon class="cls-12" points="676.42 493.21 676.36 491.14 676.42 493.21 676.42 493.21"/><path d="M417.16,511.86c.17,.1,.32,.24,.49,.33,.4,.22,.81,.41,1.23,.59,.7,.3,1.42,.52,2.14,.7-.71-.25-1.43-.48-2.13-.78-.6-.25-1.15-.56-1.73-.84h0Z"/><path class="cls-22" d="M920.49,1647.84c322.72-80.37,577.32-209.49,769.58-350.67,192.26-141.19,327.47-295.21,461.63-448.27,34.23-39.05,67.82-84.51,22.59-119.45-51.85-40.06-176.32-43.86-282.13-43.27-265.23,1.49-530.45,2.98-795.68,4.47-329.36,1.85-681.7,6.83-959.99,91.83-310.37,94.81-455.07,271.76-454.07,435.82,.58,95.24,43.2,188.18,101.44,278.17,34.41,53.16,63.93,155.75,148.94,197.31,200.09,97.83,769.51,8.4,987.69-45.94h0Z"/><g><rect class="cls-9" x="1722.1" y="576.21" width="15.69" height="76.02" rx="7.7" ry="7.7" transform="translate(-75.34 947.26) rotate(-30)"/><line class="cls-2" x1="1279.37" y1="952.63" x2="1281.74" y2="1051.81"/><path class="cls-8" d="M1198.07,673.97s-71.91,26.95-65.14,105.86c6.76,78.91,10.34,117.24,10.34,117.24,0,0,1.96,15.75,30.28,47.35,28.85,32.19,82.25,96.95,82.25,96.95,0,0,20.2,22.05,50.73,7.89,20.95-9.71,325.1-126.68,419.83-163.07,20.46-7.86,34.79-26.55,36.97-48.36,.33-3.33,.93-10.89,.93-10.89-3.46-38.87-6.37-116.68-6.37-116.68l-78.85-165.01s-34.17-44.98-167.1,6.87c-132.92,51.85-313.88,121.85-313.88,121.85h.01Z"/><path class="cls-24" d="M1234.25,656.43s-130.14,32.01-77.07,139.55c34.27,69.45,52.07,95.08,54.88,97.36,1.2,.98-5.74-7.84-4.83-6.59,60.47,82.77,60.91,76.23,155.44,42.13,112.07-40.43,354.09-140.38,354.09-140.38,0,0,85.53-27.32,21.48-148.51-50.51-95.57-57.97-100.07-57.97-100.07,0,0-36.64-46.09-127.62-8.96-90.97,37.13-318.41,125.47-318.41,125.47h0Z"/><rect class="cls-9" x="1171.54" y="817.07" width="15.69" height="76.02" rx="7.7" ry="7.7" transform="translate(-265.09 666.38) rotate(-28.5)"/><path class="cls-16" d="M1233.22,873.22l1.29,1.27c.74,.75,1.6,1.6,1.87,2.48,49.03,63.54,52.51,62.29,121.9,37.47,4.32-1.54,8.88-3.18,13.73-4.89,98.87-34.97,313.81-121.8,315.96-122.67,.38-.13,26.26-8.79,36.24-35.06,9.03-23.75,2.73-54.11-18.72-90.25-12.96-21.83-22.74-38.12-30.15-50.3-15.47-2.51-32.49-.97-48.09,1.4-130.77,19.86-257.44,65.91-370.21,134.59-16.06,9.78-32.09,20.23-44.18,34.57-7.27,8.63-12.98,18.92-15.73,29.78,20.4,38.33,31.4,55.49,36.05,61.64l.04-.03h0Z"/><path class="cls-20" d="M1257.04,747.27c112.77-68.68,239.44-114.73,370.21-134.59,15.6-2.37,32.62-3.91,48.09-1.4-17.36-28.57-21.53-34.41-22.1-35.17-1.18-1.19-2.34-3.11-3.79-5.53-8.38-13.92-25.83-42.89-92.6-13.52-87.79,38.62-297.92,121.38-300.03,122.21l-.23,.07c-.56,.14-55.72,13.96-73.17,52.13-8.73,19.1-6.66,41.23,6.15,65.78,2.66,5.1,5.17,9.87,7.57,14.37,2.75-10.85,8.45-21.15,15.73-29.78,12.09-14.34,28.12-24.79,44.18-34.57h0Z"/><line class="cls-1" x1="1298.51" y1="673.67" x2="1589.05" y2="557.96"/><line class="cls-1" x1="1298.51" y1="673.67" x2="1576.4" y2="563"/><path class="cls-23" d="M1279.41,1035.37c.6,6.52-1.16,16.62,5.08,18.6,5.44,1.72,17.95-2.55,23.27-4.64,68.39-26.89,136.41-53.36,204.8-80.25-22.76,7.82-45.51,14.07-68.27,21.89-44.89,15.42-91.75,42.78-139.21,41.92-3.75-.07-11.63-4.04-13.68-11.08-.67-2.29-2.96-22.49-5.57-21.71-5.56,1.67-6.83,30.81-6.42,35.27Z"/><path class="cls-23" d="M1274.32,1005.14c-.11,6.44-.25,13.05-3.99,18.73-.97,1.48-2.21,2.79-3.69,3.77-7.66,5.12-17.3,1.28-23.9-3.43,12.94,16.61,20.13,28.28,45.99,30.07,3.32-31.78-2.19-70.15-7.56-101.65,0,0-.82-.06-2-.05-.13,0-3.96-.36-3.96-.36,.15,.76-.03,3.47-.06,5.41-.09,5.28-.18,10.56-.27,15.84-.18,10.56-.37,21.12-.55,31.68h0Z"/><path class="cls-3" d="M1185.69,883.15c.76,1.35,1.71,3.39,2.92,4.4,1.32,1.11,3.15,1.67,4.68,1.93,1.77,.3,3.46-.35,5.51-1.88,.73-.55,1.73-1.63,2.03-2.49,.64-1.81,1.98-3.8-3.25-1.27-2.29,1.11-4.52-2.27-6.4-3.98-2.77-2.51-5.43-5.14-7.99-7.87s-4.89-4.52-7.49-7.24c.81,1.52,1.03,1.93,1.53,2.81,1,1.77,2.03,3.8,3.02,5.57,1.97,3.49,3.46,6.52,5.44,10.01h0Z"/><path class="cls-23" d="M1742.28,774.37c-8.76,7.23-7.87,8.19-23.22,15.71-10.82,5.3-10.83,4.09-20.23,7.8,9.4-3.72,7.6-1.56,12.9-3.49s4.23-1.4,9.12-3.29c7.01-2.7,4.3-2.55,11.36-5.14,5.33-1.95,11.25-3.6,16.6-1.68,4.42,1.59,7.73,5.46,9.69,9.74,1.96,4.27,3.5,8.98,4.27,13.61-.77-13.63-1.71-27.89-2.42-41.81-.18-3.43-.33-6.75-.5-10.18-.1-1.86,.11-14.19-.68-11.09-.65,2.55-1.41,4.46-1.76,5.5-.88,2.61-2,5.06-3.3,7.65-2.87,5.74-7.78,13.31-11.84,16.66h.01Z"/><path class="cls-23" d="M1286.1,983.67c-1.43-5.82,1.5-12.01,5.89-16.08s10.05-6.45,15.58-8.75c51.34-21.33,323.2-132.8,374.54-154.13-40.83,14.64-302.17,119.42-343,134.06-19.27,6.91-39.73,13.93-58.54,13.93"/><path class="cls-23" d="M1724.07,871.91c-7.4,5.31-15.54,9.5-23.64,13.66-19.78,10.17-39.56,23.23-59.34,33.39,23.92-9.21,47.23-17.42,70.38-26.12,16.2-6.08,23.59-6.41,37.58-22.41,10.22-11.68,16.7-27.07,14.64-48.14-.4-4.09-.72-13.74-1.11-17.61-1.28,1.4-1.3,7.79-1.68,9.69-.49,2.47-1.08,4.93-1.77,7.35-1.38,4.85-3.17,9.59-5.32,14.16-4.26,9.07-9.97,17.46-16.86,24.74-3.93,4.15-8.24,7.94-12.88,11.27v.02Z"/><path class="cls-23" d="M1249.5,938.89s4.55,4.27,11.46,8.41c3.84,2.3,.23,.42,10.41,4.15,1.37,.5,8.42-.09,8.03,6.85-.44,7.81-4.28,16.2-4.44,24.02,.17-6.22-2.5-12.24-6.16-17.28-3.66-5.04-8.3-9.27-12.71-13.66-10.97-10.93-20.42-24.11-28.72-37.18"/><path class="cls-23" d="M1167.69,693.33c-14.92,12.21-25.44,28.92-31.11,47.06-7.01,22.43-4.67,48.04-.92,71.23,1.15-3.71,1.68-9.11,2.52-12.9,.84-3.79,3.14-7.73,6.93-8.59,2.69-.61,5.54,.51,7.65,2.3s5.13,5.64,6.59,7.98c-4.96-13.69-11.46-28.96-13.57-43.37-2.11-14.4-.27-29.03,6.21-42.06,1.87-3.77,4.26-7.34,6.92-10.6,1.57-1.93,3.15-3.85,4.72-5.78,1.5-1.84,2.54-3.43,4.04-5.27h.02Z"/><path class="cls-23" d="M1177.26,878.19c2.7,4.7,9.34,15.99,14.13,18.52s11.8,1.64,14.22-3.21c1.24-2.48,1.04-5.5-.04-8.05-1.08-2.55-4.18-8.22-6.24-10.07,1.81,2.35,2.42,8.34,.86,10.87s-3.97,3.81-6.88,3.25c-4.29-.83-5.99-3.57-8.03-7.44-5.44-10.31-11.67-21.04-17.01-31.41-2.75-5.35-6.01-12.18-9.59-16.96,2.37,8.4,7.09,21.18,8.7,24.72,2.04,4.47,4.19,8.9,6.44,13.27,1.12,2.19,2.27,4.36,3.45,6.52,.8,1.48,0-1.6,0,0h0Z"/><path class="cls-23" d="M1181.24,951.96c-9.98-9.84-17.23-20.2-25.35-30.41-2.97-3.74-6.14-7.38-8.21-11.68-2.65-5.51-4.3-11.17-4.81-17.07-1.8-20.97-3.65-40.64-5.75-64.48,1.3,21.47,7.2,43.61,12.73,64.39,2.03,7.62,4.35,15.2,7.85,22.26,1.93,3.89,4.2,7.6,6.46,11.3,3.62,5.9,7.23,11.8,10.85,17.7"/><g><path class="cls-10" d="M1270.66,662.42c1.93,0,1.93-3,0-3s-1.93,3,0,3h0Z"/><path class="cls-30" d="M1271.57,887.26l-94.72-181.76c-6.43-12.34-2.07-27.79,9.74-34.5l87.35-49.69c11.81-6.72,26.59-2.16,33.02,10.18l94.72,181.76c6.43,12.34,2.07,27.79-9.74,34.5l-87.35,49.69c-11.81,6.72-26.59,2.16-33.02-10.18Zm18.2,29.93l117.36-66.76c9.08-5.17,12.43-17.05,7.49-26.53l-109.2-209.55c-4.94-9.49-16.31-12.99-25.4-7.83l-117.36,66.76c-9.08,5.17-12.43,17.04-7.49,26.53l109.2,209.55c4.94,9.49,16.31,12.99,25.4,7.83Z"/><path class="cls-20" d="M1395.03,851.56c11.81-6.72,16.17-22.17,9.74-34.5l-98.49-190.85c-6.43-12.34-21.22-16.89-33.02-10.18l-90.35,49.76c-11.81,6.72-16.17,22.17-9.74,34.5l98.49,190.85c6.43,12.34,21.22,16.89,33.02,10.18l90.35-49.76Z"/><path class="cls-29" d="M1300.8,909.01s-26.87,26.6-41.22-11.57,11.36,23.98-3.51-6.4c-14.88-30.38-6.13-12.07-6.13-12.07l-4.83-9.7-2.58-4.38-3.72-7.69-4.08-7.68-2.41-4.57-2.78-5.3-2.78-5.3-2.97-6.04-2.22-4.2-1.86-4.03-2.23-4.39-2.77-4.93-3.35-7.14-3.88-6.76-2.22-3.83-1.68-3.66-2.4-4.02-2.79-5.67-5.94-11.52-10.78-21.59-5.73-10.41-4.89-10.25-3.46-6.03-2.59-4.75-1.85-3.47-2.21-3.82-2.6-4.95-1.7-4.4-.84-2.04-1.59-7.83,.38-2.3,.98-3.73,2.75-3.77,2.07-2.46,2.56-1.81,4.35-2.28c.09-1.51-10.34,15.36-6.09,23.57,2.35,4.54,9.62,20.27,9.62,20.27l3.74,7.69,3.58,7.88,4.45,8.41,7.22,13.53,6.27,10.48,5.53,9.04,4.84,10.25,2.27,6.24,4.65,9.52,4.78,7.66,4.09,8.23,4.44,8.22,8.86,15.15,11.62,19.9,9.62,17.36,10.65,21.41s8.75,20.53,33.37,11.95v-.02Z"/><path class="cls-17" d="M1208.85,658.33c-12.01,6.45-27.61,9.2-32.91,22.17-6.44,15.78,3,25.9,10.59,41.11,9.6,19.24,11.27,40.02,26.52,54.76,8.56,8.27,10.87,21.44,15.62,31.51,8.19,17.34,26.49,41.6,31.77,60.14,9.44,33.11,20.18,35.08,35.74,34.54,12.92-.45,10.69-8.38,29.32-15.36,18.84-7.06,36.64-20.84,52.68-30.95,10.86-6.85,37.93-10.74,30.67-21.61-19.07-28.58-25.41-57.91-34-65.95-38.39-35.9-19.02-56.32-42.7-81.77-27.9-29.98-19.54-56.84-35.72-67.12-16.55-10.52-33.73,11.91-53.02,13.86-13.9,1.41-22.14,18.01-34.56,24.69v-.02Z"/><ellipse class="cls-26" cx="1321.74" cy="820.32" rx="59.35" ry="62"/><ellipse class="cls-31" cx="1324" cy="820.2" rx="52.04" ry="56.91" transform="translate(-9.92 16.24) rotate(-.7)"/><ellipse class="cls-18" cx="1324" cy="820.2" rx="46" ry="50.31" transform="translate(-9.92 16.24) rotate(-.7)"/><path class="cls-21" d="M1351.47,816.29c1.84,.03,3.77,.26,5.26,1.39s2.31,3.41,1.34,5.05c-7.53,.44-16.33-.84-22.92-4.86,5.02-1.1,11.2-1.66,16.32-1.57h0Z"/><path class="cls-21" d="M1327.32,793.47c.33-1.89,.85-3.85,2.16-5.2,1.31-1.35,3.6-1.83,4.98-.57-.8,7.84-3.42,16.7-8.29,22.85-.23-5.36,.24-11.82,1.14-17.08h.01Z"/><path class="cls-21" d="M1301.53,811.74c-1.67-.8-3.36-1.82-4.29-3.47s-.81-4.1,.71-5.18c7.07,2.75,14.64,7.6,19.15,14.04-5.03-1.09-10.9-3.16-15.56-5.38h0Z"/><path class="cls-21" d="M1308.03,838.16c-1.56,1.01-3.31,1.91-5.15,1.8s-3.71-1.57-3.73-3.49c6.11-4.62,14.18-8.5,21.81-8.84-3.66,3.76-8.57,7.72-12.92,10.53h-.01Z"/><path class="cls-21" d="M1342.47,843.29c.88,1.69,1.64,3.56,1.44,5.47s-1.71,3.78-3.54,3.7c-4.08-6.63-7.34-15.26-7.24-23.24,3.39,4.02,6.9,9.37,9.35,14.06h0Z"/><ellipse class="cls-26" cx="1259.78" cy="706.54" rx="59.35" ry="62"/><ellipse class="cls-31" cx="1262.04" cy="706.43" rx="52.04" ry="56.91" transform="translate(-8.54 15.47) rotate(-.7)"/><ellipse class="cls-18" cx="1262.04" cy="706.43" rx="46" ry="50.31" transform="translate(-8.54 15.47) rotate(-.7)"/><path class="cls-21" d="M1289.5,702.52c1.84,.03,3.77,.26,5.26,1.39s2.31,3.41,1.34,5.05c-7.53,.44-16.33-.84-22.92-4.86,5.02-1.1,11.2-1.66,16.32-1.57h0Z"/><path class="cls-21" d="M1265.35,679.7c.33-1.89,.85-3.85,2.16-5.2s3.6-1.83,4.98-.57c-.8,7.84-3.42,16.7-8.29,22.85-.23-5.36,.24-11.82,1.14-17.08h.01Z"/><path class="cls-21" d="M1239.57,697.96c-1.67-.8-3.36-1.82-4.29-3.47s-.81-4.1,.71-5.18c7.07,2.75,14.64,7.6,19.15,14.04-5.03-1.09-10.9-3.16-15.56-5.38h0Z"/><path class="cls-21" d="M1246.06,724.38c-1.56,1.01-3.31,1.91-5.15,1.8s-3.71-1.57-3.73-3.49c6.11-4.62,14.18-8.5,21.81-8.84-3.66,3.76-8.57,7.72-12.92,10.53h-.01Z"/><path class="cls-21" d="M1280.51,729.51c.88,1.69,1.64,3.56,1.44,5.47-.21,1.91-1.71,3.78-3.54,3.7-4.08-6.63-7.34-15.26-7.24-23.24,3.39,4.02,6.9,9.37,9.35,14.06h0Z"/><path class="cls-28" d="M1228.82,645.29c-5.46,3.33-9.19,9.09-14.86,12.04-12.91,6.73-22.21,20.51-23.93,35.48-1.72,14.97,14.48,45.33,25.5,55.05-15-20.66-16.96-41.25-13.57-54.15,3.22-12.28,9.47-28.14,19.64-35.14,6.84-4.71,17.04-16.07,47.93-13.2,4.27,.4-26.79-3.64-30.89-2.87-3.9,.73-6.49,.75-9.82,2.79h0Z"/><path class="cls-28" d="M1291.05,758.69c-5.46,3.33-9.19,9.09-14.86,12.04-12.91,6.73-22.21,20.51-23.93,35.48-1.72,14.97,14.48,45.33,25.5,55.05-15-20.66-16.96-41.25-13.57-54.15,3.22-12.28,9.47-28.14,19.64-35.14,6.84-4.71,17.04-16.07,47.93-13.2,4.27,.4-26.79-3.64-30.89-2.87-3.9,.73-6.49,.75-9.82,2.79h0Z"/></g><path class="cls-10" d="M1436.53,599.86c1.93,0,1.93-3,0-3s-1.93,3,0,3h0Z"/><path class="cls-30" d="M1434.78,831.15l-99.59-188.12c-6.76-12.77-1.89-28.6,10.88-35.36l94.45-50c12.77-6.76,28.6-1.89,35.36,10.88l99.59,188.12c6.76,12.77,1.89,28.6-10.88,35.36l-94.45,50c-12.77,6.76-28.6,1.89-35.36-10.88Zm19.2,31.02l126.9-67.18c9.82-5.2,13.57-17.37,8.37-27.19l-114.82-216.89c-5.2-9.82-17.37-13.57-27.19-8.37l-126.9,67.18c-9.82,5.2-13.57,17.37-8.37,27.19l114.82,216.89c5.2,9.82,17.37,13.57,27.19,8.37Z"/><path class="cls-20" d="M1567.87,795.98c12.77-6.76,17.64-22.59,10.88-35.36l-103.53-197.51c-6.76-12.77-22.59-17.64-35.36-10.88l-97.69,50.04c-12.77,6.76-17.64,22.59-10.88,35.36l103.53,197.51c6.76,12.77,22.59,17.64,35.36,10.88l97.69-50.04h0Z"/><path class="cls-29" d="M1465.93,853.88s-29.19,27.02-44.15-12.41c-14.96-39.44,11.92,24.81-3.7-6.62s-6.44-12.49-6.44-12.49l-5.07-10.03-2.72-4.54-3.91-7.95-4.29-7.95-2.53-4.73-2.92-5.49-2.92-5.49-3.12-6.25-2.34-4.35-1.96-4.17-2.34-4.54-2.92-5.11-3.52-7.39-4.08-7-2.33-3.97-1.76-3.79-2.53-4.16-2.93-5.87-6.24-11.92-11.32-22.34-6.04-10.78-5.13-10.6-3.64-6.24-2.73-4.92-1.95-3.6-2.33-3.96-2.73-5.13-1.77-4.55-.88-2.11-1.61-8.07,.43-2.36,1.1-3.82,3-3.85,2.26-2.5,2.77-1.83,4.7-2.29c.12-1.55-11.3,15.67-6.83,24.17,2.47,4.7,10.09,20.96,10.09,20.96l3.93,7.95,3.75,8.14,4.68,8.7,7.6,14,6.61,10.86,5.83,9.37,5.08,10.6,2.36,6.45,4.88,9.84,5.05,7.94,4.29,8.52,4.67,8.51,9.33,15.7,12.25,20.61,10.12,17.97,11.18,22.15s9.16,21.22,35.72,12.71v.02Z"/><circle class="cls-4" cx="1424.2" cy="638.89" r="63.77"/><ellipse class="cls-13" cx="1429.68" cy="638.76" rx="58.33" ry="61.05" transform="translate(-7.7 17.51) rotate(-.7)"/><circle class="cls-4" cx="1489.49" cy="762.93" r="63.77"/><ellipse class="cls-13" cx="1494.98" cy="762.79" rx="58.33" ry="61.05" transform="translate(-9.21 18.32) rotate(-.7)"/><circle class="cls-11" cx="1429.65" cy="638.82" r="36.7"/><circle class="cls-11" cx="1492.8" cy="762.89" r="36.7"/><path class="cls-10" d="M1450.14,630.59c1.03,7.07,.52,17.23-7.61,19.99-1.82,.62-1.04,3.52,.8,2.89,4.12-1.4,7.12-4.71,8.76-8.68,1.96-4.75,1.67-10.02,.95-15-.12-.81-1.13-1.24-1.85-1.05-.86,.23-1.16,1.05-1.05,1.85h0Z"/><path class="cls-10" d="M1516.73,756.97c1.03,7.07,.52,17.23-7.61,19.99-1.82,.62-1.04,3.52,.8,2.89,4.12-1.4,7.12-4.71,8.76-8.68,1.96-4.75,1.67-10.02,.95-15-.12-.81-1.13-1.24-1.85-1.05-.86,.23-1.16,1.05-1.05,1.85h0Z"/><path class="cls-15" d="M1362.42,597.82c-3.17,6.02-3.43,13.17-6.98,18.96-8.11,13.22-9.08,30.54-2.5,44.57,6.58,14.04,32.95,34.82,48.3,37.03-24.93-9.49-32.99-29.85-36.94-43.03-3.75-12.55-4.5-29.35,.96-41.25,3.67-8,8.75-23.69,39.46-36.05,4.28-1.72-31.55,8.74-34.87,11.74-3.16,2.86-5.51,4.35-7.44,8.02h0Z"/><path class="cls-15" d="M1427.02,721.81c-3.17,6.02-3.43,13.17-6.98,18.96-8.11,13.22-9.08,30.54-2.5,44.57,6.58,14.04,32.95,34.82,48.3,37.03-24.93-9.49-32.99-29.85-36.94-43.03-3.75-12.55-4.5-29.35,.96-41.25,3.67-8,8.75-23.69,39.46-36.05,4.28-1.72-31.55,8.74-34.87,11.74s-5.51,4.35-7.44,8.02h0Z"/><g><path class="cls-10" d="M1588.19,546.08c1.93,0,1.93-3,0-3s-1.93,3,0,3h0Z"/><path class="cls-30" d="M1588.69,771.99l-99.07-182.82c-6.73-12.41-2.12-27.92,10.29-34.65l91.79-49.74c12.41-6.73,27.92-2.12,34.65,10.29l99.07,182.82c6.73,12.41,2.12,27.92-10.29,34.65l-91.79,49.74c-12.41,6.73-27.92,2.12-34.65-10.29Zm19.05,30.11l123.32-66.83c9.54-5.17,13.09-17.1,7.92-26.64l-114.22-210.77c-5.17-9.54-17.1-13.09-26.64-7.92l-123.32,66.83c-9.54,5.17-13.09,17.1-7.92,26.64l114.22,210.77c5.17,9.54,17.1,13.09,26.64,7.92h0Z"/><path class="cls-20" d="M1718.37,736.38c12.41-6.73,17.02-22.24,10.29-34.65l-103.01-191.95c-6.73-12.41-22.24-17.02-34.65-10.29l-94.95,49.81c-12.41,6.73-17.02,22.24-10.29,34.65l103.01,191.95c6.73,12.41,22.24,17.02,34.65,10.29l94.95-49.81Z"/><circle class="cls-27" cx="1580.11" cy="589.14" r="57.37"/><circle class="cls-27" cx="1639.83" cy="696.03" r="57.37"/><path class="cls-29" d="M1619.34,793.9s-28.26,26.67-43.24-11.71,11.88,24.12-3.68-6.43-6.41-12.14-6.41-12.14l-5.05-9.75-2.7-4.41-3.89-7.73-4.26-7.72-2.52-4.6-2.91-5.33-2.91-5.33-3.11-6.07-2.33-4.23-1.95-4.05-2.33-4.42-2.9-4.96-3.51-7.18-4.06-6.8-2.32-3.86-1.76-3.68-2.51-4.04-2.92-5.71-6.21-11.59-11.27-21.71-6-10.48-5.11-10.31-3.62-6.06-2.71-4.78-1.94-3.49-2.32-3.84-2.71-4.98-1.77-4.43-.88-2.05-1.65-7.87,.4-2.31,1.03-3.74,2.89-3.79,2.18-2.47,2.69-1.81,4.57-2.28c.1-1.52-10.89,15.41-6.44,23.67,2.46,4.56,10.05,20.38,10.05,20.38l3.91,7.73,3.74,7.92,4.65,8.46,7.56,13.61,6.56,10.55,5.78,9.1,5.06,10.31,2.37,6.28,4.86,9.57,5.01,7.71,4.28,8.28,4.65,8.27,9.27,15.24,12.16,20.02,10.06,17.46,11.13,21.53s9.15,20.64,35.01,12.07l.03-.02Z"/><circle class="cls-19" cx="1582.56" cy="591.45" r="52.62"/><circle class="cls-19" cx="1643.28" cy="697.78" r="52.62"/><circle class="cls-10" cx="1610.52" cy="573.22" r=".99"/><circle class="cls-10" cx="1550.82" cy="598.49" r=".99"/><circle class="cls-10" cx="1575.39" cy="571.83" r=".99"/><circle class="cls-10" cx="1587.5" cy="554.29" r=".99"/><circle class="cls-10" cx="1587.35" cy="592.57" r=".99"/><circle class="cls-10" cx="1574.01" cy="599.27" r=".99"/><circle class="cls-10" cx="1592.76" cy="616.89" r=".99"/><circle class="cls-10" cx="1611.67" cy="599.43" r=".99"/><circle class="cls-10" cx="1622.17" cy="572.96" r=".99"/><circle class="cls-10" cx="1570.82" cy="550" r=".99"/><circle class="cls-10" cx="1591.74" cy="570.48" r=".99"/><circle class="cls-10" cx="1604.67" cy="558.51" r=".99"/><circle class="cls-10" cx="1600" cy="588.71" r=".99"/><circle class="cls-10" cx="1549.4" cy="574.56" r=".99"/><circle class="cls-10" cx="1551.19" cy="615.41" r=".99"/><circle class="cls-10" cx="1562.95" cy="618.2" r=".99"/><circle class="cls-10" cx="1611.52" cy="618.7" r=".99"/><circle class="cls-10" cx="1580.9" cy="625.55" r=".99"/><circle class="cls-10" cx="1561.7" cy="589.55" r=".99"/><circle class="cls-10" cx="1557.78" cy="562.52" r=".99"/><circle class="cls-10" cx="1624.05" cy="593.29" r=".99"/><circle class="cls-10" cx="1600.94" cy="631.71" r=".99"/><circle class="cls-10" cx="1568.95" cy="632.12" r=".99"/><circle class="cls-10" cx="1671.32" cy="683.29" r=".99"/><circle class="cls-10" cx="1611.62" cy="708.56" r=".99"/><circle class="cls-10" cx="1636.19" cy="681.9" r=".99"/><circle class="cls-10" cx="1648.29" cy="664.36" r=".99"/><circle class="cls-10" cx="1648.14" cy="702.64" r=".99"/><circle class="cls-10" cx="1634.81" cy="709.34" r=".99"/><circle class="cls-10" cx="1653.55" cy="726.96" r=".99"/><circle class="cls-10" cx="1672.47" cy="709.5" r=".99"/><circle class="cls-10" cx="1682.97" cy="683.03" r=".99"/><circle class="cls-10" cx="1631.62" cy="660.07" r=".99"/><circle class="cls-10" cx="1652.54" cy="680.55" r=".99"/><circle class="cls-10" cx="1665.47" cy="668.58" r=".99"/><circle class="cls-10" cx="1660.79" cy="698.78" r=".99"/><circle class="cls-10" cx="1610.2" cy="684.63" r=".99"/><circle class="cls-10" cx="1611.99" cy="725.48" r=".99"/><circle class="cls-10" cx="1623.75" cy="728.27" r=".99"/><circle class="cls-10" cx="1672.32" cy="728.77" r=".99"/><circle class="cls-10" cx="1641.7" cy="735.62" r=".99"/><circle class="cls-10" cx="1622.5" cy="699.62" r=".99"/><circle class="cls-10" cx="1618.58" cy="672.59" r=".99"/><circle class="cls-10" cx="1684.85" cy="703.36" r=".99"/><circle class="cls-10" cx="1661.74" cy="741.78" r=".99"/><circle class="cls-10" cx="1629.75" cy="742.19" r=".99"/><path class="cls-15" d="M1583.56,659.22c-3.04,5.91-3.22,12.89-6.64,18.59-7.8,12.99-8.58,29.91-2.01,43.57,6.56,13.65,36.18,28.34,51.19,30.36-24.44-9.04-36.17-23.48-40.14-36.33-3.78-12.22-4.68-28.63,.55-40.3,3.51-7.85,8.32-23.22,38.21-35.59,4.16-1.72-30.74,8.84-33.95,11.8-3.06,2.82-5.34,4.3-7.19,7.9h-.02Z"/><path class="cls-15" d="M1525.28,552.59c-3.04,5.91-3.22,12.89-6.64,18.59-7.8,12.99-8.58,29.91-2.01,43.57,6.56,13.65,36.18,28.34,51.19,30.36-24.44-9.04-36.17-23.48-40.14-36.33-3.78-12.22-4.68-28.63,.55-40.3,3.51-7.85,8.32-23.22,38.21-35.59,4.16-1.72-30.74,8.84-33.95,11.8-3.06,2.82-5.34,4.3-7.19,7.9h-.02Z"/></g><path class="cls-24" d="M1727.24,740.09c-2.19,5.33,2.1,12.71,7.64,14.3,4,1.15,8.32-1.43,10.52-4.96,2.2-3.54,2.78-7.81,3.3-11.94,1.43-11.31,2.86-22.63,4.3-33.94,1.34-10.55,2.54-21.87-2.4-31.29-7.43-14.17-35.28-14.23-29.63,1.04,7.23,19.53,13.95,48.12,6.27,66.81v-.02Z"/></g><g><g><path class="cls-32" d="M561.94,178.04c-12.18,3.38-24.32,6.9-36.44,10.55-5.44,1.63-9.83-1.5-9.83-7.06v-.56c0-5.55,4.4-11.42,9.83-13.05,38.91-11.72,78.12-22.06,117.56-31.02,5.51-1.25,9.98,2.26,9.98,7.82v.56c0,5.55-4.47,11.04-9.98,12.29-12.38,2.81-24.73,5.76-37.06,8.84-5.49,1.38-9.93,7.02-9.93,12.57v147.47c0,5.55-4.45,11.19-9.92,12.63-1.47,.39-2.94,.77-4.41,1.16-5.47,1.45-9.9-1.85-9.9-7.4V185.38c0-5.55-4.43-8.85-9.89-7.34h-.01Z"/><path class="cls-32" d="M698.08,135.38v168.14c0,5.56-4.49,10.92-10.02,12.03-1.39,.28-2.78,.56-4.17,.84-5.53,1.12-10.01-2.44-10.01-8V140.25c0-5.56,4.48-10.99,10.01-12.11,1.39-.28,2.78-.56,4.17-.84,5.53-1.11,10.02,2.53,10.02,8.08Z"/><path class="cls-32" d="M750.56,115.98c1.4-.23,2.8-.45,4.2-.68,5.56-.89,10.07,2.92,10.08,8.47v147.75c0,5.55,4.51,9.36,10.08,8.53,20.17-2.99,40.38-5.62,60.62-7.9,5.59-.63,10.12,3.39,10.12,8.94v.28c0,5.56-4.53,10.54-10.12,11.17-28.39,3.2-56.72,7.09-84.97,11.68-5.56,.9-10.07-2.84-10.06-8.39V127.7c0-5.55,4.5-10.81,10.06-11.72h-.01Z"/><path class="cls-32" d="M883.09,99.59c1.41-.12,2.82-.24,4.23-.35,5.6-.46,10.15,3.69,10.14,9.24v147.75c0,5.55,4.54,9.7,10.15,9.3,20.3-1.44,40.61-2.54,60.94-3.27,5.61-.2,10.17,4.16,10.16,9.71v.28c0,5.56-4.55,10.19-10.16,10.39-28.51,1.04-57.01,2.77-85.46,5.19-5.6,.48-10.14-3.61-10.14-9.16V110.54c0-5.55,4.54-10.48,10.14-10.95Z"/><path class="cls-32" d="M1024.74,271.45v-67.25c0-1.69-.43-3.36-1.25-4.83-16.88-30.32-33.76-60.4-50.63-90.23-3.72-6.57,1.18-14.95,8.91-15.17,1.52-.04,3.04-.09,4.56-.12,3.82-.1,7.32,1.94,9.05,5.27,8,15.32,16,30.7,24,46.13,7.35,14.19,12.99,25.64,18.92,38.78h.56c5.36-12.27,11.87-24.51,19.21-38.65,8.18-15.4,16.36-30.73,24.54-46.01,1.76-3.27,5.22-5.25,9.01-5.12,1.36,.05,2.72,.09,4.08,.14,7.85,.28,12.73,8.93,8.78,15.46-17.83,29.47-35.66,59.21-53.5,89.23-.91,1.53-1.39,3.28-1.39,5.06v67.38c0,5.55-4.54,10.01-10.17,9.98-1.51,0-3.01,0-4.52-.01-5.62,0-10.17-4.49-10.17-10.04h.01Z"/><path class="cls-32" d="M1143.32,96.75c1.41,.09,2.82,.18,4.23,.27,5.61,.37,10.15,5.2,10.15,10.75v80.72c.28,.02,.56,.04,.85,.06,5.07-6.9,10.15-13.21,14.94-18.97,18.33-20.84,36.65-41.39,54.94-61.66,1.92-2.13,4.8-3.16,7.85-2.81,1.2,.14,2.41,.28,3.61,.43,8.63,1.03,13.29,11.69,7.69,17.51-16.43,17.13-32.89,34.49-49.36,52.09-2.96,3.16-3.24,8.12-.68,12.1,19.66,30.63,39.3,61.6,58.9,92.9,4.54,7.27-.25,15.65-8.37,14.64-1.49-.18-2.98-.37-4.47-.55-3.37-.41-6.52-2.45-8.4-5.45-17.33-27.7-34.69-55.14-52.06-82.32-3.73-5.83-11.72-6.97-16.1-2.29-2.29,2.45-4.58,4.9-6.87,7.36-1.59,1.71-2.47,3.98-2.47,6.4v57.98c0,5.55-4.54,9.73-10.15,9.36-1.41-.09-2.82-.18-4.23-.27-5.61-.35-10.16-5.11-10.15-10.67V106.19c0-5.55,4.55-9.8,10.15-9.44h0Z"/><path class="cls-32" d="M1295.71,113.09c1.4,.21,2.8,.43,4.2,.64,5.56,.86,10.08,6.08,10.07,11.64v80.72c.28,.04,.56,.09,.84,.13,5.03-6.45,10.07-12.33,14.82-17.67,18.18-19.24,36.33-38.19,54.43-56.86,1.91-1.96,4.75-2.74,7.76-2.12,1.19,.25,2.38,.49,3.57,.74,8.54,1.79,13.14,12.85,7.61,18.19-16.25,15.69-32.54,31.61-48.86,47.77-2.93,2.91-3.21,7.83-.67,12.04,19.48,32.35,38.92,65.04,58.3,98.05,4.5,7.66-.25,15.63-8.27,13.91-1.47-.31-2.95-.63-4.42-.94-3.33-.7-6.46-3.02-8.31-6.19-17.15-29.22-34.34-58.17-51.56-86.87-3.69-6.16-11.62-8-15.96-3.69-2.27,2.25-4.54,4.5-6.82,6.76-1.58,1.57-2.46,3.77-2.45,6.18v57.98c0,5.55-4.51,9.33-10.07,8.47-1.4-.22-2.8-.43-4.2-.64-5.57-.85-10.09-6-10.08-11.55V121.65c0-5.55,4.51-9.4,10.08-8.56h0Z"/><path class="cls-32" d="M1522.81,263.08c-17.35-5.04-34.76-9.81-52.22-14.31-5.48-1.41-9.93,1.97-9.93,7.53v47.76c0,5.55,4.45,11.17,9.93,12.58,20.22,5.21,40.36,10.78,60.43,16.72,5.44,1.61,9.85,7.45,9.84,13v.28c0,5.55-4.4,8.72-9.84,7.11-28-8.29-56.16-15.86-84.45-22.73-5.5-1.33-9.96-6.89-9.96-12.44V150.44c0-5.55,4.46-9,9.96-7.67,26.9,6.53,53.69,13.7,80.34,21.52,5.45,1.6,9.85,7.42,9.85,12.98v.28c0,5.55-4.4,8.73-9.85,7.13-18.71-5.49-37.49-10.66-56.33-15.51-5.48-1.41-9.93,1.97-9.93,7.53v39.38c0,5.55,4.45,11.17,9.93,12.58,17.46,4.5,34.87,9.27,52.22,14.31,5.45,1.58,9.85,7.4,9.85,12.95q0,3.7,0,0c0,5.55-4.41,8.74-9.85,7.16h0Z"/></g><g><path d="M570.09,175.8c-12.19,3.32-24.35,6.78-36.48,10.37-5.44,1.61-9.85-1.56-9.84-7.11v-.56c0-5.55,4.4-11.39,9.84-13,38.95-11.53,78.2-21.68,117.67-30.45,5.51-1.23,9.99,2.32,9.99,7.87v.56c0,5.55-4.47,11.02-9.99,12.24-12.39,2.75-24.75,5.64-37.1,8.66-5.49,1.34-9.94,6.97-9.94,12.52v147.47c0,5.55-4.45,11.17-9.93,12.58-1.47,.38-2.94,.76-4.41,1.14-5.48,1.43-9.92-1.89-9.91-7.44V183.18c0-5.55-4.44-8.88-9.9-7.39h0Z"/><path d="M706.34,133.8v168.14c0,5.56-4.49,10.9-10.03,11.98-1.39,.27-2.79,.54-4.18,.82-5.53,1.09-10.02-2.49-10.02-8.05V138.55c0-5.55,4.48-10.98,10.02-12.06,1.39-.27,2.79-.55,4.18-.82,5.54-1.08,10.03,2.58,10.03,8.13Z"/><path d="M758.85,114.65c1.4-.22,2.8-.44,4.2-.66,5.57-.87,10.08,2.96,10.08,8.52v147.75c0,5.55,4.52,9.38,10.09,8.58,20.18-2.89,40.4-5.43,60.65-7.61,5.59-.6,10.13,3.44,10.13,8.99v.28c0,5.55-4.54,10.51-10.13,11.12-28.4,3.06-56.75,6.82-85.01,11.28-5.56,.88-10.07-2.89-10.07-8.44V126.32c0-5.56,4.51-10.79,10.07-11.67h-.01Z"/><path d="M891.44,98.9c1.41-.11,2.82-.22,4.23-.33,5.6-.44,10.15,3.74,10.15,9.29V255.6c0,5.55,4.54,9.72,10.15,9.35,20.3-1.35,40.62-2.34,60.95-2.98,5.61-.18,10.16,4.21,10.16,9.76v.28c0,5.55-4.55,10.17-10.16,10.35-28.52,.9-57.02,2.49-85.48,4.78-5.6,.45-10.14-3.66-10.14-9.21V109.79c0-5.56,4.54-10.45,10.14-10.9h0Z"/><path d="M1033.11,271.43v-67.25c0-1.69-.43-3.35-1.25-4.84-16.88-30.4-33.76-60.56-50.63-90.47-3.72-6.59,1.19-14.94,8.91-15.13,1.52-.04,3.04-.07,4.56-.1,3.82-.08,7.32,1.97,9.05,5.31,8,15.36,16,30.77,24,46.24,7.34,14.23,12.99,25.7,18.92,38.88h.56c5.36-12.24,11.86-24.45,19.21-38.55,8.18-15.36,16.36-30.65,24.54-45.9,1.75-3.26,5.22-5.23,9.01-5.08,1.36,.05,2.72,.11,4.08,.16,7.85,.32,12.73,8.99,8.77,15.51-17.82,29.39-35.66,59.05-53.49,88.98-.9,1.52-1.38,3.27-1.39,5.05v67.38c0,5.55-4.55,9.98-10.17,9.94-1.51-.01-3.01-.03-4.52-.03-5.61-.04-10.17-4.53-10.17-10.09h.01Z"/><path d="M1151.68,97.3c1.41,.1,2.82,.19,4.23,.29,5.6,.4,10.14,5.25,10.15,10.8v80.72c.28,.02,.56,.04,.85,.06,5.08-6.87,10.14-13.16,14.93-18.9,18.33-20.75,36.64-41.22,54.92-61.4,1.92-2.12,4.8-3.14,7.84-2.77,1.2,.15,2.41,.29,3.61,.44,8.63,1.07,13.28,11.75,7.69,17.55-16.43,17.05-32.88,34.33-49.34,51.85-2.96,3.15-3.24,8.1-.68,12.1,19.65,30.73,39.28,61.79,58.88,93.18,4.54,7.29-.26,15.65-8.36,14.6-1.49-.19-2.98-.38-4.46-.57-3.37-.42-6.52-2.48-8.4-5.49-17.33-27.78-34.67-55.3-52.04-82.57-3.72-5.85-11.72-7.03-16.09-2.37-2.29,2.44-4.58,4.88-6.87,7.32-1.59,1.7-2.47,3.97-2.47,6.39v57.98c0,5.55-4.54,9.71-10.15,9.31-1.41-.1-2.82-.2-4.23-.29-5.6-.38-10.15-5.16-10.15-10.72V106.69c0-5.55,4.55-9.77,10.15-9.39h-.01Z"/><path d="M1304.01,114.37c1.4,.22,2.8,.44,4.2,.66,5.56,.88,10.07,6.14,10.07,11.69v80.72c.28,.05,.56,.09,.84,.14,5.03-6.43,10.06-12.27,14.81-17.59,18.17-19.15,36.3-38.02,54.39-56.59,1.9-1.95,4.75-2.72,7.76-2.08,1.19,.25,2.38,.5,3.57,.76,8.53,1.83,13.13,12.92,7.6,18.22-16.24,15.61-32.52,31.45-48.83,47.53-2.93,2.89-3.21,7.82-.67,12.04,19.47,32.45,38.89,65.22,58.25,98.33,4.49,7.69-.25,15.62-8.27,13.87-1.47-.32-2.94-.64-4.41-.96-3.33-.72-6.45-3.05-8.3-6.23-17.14-29.3-34.31-58.34-51.53-87.12-3.69-6.18-11.61-8.06-15.95-3.77-2.27,2.24-4.54,4.48-6.81,6.72-1.58,1.57-2.45,3.75-2.45,6.17v57.98c0,5.55-4.5,9.31-10.07,8.42-1.4-.22-2.8-.44-4.2-.66-5.57-.88-10.08-6.05-10.08-11.6V122.88c0-5.56,4.51-9.38,10.08-8.51h0Z"/><path d="M1530.93,265.46c-17.33-5.13-34.72-9.98-52.16-14.57-5.48-1.44-9.92,1.93-9.92,7.48v47.76c0,5.55,4.45,11.19,9.92,12.63,20.2,5.31,40.32,10.98,60.37,17.02,5.44,1.64,9.83,7.49,9.83,13.05v.28c0,5.56-4.4,8.7-9.83,7.06-27.97-8.43-56.1-16.14-84.36-23.14-5.49-1.37-9.95-6.93-9.95-12.49V152.4c0-5.55,4.45-8.98,9.95-7.62,26.88,6.66,53.64,13.96,80.26,21.91,5.44,1.62,9.84,7.47,9.84,13.02v.28c0,5.55-4.4,8.71-9.84,7.08-18.69-5.58-37.45-10.84-56.27-15.79-5.48-1.44-9.92,1.93-9.92,7.48v39.38c0,5.56,4.45,11.19,9.92,12.63,17.44,4.58,34.83,9.44,52.16,14.57,5.44,1.61,9.84,7.45,9.84,13q0,3.7,0,0c0,5.55-4.4,8.72-9.84,7.11h0Z"/></g></g><g><path class="cls-32" d="M808.42,384.45h8.64c.59,0,1.07,.48,1.07,1.07v.03c0,.59-.48,1.07-1.07,1.07h-6.06c-.59,0-1.07,.48-1.07,1.07v4.51c0,.59,.48,1.07,1.07,1.07h5.43c.59,0,1.07,.48,1.07,1.07h0c0,.59-.48,1.07-1.07,1.07h-5.43c-.59,0-1.07,.48-1.07,1.07v6.92c0,.59-.48,1.07-1.07,1.07h-.45c-.59,0-1.07-.48-1.07-1.07v-17.88c0-.59,.48-1.07,1.07-1.07h.01Z"/><path class="cls-32" d="M831.11,395.08h-5.64c-.59,0-1.07,.48-1.07,1.07v5.08c0,.59,.48,1.07,1.07,1.07h6.53c.59,0,1.07,.48,1.07,1.07v.03c0,.59-.48,1.07-1.07,1.07h-9.12c-.59,0-1.07-.48-1.07-1.07v-17.88c0-.59,.48-1.07,1.07-1.07h8.67c.59,0,1.07,.48,1.07,1.07v.03c0,.59-.48,1.07-1.07,1.07h-6.09c-.59,0-1.07,.48-1.07,1.07v4.19c0,.59,.48,1.07,1.07,1.07h5.64c.59,0,1.07,.48,1.07,1.07h0c0,.59-.48,1.07-1.07,1.07h.01Z"/><path class="cls-32" d="M836.43,387.03c0-1.34,1.02-2.48,2.36-2.59,.98-.08,2.03-.14,3.14-.14,3.71,0,6.35,.86,8.11,2.49,1.78,1.63,2.82,3.95,2.82,7.19s-1.01,5.94-2.88,7.78c-1.87,1.87-4.96,2.88-8.85,2.88-.8,0-1.54-.02-2.23-.05-1.38-.06-2.46-1.21-2.46-2.6v-14.97h-.01Zm2.58,12.94c0,1.43,1.15,2.6,2.58,2.6h.03c5.52,0,8.52-3.09,8.52-8.49,.03-4.72-2.64-7.72-8.11-7.72h-.47c-1.42,.03-2.56,1.18-2.56,2.6v11h0Z"/><path class="cls-32" d="M858.17,386.65h-3.89c-.61,0-1.1-.49-1.1-1.1h0c0-.61,.49-1.1,1.1-1.1h12.62c.61,0,1.1,.49,1.1,1.1h0c0,.61-.49,1.1-1.1,1.1h-3.92c-.61,0-1.1,.49-1.1,1.1v15.62c0,.61-.49,1.1-1.1,1.1h-.42c-.61,0-1.1-.49-1.1-1.1v-15.62c0-.61-.49-1.1-1.1-1.1h0Z"/><path class="cls-32" d="M869.64,403.06c-.05-1.13,.71-1.96,1.77-1.95,.95,0,1.72,.86,1.73,1.81,.01,1.02-.63,1.82-1.65,1.87-.96,.05-1.81-.76-1.85-1.73h0Zm.71-5.3l-.36-12.49c-.01-.45,.35-.82,.8-.82h1.02c.56,0,1,.46,.98,1.01l-.36,12.39c-.01,.47-.4,.85-.88,.85h-.23c-.52,0-.95-.42-.97-.94h0Z"/><path class="cls-32" d="M900.46,394.25c0,6.89-4.19,10.54-9.29,10.54s-9-4.1-9-10.15c0-6.35,3.95-10.51,9.29-10.51s9,4.19,9,10.12Zm-15.53,.33c0,4.28,2.32,8.11,6.38,8.11s6.41-3.77,6.41-8.31c0-3.98-2.08-8.14-6.38-8.14s-6.41,3.95-6.41,8.34h0Z"/><path class="cls-32" d="M905.03,383.39h0c.72,0,1.31,.58,1.31,1.31v18.47c0,.72-.58,1.31-1.31,1.31h0c-.72,0-1.31-.58-1.31-1.31v-18.47c0-.72,.58-1.31,1.31-1.31Z"/><path class="cls-32" d="M913.25,397.76c-.59,0-1.06,.53-.96,1.11,.47,2.73,2.51,3.88,4.83,3.88,1.3,0,2.24-.16,3.02-.39,.53-.16,1.08,.16,1.21,.7h0c.12,.49-.16,.99-.64,1.14-.94,.31-2.24,.57-3.94,.57-4.42,0-7.07-2.91-7.07-7.25s2.55-7.75,6.74-7.75c4.69,0,5.94,4.13,5.94,6.77,0,.53-.06,.95-.09,1.22h-9.04Zm5.55-1.87c.6,0,1.06-.54,.95-1.14-.27-1.5-1.21-3.11-3.53-3.11-2.06,0-3.21,1.48-3.72,2.98-.21,.62,.27,1.26,.92,1.26h5.38Z"/><path class="cls-32" d="M934.42,397.76c-.59,0-1.06,.53-.96,1.11,.47,2.73,2.51,3.88,4.83,3.88,1.3,0,2.24-.16,3.02-.39,.53-.16,1.08,.16,1.21,.7h0c.12,.49-.16,.99-.64,1.14-.94,.31-2.24,.57-3.94,.57-4.42,0-7.07-2.91-7.07-7.25s2.55-7.75,6.74-7.75c4.69,0,5.94,4.13,5.94,6.77,0,.53-.06,.95-.09,1.22h-9.04Zm5.55-1.87c.6,0,1.06-.54,.95-1.14-.27-1.5-1.21-3.11-3.53-3.11-2.06,0-3.21,1.48-3.72,2.98-.21,.62,.27,1.26,.92,1.26h5.38Z"/><path class="cls-32" d="M946.79,394.58c0-1.21-.02-2.3-.06-3.31-.03-.64,.49-1.17,1.13-1.17h0c.61,0,1.11,.48,1.13,1.09l.05,1.73h.12c.65-1.93,2.23-3.15,3.98-3.15,.3,0,.5,.03,.74,.09v2.46c-.27-.06-.54-.09-.89-.09-1.84,0-3.15,1.4-3.5,3.36-.06,.36-.12,.77-.12,1.22v6.53c0,.62-.51,1.13-1.13,1.13h-.32c-.62,0-1.13-.51-1.13-1.13v-8.76h0Z"/><path class="cls-32" d="M963.86,404.47c-.64,0-1.15-.53-1.13-1.17,.03-.8,.06-1.71,.06-2.54v-16.24c0-.62,.5-1.13,1.13-1.13h.33c.62,0,1.13,.5,1.13,1.13v7.9h.06c.92-1.6,2.58-2.64,4.9-2.64,3.56,0,6.09,2.97,6.06,7.33,0,5.14-3.24,7.69-6.44,7.69-2.08,0-3.74-.8-4.81-2.7h-.09l-.07,1.3c-.03,.6-.52,1.07-1.13,1.07h0Zm1.52-5.76c0,.33,.06,.65,.12,.95,.5,1.81,2.02,3.06,3.92,3.06,2.73,0,4.37-2.23,4.37-5.52,0-2.88-1.48-5.34-4.28-5.34-1.78,0-3.44,1.22-3.98,3.21-.06,.3-.15,.65-.15,1.07v2.58h0Z"/><path class="cls-32" d="M981,383.39h0c.72,0,1.31,.58,1.31,1.31v18.47c0,.72-.58,1.31-1.31,1.31h0c-.72,0-1.31-.58-1.31-1.31v-18.47c0-.72,.58-1.31,1.31-1.31Z"/><path class="cls-32" d="M989.22,397.76c-.59,0-1.06,.53-.96,1.11,.47,2.73,2.51,3.88,4.83,3.88,1.3,0,2.24-.16,3.02-.39,.53-.16,1.08,.16,1.21,.7h0c.12,.49-.16,.99-.64,1.14-.94,.31-2.24,.57-3.94,.57-4.42,0-7.07-2.91-7.07-7.25s2.55-7.75,6.74-7.75c4.69,0,5.94,4.13,5.94,6.77,0,.53-.06,.95-.09,1.22h-9.04Zm5.55-1.87c.6,0,1.06-.54,.95-1.14-.27-1.5-1.21-3.11-3.53-3.11-2.06,0-3.21,1.48-3.72,2.98-.21,.62,.27,1.26,.92,1.26h5.38Z"/><path class="cls-32" d="M1001.7,390.1c.53,0,1.01,.34,1.18,.84l2.53,7.24c.48,1.31,.86,2.49,1.16,3.68h.09c.33-1.19,.74-2.38,1.22-3.68l2.5-7.23c.17-.51,.65-.84,1.18-.84h0c.88,0,1.49,.89,1.17,1.71l-4.66,11.87c-.19,.48-.65,.8-1.17,.8h-.78c-.52,0-.99-.32-1.17-.81l-4.51-11.87c-.31-.82,.29-1.7,1.17-1.7h.09Z"/><path class="cls-32" d="M1018.08,397.76c-.59,0-1.06,.53-.96,1.11,.47,2.73,2.51,3.88,4.83,3.88,1.3,0,2.24-.16,3.02-.39,.53-.16,1.08,.16,1.21,.7h0c.12,.49-.16,.99-.64,1.14-.94,.31-2.24,.57-3.94,.57-4.42,0-7.07-2.91-7.07-7.25s2.55-7.75,6.74-7.75c4.69,0,5.94,4.13,5.94,6.77,0,.53-.06,.95-.09,1.22h-9.04Zm5.55-1.87c.6,0,1.06-.54,.95-1.14-.27-1.5-1.21-3.11-3.53-3.11-2.06,0-3.21,1.48-3.72,2.98-.21,.62,.27,1.26,.92,1.26h5.38Z"/><path class="cls-32" d="M1033.6,387.26v1.84c0,.55,.45,1,1,1h1.75c.55,0,1,.45,1,1h0c0,.55-.45,1-1,1h-1.75c-.55,0-1,.45-1,1v6.75c0,1.78,.5,2.79,1.96,2.79,.18,0,.34,0,.49-.02,.56-.04,1.06,.37,1.09,.93v.06c.03,.51-.32,.96-.82,1.05-.41,.07-.89,.12-1.44,.12-1.22,0-2.2-.39-2.82-1.1-.74-.77-1.01-2.05-1.01-3.74v-6.84c0-.55-.45-1-1-1h-.24c-.55,0-1-.45-1-1h0c0-.55,.45-1,1-1h.24c.55,0,1-.45,1-1v-1.69c0-.45,.3-.84,.74-.96l.56-.15c.63-.17,1.25,.31,1.25,.96h0Z"/><path class="cls-32" d="M1045.86,402.9c.18-.55,.8-.82,1.33-.6,.73,.3,1.61,.54,2.47,.54,1.9,0,2.79-.95,2.79-2.14,0-1.25-.74-1.93-2.67-2.64-2.58-.92-3.8-2.35-3.8-4.07,0-2.32,1.87-4.22,4.96-4.22,.99,0,1.91,.19,2.64,.47,.51,.19,.78,.74,.61,1.26h0c-.18,.53-.76,.81-1.28,.61-.55-.21-1.24-.38-2.03-.38-1.54,0-2.41,.89-2.41,1.96,0,1.19,.86,1.72,2.73,2.43,2.49,.95,3.77,2.2,3.77,4.33,0,2.52-1.96,4.31-5.38,4.31-1.18,0-2.3-.22-3.21-.58-.48-.19-.72-.74-.56-1.23l.02-.06h.02Z"/><path class="cls-32" d="M1061.48,387.26v1.84c0,.55,.45,1,1,1h1.75c.55,0,1,.45,1,1h0c0,.55-.45,1-1,1h-1.75c-.55,0-1,.45-1,1v6.75c0,1.78,.5,2.79,1.96,2.79,.18,0,.34,0,.49-.02,.56-.04,1.06,.37,1.09,.93v.06c.03,.51-.32,.96-.82,1.05-.41,.07-.89,.12-1.44,.12-1.22,0-2.2-.39-2.82-1.1-.74-.77-1.01-2.05-1.01-3.74v-6.84c0-.55-.45-1-1-1h-.24c-.55,0-1-.45-1-1h0c0-.55,.45-1,1-1h.24c.55,0,1-.45,1-1v-1.69c0-.45,.3-.84,.74-.96l.56-.15c.63-.17,1.25,.31,1.25,.96h0Z"/><path class="cls-32" d="M1080.99,397.16c0,5.32-3.68,7.63-7.16,7.63-3.89,0-6.89-2.85-6.89-7.39,0-4.81,3.15-7.63,7.13-7.63s6.92,3,6.92,7.39Zm-11.4,.15c0,3.15,1.81,5.52,4.36,5.52s4.37-2.35,4.37-5.58c0-2.43-1.22-5.52-4.31-5.52s-4.42,2.85-4.42,5.58h0Z"/><path class="cls-32" d="M1084.29,394.58c0-1.21-.02-2.3-.06-3.31-.03-.64,.49-1.17,1.13-1.17h0c.61,0,1.11,.48,1.13,1.09l.05,1.73h.12c.65-1.93,2.23-3.15,3.98-3.15,.3,0,.5,.03,.74,.09v2.46c-.27-.06-.54-.09-.89-.09-1.84,0-3.15,1.4-3.5,3.36-.06,.36-.12,.77-.12,1.22v6.53c0,.62-.51,1.13-1.13,1.13h-.32c-.62,0-1.13-.51-1.13-1.13v-8.76h0Z"/><path class="cls-32" d="M1113.31,397.16c0,5.32-3.68,7.63-7.16,7.63-3.89,0-6.89-2.85-6.89-7.39,0-4.81,3.15-7.63,7.13-7.63s6.92,3,6.92,7.39Zm-11.4,.15c0,3.15,1.81,5.52,4.36,5.52s4.37-2.35,4.37-5.58c0-2.43-1.22-5.52-4.31-5.52s-4.42,2.85-4.42,5.58h0Z"/><path class="cls-32" d="M1127.96,390.1c.55,0,1,.46,.97,1.01-.04,.8-.07,1.73-.07,2.94v8.34c0,3.3-.65,5.31-2.05,6.56-1.4,1.31-3.41,1.72-5.23,1.72-1.41,0-2.93-.28-4.07-.8-.41-.19-.62-.66-.47-1.1l.2-.61c.11-.34,.49-.5,.82-.35,.93,.45,2.18,.8,3.62,.8,2.67,0,4.63-1.4,4.63-5.02v-1.6h-.06c-.8,1.34-2.35,2.41-4.57,2.41-3.56,0-6.12-3.03-6.12-7.01,0-4.87,3.18-7.63,6.47-7.63,2.49,0,3.86,1.31,4.48,2.49h.06l.07-1.33c.03-.47,.41-.84,.89-.84h.42v.02Zm-1.67,5.67c0-.45-.03-.83-.15-1.19-.47-1.51-1.75-2.76-3.65-2.76-2.75,0-4.64,2.57-4.22,6.5,.16,1.54,1.01,2.99,2.4,3.67,2.2,1.07,4.64,.02,5.41-2.25,.15-.45,.21-.95,.21-1.4v-2.58h0Z"/><path class="cls-32" d="M1138.87,402.62c.13-.4,.59-.62,.97-.44,.77,.36,1.77,.65,2.74,.65,1.9,0,2.79-.95,2.79-2.14,0-1.25-.74-1.93-2.67-2.64-2.58-.92-3.8-2.35-3.8-4.07,0-2.32,1.87-4.22,4.96-4.22,1.04,0,1.99,.21,2.74,.51,.46,.18,.68,.71,.52,1.19h0c-.19,.55-.78,.84-1.33,.63s-1.22-.36-1.99-.36c-1.54,0-2.41,.89-2.41,1.96,0,1.19,.86,1.72,2.73,2.43,2.49,.95,3.77,2.2,3.77,4.33,0,2.52-1.96,4.31-5.38,4.31-1.24,0-2.41-.24-3.34-.63-.4-.17-.61-.63-.47-1.04l.15-.47h.02Z"/><path class="cls-32" d="M1154.41,387.26v1.84c0,.55,.45,1,1,1h1.75c.55,0,1,.45,1,1h0c0,.55-.45,1-1,1h-1.75c-.55,0-1,.45-1,1v6.75c0,1.78,.5,2.79,1.96,2.79,.18,0,.34,0,.49-.02,.56-.04,1.06,.37,1.09,.93v.06c.03,.51-.32,.96-.82,1.05-.41,.07-.89,.12-1.44,.12-1.22,0-2.2-.39-2.82-1.1-.74-.77-1.01-2.05-1.01-3.74v-6.84c0-.55-.45-1-1-1h-.24c-.55,0-1-.45-1-1h0c0-.55,.45-1,1-1h.24c.55,0,1-.45,1-1v-1.69c0-.45,.3-.84,.74-.96l.56-.15c.63-.17,1.25,.31,1.25,.96h0Z"/><path class="cls-32" d="M1172.04,397.55c-.53,0-.96,.46-.91,.99,.28,2.77,2.11,4.23,4.54,4.23,1.33,0,2.27-.2,2.99-.44,.51-.17,1.06,.1,1.19,.62l.02,.09c.12,.45-.12,.91-.55,1.08-1.08,.42-2.45,.67-3.98,.67-2.44,0-4.63-1.16-5.46-3.18h-.06c-.92,1.99-2.88,3.18-5.34,3.18-3,0-4.48-2.02-4.48-4.1,0-3.33,3.09-5.26,8.67-5.2v-.59c0-.71-.45-3.21-3.36-3.21-.98,0-2.02,.26-2.84,.63-.47,.21-1.03-.03-1.2-.52h0c-.16-.44,.04-.93,.46-1.13,1.18-.57,2.59-.91,3.76-.91,2.58,0,4.04,1.22,4.63,3.06h.06c.98-1.9,2.76-3.06,5.02-3.06,4.39,0,5.61,4.25,5.61,6.62,0,.45-.03,.89-.09,1.16h-8.68Zm-3.35,.62c0-.51-.42-.92-.93-.91-2.53,.07-5.19,.72-5.19,3.24,0,1.51,1.13,2.38,2.49,2.38,1.87,0,3.06-1.16,3.47-2.46,.12-.33,.15-.68,.15-1.04v-1.2h.01Zm8.62-2.49c.57,0,1-.51,.9-1.07-.27-1.39-1.21-2.97-3.28-2.97s-3.17,1.45-3.63,2.87c-.19,.58,.26,1.17,.87,1.17h5.14Z"/><path class="cls-32" d="M1184.05,394.58c0-1.21-.02-2.3-.06-3.31-.03-.64,.49-1.17,1.13-1.17h0c.61,0,1.11,.48,1.13,1.09l.05,1.73h.12c.65-1.93,2.23-3.15,3.98-3.15,.3,0,.5,.03,.74,.09v2.46c-.27-.06-.54-.09-.89-.09-1.84,0-3.15,1.4-3.5,3.36-.06,.36-.12,.77-.12,1.22v6.53c0,.62-.51,1.13-1.13,1.13h-.32c-.62,0-1.13-.51-1.13-1.13v-8.76h0Z"/><path class="cls-32" d="M1196.46,396.69h.06c.36-.5,.86-1.13,1.28-1.63l3.88-4.56c.22-.25,.53-.4,.86-.4h0c.99,0,1.51,1.19,.83,1.91l-3.1,3.3c-.38,.4-.41,1.02-.08,1.46l4.4,5.89c.56,.75,.03,1.81-.91,1.81h-.33c-.36,0-.71-.18-.92-.47l-3.8-5.27c-.42-.59-1.28-.63-1.76-.1l-.1,.11c-.19,.21-.29,.48-.29,.76v3.83c0,.63-.51,1.13-1.13,1.13h-.31c-.63,0-1.13-.51-1.13-1.13v-18.81c0-.63,.51-1.13,1.13-1.13h.31c.63,0,1.13,.51,1.13,1.13v12.17h-.02Z"/></g><g><path d="M809.85,383.31h8.64c.59,0,1.07,.48,1.07,1.07v.03c0,.59-.48,1.07-1.07,1.07h-6.06c-.59,0-1.07,.48-1.07,1.07v4.51c0,.59,.48,1.07,1.07,1.07h5.43c.59,0,1.07,.48,1.07,1.07h0c0,.59-.48,1.07-1.07,1.07h-5.43c-.59,0-1.07,.48-1.07,1.07v6.92c0,.59-.48,1.07-1.07,1.07h-.45c-.59,0-1.07-.48-1.07-1.07v-17.88c0-.59,.48-1.07,1.07-1.07h.01Z"/><path d="M832.54,393.94h-5.64c-.59,0-1.07,.48-1.07,1.07v5.08c0,.59,.48,1.07,1.07,1.07h6.53c.59,0,1.07,.48,1.07,1.07v.03c0,.59-.48,1.07-1.07,1.07h-9.12c-.59,0-1.07-.48-1.07-1.07v-17.88c0-.59,.48-1.07,1.07-1.07h8.67c.59,0,1.07,.48,1.07,1.07v.03c0,.59-.48,1.07-1.07,1.07h-6.09c-.59,0-1.07,.48-1.07,1.07v4.19c0,.59,.48,1.07,1.07,1.07h5.64c.59,0,1.07,.48,1.07,1.07h0c0,.59-.48,1.07-1.07,1.07h.01Z"/><path d="M837.86,385.89c0-1.34,1.02-2.48,2.36-2.59,.98-.08,2.03-.14,3.14-.14,3.71,0,6.35,.86,8.11,2.49,1.78,1.63,2.82,3.95,2.82,7.19s-1.01,5.94-2.88,7.78c-1.87,1.87-4.96,2.88-8.85,2.88-.8,0-1.54-.02-2.23-.05-1.38-.06-2.46-1.21-2.46-2.6v-14.97h-.01Zm2.58,12.94c0,1.43,1.15,2.6,2.58,2.6h.03c5.52,0,8.52-3.09,8.52-8.49,.03-4.72-2.64-7.72-8.11-7.72h-.47c-1.42,.03-2.56,1.18-2.56,2.6v11h0Z"/><path d="M859.6,385.51h-3.89c-.61,0-1.1-.49-1.1-1.1h0c0-.61,.49-1.1,1.1-1.1h12.62c.61,0,1.1,.49,1.1,1.1h0c0,.61-.49,1.1-1.1,1.1h-3.92c-.61,0-1.1,.49-1.1,1.1v15.62c0,.61-.49,1.1-1.1,1.1h-.42c-.61,0-1.1-.49-1.1-1.1v-15.62c0-.61-.49-1.1-1.1-1.1h0Z"/><path d="M871.07,401.92c-.05-1.13,.71-1.96,1.77-1.95,.95,0,1.72,.86,1.73,1.81,.01,1.02-.63,1.82-1.65,1.87-.96,.05-1.81-.76-1.85-1.73h0Zm.71-5.3l-.36-12.49c-.01-.45,.35-.82,.8-.82h1.02c.56,0,1,.46,.98,1.01l-.36,12.39c-.01,.47-.4,.85-.88,.85h-.23c-.52,0-.95-.42-.97-.94h0Z"/><path d="M901.89,393.11c0,6.89-4.19,10.54-9.29,10.54s-9-4.1-9-10.15c0-6.35,3.95-10.51,9.29-10.51s9,4.19,9,10.12Zm-15.53,.33c0,4.28,2.32,8.11,6.38,8.11s6.41-3.77,6.41-8.31c0-3.98-2.08-8.14-6.38-8.14s-6.41,3.95-6.41,8.34h0Z"/><path d="M906.46,382.24h0c.72,0,1.31,.58,1.31,1.31v18.47c0,.72-.58,1.31-1.31,1.31h0c-.72,0-1.31-.58-1.31-1.31v-18.47c0-.72,.58-1.31,1.31-1.31Z"/><path d="M914.68,396.61c-.59,0-1.06,.53-.96,1.11,.47,2.73,2.51,3.88,4.83,3.88,1.3,0,2.24-.16,3.02-.39,.53-.16,1.08,.16,1.21,.7h0c.12,.49-.16,.99-.64,1.14-.94,.31-2.24,.57-3.94,.57-4.42,0-7.07-2.91-7.07-7.25s2.55-7.75,6.74-7.75c4.69,0,5.94,4.13,5.94,6.77,0,.53-.06,.95-.09,1.22h-9.04Zm5.55-1.87c.6,0,1.06-.54,.95-1.14-.27-1.5-1.21-3.11-3.53-3.11-2.06,0-3.21,1.48-3.72,2.98-.21,.62,.27,1.26,.92,1.26h5.38Z"/><path d="M935.85,396.61c-.59,0-1.06,.53-.96,1.11,.47,2.73,2.51,3.88,4.83,3.88,1.3,0,2.24-.16,3.02-.39,.53-.16,1.08,.16,1.21,.7h0c.12,.49-.16,.99-.64,1.14-.94,.31-2.24,.57-3.94,.57-4.42,0-7.07-2.91-7.07-7.25s2.55-7.75,6.74-7.75c4.69,0,5.94,4.13,5.94,6.77,0,.53-.06,.95-.09,1.22h-9.04Zm5.55-1.87c.6,0,1.06-.54,.95-1.14-.27-1.5-1.21-3.11-3.53-3.11-2.06,0-3.21,1.48-3.72,2.98-.21,.62,.27,1.26,.92,1.26h5.38Z"/><path d="M948.22,393.44c0-1.21-.02-2.3-.06-3.31-.03-.64,.49-1.17,1.13-1.17h0c.61,0,1.11,.48,1.13,1.09l.05,1.73h.12c.65-1.93,2.23-3.15,3.98-3.15,.3,0,.5,.03,.74,.09v2.46c-.27-.06-.54-.09-.89-.09-1.84,0-3.15,1.4-3.5,3.36-.06,.36-.12,.77-.12,1.22v6.53c0,.62-.51,1.13-1.13,1.13h-.32c-.62,0-1.13-.51-1.13-1.13v-8.76h0Z"/><path d="M965.29,403.32c-.64,0-1.15-.53-1.13-1.17,.03-.8,.06-1.71,.06-2.54v-16.24c0-.62,.5-1.13,1.13-1.13h.33c.62,0,1.13,.5,1.13,1.13v7.9h.06c.92-1.6,2.58-2.64,4.9-2.64,3.56,0,6.09,2.97,6.06,7.33,0,5.14-3.24,7.69-6.44,7.69-2.08,0-3.74-.8-4.81-2.7h-.09l-.07,1.3c-.03,.6-.52,1.07-1.13,1.07h0Zm1.52-5.76c0,.33,.06,.65,.12,.95,.5,1.81,2.02,3.06,3.92,3.06,2.73,0,4.37-2.23,4.37-5.52,0-2.88-1.48-5.34-4.28-5.34-1.78,0-3.44,1.22-3.98,3.21-.06,.3-.15,.65-.15,1.07v2.58h0Z"/><path d="M982.43,382.24h0c.72,0,1.31,.58,1.31,1.31v18.47c0,.72-.58,1.31-1.31,1.31h0c-.72,0-1.31-.58-1.31-1.31v-18.47c0-.72,.58-1.31,1.31-1.31Z"/><path d="M990.65,396.61c-.59,0-1.06,.53-.96,1.11,.47,2.73,2.51,3.88,4.83,3.88,1.3,0,2.24-.16,3.02-.39,.53-.16,1.08,.16,1.21,.7h0c.12,.49-.16,.99-.64,1.14-.94,.31-2.24,.57-3.94,.57-4.42,0-7.07-2.91-7.07-7.25s2.55-7.75,6.74-7.75c4.69,0,5.94,4.13,5.94,6.77,0,.53-.06,.95-.09,1.22h-9.04Zm5.55-1.87c.6,0,1.06-.54,.95-1.14-.27-1.5-1.21-3.11-3.53-3.11-2.06,0-3.21,1.48-3.72,2.98-.21,.62,.27,1.26,.92,1.26h5.38Z"/><path d="M1003.13,388.95c.53,0,1.01,.34,1.18,.84l2.53,7.24c.48,1.31,.86,2.49,1.16,3.68h.09c.33-1.19,.74-2.38,1.22-3.68l2.5-7.23c.17-.51,.65-.84,1.18-.84h0c.88,0,1.49,.89,1.17,1.71l-4.66,11.87c-.19,.48-.65,.8-1.17,.8h-.78c-.52,0-.99-.32-1.17-.81l-4.51-11.87c-.31-.82,.29-1.7,1.17-1.7h.09Z"/><path d="M1019.51,396.61c-.59,0-1.06,.53-.96,1.11,.47,2.73,2.51,3.88,4.83,3.88,1.3,0,2.24-.16,3.02-.39,.53-.16,1.08,.16,1.21,.7h0c.12,.49-.16,.99-.64,1.14-.94,.31-2.24,.57-3.94,.57-4.42,0-7.07-2.91-7.07-7.25s2.55-7.75,6.74-7.75c4.69,0,5.94,4.13,5.94,6.77,0,.53-.06,.95-.09,1.22h-9.04Zm5.55-1.87c.6,0,1.06-.54,.95-1.14-.27-1.5-1.21-3.11-3.53-3.11-2.06,0-3.21,1.48-3.72,2.98-.21,.62,.27,1.26,.92,1.26h5.38Z"/><path d="M1035.03,386.12v1.84c0,.55,.45,1,1,1h1.75c.55,0,1,.45,1,1h0c0,.55-.45,1-1,1h-1.75c-.55,0-1,.45-1,1v6.75c0,1.78,.5,2.79,1.96,2.79,.18,0,.34,0,.49-.02,.56-.04,1.06,.37,1.09,.93v.06c.03,.51-.32,.96-.82,1.05-.41,.07-.89,.12-1.44,.12-1.22,0-2.2-.39-2.82-1.1-.74-.77-1.01-2.05-1.01-3.74v-6.84c0-.55-.45-1-1-1h-.24c-.55,0-1-.45-1-1h0c0-.55,.45-1,1-1h.24c.55,0,1-.45,1-1v-1.69c0-.45,.3-.84,.74-.96l.56-.15c.63-.17,1.25,.31,1.25,.96h0Z"/><path d="M1047.29,401.76c.18-.55,.8-.82,1.33-.6,.73,.3,1.61,.54,2.47,.54,1.9,0,2.79-.95,2.79-2.14,0-1.25-.74-1.93-2.67-2.64-2.58-.92-3.8-2.35-3.8-4.07,0-2.32,1.87-4.22,4.96-4.22,.99,0,1.91,.19,2.64,.47,.51,.19,.78,.74,.61,1.26h0c-.18,.53-.76,.81-1.28,.61-.55-.21-1.24-.38-2.03-.38-1.54,0-2.41,.89-2.41,1.96,0,1.19,.86,1.72,2.73,2.43,2.49,.95,3.77,2.2,3.77,4.33,0,2.52-1.96,4.31-5.38,4.31-1.18,0-2.3-.22-3.21-.58-.48-.19-.72-.74-.56-1.23l.02-.06h.02Z"/><path d="M1062.91,386.12v1.84c0,.55,.45,1,1,1h1.75c.55,0,1,.45,1,1h0c0,.55-.45,1-1,1h-1.75c-.55,0-1,.45-1,1v6.75c0,1.78,.5,2.79,1.96,2.79,.18,0,.34,0,.49-.02,.56-.04,1.06,.37,1.09,.93v.06c.03,.51-.32,.96-.82,1.05-.41,.07-.89,.12-1.44,.12-1.22,0-2.2-.39-2.82-1.1-.74-.77-1.01-2.05-1.01-3.74v-6.84c0-.55-.45-1-1-1h-.24c-.55,0-1-.45-1-1h0c0-.55,.45-1,1-1h.24c.55,0,1-.45,1-1v-1.69c0-.45,.3-.84,.74-.96l.56-.15c.63-.17,1.25,.31,1.25,.96h0Z"/><path d="M1082.42,396.02c0,5.32-3.68,7.63-7.16,7.63-3.89,0-6.89-2.85-6.89-7.39,0-4.81,3.15-7.63,7.13-7.63s6.92,3,6.92,7.39Zm-11.4,.15c0,3.15,1.81,5.52,4.36,5.52s4.37-2.35,4.37-5.58c0-2.43-1.22-5.52-4.31-5.52s-4.42,2.85-4.42,5.58h0Z"/><path d="M1085.72,393.44c0-1.21-.02-2.3-.06-3.31-.03-.64,.49-1.17,1.13-1.17h0c.61,0,1.11,.48,1.13,1.09l.05,1.73h.12c.65-1.93,2.23-3.15,3.98-3.15,.3,0,.5,.03,.74,.09v2.46c-.27-.06-.54-.09-.89-.09-1.84,0-3.15,1.4-3.5,3.36-.06,.36-.12,.77-.12,1.22v6.53c0,.62-.51,1.13-1.13,1.13h-.32c-.62,0-1.13-.51-1.13-1.13v-8.76h0Z"/><path d="M1114.74,396.02c0,5.32-3.68,7.63-7.16,7.63-3.89,0-6.89-2.85-6.89-7.39,0-4.81,3.15-7.63,7.13-7.63s6.92,3,6.92,7.39Zm-11.4,.15c0,3.15,1.81,5.52,4.36,5.52s4.37-2.35,4.37-5.58c0-2.43-1.22-5.52-4.31-5.52s-4.42,2.85-4.42,5.58h0Z"/><path d="M1129.39,388.95c.55,0,1,.46,.97,1.01-.04,.8-.07,1.73-.07,2.94v8.34c0,3.3-.65,5.31-2.05,6.56-1.4,1.31-3.41,1.72-5.23,1.72-1.41,0-2.93-.28-4.07-.8-.41-.19-.62-.66-.47-1.1l.2-.61c.11-.34,.49-.5,.82-.35,.93,.45,2.18,.8,3.62,.8,2.67,0,4.63-1.4,4.63-5.02v-1.6h-.06c-.8,1.34-2.35,2.41-4.57,2.41-3.56,0-6.12-3.03-6.12-7.01,0-4.87,3.18-7.63,6.47-7.63,2.49,0,3.86,1.31,4.48,2.49h.06l.07-1.33c.03-.47,.41-.84,.89-.84h.42v.02Zm-1.67,5.67c0-.45-.03-.83-.15-1.19-.47-1.51-1.75-2.76-3.65-2.76-2.75,0-4.64,2.57-4.22,6.5,.16,1.54,1.01,2.99,2.4,3.67,2.2,1.07,4.64,.02,5.41-2.25,.15-.45,.21-.95,.21-1.4v-2.58h0Z"/><path d="M1140.31,401.48c.13-.4,.59-.62,.97-.44,.77,.36,1.77,.65,2.74,.65,1.9,0,2.79-.95,2.79-2.14,0-1.25-.74-1.93-2.67-2.64-2.58-.92-3.8-2.35-3.8-4.07,0-2.32,1.87-4.22,4.96-4.22,1.04,0,1.99,.21,2.74,.51,.46,.18,.68,.71,.52,1.19h0c-.19,.55-.78,.84-1.33,.63s-1.22-.36-1.99-.36c-1.54,0-2.41,.89-2.41,1.96,0,1.19,.86,1.72,2.73,2.43,2.49,.95,3.77,2.2,3.77,4.33,0,2.52-1.96,4.31-5.38,4.31-1.24,0-2.41-.24-3.34-.63-.4-.17-.61-.63-.47-1.04l.15-.47h.02Z"/><path d="M1155.84,386.12v1.84c0,.55,.45,1,1,1h1.75c.55,0,1,.45,1,1h0c0,.55-.45,1-1,1h-1.75c-.55,0-1,.45-1,1v6.75c0,1.78,.5,2.79,1.96,2.79,.18,0,.34,0,.49-.02,.56-.04,1.06,.37,1.09,.93v.06c.03,.51-.32,.96-.82,1.05-.41,.07-.89,.12-1.44,.12-1.22,0-2.2-.39-2.82-1.1-.74-.77-1.01-2.05-1.01-3.74v-6.84c0-.55-.45-1-1-1h-.24c-.55,0-1-.45-1-1h0c0-.55,.45-1,1-1h.24c.55,0,1-.45,1-1v-1.69c0-.45,.3-.84,.74-.96l.56-.15c.63-.17,1.25,.31,1.25,.96h0Z"/><path d="M1173.47,396.41c-.53,0-.96,.46-.91,.99,.28,2.77,2.11,4.23,4.54,4.23,1.33,0,2.27-.2,2.99-.44,.51-.17,1.06,.1,1.19,.62l.02,.09c.12,.45-.12,.91-.55,1.08-1.08,.42-2.45,.67-3.98,.67-2.44,0-4.63-1.16-5.46-3.18h-.06c-.92,1.99-2.88,3.18-5.34,3.18-3,0-4.48-2.02-4.48-4.1,0-3.33,3.09-5.26,8.67-5.2v-.59c0-.71-.45-3.21-3.36-3.21-.98,0-2.02,.26-2.84,.63-.47,.21-1.03-.03-1.2-.52h0c-.16-.44,.04-.93,.46-1.13,1.18-.57,2.59-.91,3.76-.91,2.58,0,4.04,1.22,4.63,3.06h.06c.98-1.9,2.76-3.06,5.02-3.06,4.39,0,5.61,4.25,5.61,6.62,0,.45-.03,.89-.09,1.16h-8.68Zm-3.35,.62c0-.51-.42-.92-.93-.91-2.53,.07-5.19,.72-5.19,3.24,0,1.51,1.13,2.38,2.49,2.38,1.87,0,3.06-1.16,3.47-2.46,.12-.33,.15-.68,.15-1.04v-1.2h.01Zm8.62-2.49c.57,0,1-.51,.9-1.07-.27-1.39-1.21-2.97-3.28-2.97s-3.17,1.45-3.63,2.87c-.19,.58,.26,1.17,.87,1.17h5.14Z"/><path d="M1185.48,393.44c0-1.21-.02-2.3-.06-3.31-.03-.64,.49-1.17,1.13-1.17h0c.61,0,1.11,.48,1.13,1.09l.05,1.73h.12c.65-1.93,2.23-3.15,3.98-3.15,.3,0,.5,.03,.74,.09v2.46c-.27-.06-.54-.09-.89-.09-1.84,0-3.15,1.4-3.5,3.36-.06,.36-.12,.77-.12,1.22v6.53c0,.62-.51,1.13-1.13,1.13h-.32c-.62,0-1.13-.51-1.13-1.13v-8.76h0Z"/><path d="M1197.89,395.55h.06c.36-.5,.86-1.13,1.28-1.63l3.88-4.56c.22-.25,.53-.4,.86-.4h0c.99,0,1.51,1.19,.83,1.91l-3.1,3.3c-.38,.4-.41,1.02-.08,1.46l4.4,5.89c.56,.75,.03,1.81-.91,1.81h-.33c-.36,0-.71-.18-.92-.47l-3.8-5.27c-.42-.59-1.28-.63-1.76-.1l-.1,.11c-.19,.21-.29,.48-.29,.76v3.83c0,.63-.51,1.13-1.13,1.13h-.31c-.63,0-1.13-.51-1.13-1.13v-18.81c0-.63,.51-1.13,1.13-1.13h.31c.63,0,1.13,.51,1.13,1.13v12.17h-.02Z"/></g><g><path class="cls-12" d="M605.4,884.22c0,140.23-82.07,188.34-188.78,188.34s-197.62-48.12-197.62-188.34,86.5-253.9,193.2-253.9,193.2,113.68,193.2,253.9Z"/><path class="cls-10" d="M400.97,361.3l-2.59,.18c5.24,9.33,9.5,19.13,12.75,29.24,.73-.5,1.38-1.1,1.91-1.8-3.14-9.53-7.19-18.77-12.07-27.62Z"/><ellipse class="cls-12" cx="405.6" cy="512.58" rx="156.49" ry="149.35"/><path class="cls-25" d="M257.55,421.4c11.91-43.8,44.42-81.52,85.98-99.77,4.88,7.84,14.96,11.47,24.12,10.29,11.65-1.5,22.02-10.35,25.34-21.62,15.64-2.59,32.16-3.45,47.58,.22,27.19,6.46,51.54,22.43,70.81,42.67,16.16,16.98,29.24,37.52,34.27,60.41-84.98,5.15-169.96,10.29-254.94,15.44-11.28,.68-24.4-.49-33.16-7.63h0Z"/><path class="cls-1" d="M351.91,319.57c-32.81,24.88-57.32,60.52-68.81,100.05"/><path class="cls-1" d="M408.36,334.56c14.8,2.5,29.45,6.32,43.09,12.59,13.63,6.27,26.25,15.06,35.89,26.56,14.17,16.9,21.17,38.5,27.84,59.52"/><path class="cls-1" d="M385.8,316.11c18.93,6.85,33.43,22.83,42.7,40.7,9.27,17.87,13.95,37.7,18.55,57.3"/><path class="cls-1" d="M362,326.16c-22.6,24.88-33.69,59.81-29.6,93.17"/><path class="cls-1" d="M371.48,324.21c13.33,29.09,20.38,61.04,20.54,93.04"/><rect class="cls-5" x="250.48" y="417.65" width="310.47" height="51.7" rx="10.53" ry="10.53" transform="translate(-12.15 11.43) rotate(-1.59)"/><path class="cls-25" d="M342.28,322.29c-2.28,1.1-4.74,2.6-5.13,4.93-.28,1.69,.63,3.35,1.68,4.76,6.33,8.51,18.63,12.33,29.68,10.61s20.74-8.34,27.32-16.69c1.6-2.03,9.87-7.54,10.02-10.05,.33-5.65-5.16-5.94-9.42-6.09-5.63-.2-12.96,.96-18.6,1.45-11.01,.96-25.75,6.35-35.54,11.08h0Z"/><circle class="cls-5" cx="398.38" cy="299.9" r="28.75"/><path class="cls-12" d="M343.1,598.89c-.54-.14-1.1-.15-1.65-.08,.51-.04,1.05-.03,1.65,.08Z"/><path class="cls-12" d="M231.43,497.59c-5.32,11.65-.17,25.45,11.47,30.77,5.51,2.52,11.78,2.74,17.45,.72-2.12-14.41-2.22-29.13-.17-43.77-11.18-3.9-23.74,1.29-28.76,12.27h0Z"/><polygon class="cls-12" points="572.42 531.8 572.36 529.9 572.42 531.8 572.42 531.8"/><path class="cls-7" d="M360.91,489.05c-16.74-7.09-36.12,.76-43.21,17.49s.28,34.82,15.9,42.44c-2.86-1.7-4.98-4.33-5.94-7.54-1.01-3.38-.65-6.96,1.02-10.06s4.46-5.38,7.84-6.39,6.95-.65,10.06,1.02c3.11,1.67,5.38,4.46,6.4,7.84s.65,6.96-1.02,10.06c-1.67,3.11-4.46,5.38-7.84,6.4-2.3,.69-4.69,.73-6.96,.16,16.26,5.71,34.43-2.12,41.25-18.21,7.09-16.74-.76-36.12-17.49-43.21h-.01Zm-11.14,38.49c-9.59-4.06-14.09-15.17-10.02-24.76,4.06-9.59,15.17-14.09,24.76-10.02,9.59,4.06,14.09,15.17,10.02,24.76-4.06,9.59-15.17,14.09-24.76,10.02Z"/><path d="M382.9,534.17c8.14-19.21-.87-41.47-20.08-49.61-19.21-8.14-41.47,.87-49.61,20.08-8.14,19.21,.87,41.47,20.08,49.61s41.47-.87,49.61-20.08h0Zm-67.44-28.57c7.63-18,28.41-26.42,46.41-18.79s26.41,28.41,18.79,46.41c-7.63,18-28.41,26.41-46.41,18.79-18-7.63-26.42-28.41-18.79-46.41h0Z"/><path d="M380.65,533.21c7.63-18-.78-38.78-18.79-46.41-18-7.63-38.78,.78-46.41,18.79-7.63,18,.78,38.78,18.79,46.41,18,7.63,38.78-.78,46.41-18.79Zm-43.49,17.26c-.67-.17-1.33-.37-1.97-.64-.38-.16-.76-.34-1.13-.54-.16-.09-.3-.21-.46-.31-15.62-7.62-22.76-26.25-15.9-42.44s26.48-24.58,43.21-17.49c16.74,7.09,24.58,26.48,17.49,43.21-6.82,16.09-24.98,23.92-41.25,18.21h.01Z"/><path class="cls-10" d="M362.61,497.25c-7.11-3.01-15.36,.32-18.37,7.44-3.01,7.11,.32,15.35,7.44,18.37,7.11,3.01,15.35-.32,18.37-7.44,3.01-7.11-.32-15.35-7.44-18.37Z"/><path d="M364.51,492.76c-9.59-4.06-20.7,.43-24.76,10.02s.43,20.7,10.02,24.76,20.7-.43,24.76-10.02c4.06-9.59-.43-20.7-10.02-24.76h0Zm-13.79,32.54c-8.37-3.54-12.27-13.2-8.73-21.56,3.54-8.37,13.2-12.27,21.56-8.73,8.37,3.54,12.27,13.2,8.73,21.56-3.54,8.37-13.2,12.27-21.56,8.73Z"/><path d="M363.56,495c-8.37-3.54-18.02,.36-21.56,8.73s.36,18.02,8.73,21.56c8.37,3.54,18.02-.36,21.56-8.73s-.36-18.02-8.73-21.56h0Zm-11.88,28.05c-7.11-3.01-10.45-11.25-7.44-18.37,3.01-7.11,11.25-10.45,18.37-7.44,7.11,3.01,10.45,11.25,7.44,18.37-3.01,7.11-11.25,10.45-18.37,7.44Z"/><path class="cls-10" d="M348.31,535.25c-.64-2.13-2.07-3.89-4.04-4.95-.23-.13-.47-.24-.71-.34-1.78-.76-3.76-.87-5.64-.3-2.13,.64-3.89,2.07-4.95,4.03s-1.29,4.22-.65,6.35,2.08,3.89,4.04,4.95c1.96,1.04,4.22,1.28,6.35,.64s3.89-2.07,4.95-4.04c1.06-1.96,1.29-4.22,.64-6.35h0Z"/><path d="M351.96,543.92c1.67-3.11,2.04-6.68,1.02-10.06s-3.29-6.17-6.4-7.84c-3.11-1.67-6.68-2.04-10.06-1.02-3.38,1.01-6.17,3.29-7.84,6.39s-2.04,6.68-1.02,10.06c.96,3.2,3.08,5.84,5.94,7.54,.53,.26,1.04,.54,1.59,.77,.65,.28,1.31,.49,1.97,.72,2.27,.56,4.66,.53,6.96-.16,3.38-1.01,6.17-3.29,7.84-6.4h0Zm-21.96-3.17c-1.71-5.7,1.52-11.71,7.23-13.42,5.7-1.71,11.71,1.52,13.42,7.23,1.71,5.7-1.52,11.71-7.23,13.42-5.7,1.71-11.71-1.52-13.42-7.23Z"/><path d="M333.6,548.98c.16,.09,.29,.22,.46,.31,.37,.2,.75,.38,1.13,.54,.64,.27,1.3,.48,1.97,.64-.66-.23-1.32-.44-1.97-.72-.55-.23-1.06-.51-1.59-.77Z"/><path class="cls-14" d="M461.1,574.1c-.11,8.37,11.57,15.3,26.09,15.49,14.51,.18,26.37-6.45,26.47-14.82,.11-8.37-11.57-15.3-26.09-15.49-14.51-.18-26.37,6.45-26.47,14.82h0Z"/><ellipse class="cls-14" cx="333.34" cy="574.39" rx="15.16" ry="26.28" transform="translate(-245.19 900.49) rotate(-89.28)"/><path d="M417.4,578.79c6.54-1.26,12.8-3.68,18.43-7.17h0c-6.05,2.3-12.28,4.31-18.74,4.65-5.42,.19-12.57,0-15.32-5.28l-4.35,2.2c4.1,6.8,13.2,6.83,19.98,5.6Z"/><path d="M427.79,567.55c-6.37-5.12-9.86-14.53-6.82-22.04l-4.66-1.43c-1.65,6.36,0,13.27,3.86,18.4,3.67,4.87,9.08,8.57,15.07,9.63h0c-2.68-1.32-5.26-2.66-7.45-4.56h0Z"/><path d="M510.46,492.2l3.6-3.29c-10.35-11.32-24.21-21.01-30.2-15.54l3.29,3.6c1.8-1.65,12.02,2.88,23.31,15.23Z"/><path d="M336.42,479.47l3.91-2.91c-4.83-6.52-20.29,.38-32.6,9.53l2.91,3.91c13.42-9.98,24.31-12.5,25.78-10.53Z"/><path class="cls-12" d="M576.28,510.45c4.86-11.85-.82-25.44-12.66-30.3-5.61-2.3-11.87-2.28-17.46-.04,2.68,14.32,3.35,29.02,1.87,43.73,11.33,3.46,23.67-2.22,28.26-13.38h-.01Z"/><circle cx="475.11" cy="519.39" r="38.31"/><path class="cls-10" d="M467.24,497.25c-7.11-3.01-15.36,.32-18.37,7.44-3.01,7.11,.32,15.35,7.44,18.37,7.11,3.01,15.35-.32,18.37-7.44s-.32-15.35-7.44-18.37Z"/><path class="cls-10" d="M350.65,534.55c-1.71-5.7-7.72-8.94-13.42-7.23s-8.94,7.72-7.23,13.42,7.72,8.94,13.42,7.23,8.94-7.72,7.23-13.42Zm-7.93,11.09c-2.14,.64-4.39,.4-6.35-.64-1.96-1.06-3.4-2.81-4.04-4.95-.64-2.13-.41-4.39,.65-6.35,1.06-1.96,2.81-3.39,4.95-4.03,1.88-.56,3.85-.45,5.64,.3,.24,.1,.48,.22,.71,.34,1.96,1.06,3.4,2.81,4.04,4.95,.64,2.13,.41,4.39-.64,6.35-1.06,1.96-2.81,3.4-4.95,4.04h0Zm134.79,0c-2.14,.64-4.39,.4-6.35-.64-1.96-1.06-3.4-2.81-4.04-4.95-.64-2.13-.41-4.39,.65-6.35,1.06-1.96,2.81-3.39,4.95-4.03,1.88-.56,3.85-.45,5.64,.3,.24,.1,.48,.22,.71,.34,1.96,1.06,3.4,2.81,4.04,4.95,.64,2.13,.41,4.39-.64,6.35-1.06,1.96-2.81,3.4-4.95,4.04h0Z"/><path class="cls-10" d="M440.73,344.83c20.71,4.26,38.44,15.51,50.18,33.25,8.62,13.03,29.75,.83,21.05-12.31-15.1-22.82-37.82-38.92-64.75-44.45-15.32-3.15-21.87,20.35-6.48,23.51h0Z"/><path d="M387.5,606.89c12.29,5.12,25.98,7.13,39.1,5.11,13.12-2.03,25.91-9.52,31.74-21.44-1.8,16.06-9.89,31.33-22.17,41.84-5.31,4.55-11.47,8.26-18.27,9.88s-14.29,1-20.29-2.58c-6.74-4.01-10.91-11.12-14.79-17.93-3.02-5.3-6.05-10.61-9.07-15.91-2.25-3.94-6.67-11.98-9.81-15.3,4.19,2.52,1.1,1.34,23.57,16.33h0Z"/><path class="cls-12" d="M621.94,728.13l23.65-21.55c63.56,27.63,79.1,77.54,79.51,77.88l2.45,2.01,.34-3.19c.16-1.51,16.49-151.54,61.09-215.21,.18-.31,6.7-12.24,18.35-11.02,.18,.41,.4,.92,.64,1.52,5.29,13.4,22.05,75.24-32.5,233.27l-.1,.4c-.56,3.04-14.54,74.1-91.43,41.1-81.71-35.07-122.76-56.79-133.93-65.43-11.92-9.22-57.86-52.01-57.27-67.78,.22-5.71,7.57-13.15,54.43,1.14,28.88,8.81,54.08,18.15,75.77,27.27l-.98-.41h-.02Z"/><path class="cls-12" d="M170.87,703.22l-11.46-2.48c-64.08-26.4-105.08-4.12-105.61-4.18l-3.15-.36,2.06-2.47c.97-1.16,97.32-117.32,111.99-193.67,.1-.34,4.12-13.33-4.86-20.84-.42,.15-.94,.35-1.53,.6-13.3,5.53-69.37,36.54-144.85,185.71l-.22,.35c-1.8,2.52-43.07,62.02,34.13,94.25,82.05,34.25,126.22,48.6,140.2,50.61,14.92,2.14,77.62,5.33,88.53-6.07,3.95-4.13,18.85-40.74-24.03-64.44-26.43-14.61-35.68-16.65-57.33-25.87l-9.92-4.96-13.96-6.2v.02Z"/><path class="cls-5" d="M172.28,719.37c1.67,2.66,2.6,4.15,3.61,5.33,1.49,1.73,3.48,10.87,4.06,12.44,3.52,9.54,5.88,38.11,6.67,77.28,.06,3.1,3.25,5.2,6.2,4.52,1.8-.41,3.95-.52,6.28-.48,11.07,.17,19.89,9.8,19.62,21.1-1.29,55.03,.21,77.15,.21,77.15,.65,10.38,1.91,19.36,2.19,21.31,.04,.26,.09,.5,.15,.76l9.79,36.84c9.77,34.56,9.4,19.67,7.74,59.77-2.13,51.02,4.47,44.64,21.63,45.07,63.35,1.59,328,3.22,327.6-.09-8.61-71.26,31.4-177.27,16.4-246.8-2.32-10.75,9.74-18.63,18.31-11.95h0c6.93,5.39,16.88,1.32,18.42-7.43,5.63-32.07,.99-67.06,25.5-93.73,5.88-6.4,3.45-16.85-4.73-19.53-53.3-17.44-115.26-27.62-166.08-47.15-1.79-.69-40.16,60.56-78.56,51.7-104.29-24.06-52.85-64.47-83.57-54.27-111.86,37.15-122.27,33.48-151.49,41.71-12.46,3.51-16.95,15.36-9.97,26.47h.01Z"/><path class="cls-6" d="M657.64,362.27c3.96,15.39,7.36,33.08,17.12,46.17,12.77,5.5,35.02,2.75,49.07,5.5-13.18,7.31-36.38,15.4-45.95,21.75,.75,20.27,9.43,40.36,17.67,60.45-15.45-16.96-26.22-33.97-41.91-48.07-13.08,11.44-33.87,26.09-44.4,40.08,5.67-16.86,14.13-40.64,17.87-58.95-15.05-3.96-26.7-12.14-41.76-16.1,6.46,1.57-6.57,1.9,0,0,8.56-2.48,45.56-1.5,55.33-4.84,10.55-3.6,11.49-32.71,16.95-46h.01Z"/><path class="cls-6" d="M205.32,579.1c3.96,15.39,7.36,33.08,17.12,46.17,12.77,5.5,35.02,2.75,49.07,5.5-13.18,7.31-36.38,15.4-45.95,21.75,.75,20.27,9.43,40.36,17.67,60.45-15.45-16.96-26.22-33.97-41.91-48.07-13.08,11.44-33.87,26.09-44.4,40.08,5.67-16.86,14.13-40.64,17.87-58.95-15.05-3.96-26.7-12.14-41.76-16.1,6.46,1.57-6.57,1.9,0,0,8.56-2.48,45.56-1.5,55.33-4.84,10.55-3.6,11.49-32.71,16.95-46h0Z"/><path class="cls-6" d="M646.55,793.53c3.96,15.39,7.36,33.08,17.12,46.17,12.77,5.5,35.02,2.75,49.07,5.5-13.18,7.31-36.38,15.4-45.95,21.75,.75,20.27,9.43,40.36,17.67,60.45-15.45-16.96-26.22-33.97-41.91-48.07-13.08,11.44-33.87,26.09-44.4,40.08,5.67-16.86,14.13-40.64,17.87-58.95-15.05-3.96-26.7-12.14-41.76-16.1,6.46,1.57-6.57,1.9,0,0,8.56-2.48,45.56-1.5,55.33-4.84,10.55-3.6,11.49-32.71,16.95-46h.01Z"/><path class="cls-6" d="M239.05,904.94c3.96,15.39,7.36,33.08,17.12,46.17,12.77,5.5,35.02,2.75,49.07,5.5-13.18,7.31-36.38,15.4-45.95,21.75,.75,20.27,9.43,40.36,17.67,60.45-15.45-16.96-26.22-33.97-41.91-48.07-13.08,11.44-33.87,26.09-44.4,40.08,5.67-16.86,14.13-40.64,17.87-58.95-15.05-3.96-26.7-12.14-41.76-16.1,6.46,1.57-6.57,1.9,0,0,8.56-2.48,45.56-1.5,55.33-4.84,10.55-3.6,11.49-32.71,16.95-46h0Z"/><path class="cls-6" d="M412.36,745.92c3.96,15.39,7.36,33.08,17.12,46.17,12.77,5.5,35.02,2.75,49.07,5.5-13.18,7.31-36.38,15.4-45.95,21.75,.75,20.27,9.43,40.36,17.67,60.45-15.45-16.96-26.22-33.97-41.91-48.07-13.08,11.44-33.87,26.09-44.4,40.08,5.67-16.86,14.13-40.64,17.87-58.95-15.05-3.96-26.7-12.14-41.76-16.1,6.46,1.57-6.57,1.9,0,0,8.56-2.48,45.56-1.5,55.33-4.84,10.55-3.6,11.49-32.71,16.95-46h.01Z"/><path class="cls-6" d="M609.4,579.1c3.96,15.39,7.36,33.08,17.12,46.17,12.77,5.5,35.02,2.75,49.07,5.5-13.18,7.31-36.38,15.4-45.95,21.75,.75,20.27,9.43,40.36,17.67,60.45-15.45-16.96-26.22-33.97-41.91-48.07-13.08,11.44-33.87,26.09-44.4,40.08,5.67-16.86,14.13-40.64,17.87-58.95-15.05-3.96-26.7-12.14-41.76-16.1,6.46,1.57-6.57,1.9,0,0,8.56-2.48,45.56-1.5,55.33-4.84,10.55-3.6,11.49-32.71,16.95-46h.01Z"/><path class="cls-6" d="M191.35,285.56c3.96,15.39,7.36,33.08,17.12,46.17,12.77,5.5,35.02,2.75,49.07,5.5-13.18,7.31-36.38,15.4-45.95,21.75,.75,20.27,9.43,40.36,17.67,60.45-15.45-16.96-26.22-33.97-41.91-48.07-13.08,11.44-33.87,26.09-44.4,40.08,5.67-16.86,14.13-40.64,17.87-58.95-15.05-3.96-26.7-12.14-41.76-16.1,6.46,1.57-6.57,1.9,0,0,8.56-2.48,45.56-1.5,55.33-4.84,10.55-3.6,11.49-32.71,16.95-46h0Z"/></g></svg>