<?xml version="1.0" encoding="UTF-8"?><svg id="Lag_2" xmlns="http://www.w3.org/2000/svg" width="900" height="680" viewBox="0 0 900 680"><defs><style>.cls-1{fill:#f9c170;}.cls-2{fill:#ff4545;}.cls-3{fill:#e52c2c;}</style></defs><g><circle class="cls-2" cx="428.19" cy="352.88" r="223.33"/><circle class="cls-1" cx="428.19" cy="352.88" r="200.74"/><path class="cls-2" d="M398.74,110.64c-2.47-2.26-5.37-4.01-7.81-6.3s-4.47-5.35-4.42-8.69c.07-5.51,5.7-9.47,11.14-10.36,7.52-1.23,15.6,1.81,20.45,7.69,4.77,5.78,6.26,13.5,7.58,20.88,1.32,7.3,2.74,14.31,3.05,21.72,4.42,1.39,15.08,2.85,13.26-2.46-2.58-7.54,4.49-19.15,8.21-26.2,1.69-3.21,3.3-7.42,.91-10.15-1.74-1.99-4.96-2.06-7.29-.82s-3.95,3.47-5.35,5.71c-5.48,8.71-12.69,23.43-9.74,33.92-5.94,2.81-15.47,2.86-22.15,1.83,.08-9.96,.35-19.27-7.84-26.75Z"/><circle cx="428.47" cy="344.27" r="8.62"/></g><path class="cls-3" d="M510.51,145.21c-20.99-8.27-33-11.65-51.28-13.51,9.01,4.82,17.71,10.84,26.72,15.66,12.28,6.57,38.42,15.55,49.5,24,10.1,7.7,26.43,19.97,36.96,27.06,9.5,6.4,12.83,11.66,24.6,8.24q-5.85-7.04-10.06-10.86c-4.57-4.15-10.86-10.06-15.42-14.21-11.35-10.32-23.39-17.04-34.88-24-6.61-4.01-18.94-9.55-26.14-12.39Z"/><path class="cls-3" d="M636.56,272.35c-8.87-20.74-15.26-35.2-26.79-49.51,2.91,9.8,1.74,20.21,4.64,30.01,3.96,13.36,15.94,38.26,17.72,52.08,1.62,12.59,4.37,32.84,6.73,45.31,2.13,11.25,.73,17.32,11.43,23.29q.9-9.11,.66-14.79c-.26-6.16-.48-14.79-.74-20.96-.64-15.32-2.31-26.54-5.44-39.6-1.8-7.52-5.18-18.73-8.22-25.84Z"/><path class="cls-3" d="M613.61,476.09c11.58-19.36,19.53-33.02,24.34-50.75-6.23,8.11-15.34,13.28-21.57,21.39-8.49,11.05-21.6,35.37-31.74,44.93-9.24,8.71-24.01,22.82-32.72,32.06-7.86,8.33-13.59,10.76-12.14,22.93q7.9-4.62,12.35-8.15c4.84-3.83,11.69-9.08,16.53-12.9,12.03-9.52,20.12-17.45,28.86-27.66,5.03-5.87,12.12-15.19,16.09-21.83Z"/><path class="cls-3" d="M395.51,574.17c22.22,2.47,37.81,4.02,55.64,.88-9.91-2.32-18.45-8.59-28.36-10.91-13.5-3.16-40.8-4.94-53.69-10.28-11.75-4.87-30.7-12.57-42.69-16.72-10.81-3.74-16.11-7.83-26.28-1.25,7.54,5.38,7.6,4.95,12.38,8.08s14.05,7.7,19.55,10.56c13.68,7.12,24.2,10.26,37.06,14.02,7.4,2.16,18.75,4.77,26.37,5.61Z"/><path class="cls-3" d="M223.62,443.45c9.76,20.12,16.77,34.12,28.93,47.54-3.32-9.62-2.58-20.19-5.9-29.81-4.53-13.1-17.58-37.14-19.94-50.9-2.15-12.53-5.74-32.67-8.62-45.03-2.6-11.14-1.97-17.8-12.96-22.9-.53,9.24-.13,9.07-.23,14.78s.98,16,1.49,22.18c1.27,15.37,4.23,25.95,7.91,38.83,2.12,7.41,5.97,18.41,9.32,25.3Z"/><path class="cls-3" d="M252.51,217.67c-12.99,18.2-23.32,29.25-29.28,46.35,6.85-7.52,17.88-10.12,24.74-17.64,9.34-10.25,24.2-33.21,35.15-41.87,9.98-7.88,25.94-20.68,35.41-29.12,8.54-7.62,17.98-13.76,17.19-25.85-8.37,3.96-15.48,8.04-20.54,10.68-5.13,2.68-9.41,8.22-14.59,11.62-12.88,8.47-20.76,16.13-30.31,25.53-5.5,5.41-13.3,14.05-17.76,20.29Z"/></svg>