<?xml version="1.0" encoding="UTF-8"?><svg id="Lag_2" xmlns="http://www.w3.org/2000/svg" width="900" height="680" viewBox="0 0 900 680"><path d="M294.69,373.54c0-1.63,0-3.27,0-4.9,0-4.44-.01-8.89-.02-13.33-.01-6.61-.02-13.22-.03-19.82-.01-8.03-.03-16.05-.04-24.08-.01-8.79-.03-17.58-.04-26.37s-.03-17.75-.04-26.62c-.01-8.27-.03-16.55-.04-24.82-.01-6.99-.02-13.99-.03-20.98l-.02-15.1c0-2.39,.06-4.78-.01-7.17,0-.1,0-.21,0-.31,0-1.93-3-1.93-3,0,0,1.63,0,3.27,0,4.9,0,4.44,.01,8.89,.02,13.33,.01,6.61,.02,13.22,.03,19.82,.01,8.03,.03,16.05,.04,24.08,.01,8.79,.03,17.58,.04,26.37s.03,17.75,.04,26.62c.01,8.27,.03,16.55,.04,24.82,.01,6.99,.02,13.99,.03,20.98l.02,15.1c0,2.39-.06,4.78,.01,7.17,0,.1,0,.21,0,.31,0,1.93,3,1.93,3,0h0Z"/></svg>