<?xml version="1.0" encoding="UTF-8"?><svg id="Lag_2" xmlns="http://www.w3.org/2000/svg" width="770" height="220" viewBox="0 0 770 220"><defs><style>.cls-1{fill:blue;}.cls-2{fill:#fff;}.cls-3{fill:#9595f9;}</style></defs><g><g><path class="cls-3" d="M131.18,132.16c3.33-14.9,7.29-32.16,8.74-38.35,1.44-6.19,5.3-20.42,5.21-20.42-.09,0-2.52,4.1-5.44,9.11-2.84,5-19.75,31.62-29.76,46.47-1.46,2.19-2.93,4.39-4.41,6.58-1.33,1.97-3.64,3.4-5.78,3.58-.2,.02-.4,.03-.6,.05-2.04,.17-3.45-.92-3.51-2.71-.06-1.83-.11-3.66-.16-5.48-.39-14.1-.33-30.01-.19-35.34,.1-5.33,1.21-18.29,1.17-18.28-.06,0-1.97,4.89-4.25,10.85-2.27,5.96-13.86,34.61-20.29,50.05-.01,.03-.03,.07-.04,.1-.87,2.09-3.25,3.88-5.43,4.08h0c-3.06,.28-4.57-1.97-3.29-4.9,8.91-20.57,17.71-41.13,26.4-61.67,1.77-4.18,6.21-7.7,10.16-8.05h0c2.74-.25,4.56,1.35,4.55,3.98,0,1.58,0,3.15,0,4.73,0,14.06,.33,29.3,.37,33.9,0,4.6-.4,15.85-.29,15.85,.09,0,2.33-3.59,4.93-7.97,2.67-4.38,19-29.63,28.29-44.37,1.03-1.62,2.06-3.25,3.09-4.87,1.85-2.93,5.01-5.01,7.91-5.23h0c3.8-.28,6.1,2.59,5.25,6.53-4.48,20.68-8.86,41.34-13.13,62.01-.46,2.25-2.87,4.29-5.26,4.46h0c-3.02,.21-4.87-1.84-4.23-4.68h0Z"/><path class="cls-3" d="M65.95,144.48c-1.84,0-3.4-.72-4.34-2.02-1.1-1.52-1.2-3.59-.29-5.7,8.87-20.48,17.75-41.23,26.39-61.65,2.07-4.86,7.15-8.85,11.83-9.27,1.92-.17,3.66,.35,4.89,1.48,1.19,1.09,1.84,2.69,1.84,4.5,0,1.58,0,3.15,0,4.72,0,10.06,.17,20.66,.28,27.67,.04,2.75,.08,4.91,.09,6.22,0,2.1-.08,5.56-.16,8.67,.35-.57,.71-1.18,1.08-1.8,1.31-2.14,5.83-9.19,11.06-17.36,5.83-9.1,12.44-19.41,17.26-27.06,1.04-1.63,2.07-3.25,3.09-4.88,2.2-3.48,5.91-5.89,9.46-6.15,2.4-.19,4.51,.62,5.91,2.23,1.49,1.71,2,4.09,1.44,6.71-4.47,20.63-8.89,41.49-13.13,61.99-.64,3.1-3.81,5.82-7.08,6.05-2.14,.15-3.99-.54-5.2-1.95-1.17-1.36-1.57-3.19-1.13-5.17h0c3.25-14.54,7.23-31.91,8.74-38.37,.43-1.83,1.06-4.35,1.74-6.99-5.35,8.76-19.56,31.02-28.12,43.73-1.46,2.19-2.93,4.38-4.41,6.58-1.67,2.48-4.53,4.23-7.28,4.46l-.6,.05c-1.62,.14-3.1-.31-4.14-1.25-.94-.85-1.49-2.05-1.53-3.39-.06-1.83-.11-3.66-.16-5.49-.4-14.35-.32-30.42-.19-35.45,.02-1.36,.12-3.22,.24-5.24-3.18,8.15-13.63,33.97-19.76,48.68l-1.89-.66,1.85,.77c-1.15,2.76-4.2,5.04-7.1,5.31-.23,.02-.46,.03-.68,.03Zm34.3-74.67c-.12,0-.24,0-.36,.02-3.21,.29-7.02,3.36-8.5,6.84-8.64,20.43-17.52,41.19-26.4,61.68-.39,.9-.33,1.5-.14,1.76,.2,.28,.72,.41,1.42,.35,1.46-.13,3.18-1.44,3.77-2.86l.04-.11c6.54-15.7,18-44.05,20.27-49.99,1.15-2.99,2.2-5.71,2.97-7.68,1.7-4.35,1.73-4.35,2.98-4.46l.89-.08,.65,.61q.71,.67,.45,4c-.3,3.87-.92,11.93-.99,15.77-.13,5.01-.21,20.98,.19,35.25,.05,1.83,.1,3.65,.16,5.48,.01,.37,.15,.49,.2,.54,.21,.19,.64,.28,1.15,.24l.6-.05c1.54-.12,3.3-1.24,4.29-2.7,1.48-2.19,2.94-4.39,4.41-6.58,9.75-14.46,26.8-41.28,29.68-46.35q5.87-10.04,7.05-10.12l1.02-.07,.65,.79q.68,.82-1.05,7.41c-1.23,4.69-2.91,11.11-3.76,14.73-1.51,6.45-5.49,23.81-8.73,38.33h0c-.16,.71-.07,1.31,.26,1.68,.36,.42,1.05,.62,1.88,.56,1.49-.11,3.16-1.5,3.44-2.87,4.24-20.52,8.67-41.38,13.14-62.03,.29-1.35,.1-2.5-.54-3.24-.72-.82-1.82-.93-2.6-.87-2.25,.17-4.87,1.94-6.37,4.3-1.03,1.62-2.06,3.25-3.09,4.88-4.82,7.66-11.44,17.97-17.27,27.08-5.22,8.14-9.73,15.17-11,17.26q-5.26,8.82-6.47,8.92l-.9,.08-.65-.63q-.68-.66-.51-7.28c.09-3.4,.2-7.64,.2-10-.01-1.29-.04-3.44-.09-6.17-.11-7.02-.28-17.64-.28-27.73,0-1.58,0-3.16,0-4.74,0-.47-.09-1.13-.54-1.54-.33-.3-.84-.46-1.47-.46Z"/></g><g><path class="cls-3" d="M172.49,114.35c-3.41,6.02-6.86,12.04-10.36,18.06-.95,1.64-2.8,2.83-4.59,2.94-.53,.03-1.05,.07-1.58,.1-2.84,.18-4.15-2.32-2.59-4.93,12.86-21.48,25.15-42.9,36.87-64.26,1.75-3.19,5.06-5.46,8.24-5.64h0c3.39-.19,5.93,1.89,6.33,5.15,2.53,20.45,5.63,40.9,9.31,61.34,.45,2.49-2.02,5.22-4.86,5.35-.65,.03-1.3,.06-1.94,.09-1.77,.09-3.15-.9-3.41-2.46-.97-5.8-1.89-11.59-2.77-17.39-.24-1.56-1.55-2.54-3.27-2.45-6.98,.37-13.95,.76-20.92,1.17-1.74,.1-3.53,1.28-4.46,2.92Zm22.21-11.22c2.74-.15,5.2-2.88,4.85-5.37t0,0c-1.2-8.58-2.23-17.63-2.42-20.1-.2-2.47-.53-8.67-.58-8.66-.06,0-1.04,2.02-2.19,4.47-1.13,2.45-8.5,16.35-13.59,25.35h0c-1.46,2.59-.16,5.11,2.58,4.95,3.79-.22,7.57-.43,11.36-.64Z"/><path class="cls-3" d="M155.69,137.46c-1.84,0-3.42-.82-4.29-2.25-1-1.64-.9-3.78,.27-5.72,12.79-21.37,25.19-42.96,36.83-64.19,2.11-3.84,5.99-6.46,9.88-6.67,4.44-.23,7.89,2.59,8.43,6.9,2.51,20.33,5.64,40.93,9.3,61.24,.3,1.64-.2,3.42-1.37,4.89-1.33,1.67-3.33,2.72-5.37,2.82l-1.94,.09c-2.81,.13-5.05-1.56-5.48-4.13-.96-5.76-1.9-11.62-2.77-17.42-.11-.71-.79-.78-1.19-.76-6.94,.37-13.97,.76-20.91,1.17-1.05,.06-2.25,.87-2.84,1.91-3.4,6.01-6.89,12.09-10.37,18.08-1.29,2.23-3.72,3.77-6.19,3.93l-1.58,.1c-.14,0-.27,.01-.41,.01Zm43.23-74.85c-.1,0-.21,0-.32,0-2.47,.14-5.19,2.03-6.6,4.6-11.67,21.27-24.08,42.92-36.9,64.33-.46,.76-.44,1.33-.28,1.58,.21,.34,.78,.34,1.03,.32l1.58-.1c1.12-.07,2.38-.89,2.99-1.94,3.47-5.98,6.95-12.05,10.35-18.05h0c1.27-2.24,3.66-3.79,6.08-3.93,6.95-.41,13.99-.81,20.94-1.17,2.76-.15,4.96,1.56,5.36,4.15,.88,5.78,1.8,11.62,2.76,17.36,.13,.79,1.06,.81,1.34,.79l1.95-.09c.89-.04,1.82-.54,2.43-1.31,.45-.56,.65-1.18,.56-1.68-3.67-20.38-6.81-41.06-9.33-61.46-.26-2.13-1.76-3.41-3.92-3.41Zm-15.8,43.16c-1.79,0-3.35-.81-4.23-2.22-1.02-1.63-.96-3.77,.14-5.72,4.97-8.78,12.37-22.71,13.52-25.21q2.63-5.61,3.97-5.63h.76s.58,.48,.58,.48q.67,.58,.94,5.04c.11,1.79,.23,3.81,.33,4.98,.19,2.53,1.23,11.56,2.4,19.98,.23,1.66-.33,3.45-1.53,4.91-1.32,1.61-3.26,2.63-5.19,2.73-3.78,.21-7.56,.42-11.35,.64-.12,0-.23,0-.34,0Zm11.93-29.21c-2.55,4.98-8.4,15.91-12.54,23.23-.44,.78-.4,1.37-.23,1.64,.2,.32,.68,.35,.95,.33,3.79-.22,7.58-.43,11.36-.64h0c.82-.04,1.7-.53,2.32-1.28,.49-.59,.74-1.27,.66-1.81-1.19-8.5-2.23-17.65-2.43-20.23-.03-.35-.06-.77-.09-1.25Z"/></g><g><path class="cls-3" d="M236.41,71.94c1.23-7.24,7.69-13.48,14.71-14.14,2.26-.21,4.58-.37,6.97-.45,13.08-.47,22.01,2.42,27.67,8.2,5.74,5.78,8.78,14.14,7.74,25.92-1.05,11.89-5.69,21.7-13.56,28.59-7.85,7-20.3,11.01-35.41,11.56-2.92,.11-5.65,.16-8.18,.16-5.57,0-9.24-4.18-8.35-9.45,2.8-16.8,5.6-33.59,8.4-50.39Zm2.58,42.96c-.82,5.21,2.97,9.27,8.46,9.08,.04,0,.08,0,.12,0,21.33-.76,34-12.25,35.91-31.94,1.78-17.18-6.65-27.91-26.02-27.23-.05,0-.1,0-.14,0-5.88,.22-11.4,5.36-12.35,11.4-1.99,12.9-3.99,25.79-5.98,38.69Z"/><path class="cls-3" d="M236.5,133.79h-.14c-3.36,0-6.28-1.27-8.23-3.58-1.87-2.21-2.61-5.13-2.09-8.21l8.4-50.39c1.38-8.12,8.62-15.06,16.5-15.79,2.33-.22,4.72-.38,7.09-.46,13.39-.47,22.91,2.4,29.17,8.8,6.54,6.58,9.33,15.83,8.3,27.49-1.09,12.38-6.01,22.72-14.23,29.92-8.2,7.31-20.88,11.48-36.65,12.06-2.82,.1-5.55,.16-8.11,.16Zm1.89-61.51l-8.4,50.39c-.32,1.9,.11,3.66,1.2,4.96,1.2,1.42,3.1,2.19,5.31,2.16,2.51,0,5.19-.05,7.97-.16,14.62-.53,26.75-4.46,34.15-11.06,7.44-6.52,11.89-15.95,12.9-27.27,.92-10.43-1.49-18.62-7.17-24.33-5.44-5.56-14.01-8.05-26.18-7.61-2.29,.08-4.6,.23-6.86,.45-6.06,.57-11.85,6.16-12.92,12.48Zm8.71,53.71c-3.12,0-5.97-1.2-7.85-3.33-1.91-2.16-2.7-5.02-2.22-8.07l5.98-38.69c1.1-6.97,7.49-12.84,14.25-13.1l.19,2-.08-2c9.94-.35,17.46,2.13,22.34,7.36,4.75,5.08,6.75,12.72,5.78,22.07-2,20.65-15.79,32.95-37.83,33.73l-.19-2,.07,2c-.15,0-.29,0-.44,0Zm10.26-61.18l.08,2c-4.9,.18-9.69,4.63-10.49,9.72l-5.98,38.69c-.29,1.85,.16,3.55,1.26,4.8,1.19,1.35,3.02,2.04,5.15,1.97h.19c20.04-.72,32.11-11.42,33.92-30.14,.86-8.3-.73-14.67-4.72-18.94-4.06-4.35-10.54-6.41-19.24-6.1l-.18-2Z"/></g><g><path class="cls-3" d="M307.68,66.97c.43-5.67,5.04-10.44,10.53-10.89,2.37-.19,4.96-.33,7.77-.36,9.01-.11,15.52,2,19.67,5.87,3.83,3.43,6.1,8.72,6.01,15.2-.09,6.59-2.12,11.78-5.95,15.58-5.17,5.32-13.62,8.08-23.07,8.2-.93,.01-1.83,.01-2.7,0-2.76-.06-5.19,2.1-5.36,4.79-.39,6.39-.78,12.77-1.17,19.15-.16,2.59-2.53,4.73-5.3,4.78t0,0c-2.77,.05-4.86-2.02-4.66-4.61,1.41-19.23,2.82-38.46,4.23-57.7Zm7.94,21.34c-.15,2.48,1.68,4.5,4.2,4.63,1.06,.06,2.2,.07,3.43,.06,11.58-.15,18.78-5.69,19.02-15.74,.23-9.61-6.31-14.22-16.44-14.09-1.65,.02-3.15,.1-4.45,.21-2.4,.21-4.37,2.3-4.52,4.75-.41,6.73-.82,13.46-1.23,20.19Z"/><path class="cls-3" d="M308.04,131.28c-1.9,0-3.68-.74-4.92-2.05-1.2-1.27-1.79-2.95-1.66-4.71l4.23-57.7c.5-6.61,5.93-12.2,12.36-12.73,2.55-.21,5.21-.33,7.91-.37,9.29-.1,16.38,2.04,21.06,6.41,4.37,3.92,6.74,9.86,6.65,16.69-.1,7.05-2.3,12.76-6.54,16.97-5.37,5.52-14.06,8.65-24.45,8.79-.95,.01-1.88,.02-2.78,0-1.71-.04-3.21,1.29-3.31,2.91l-1.17,19.15c-.22,3.61-3.47,6.59-7.26,6.66-.04,0-.08,0-.12,0Zm1.64-64.16l-4.23,57.7c-.06,.81,.28,1.36,.58,1.67,.49,.51,1.19,.79,2,.79,.02,0,.04,0,.06,0,1.71-.03,3.24-1.36,3.33-2.9l1.17-19.16c.23-3.71,3.46-6.67,7.23-6.67,.06,0,.11,0,.17,0,.85,.02,1.73,.02,2.63,0,9.32-.12,17.01-2.82,21.66-7.6,3.5-3.47,5.3-8.25,5.38-14.21,.08-5.66-1.82-10.52-5.35-13.68-3.93-3.66-10.04-5.47-18.3-5.36-2.6,.04-5.17,.16-7.63,.36-4.52,.38-8.34,4.35-8.7,9.04Zm12.66,27.89c-.94,0-1.8-.02-2.62-.07-1.77-.09-3.37-.85-4.52-2.13-1.12-1.26-1.68-2.9-1.57-4.62l1.23-20.19c.22-3.48,2.94-6.32,6.35-6.62,1.4-.12,2.95-.2,4.6-.22,6.26-.09,11.28,1.59,14.47,4.82,2.77,2.8,4.11,6.61,4,11.32-.26,10.91-8.11,17.53-20.99,17.69-.32,0-.64,0-.95,0Zm3.88-29.84c-.12,0-.24,0-.37,0-1.55,.02-3,.09-4.3,.2-1.4,.12-2.61,1.41-2.7,2.88l-1.23,20.19c-.04,.66,.16,1.25,.57,1.71,.43,.48,1.04,.76,1.74,.8,.98,.05,2.09,.07,3.3,.05,6.25-.08,16.77-1.97,17.05-13.78,.09-3.59-.87-6.42-2.85-8.42-2.35-2.38-6.22-3.63-11.21-3.63Z"/></g><g><path class="cls-3" d="M366.06,109.07c-1.88,5.53-3.8,11.06-5.75,16.6-.66,1.88-2.54,3.15-4.65,3.16h0c-3.36,0-5.66-3.07-4.54-6.05,7.59-20.33,14.64-40.63,21.14-60.91,1.12-3.48,4.26-5.81,7.83-5.79t0,0c3.01,.02,5.74,2.01,6.82,4.95,7.53,20.66,15.64,41.35,24.31,62.08,1.26,2.99-.91,6.05-4.27,6-.12,0-.25,0-.37,0-2.1-.03-4.02-1.31-4.78-3.17-2.27-5.58-4.5-11.16-6.69-16.74-.74-1.87-2.59-3.14-4.63-3.16-6.63-.06-13.27-.1-19.9-.11-2.05,0-3.86,1.26-4.5,3.14Zm18.95-10.42c3.23,.02,5.39-3.05,4.25-6.03t0,0c-3.12-8.21-6.23-16.97-7.03-19.47-.81-2.5-2.66-8.76-2.71-8.76-.06,0-.56,1.96-1.13,4.37-.55,2.4-4.49,15.53-7.27,23.77h0c-1,2.97,1.3,6.06,4.53,6.07,3.12,.01,6.24,.03,9.36,.05Z"/><path class="cls-3" d="M407.01,131.12s-.07,0-.1,0h-.36c-2.9-.04-5.56-1.82-6.62-4.42-2.27-5.58-4.52-11.22-6.7-16.76-.44-1.12-1.56-1.88-2.78-1.89-6.63-.06-13.26-.09-19.89-.11h0c-1.19,0-2.23,.72-2.59,1.79-1.88,5.54-3.82,11.13-5.76,16.62-.95,2.68-3.57,4.48-6.53,4.49h-.02c-2.29,0-4.42-1.08-5.68-2.9-1.21-1.74-1.47-3.87-.73-5.85,7.55-20.2,14.65-40.66,21.1-60.81,1.38-4.3,5.27-7.18,9.68-7.18h.06c3.83,.02,7.32,2.54,8.69,6.27,7.48,20.52,15.65,41.38,24.27,62,.85,2.02,.66,4.19-.53,5.95-1.2,1.78-3.25,2.83-5.51,2.83Zm-36.46-27.19h.02c6.64,.02,13.28,.05,19.92,.11,2.84,.02,5.44,1.8,6.47,4.42,2.17,5.53,4.42,11.15,6.68,16.72,.45,1.12,1.67,1.91,2.96,1.93h.37s.03,0,.05,0c.94,0,1.73-.39,2.19-1.06,.42-.63,.48-1.4,.16-2.17-8.65-20.68-16.84-41.6-24.34-62.17-.79-2.17-2.78-3.63-4.95-3.64h-.04c-2.67,0-5.03,1.77-5.87,4.4-6.47,20.21-13.6,40.73-21.17,60.99-.38,1.01,0,1.79,.27,2.17,.52,.75,1.39,1.18,2.39,1.18h0c1.28,0,2.39-.74,2.77-1.82,1.94-5.48,3.87-11.05,5.75-16.57h0c.92-2.69,3.48-4.5,6.38-4.5Zm14.5-3.27h-.05c-3.12-.02-6.24-.04-9.36-.05-2.19,0-4.25-1.07-5.52-2.83-1.24-1.73-1.57-3.88-.89-5.88,2.74-8.12,6.66-21.18,7.21-23.58,.29-1.23,.56-2.34,.77-3.14,.39-1.49,.72-2.78,2.31-2.78,1.47,.02,1.85,1.14,2.27,2.5,.21,.67,.49,1.59,.79,2.59,.55,1.81,1.18,3.87,1.56,5.06,.78,2.44,3.89,11.2,7,19.38,.77,2.01,.5,4.24-.7,5.97-1.21,1.74-3.22,2.77-5.39,2.77Zm-5.37-28.98c-1.37,4.86-4.42,14.84-6.66,21.49-.26,.77-.13,1.6,.35,2.27,.53,.74,1.36,1.16,2.28,1.16,3.12,.01,6.25,.03,9.37,.05h.02c.87,0,1.64-.38,2.1-1.05,.45-.66,.54-1.48,.24-2.27-3.18-8.37-6.26-17.04-7.07-19.58-.18-.55-.4-1.28-.65-2.08Z"/></g><g><path class="cls-3" d="M424.45,56.67h0c2.36,.05,4.46,2.07,4.68,4.51,.09,1.06,.19,2.12,.28,3.17,1.34,15.15,2.51,27.55,2.6,27.55,.09,0,.95-1.19,1.89-2.65,.97-1.46,10.38-14.42,18.28-25.89,.98-1.42,1.96-2.84,2.93-4.26,.69-1.01,1.83-1.57,3.12-1.52h0c3.65,.12,6.23,4.61,4.22,7.4-4.94,6.84-10.04,13.68-15.3,20.55-1.13,1.48-1.03,3.66,.28,5.34,8.56,10.96,17.43,21.96,26.6,33,2.51,3.01,.83,6.9-2.95,6.77-.16,0-.32-.01-.48-.02-1.57-.05-3.13-.84-4.16-2.09-8.12-9.91-16-19.78-23.63-29.63-1.91-2.46-5.47-2.76-7.22-.61-.63,.78-1.26,1.55-1.89,2.33-.64,.79-.94,1.8-.85,2.86,.64,7.24,1.28,14.48,1.92,21.72,.22,2.44-1.71,4.37-4.31,4.32-.2,0-.41,0-.61-.01-2.6-.06-4.86-2.07-5.04-4.51-1.61-21.15-3.23-42.29-4.84-63.44-.21-2.75,1.79-4.95,4.46-4.89Z"/><path class="cls-3" d="M471.28,132.63c-.08,0-.17,0-.25,0l-.48-.02c-2.13-.07-4.23-1.12-5.63-2.82-8.13-9.92-16.09-19.9-23.66-29.67-.61-.79-1.53-1.27-2.46-1.28-.36,0-1.12,.08-1.63,.71-.63,.78-1.26,1.56-1.9,2.33-.31,.39-.46,.88-.41,1.42l1.92,21.72c.15,1.7-.39,3.31-1.54,4.54-1.19,1.28-2.96,2.01-4.81,1.95h-.61c-3.66-.09-6.74-2.88-7-6.37l-4.84-63.44c-.14-1.91,.49-3.76,1.75-5.09,1.23-1.3,2.92-1.99,4.74-1.95h0c3.4,.07,6.31,2.85,6.63,6.33l.28,3.18c.86,9.71,1.58,17.5,2.04,22.25,.6-.84,1.39-1.95,2.33-3.27,3.57-5,9.55-13.36,14.77-20.94,.98-1.42,1.96-2.84,2.93-4.25,1.07-1.56,2.86-2.46,4.84-2.39,2.53,.08,4.94,1.7,6.13,4.13,1.09,2.22,.96,4.63-.35,6.44-4.91,6.8-10.07,13.73-15.34,20.59-.58,.75-.47,1.94,.27,2.89,8.49,10.88,17.43,21.96,26.56,32.95,1.72,2.07,2.14,4.7,1.07,6.87-.98,2.01-2.98,3.18-5.38,3.18Zm-32.51-37.79h.07c2.14,.02,4.22,1.08,5.58,2.83,7.55,9.74,15.49,19.7,23.6,29.58,.66,.8,1.68,1.32,2.67,1.36l.47,.02c.91,.01,1.59-.3,1.9-.94,.36-.73,.15-1.71-.56-2.55-9.16-11.02-18.12-22.14-26.64-33.05-1.86-2.38-1.98-5.58-.3-7.79,5.25-6.84,10.39-13.74,15.27-20.5,.63-.88,.16-2.01,0-2.34-.42-.85-1.37-1.85-2.67-1.89-.59-.01-1.1,.21-1.4,.65-.97,1.42-1.95,2.85-2.94,4.27-5.24,7.6-11.23,15.98-14.8,20.99-1.83,2.55-3.15,4.4-3.45,4.87-1.88,2.9-2.37,3.6-3.62,3.55-1.78-.04-1.91-1.35-2.18-3.97-.14-1.4-.34-3.43-.58-5.93-.47-5-1.1-11.89-1.77-19.47l-.28-3.17c-.13-1.43-1.38-2.66-2.73-2.69h0c-.73-.02-1.31,.24-1.76,.71-.49,.52-.72,1.24-.66,2.03l4.84,63.44c.11,1.41,1.52,2.63,3.09,2.66h.6c.73,.03,1.38-.21,1.81-.67,.36-.39,.53-.89,.48-1.45l-1.92-21.72c-.14-1.58,.32-3.11,1.29-4.3,.63-.78,1.26-1.55,1.89-2.33,1.13-1.39,2.84-2.19,4.71-2.19Z"/></g><g><path class="cls-3" d="M480.71,58.39c.18,0,.37,.02,.55,.02,2.36,.1,4.61,2.16,5.01,4.6,.17,1.06,.35,2.12,.52,3.18,2.5,15.19,4.62,27.61,4.71,27.62,.09,0,.85-1.18,1.69-2.62,.86-1.45,9.25-14.23,16.25-25.56,.87-1.4,1.74-2.81,2.6-4.21,.61-.99,1.71-1.53,2.99-1.46t0,0c3.64,.19,6.57,4.74,4.78,7.49-4.4,6.75-8.96,13.5-13.68,20.27-1.02,1.46-.74,3.65,.69,5.35,9.38,11.14,19.06,22.31,29.05,33.54,2.73,3.06,1.36,6.92-2.42,6.72-.16,0-.32-.02-.48-.03-1.57-.08-3.18-.89-4.3-2.17-8.86-10.07-17.47-20.1-25.84-30.11-2.09-2.5-5.67-2.87-7.25-.75-.57,.76-1.14,1.53-1.71,2.29-.58,.78-.8,1.79-.63,2.85,1.19,7.26,2.39,14.52,3.58,21.77,.4,2.45-1.37,4.34-3.97,4.24-.2,0-.41-.02-.61-.02-2.6-.1-5.01-2.17-5.38-4.61-3.26-21.38-6.52-42.77-9.78-64.15-.37-2.44,1.25-4.35,3.61-4.26Z"/><path class="cls-3" d="M533.74,135.33c-.13,0-.25,0-.38-.01l-.47-.02c-2.11-.11-4.24-1.18-5.71-2.85-8.84-10.05-17.54-20.19-25.87-30.14-.75-.9-1.85-1.43-2.84-1.42-.39,.01-.93,.12-1.27,.58-.57,.77-1.14,1.53-1.71,2.3-.25,.33-.34,.81-.26,1.33l3.58,21.77c.29,1.74-.16,3.4-1.26,4.65-1.14,1.29-2.86,2-4.76,1.91l-.61-.02c-3.57-.14-6.76-2.91-7.28-6.31l-9.78-64.15c-.27-1.8,.21-3.54,1.33-4.78,1.08-1.21,2.62-1.86,4.34-1.77l.55,.02c3.32,.13,6.35,2.89,6.91,6.28l.52,3.18c1.63,9.93,2.97,17.85,3.79,22.58,.52-.81,1.19-1.85,2-3.11,3.19-4.95,8.53-13.23,13.18-20.76,.87-1.4,1.74-2.8,2.59-4.2,.99-1.62,2.78-2.53,4.8-2.42,2.6,.13,5.12,1.86,6.41,4.41,1.09,2.13,1.07,4.44-.06,6.17-4.38,6.72-9,13.56-13.72,20.32-.49,.7-.25,1.93,.58,2.92,9.31,11.05,19.07,22.32,29.02,33.49,1.93,2.17,2.47,4.88,1.41,7.09-.9,1.88-2.77,2.97-5.04,2.97Zm-35.19-38.44c2.16,0,4.33,1.06,5.83,2.85,8.3,9.92,16.98,20.04,25.8,30.07,.76,.87,1.88,1.44,2.91,1.49l.47,.02c.48,.03,1.3-.03,1.62-.7,.26-.54,.21-1.57-.79-2.7-9.97-11.2-19.76-22.5-29.09-33.58-2.01-2.38-2.34-5.58-.8-7.78,4.7-6.73,9.29-13.53,13.65-20.21,.33-.51,.28-1.33-.15-2.17-.64-1.25-1.89-2.17-3.05-2.23-.38-.02-.9,.05-1.18,.51-.86,1.41-1.73,2.81-2.6,4.22-4.67,7.56-10.02,15.86-13.22,20.82-1.53,2.37-2.74,4.25-3,4.7-1.58,2.74-2.09,3.68-3.51,3.6-1.62-.09-1.78-1.03-2.28-3.83-.25-1.41-.6-3.44-1.03-5.95-.85-5.01-2.01-11.92-3.26-19.51l-.52-3.18c-.25-1.5-1.71-2.87-3.12-2.93l-.54-.02,.06-2-.08,2c-.52-.03-.92,.13-1.2,.45-.32,.36-.44,.89-.35,1.51l9.78,64.15c.22,1.49,1.85,2.85,3.48,2.92l.61,.02c.67,.01,1.26-.17,1.61-.56,.3-.34,.41-.8,.32-1.35l-3.58-21.78c-.26-1.6,.09-3.16,1-4.37,.57-.76,1.14-1.53,1.71-2.29,1.01-1.36,2.56-2.14,4.37-2.19,.06,0,.13,0,.19,0Z"/></g><g><path class="cls-3" d="M576.57,102.08c-6-.42-12.01-.81-18.01-1.19-3.79-.24-6.14,2.61-5.25,6.37,1.11,4.62,2.22,9.24,3.32,13.85,.76,3.2,4.1,5.95,7.45,6.16,7.7,.48,15.39,1,23.09,1.54,2.26,.16,4.59,2.05,5.2,4.22,.01,.04,.02,.07,.03,.11,.61,2.17-.75,3.79-3.04,3.63-10.37-.73-20.75-1.41-31.13-2.04-4.6-.28-9.12-4.01-10.1-8.35-4.29-18.85-8.59-37.69-12.88-56.54-1.11-4.9,1.82-8.66,6.53-8.37,8.56,.52,17.13,1.08,25.69,1.68,2.14,.15,4.37,2.08,4.99,4.31h0c.6,2.17-.61,3.8-2.72,3.66-6.6-.46-13.2-.9-19.8-1.32-3.14-.2-5.07,2.27-4.3,5.51,.84,3.5,1.68,7,2.52,10.51,.89,3.76,4.68,6.99,8.46,7.23,5.94,.38,11.88,.77,17.82,1.18,2.17,.15,4.41,2.03,5.01,4.2t0,0c.6,2.17-.69,3.8-2.88,3.65Z"/><path class="cls-3" d="M589.65,138.78c-.14,0-.29,0-.44-.02-10.25-.72-20.72-1.41-31.11-2.04-5.51-.33-10.75-4.68-11.93-9.9l-12.88-56.54c-.69-3.07-.09-6,1.66-8.06,1.66-1.95,4.12-2.93,6.94-2.75,8.53,.52,17.18,1.09,25.71,1.68,2.96,.21,5.94,2.74,6.78,5.77,.48,1.72,.19,3.39-.78,4.58-.93,1.13-2.38,1.71-4,1.61-6.59-.46-13.19-.9-19.78-1.31-.57-.04-1.37,.05-1.88,.65-.46,.54-.58,1.42-.35,2.4l2.52,10.5c.69,2.91,3.73,5.52,6.64,5.7,5.95,.38,11.89,.77,17.84,1.18,2.99,.21,5.97,2.69,6.8,5.66,.47,1.68,.18,3.33-.8,4.52-.95,1.17-2.48,1.77-4.15,1.65h0c-6-.42-12-.81-18-1.19-1.17-.07-2.12,.26-2.7,.94-.6,.71-.77,1.76-.48,2.96l3.32,13.85c.56,2.36,3.14,4.48,5.63,4.63,7.63,.48,15.4,1,23.1,1.54,3.08,.22,6.15,2.71,6.98,5.67l-1.89,.65,1.93-.54c.46,1.65,.18,3.28-.79,4.47-.9,1.1-2.29,1.72-3.88,1.72Zm-48.37-75.32c-1.37,0-2.52,.48-3.27,1.36-.94,1.1-1.23,2.73-.81,4.58l12.88,56.54c.78,3.46,4.57,6.57,8.27,6.8,10.4,.63,20.88,1.32,31.15,2.04,.43,.03,.79-.06,.93-.24,.13-.16,.14-.48,.04-.86l-.03-.11c-.38-1.35-2-2.66-3.41-2.76-7.69-.54-15.45-1.06-23.07-1.54-4.23-.27-8.3-3.65-9.27-7.7l-3.32-13.85c-.58-2.44-.1-4.79,1.31-6.47,1.39-1.65,3.59-2.51,6.01-2.36,6.01,.38,12.02,.78,18.03,1.2h0c.36,.02,.66-.05,.78-.19,.14-.17,.15-.52,.04-.92-.37-1.34-1.91-2.65-3.22-2.74-5.94-.41-11.87-.8-17.81-1.18-4.66-.3-9.18-4.15-10.27-8.76l-2.52-10.5c-.53-2.23-.1-4.38,1.18-5.91,1.24-1.46,3.08-2.2,5.19-2.06,6.6,.42,13.21,.86,19.81,1.32,.31,.02,.53-.04,.62-.15,.1-.13,.17-.46,.03-.98-.39-1.4-1.92-2.76-3.21-2.85-8.51-.59-17.15-1.16-25.67-1.68-.13,0-.25-.01-.37-.01Z"/></g><g><path class="cls-3" d="M605.15,133.54c-6.13-20.75-12.26-41.51-18.39-62.26-1.12-3.8,.92-6.65,4.56-6.37h0c2.09,.16,4.37,1.43,6.07,3.37,3.31,3.77,6.64,7.55,10.01,11.33,12.08,13.6,25.9,28.7,30.19,33.47,4.24,4.76,14.1,16.54,14.17,16.52,.05-.02-1.66-4.31-3.81-9.54-2.15-5.22-12.15-32.92-17.28-47.46t0,0c-.87-2.48,.34-4.33,2.7-4.11t0,0c2.36,.22,5.02,2.42,5.92,4.9,7.89,21.68,15.77,43.36,23.66,65.04,.91,2.49-.47,4.31-3.07,4.07-.93-.09-1.86-.17-2.79-.26-1.62-.15-3.41-1.08-4.73-2.48-3.92-4.14-7.8-8.26-11.64-12.39-12.88-13.77-26.41-28.88-30.58-33.68-4.23-4.8-13.75-16.96-13.81-16.94-.08,.02,1.27,4.14,3.01,9.14,1.73,5.01,10.63,33.5,15.19,48.35h0c.76,2.47-.73,4.32-3.34,4.11,0,0,0,0,0,0-2.6-.2-5.31-2.36-6.03-4.84Z"/><path class="cls-3" d="M660.32,144.53c-.2,0-.41,0-.62-.03l-2.79-.25c-2.11-.19-4.35-1.35-6-3.09-3.92-4.14-7.81-8.27-11.66-12.4-12.9-13.8-26.52-29.01-30.62-33.73-1.77-2.01-4.41-5.24-6.93-8.37,2.49,7.54,10.43,32.97,14.74,47.02,.56,1.81,.29,3.59-.75,4.88-1.04,1.3-2.74,1.96-4.66,1.81-3.42-.26-6.84-3.02-7.8-6.27l-18.39-62.26c-.75-2.56-.39-5.01,1-6.72,1.3-1.6,3.29-2.38,5.62-2.2,2.6,.2,5.38,1.71,7.42,4.04,3.3,3.77,6.63,7.54,10,11.32,8.8,9.9,18.43,20.51,24.81,27.53,2.34,2.58,4.21,4.64,5.38,5.93,1.6,1.8,3.97,4.56,6.33,7.33-3.07-7.95-11.76-32.01-16.62-45.8-.68-1.93-.48-3.79,.55-5.11,.95-1.21,2.47-1.82,4.22-1.65,3.1,.29,6.45,3.01,7.62,6.21l23.66,65.04c.67,1.85,.48,3.67-.53,4.98-.89,1.16-2.32,1.79-3.98,1.79Zm-63.97-69.78c.94,0,1.59,.81,2.17,1.54l1.64,2.06c2.99,3.75,8.57,10.74,11.47,14.04,4.09,4.71,17.67,19.87,30.54,33.63,3.84,4.12,7.72,8.24,11.64,12.38,.97,1.03,2.33,1.76,3.46,1.86l2.79,.26c.61,.06,.96-.08,1.07-.22,.12-.16,.15-.58-.06-1.17l-23.66-65.04c-.64-1.77-2.62-3.45-4.23-3.6-.33-.03-.61,.02-.7,.13-.09,.12-.2,.55,.07,1.32,5.17,14.67,15.17,42.31,17.25,47.37,1.07,2.62,2.04,5,2.73,6.73,.35,.87,.63,1.58,.82,2.08,.96,2.51-.24,3.06-.76,3.3l-.29,.11q-1.27,.36-5.85-5.03c-3.31-3.9-7.83-9.24-10.37-12.08-1.16-1.28-3.02-3.34-5.36-5.91-6.38-7.02-16.02-17.64-24.83-27.56-3.37-3.78-6.71-7.56-10.02-11.34-1.35-1.54-3.16-2.57-4.72-2.69-.69-.06-1.63,.03-2.21,.74-.55,.68-.65,1.8-.27,3.08l18.39,62.26c.49,1.68,2.49,3.27,4.27,3.41,.57,.04,1.03-.08,1.23-.32,.19-.24,.21-.68,.04-1.21-4.63-15.09-13.45-43.3-15.17-48.28q-3.38-9.77-2.89-10.72l.4-.76,.72-.21c.24-.09,.47-.13,.68-.13Z"/></g></g><g><g><path class="cls-1" d="M135.6,125.99c3.33-14.9,7.29-32.16,8.74-38.35,1.44-6.19,5.3-20.42,5.21-20.42-.09,0-2.52,4.1-5.44,9.11-2.84,5-19.75,31.63-29.76,46.47-1.46,2.19-2.93,4.39-4.41,6.58-1.33,1.97-3.64,3.4-5.78,3.58-.2,.02-.4,.03-.6,.05-2.04,.17-3.45-.92-3.51-2.71-.06-1.83-.11-3.66-.16-5.48-.39-14.1-.33-30.01-.19-35.34,.1-5.33,1.21-18.29,1.17-18.28-.06,0-1.97,4.89-4.25,10.85-2.27,5.96-13.86,34.61-20.29,50.05-.01,.03-.03,.07-.04,.1-.87,2.09-3.25,3.88-5.43,4.08h0c-3.06,.28-4.57-1.97-3.29-4.9,8.91-20.57,17.71-41.13,26.4-61.67,1.77-4.18,6.21-7.7,10.16-8.05h0c2.74-.25,4.56,1.35,4.55,3.98,0,1.58,0,3.15,0,4.73,0,14.06,.33,29.3,.37,33.9,0,4.6-.4,15.85-.29,15.85,.09,0,2.33-3.59,4.93-7.97,2.67-4.38,19-29.63,28.29-44.37,1.03-1.62,2.06-3.25,3.09-4.87,1.85-2.93,5.01-5.02,7.91-5.23h0c3.8-.28,6.1,2.59,5.25,6.53-4.48,20.68-8.86,41.35-13.13,62.01-.46,2.25-2.87,4.29-5.26,4.46h0c-3.02,.21-4.87-1.84-4.23-4.68h0Z"/><path class="cls-1" d="M70.37,138.31c-1.84,0-3.4-.72-4.34-2.02-1.1-1.52-1.2-3.59-.29-5.7,8.82-20.37,17.7-41.11,26.39-61.66,2.06-4.86,7.15-8.85,11.83-9.27,1.92-.17,3.66,.35,4.89,1.48,1.19,1.09,1.84,2.69,1.84,4.5,0,1.58,0,3.15,0,4.72,0,10.02,.17,20.59,.28,27.58,.04,2.79,.08,4.99,.09,6.3,0,2.1-.08,5.56-.16,8.67,.34-.57,.71-1.18,1.08-1.8,1.31-2.14,5.83-9.19,11.06-17.36,5.83-9.1,12.44-19.41,17.26-27.06,1.04-1.63,2.07-3.25,3.09-4.87,2.2-3.48,5.92-5.9,9.46-6.16,2.4-.17,4.5,.62,5.91,2.23,1.49,1.71,2,4.09,1.44,6.71-4.45,20.53-8.87,41.39-13.13,61.99-.64,3.1-3.81,5.82-7.08,6.05-2.13,.15-3.99-.54-5.2-1.95-1.17-1.36-1.57-3.2-1.13-5.17,3.24-14.49,7.22-31.88,8.74-38.37,.43-1.83,1.06-4.35,1.74-6.99-5.35,8.76-19.56,31.03-28.12,43.73-1.46,2.19-2.93,4.38-4.41,6.58-1.67,2.48-4.53,4.23-7.28,4.46l-.6,.05c-1.63,.14-3.1-.31-4.14-1.24-.95-.85-1.49-2.05-1.53-3.4-.06-1.83-.11-3.66-.16-5.49-.4-14.33-.32-30.41-.19-35.45,.02-1.36,.12-3.23,.24-5.24-3.17,8.14-13.62,33.94-19.76,48.68l-1.89-.66,1.85,.77c-1.14,2.76-4.19,5.04-7.1,5.31-.23,.02-.46,.03-.68,.03ZM104.66,63.63c-.12,0-.24,0-.36,.02-3.21,.29-7.02,3.36-8.5,6.84-8.69,20.55-17.57,41.3-26.4,61.69-.39,.9-.33,1.5-.14,1.76,.2,.28,.73,.41,1.41,.35,1.46-.13,3.18-1.44,3.77-2.86l.04-.11c6.55-15.73,18.01-44.07,20.27-49.99,1.15-2.99,2.2-5.71,2.97-7.68q1.69-4.3,2.92-4.45l.95-.11,.68,.67q.67,.66,.42,3.97c-.3,3.87-.92,11.93-.99,15.77-.13,5.02-.21,20.99,.19,35.25,.05,1.83,.1,3.65,.16,5.48,.01,.37,.15,.5,.2,.54,.21,.19,.65,.28,1.15,.24l.6-.05c1.54-.13,3.3-1.24,4.29-2.7,1.48-2.19,2.94-4.38,4.41-6.57,9.74-14.45,26.79-41.28,29.68-46.35q5.86-10.04,7.05-10.12l1.01-.07,.65,.78q.69,.82-1.05,7.44c-1.23,4.68-2.91,11.09-3.75,14.71-1.52,6.48-5.5,23.86-8.73,38.33h0c-.16,.71-.07,1.31,.26,1.68,.36,.42,1.04,.62,1.88,.56,1.49-.11,3.16-1.5,3.44-2.87,4.27-20.62,8.69-41.49,13.14-62.03,.29-1.35,.1-2.5-.54-3.24-.72-.82-1.81-.93-2.6-.87-2.25,.16-4.87,1.93-6.37,4.3-1.03,1.62-2.06,3.25-3.09,4.88-4.82,7.65-11.44,17.97-17.27,27.07-5.22,8.14-9.73,15.17-11,17.26q-5.25,8.82-6.47,8.92l-.89,.07-.65-.62q-.69-.66-.52-7.27c.09-3.41,.2-7.66,.2-10.03-.01-1.3-.04-3.48-.09-6.26-.11-7.01-.28-17.6-.28-27.64,0-1.58,0-3.16,0-4.74,0-.47-.09-1.12-.54-1.54-.33-.3-.85-.46-1.47-.46Z"/></g><g><path class="cls-1" d="M176.91,108.18c-3.41,6.02-6.86,12.04-10.36,18.06-.95,1.64-2.8,2.82-4.59,2.94-.53,.03-1.05,.07-1.58,.1-2.84,.18-4.15-2.32-2.59-4.93,12.86-21.48,25.15-42.9,36.87-64.26,1.75-3.19,5.06-5.46,8.24-5.64h0c3.39-.19,5.93,1.89,6.33,5.15,2.53,20.45,5.63,40.9,9.31,61.34,.45,2.49-2.02,5.21-4.86,5.35-.65,.03-1.3,.06-1.94,.09-1.77,.09-3.15-.9-3.41-2.46-.97-5.8-1.89-11.59-2.77-17.39-.24-1.56-1.55-2.54-3.27-2.45-6.98,.37-13.95,.76-20.92,1.17-1.74,.1-3.53,1.28-4.46,2.92Zm22.21-11.22c2.74-.15,5.2-2.88,4.85-5.37t0,0c-1.2-8.58-2.23-17.63-2.42-20.1-.2-2.47-.53-8.66-.58-8.66-.06,0-1.04,2.02-2.19,4.47-1.13,2.45-8.5,16.35-13.59,25.35h0c-1.46,2.59-.16,5.1,2.58,4.95,3.79-.22,7.57-.43,11.36-.64Z"/><path class="cls-1" d="M160.11,131.29c-1.84,0-3.43-.82-4.3-2.25-1-1.64-.9-3.77,.27-5.72,12.81-21.39,25.2-42.99,36.83-64.19,2.11-3.83,5.99-6.45,9.88-6.67,4.41-.23,7.89,2.59,8.43,6.9,2.51,20.31,5.64,40.92,9.3,61.24,.3,1.64-.2,3.42-1.37,4.88-1.33,1.67-3.33,2.72-5.37,2.82l-1.94,.09c-2.81,.13-5.05-1.56-5.47-4.13-.96-5.74-1.89-11.6-2.78-17.42-.11-.71-.8-.78-1.19-.76-6.94,.37-13.97,.76-20.91,1.17-1.05,.06-2.25,.86-2.84,1.91h0c-3.4,6-6.88,12.08-10.37,18.08-1.29,2.23-3.72,3.77-6.19,3.93l-1.58,.1c-.13,0-.27,.01-.4,.01Zm43.22-74.85c-.11,0-.21,0-.32,0-2.47,.14-5.19,2.03-6.6,4.6-11.65,21.25-24.07,42.89-36.9,64.33-.46,.76-.44,1.33-.28,1.58,.21,.34,.79,.34,1.03,.33l1.58-.1c1.12-.07,2.37-.89,2.99-1.95,3.48-5.99,6.96-12.06,10.35-18.05h0c1.27-2.24,3.66-3.79,6.08-3.93,6.95-.41,13.99-.81,20.94-1.17,2.79-.15,4.97,1.56,5.36,4.15,.88,5.8,1.81,11.64,2.77,17.36,.13,.79,1.06,.81,1.34,.79l1.95-.09c.89-.04,1.82-.54,2.43-1.31,.45-.56,.65-1.18,.56-1.68-3.67-20.4-6.81-41.07-9.33-61.45-.27-2.13-1.75-3.41-3.92-3.41Zm-15.8,43.16c-1.79,0-3.36-.81-4.23-2.22-1.01-1.63-.96-3.77,.14-5.72,4.98-8.8,12.37-22.72,13.52-25.2q2.6-5.54,3.88-5.63c1.98-.13,2.14,1.79,2.22,2.93,.04,.66,.1,1.56,.16,2.53,.11,1.8,.24,3.86,.33,5.04,.19,2.53,1.23,11.56,2.4,19.98,.23,1.66-.33,3.45-1.53,4.91-1.32,1.61-3.26,2.63-5.19,2.73-3.78,.21-7.57,.42-11.35,.64-.12,0-.23,0-.34,0Zm11.93-29.2c-2.55,4.98-8.39,15.89-12.54,23.23-.44,.78-.4,1.37-.23,1.64,.2,.32,.68,.35,.95,.33,3.79-.22,7.57-.43,11.36-.64h0c.82-.04,1.7-.53,2.32-1.28,.49-.6,.74-1.27,.66-1.82-1.19-8.49-2.23-17.65-2.43-20.22-.03-.35-.06-.77-.09-1.24Z"/></g><g><path class="cls-1" d="M240.83,65.77c1.23-7.24,7.69-13.48,14.71-14.14,2.26-.21,4.58-.37,6.97-.45,13.08-.47,22.01,2.42,27.67,8.2,5.74,5.78,8.78,14.14,7.74,25.92-1.05,11.89-5.69,21.7-13.56,28.59-7.85,7-20.3,11.01-35.41,11.56-2.92,.11-5.65,.16-8.18,.16-5.57,0-9.24-4.18-8.35-9.45,2.8-16.8,5.6-33.59,8.4-50.39Zm2.58,42.96c-.82,5.21,2.97,9.27,8.46,9.08,.04,0,.08,0,.12,0,21.33-.76,34-12.25,35.91-31.94,1.78-17.18-6.65-27.91-26.02-27.23-.05,0-.09,0-.14,0-5.88,.22-11.4,5.36-12.35,11.4-1.99,12.9-3.99,25.79-5.98,38.69Z"/><path class="cls-1" d="M240.98,127.61h-.21c-3.36,0-6.28-1.27-8.23-3.58-1.87-2.21-2.61-5.13-2.09-8.2l8.4-50.39c1.38-8.12,8.62-15.05,16.5-15.79,2.34-.22,4.72-.38,7.09-.46,13.37-.47,22.91,2.4,29.17,8.8,6.54,6.58,9.33,15.83,8.3,27.49-1.09,12.38-6.01,22.72-14.23,29.92-8.2,7.31-20.88,11.48-36.65,12.06-2.83,.1-5.54,.16-8.05,.16Zm1.82-61.51l-8.4,50.39c-.32,1.9,.11,3.66,1.2,4.96,1.17,1.39,3.01,2.16,5.17,2.16,2.57-.02,5.25-.05,8.11-.15,14.62-.54,26.75-4.46,34.15-11.06,7.44-6.52,11.9-15.95,12.9-27.28,.92-10.43-1.49-18.62-7.17-24.33-5.44-5.56-13.99-8.05-26.18-7.61-2.29,.08-4.6,.23-6.86,.45-6.06,.57-11.85,6.17-12.93,12.48h0Zm8.71,53.71c-3.12,0-5.97-1.2-7.85-3.33-1.91-2.15-2.7-5.02-2.22-8.06l5.98-38.69c1.1-6.97,7.49-12.84,14.25-13.1h.18c9.88-.33,17.38,2.12,22.27,7.36,4.75,5.08,6.75,12.72,5.78,22.07-2,20.65-15.79,32.95-37.83,33.73h-.12c-.15,0-.29,.01-.44,.01Zm.29-4.01l.19,1.99-.07-2c20.11-.71,32.18-11.42,33.99-30.13,.86-8.3-.73-14.67-4.72-18.94-4.06-4.35-10.54-6.4-19.24-6.09h-.17c-4.83,.19-9.61,4.63-10.41,9.72l-5.98,38.69c-.29,1.85,.16,3.55,1.26,4.79,1.2,1.35,3.04,2.06,5.15,1.97Z"/></g><g><path class="cls-1" d="M312.1,60.8c.43-5.67,5.04-10.44,10.53-10.89,2.37-.2,4.96-.33,7.77-.36,9.01-.11,15.52,2,19.67,5.87,3.83,3.44,6.1,8.72,6.01,15.2-.09,6.59-2.12,11.78-5.95,15.58-5.17,5.32-13.62,8.08-23.07,8.2-.93,.01-1.83,.01-2.7,0-2.76-.07-5.19,2.1-5.36,4.79-.39,6.39-.78,12.77-1.17,19.15-.16,2.6-2.53,4.73-5.3,4.78t0,0c-2.77,.05-4.86-2.02-4.66-4.61,1.41-19.23,2.82-38.46,4.23-57.7Zm7.94,21.34c-.15,2.48,1.68,4.5,4.2,4.63,1.06,.06,2.2,.07,3.43,.06,11.58-.15,18.78-5.69,19.02-15.74,.23-9.61-6.31-14.22-16.44-14.09-1.65,.02-3.15,.09-4.45,.21-2.4,.21-4.37,2.3-4.52,4.75-.41,6.73-.82,13.46-1.23,20.19Z"/><path class="cls-1" d="M312.45,125.11c-1.9,0-3.68-.74-4.91-2.05-1.2-1.27-1.79-2.95-1.66-4.71l4.23-57.7c.5-6.61,5.93-12.2,12.36-12.73,2.58-.21,5.24-.34,7.91-.37,9.27-.13,16.38,2.04,21.06,6.4,4.37,3.93,6.74,9.86,6.65,16.69-.1,7.05-2.3,12.76-6.54,16.97-5.36,5.52-14.05,8.65-24.45,8.79-.95,.01-1.88,.01-2.78,0-1.72-.02-3.21,1.29-3.31,2.91l-1.17,19.15c-.22,3.61-3.47,6.59-7.26,6.66-.04,0-.08,0-.12,0Zm1.64-64.16l-4.23,57.7c-.06,.81,.28,1.36,.58,1.67,.48,.51,1.19,.79,2,.79,.02,0,.04,0,.06,0,1.71-.03,3.24-1.36,3.33-2.9l1.17-19.16c.23-3.71,3.46-6.67,7.23-6.67,.06,0,.11,0,.17,0,.85,.02,1.73,.02,2.63,0,9.32-.12,17.02-2.82,21.66-7.6,3.5-3.47,5.3-8.25,5.38-14.21,.08-5.66-1.82-10.51-5.35-13.68-3.93-3.66-10.06-5.49-18.31-5.35-2.58,.03-5.15,.15-7.63,.36-4.52,.37-8.34,4.35-8.7,9.04Zm12.69,27.89c-.96,0-1.84-.02-2.65-.06-1.77-.09-3.38-.85-4.52-2.13-1.12-1.26-1.68-2.9-1.58-4.62l1.23-20.19c.22-3.48,2.94-6.33,6.35-6.62,1.39-.12,2.94-.2,4.6-.22,6.25-.1,11.28,1.59,14.47,4.82,2.77,2.8,4.11,6.61,4,11.33-.26,10.91-8.11,17.52-20.99,17.69-.31,0-.61,0-.91,0Zm3.86-29.84c-.12,0-.25,0-.38,0-1.56,.02-3.01,.09-4.3,.2-1.4,.12-2.61,1.41-2.7,2.88l-1.23,20.19c-.04,.66,.16,1.25,.57,1.71,.42,.48,1.04,.76,1.74,.8,.98,.05,2.06,.07,3.3,.05,6.25-.08,16.76-1.98,17.04-13.78,.09-3.59-.87-6.42-2.85-8.42-2.35-2.38-6.22-3.63-11.2-3.63Z"/></g><g><path class="cls-1" d="M370.48,102.9c-1.88,5.53-3.8,11.06-5.75,16.6-.66,1.88-2.54,3.15-4.65,3.16h0c-3.36,0-5.66-3.07-4.54-6.05,7.59-20.33,14.64-40.63,21.14-60.91,1.12-3.48,4.26-5.81,7.83-5.79t0,0c3.01,.02,5.74,2.01,6.82,4.96,7.53,20.66,15.64,41.35,24.31,62.08,1.26,2.99-.91,6.05-4.27,6-.12,0-.25,0-.37,0-2.1-.03-4.02-1.3-4.78-3.17-2.27-5.58-4.5-11.16-6.69-16.74-.73-1.87-2.59-3.14-4.63-3.16-6.63-.06-13.27-.09-19.9-.11-2.05,0-3.86,1.26-4.5,3.14Zm18.95-10.42c3.23,.02,5.39-3.05,4.25-6.03h0c-3.12-8.21-6.23-16.97-7.03-19.47-.81-2.5-2.66-8.76-2.71-8.76-.06,0-.56,1.96-1.13,4.37-.55,2.4-4.49,15.53-7.27,23.77h0c-1,2.97,1.3,6.06,4.53,6.07,3.12,.01,6.24,.03,9.36,.05Z"/><path class="cls-1" d="M411.43,124.94s-.07,0-.11,0h-.37c-2.9-.05-5.55-1.82-6.61-4.42-2.27-5.58-4.52-11.22-6.7-16.76-.44-1.12-1.56-1.88-2.78-1.89-6.63-.06-13.26-.1-19.89-.11h0c-1.19,0-2.23,.72-2.6,1.79-1.87,5.51-3.81,11.1-5.76,16.62-.95,2.68-3.57,4.48-6.53,4.49h-.02c-2.29,0-4.42-1.08-5.68-2.9-1.21-1.74-1.47-3.87-.73-5.85,7.55-20.21,14.65-40.67,21.1-60.81,1.38-4.3,5.27-7.18,9.68-7.18h.06c3.83,.02,7.32,2.54,8.69,6.27,7.48,20.52,15.65,41.38,24.27,62,.85,2.02,.66,4.19-.53,5.95-1.2,1.77-3.25,2.82-5.5,2.82Zm-36.46-27.19h.02c6.64,.02,13.28,.05,19.92,.11,2.84,.03,5.44,1.8,6.47,4.42,2.17,5.53,4.42,11.15,6.68,16.72,.45,1.12,1.67,1.91,2.96,1.93h.36c.99,.02,1.78-.37,2.25-1.06,.43-.63,.48-1.4,.16-2.17-8.65-20.67-16.84-41.59-24.34-62.17-.79-2.16-2.78-3.63-4.95-3.64h-.03c-2.67,0-5.03,1.77-5.88,4.4-6.47,20.2-13.59,40.72-21.17,60.99-.38,1.01,0,1.79,.27,2.17,.52,.75,1.39,1.18,2.39,1.18h0c1.27,0,2.39-.74,2.77-1.82,1.95-5.5,3.88-11.08,5.75-16.57h0c.92-2.69,3.48-4.5,6.38-4.5Zm14.5-3.27h-.05c-3.12-.02-6.24-.04-9.36-.05-2.19,0-4.26-1.07-5.52-2.84-1.24-1.73-1.56-3.87-.89-5.87,2.75-8.14,6.67-21.19,7.21-23.58,.29-1.23,.56-2.34,.77-3.14,.38-1.49,.72-2.78,2.31-2.78,1.49,0,1.84,1.11,2.27,2.51,.21,.68,.49,1.6,.79,2.59,.55,1.81,1.17,3.86,1.56,5.05,.78,2.46,3.9,11.22,7,19.38,.77,2.01,.5,4.24-.7,5.97-1.21,1.74-3.22,2.77-5.39,2.77Zm-5.37-28.98c-1.37,4.85-4.41,14.83-6.66,21.49-.26,.77-.13,1.59,.35,2.27,.53,.74,1.36,1.16,2.28,1.16,3.12,.01,6.25,.03,9.37,.05h0c.87-.01,1.66-.38,2.12-1.05,.46-.65,.54-1.48,.25-2.26-3.12-8.22-6.27-17.09-7.07-19.58-.18-.55-.4-1.28-.65-2.08Z"/></g><g><path class="cls-1" d="M428.87,50.5h0c2.36,.05,4.46,2.07,4.68,4.51,.09,1.06,.19,2.12,.28,3.17,1.34,15.15,2.51,27.55,2.6,27.55,.09,0,.95-1.19,1.89-2.65,.97-1.46,10.38-14.42,18.28-25.89,.98-1.42,1.96-2.84,2.93-4.26,.69-1.01,1.83-1.57,3.12-1.52h0c3.65,.12,6.23,4.61,4.22,7.4-4.94,6.84-10.04,13.68-15.3,20.55-1.13,1.48-1.03,3.66,.28,5.34,8.56,10.96,17.43,21.96,26.6,33,2.51,3.01,.84,6.9-2.95,6.77-.16,0-.32-.01-.48-.02-1.57-.05-3.13-.83-4.16-2.09-8.12-9.9-16-19.78-23.63-29.63-1.91-2.46-5.47-2.77-7.22-.61-.63,.78-1.26,1.55-1.89,2.33-.64,.79-.94,1.8-.85,2.86,.64,7.24,1.28,14.48,1.92,21.72,.22,2.44-1.71,4.37-4.31,4.32-.2,0-.41,0-.61-.01-2.6-.05-4.86-2.07-5.04-4.51-1.61-21.15-3.23-42.29-4.84-63.44-.21-2.75,1.79-4.95,4.46-4.89Z"/><path class="cls-1" d="M475.7,126.46c-.08,0-.17,0-.25,0l-.47-.02c-2.15-.07-4.25-1.13-5.64-2.82-8.09-9.87-16.05-19.85-23.66-29.67-.61-.79-1.53-1.27-2.46-1.28-.4,0-1.12,.08-1.63,.71-.63,.78-1.26,1.56-1.9,2.33-.31,.38-.46,.89-.41,1.43l1.92,21.72c.15,1.7-.39,3.32-1.54,4.54-1.2,1.28-2.95,1.99-4.81,1.95h-.61c-3.65-.09-6.72-2.88-6.99-6.37l-4.84-63.44c-.14-1.91,.49-3.76,1.75-5.09,1.23-1.3,2.93-2,4.74-1.95,3.4,.07,6.31,2.85,6.63,6.33l.28,3.18c.86,9.71,1.58,17.5,2.04,22.25,.59-.83,1.36-1.9,2.28-3.19,3.58-5.01,9.57-13.4,14.82-21.01,.98-1.42,1.96-2.84,2.93-4.25,1.07-1.57,2.89-2.45,4.84-2.39,2.53,.08,4.93,1.71,6.13,4.13,1.09,2.22,.96,4.62-.35,6.44-4.93,6.83-10.09,13.75-15.34,20.59-.58,.75-.47,1.94,.27,2.89,8.49,10.88,17.43,21.96,26.56,32.95,1.72,2.07,2.14,4.7,1.08,6.87-.98,2.01-2.98,3.18-5.38,3.18Zm-32.51-37.79s.05,0,.07,0c2.14,.02,4.22,1.08,5.58,2.83,7.59,9.79,15.53,19.74,23.6,29.58,.66,.8,1.68,1.32,2.67,1.36l.47,.02c.91,.01,1.59-.3,1.9-.94,.36-.73,.15-1.71-.56-2.55-9.16-11.02-18.12-22.14-26.64-33.05-1.86-2.38-1.98-5.59-.29-7.79,5.23-6.81,10.36-13.71,15.27-20.5,.63-.88,.16-2.01,0-2.33-.42-.85-1.37-1.85-2.67-1.9-.62-.01-1.1,.21-1.4,.65-.97,1.42-1.95,2.85-2.94,4.27-5.26,7.64-11.27,16.04-14.86,21.07-1.8,2.51-3.09,4.33-3.4,4.79-1.86,2.88-2.36,3.52-3.58,3.55-1.82-.04-1.96-1.35-2.23-3.97-.14-1.4-.34-3.43-.58-5.93-.47-5-1.1-11.89-1.77-19.46l-.28-3.17c-.13-1.43-1.38-2.66-2.73-2.69h0c-.7-.05-1.31,.24-1.76,.71-.49,.52-.72,1.24-.67,2.04l4.84,63.44c.11,1.41,1.52,2.63,3.09,2.66h.59c.78,.05,1.39-.21,1.82-.67,.36-.39,.53-.89,.48-1.46l-1.92-21.72c-.14-1.58,.32-3.11,1.29-4.3,.63-.78,1.26-1.55,1.89-2.32,1.13-1.39,2.84-2.19,4.71-2.19Z"/></g><g><path class="cls-1" d="M485.13,52.21c.18,0,.37,.02,.55,.02,2.36,.09,4.61,2.16,5.01,4.6,.17,1.06,.35,2.12,.52,3.18,2.5,15.19,4.62,27.61,4.71,27.62,.09,0,.85-1.17,1.69-2.62,.86-1.45,9.25-14.23,16.25-25.56,.87-1.4,1.74-2.8,2.6-4.21,.61-.99,1.71-1.53,2.99-1.47h0c3.64,.19,6.57,4.74,4.78,7.49-4.4,6.75-8.96,13.5-13.68,20.27-1.02,1.46-.74,3.65,.69,5.35,9.38,11.14,19.06,22.31,29.05,33.54,2.73,3.06,1.36,6.92-2.42,6.72-.16,0-.32-.02-.48-.03-1.57-.08-3.18-.89-4.3-2.17-8.86-10.07-17.47-20.1-25.84-30.11-2.1-2.5-5.67-2.87-7.25-.75-.57,.76-1.14,1.53-1.71,2.29-.58,.77-.8,1.79-.63,2.85,1.19,7.26,2.39,14.52,3.58,21.77,.4,2.44-1.37,4.34-3.97,4.24-.2,0-.41-.02-.61-.02-2.6-.1-5.01-2.17-5.38-4.61-3.26-21.38-6.52-42.77-9.78-64.15-.37-2.45,1.25-4.35,3.61-4.26Z"/><path class="cls-1" d="M538.16,129.16c-.13,0-.26,0-.39-.01l-.48-.03c-2.1-.11-4.23-1.18-5.69-2.85-8.81-10.02-17.52-20.16-25.87-30.14-.76-.9-1.8-1.42-2.84-1.42-.39,.01-.93,.12-1.27,.58l-1.71,2.3c-.25,.34-.34,.81-.26,1.33l3.58,21.77c.29,1.75-.16,3.4-1.27,4.65-1.14,1.29-2.86,2-4.76,1.91l-.59-.02c-3.58-.14-6.77-2.91-7.29-6.31l-9.78-64.15c-.27-1.8,.21-3.54,1.33-4.79,1.08-1.21,2.62-1.85,4.34-1.77l.55,.02c3.31,.13,6.35,2.89,6.91,6.28l.52,3.18c1.63,9.93,2.97,17.85,3.79,22.58,.52-.81,1.19-1.85,2-3.11,3.19-4.95,8.53-13.23,13.18-20.76,.87-1.4,1.74-2.8,2.59-4.2,.99-1.62,2.78-2.52,4.8-2.42,2.6,.13,5.11,1.86,6.41,4.41,1.09,2.13,1.07,4.44-.06,6.17-4.39,6.74-9.01,13.57-13.72,20.32-.49,.7-.25,1.93,.58,2.92,9.31,11.05,19.07,22.32,29.01,33.49,1.93,2.17,2.47,4.88,1.41,7.09-.9,1.88-2.77,2.97-5.04,2.97Zm-35.19-38.44c2.16,0,4.33,1.06,5.83,2.85,8.33,9.96,17.01,20.07,25.8,30.07,.76,.87,1.87,1.44,2.91,1.49l.48,.03c.46,.03,1.29-.03,1.61-.7,.26-.54,.21-1.57-.79-2.7-9.97-11.2-19.76-22.5-29.09-33.58-2.01-2.39-2.34-5.59-.8-7.78,4.69-6.71,9.28-13.51,13.65-20.21,.33-.51,.28-1.33-.15-2.17-.64-1.25-1.89-2.17-3.05-2.23-.4-.02-.9,.05-1.19,.51-.86,1.4-1.73,2.81-2.6,4.22-4.67,7.56-10.02,15.86-13.22,20.82-1.53,2.37-2.74,4.25-3,4.7-1.58,2.74-2.1,3.67-3.51,3.6-1.61-.05-1.79-1.08-2.28-3.83-.25-1.41-.6-3.44-1.03-5.95-.85-5.01-2.01-11.92-3.26-19.51l-.52-3.18c-.25-1.5-1.71-2.88-3.12-2.93l-.55-.02c-.5-.02-.92,.13-1.2,.45-.32,.36-.44,.9-.35,1.52l9.78,64.15c.23,1.49,1.85,2.85,3.48,2.92l.62,.02c.69,.03,1.25-.17,1.59-.56,.3-.34,.41-.8,.32-1.35l-3.58-21.77c-.26-1.61,.09-3.16,1-4.38l1.7-2.29c1.01-1.36,2.56-2.14,4.37-2.19,.06,0,.13,0,.19,0Z"/></g><g><path class="cls-1" d="M580.99,95.91c-6-.42-12.01-.81-18.01-1.19-3.79-.24-6.14,2.61-5.25,6.37,1.11,4.62,2.22,9.24,3.32,13.85,.76,3.2,4.1,5.95,7.45,6.16,7.7,.49,15.39,1,23.09,1.54,2.26,.16,4.59,2.05,5.2,4.22,.01,.04,.02,.07,.03,.11,.61,2.17-.75,3.8-3.04,3.63-10.37-.73-20.75-1.41-31.13-2.04-4.6-.28-9.12-4.01-10.1-8.35-4.29-18.85-8.59-37.69-12.88-56.54-1.11-4.9,1.82-8.66,6.53-8.37,8.56,.52,17.13,1.08,25.69,1.68,2.14,.15,4.37,2.08,4.99,4.31t0,0c.61,2.17-.61,3.81-2.72,3.66-6.6-.46-13.2-.9-19.8-1.32-3.14-.2-5.07,2.27-4.3,5.51,.84,3.5,1.68,7,2.52,10.51,.89,3.76,4.68,6.99,8.46,7.23,5.94,.38,11.88,.77,17.82,1.18,2.17,.15,4.41,2.03,5.01,4.2h0c.6,2.17-.69,3.8-2.88,3.65Z"/><path class="cls-1" d="M594.07,132.61c-.15,0-.29,0-.44-.02-10.25-.72-20.71-1.41-31.11-2.04-5.51-.33-10.75-4.68-11.93-9.9l-12.88-56.54c-.69-3.07-.09-6,1.66-8.06,1.66-1.95,4.1-2.92,6.94-2.75,8.57,.52,17.22,1.09,25.71,1.68,2.96,.21,5.94,2.74,6.78,5.77,.48,1.71,.19,3.38-.78,4.58-.93,1.14-2.39,1.73-4,1.61-6.56-.46-13.21-.9-19.78-1.31-.57-.04-1.37,.05-1.87,.65-.46,.54-.58,1.42-.35,2.4l2.52,10.5c.69,2.91,3.73,5.52,6.64,5.7,5.95,.38,11.89,.77,17.84,1.18,2.99,.21,5.97,2.69,6.8,5.66,.47,1.69,.17,3.34-.8,4.53-.95,1.17-2.48,1.77-4.15,1.65h0c-6-.42-12-.81-18-1.19-1.16-.08-2.12,.26-2.7,.94-.6,.71-.77,1.76-.48,2.96l3.32,13.85c.56,2.36,3.14,4.48,5.63,4.64,7.57,.48,15.34,1,23.1,1.54,3.08,.22,6.15,2.71,6.98,5.67l-1.9,.65,1.93-.54c.46,1.66,.18,3.29-.79,4.47-.9,1.1-2.29,1.71-3.87,1.71Zm-48.38-75.32c-1.37,0-2.52,.48-3.28,1.36-.94,1.1-1.23,2.73-.81,4.58l12.88,56.54c.78,3.46,4.57,6.57,8.27,6.8,10.41,.63,20.89,1.32,31.15,2.04,.42,.03,.79-.06,.93-.23,.13-.16,.15-.48,.04-.86l-.03-.11c-.38-1.35-2-2.67-3.41-2.76-7.75-.54-15.51-1.06-23.07-1.54-4.23-.27-8.3-3.65-9.27-7.7l-3.32-13.85c-.58-2.44-.1-4.79,1.31-6.47,1.39-1.65,3.59-2.51,6.01-2.36,6.01,.38,12.02,.78,18.03,1.2h0c.37,.02,.66-.05,.78-.19,.14-.17,.15-.52,.04-.93-.37-1.34-1.91-2.65-3.22-2.74-5.94-.41-11.87-.8-17.81-1.18-4.66-.29-9.17-4.14-10.27-8.76l-2.52-10.5c-.53-2.23-.1-4.38,1.18-5.9,1.23-1.47,3.07-2.2,5.19-2.07,6.58,.42,13.24,.86,19.81,1.32,.29,.02,.53-.03,.62-.15,.1-.13,.17-.46,.03-.98-.39-1.4-1.92-2.76-3.21-2.85-8.48-.59-17.11-1.16-25.67-1.68-.12,0-.25-.01-.37-.01Z"/></g><g><path class="cls-1" d="M609.57,127.37c-6.13-20.75-12.26-41.51-18.39-62.26-1.12-3.79,.93-6.65,4.56-6.37h0c2.09,.16,4.37,1.43,6.07,3.37,3.31,3.77,6.64,7.55,10.01,11.33,12.08,13.6,25.9,28.7,30.19,33.47,4.24,4.76,14.1,16.54,14.17,16.52,.05-.02-1.66-4.32-3.81-9.54-2.15-5.22-12.15-32.92-17.28-47.46h0c-.87-2.49,.34-4.32,2.7-4.11t0,0c2.36,.22,5.02,2.42,5.92,4.9,7.89,21.68,15.77,43.36,23.66,65.04,.91,2.49-.47,4.31-3.07,4.07-.93-.09-1.86-.17-2.79-.26-1.62-.15-3.41-1.08-4.73-2.47-3.92-4.13-7.8-8.26-11.64-12.39-12.88-13.77-26.41-28.88-30.58-33.68-4.23-4.8-13.75-16.96-13.81-16.94-.08,.02,1.27,4.14,3.01,9.14,1.73,5.01,10.63,33.5,15.19,48.35h0c.76,2.47-.73,4.32-3.34,4.11h0c-2.6-.2-5.31-2.37-6.03-4.84Z"/><path class="cls-1" d="M664.74,138.35c-.21,0-.41,0-.63-.03l-2.79-.25c-2.11-.19-4.35-1.35-6-3.09-3.92-4.14-7.81-8.27-11.65-12.4-12.9-13.79-26.52-29.01-30.62-33.73-1.77-2.01-4.41-5.23-6.94-8.37,2.49,7.53,10.43,32.96,14.74,47.02,.56,1.81,.29,3.59-.75,4.88-1.04,1.3-2.73,1.96-4.66,1.81-3.41-.26-6.84-3.01-7.8-6.26l-18.39-62.26c-.75-2.56-.39-5.01,1-6.73,1.3-1.6,3.3-2.38,5.62-2.2,2.6,.2,5.37,1.71,7.42,4.04,3.3,3.77,6.64,7.54,10,11.32,8.74,9.84,18.34,20.41,24.69,27.4,2.4,2.64,4.31,4.75,5.5,6.06,1.6,1.8,3.97,4.56,6.33,7.33-3.07-7.94-11.76-32.01-16.62-45.8-.68-1.93-.48-3.79,.55-5.11,.94-1.21,2.48-1.82,4.22-1.65,3.11,.29,6.45,3.01,7.62,6.21l23.66,65.04c.67,1.85,.48,3.67-.53,4.98-.89,1.15-2.32,1.79-3.98,1.79Zm-63.96-69.78c.92,0,1.55,.78,2.16,1.55l1.65,2.07c2.99,3.75,8.56,10.74,11.46,14.03,4.1,4.71,17.67,19.88,30.54,33.63,3.84,4.12,7.72,8.25,11.64,12.38,.97,1.03,2.33,1.76,3.46,1.86l2.79,.26c.62,.06,.96-.08,1.07-.22,.12-.16,.15-.58-.06-1.17l-23.66-65.04c-.64-1.77-2.62-3.45-4.23-3.6-.33-.03-.61,.02-.7,.13-.09,.12-.2,.55,.07,1.32,5.17,14.67,15.16,42.3,17.25,47.37,1.07,2.62,2.04,5,2.73,6.73,.35,.88,.63,1.58,.82,2.08,.95,2.48-.23,3.04-.73,3.29l-.28,.11q-1.28,.39-5.87-5.02c-3.31-3.9-7.84-9.24-10.37-12.09-1.18-1.31-3.08-3.41-5.48-6.04-6.35-7-15.96-17.57-24.71-27.43-3.37-3.78-6.71-7.56-10.02-11.34-1.35-1.54-3.16-2.57-4.72-2.69-.69-.06-1.64,.03-2.21,.73-.55,.68-.65,1.8-.27,3.08l18.39,62.26c.49,1.68,2.49,3.27,4.27,3.41,.57,.04,1.03-.08,1.23-.32,.19-.24,.21-.68,.05-1.21-4.63-15.1-13.45-43.33-15.17-48.28q-3.38-9.76-2.9-10.7l.38-.75,.72-.23c.26-.1,.5-.15,.72-.15Z"/></g></g><path class="cls-2" d="M152.65,59.92c.4-.04,.8-.07,1.2-.02l-.4-.05c.19,.03,.38,.08,.56,.15l-.36-.15c.15,.07,.3,.16,.43,.26l-.3-.23c.16,.13,.3,.27,.43,.43l-.23-.3c.16,.21,.29,.43,.39,.68l-.15-.36c.17,.41,.27,.85,.33,1.29l-.05-.4c.02,.14,.03,.28,.05,.42,.04,.41,.14,.76,.44,1.06,.26,.26,.69,.46,1.06,.44s.79-.14,1.06-.44c.25-.28,.48-.67,.44-1.06-.06-.62-.13-1.26-.33-1.85-.22-.66-.54-1.23-1.01-1.75-.44-.48-1.03-.84-1.65-1.01s-1.26-.15-1.89-.1c-.41,.04-.76,.14-1.06,.44-.26,.26-.46,.69-.44,1.06s.14,.79,.44,1.06c.28,.26,.67,.47,1.06,.44h0Z"/><path class="cls-2" d="M204.19,58.3c.4-.04,.8-.07,1.2-.02l-.4-.05c.19,.03,.38,.08,.56,.15l-.36-.15c.15,.07,.3,.16,.43,.26l-.3-.23c.16,.13,.3,.27,.43,.43l-.23-.3c.16,.21,.29,.43,.39,.68l-.15-.36c.17,.41,.27,.85,.33,1.29l-.05-.4c.02,.14,.03,.28,.05,.42,.04,.41,.14,.76,.44,1.06,.26,.26,.69,.46,1.06,.44s.79-.14,1.06-.44c.25-.28,.48-.67,.44-1.06-.06-.62-.13-1.26-.33-1.85-.22-.66-.54-1.23-1.01-1.75-.44-.48-1.03-.84-1.65-1.01s-1.26-.15-1.89-.1c-.41,.04-.76,.14-1.06,.44-.26,.26-.46,.69-.44,1.06s.14,.79,.44,1.06c.28,.26,.67,.47,1.06,.44h0Z"/><path class="cls-2" d="M386.35,53.42c.4-.04,.8-.07,1.2-.02l-.4-.05c.19,.03,.38,.08,.56,.15l-.36-.15c.15,.07,.3,.16,.43,.26l-.3-.23c.16,.13,.3,.27,.43,.43l-.23-.3c.16,.21,.29,.43,.39,.68l-.15-.36c.17,.41,.27,.85,.33,1.29l-.05-.4c.02,.14,.03,.28,.05,.42,.04,.41,.14,.76,.44,1.06,.26,.26,.69,.46,1.06,.44s.79-.14,1.06-.44c.25-.28,.48-.67,.44-1.06-.06-.62-.13-1.26-.33-1.85-.22-.66-.54-1.23-1.01-1.75-.44-.48-1.03-.84-1.65-1.01s-1.26-.15-1.89-.1c-.41,.04-.76,.14-1.06,.44-.26,.26-.46,.69-.44,1.06s.14,.79,.44,1.06c.28,.26,.67,.47,1.06,.44h0Z"/><path class="cls-2" d="M462.29,55.05c.4-.04,.8-.07,1.2-.02l-.4-.05c.19,.03,.38,.08,.56,.15l-.36-.15c.15,.07,.3,.16,.43,.26l-.3-.23c.16,.13,.3,.27,.43,.43l-.23-.3c.16,.21,.29,.43,.39,.68l-.15-.36c.17,.41,.27,.85,.33,1.29l-.05-.4c.02,.14,.03,.28,.05,.42,.04,.41,.14,.76,.44,1.06,.26,.26,.69,.46,1.06,.44s.79-.14,1.06-.44c.25-.28,.48-.67,.44-1.06-.06-.62-.13-1.26-.33-1.85-.22-.66-.54-1.23-1.01-1.75-.44-.48-1.03-.84-1.65-1.01s-1.26-.15-1.89-.1c-.41,.04-.76,.14-1.06,.44-.26,.26-.46,.69-.44,1.06s.14,.79,.44,1.06c.28,.26,.67,.47,1.06,.44h0Z"/><path class="cls-2" d="M519.86,56.67c.4-.04,.8-.07,1.2-.02l-.4-.05c.19,.03,.38,.08,.56,.15l-.36-.15c.15,.07,.3,.16,.43,.26l-.3-.23c.16,.13,.3,.27,.43,.43l-.23-.3c.16,.21,.29,.43,.39,.68l-.15-.36c.17,.41,.27,.85,.33,1.29l-.05-.4c.02,.14,.03,.28,.05,.42,.04,.41,.14,.76,.44,1.06,.26,.26,.69,.46,1.06,.44s.79-.14,1.06-.44c.25-.28,.48-.67,.44-1.06-.06-.62-.13-1.26-.33-1.85-.22-.66-.54-1.23-1.01-1.75-.44-.48-1.03-.84-1.65-1.01s-1.26-.15-1.89-.1c-.41,.04-.76,.14-1.06,.44-.26,.26-.46,.69-.44,1.06s.14,.79,.44,1.06c.28,.26,.67,.47,1.06,.44h0Z"/><path class="cls-2" d="M572.03,60.65c.4-.04,.8-.07,1.2-.02l-.4-.05c.19,.03,.38,.08,.56,.15l-.36-.15c.15,.07,.3,.16,.43,.26l-.3-.23c.16,.13,.3,.27,.43,.43l-.23-.3c.16,.21,.29,.43,.39,.68l-.15-.36c.17,.41,.27,.85,.33,1.29l-.05-.4c.02,.14,.03,.28,.05,.42,.04,.41,.14,.76,.44,1.06,.26,.26,.69,.46,1.06,.44s.79-.14,1.06-.44c.25-.28,.48-.67,.44-1.06-.06-.62-.13-1.26-.33-1.85-.22-.66-.54-1.23-1.01-1.75-.44-.48-1.03-.84-1.65-1.01s-1.26-.15-1.89-.1c-.41,.04-.76,.14-1.06,.44-.26,.26-.46,.69-.44,1.06s.14,.79,.44,1.06c.28,.26,.67,.47,1.06,.44h0Z"/><path class="cls-2" d="M638.99,65.11c.4-.04,.8-.07,1.2-.02l-.4-.05c.19,.03,.38,.08,.56,.15l-.36-.15c.15,.07,.3,.16,.43,.26l-.3-.23c.16,.13,.3,.27,.43,.43l-.23-.3c.16,.21,.29,.43,.39,.68l-.15-.36c.17,.41,.27,.85,.33,1.29l-.05-.4c.02,.14,.03,.28,.05,.42,.04,.41,.14,.76,.44,1.06,.26,.26,.69,.46,1.06,.44s.79-.14,1.06-.44c.25-.28,.48-.67,.44-1.06-.06-.62-.13-1.26-.33-1.85-.22-.66-.54-1.23-1.01-1.75-.44-.48-1.03-.84-1.65-1.01s-1.26-.15-1.89-.1c-.41,.04-.76,.14-1.06,.44-.26,.26-.46,.69-.44,1.06s.14,.79,.44,1.06c.28,.26,.67,.47,1.06,.44h0Z"/><path class="cls-2" d="M277.76,55.57c.95,.16,1.89,.41,2.79,.76,.03,.01,.38,.15,.24,.09-.11-.04,.15,.06,.17,.07,.23,.1,.46,.21,.69,.33,.43,.22,.85,.46,1.26,.72,.19,.12,.38,.25,.57,.38,.1,.07,.21,.15,.31,.22,.05,.04,.18,.14,.06,.04,.38,.3,.74,.61,1.09,.95s.68,.68,1,1.05c.08,.1,.16,.19,.24,.29,.02,.03,.22,.28,.09,.12,.15,.2,.3,.41,.44,.62,.46,.67,1.32,.97,2.05,.54,.66-.39,1-1.38,.54-2.05-2.49-3.64-6.38-6.27-10.75-7.02-.77-.13-1.65,.2-1.85,1.05-.17,.73,.22,1.7,1.05,1.85h0Z"/><path class="cls-2" d="M340.98,55.03c.95,.16,1.89,.41,2.79,.76,.03,.01,.38,.15,.24,.09-.11-.04,.15,.06,.17,.07,.23,.1,.46,.21,.69,.33,.43,.22,.85,.46,1.26,.72,.19,.12,.38,.25,.57,.38,.1,.07,.21,.15,.31,.22,.05,.04,.18,.14,.06,.04,.38,.3,.74,.61,1.09,.95s.68,.68,1,1.05c.08,.1,.16,.19,.24,.29,.02,.03,.22,.28,.09,.12,.15,.2,.3,.41,.44,.62,.46,.67,1.32,.97,2.05,.54,.66-.39,1-1.38,.54-2.05-2.49-3.64-6.38-6.27-10.75-7.02-.77-.13-1.65,.2-1.85,1.05-.17,.73,.22,1.7,1.05,1.85h0Z"/></svg>