<?xml version="1.0" encoding="UTF-8"?><svg id="Lag_2" xmlns="http://www.w3.org/2000/svg" width="1920" height="1080" xmlns:xlink="http://www.w3.org/1999/xlink" viewBox="0 0 1920 1080"><defs><style>.cls-1,.cls-2{fill:none;}.cls-3{fill:url(#Ikke-navngivet_forløb_370);}.cls-4{fill:#f49c45;}.cls-5{fill:#f7f3da;}.cls-6{fill:#fc3d3d;}.cls-7{fill:#f9ff00;}.cls-8{fill:#020100;}.cls-9{fill:#f15a24;}.cls-10{fill:#f7931e;}.cls-11{fill:#fff;}.cls-12{fill:#ffe04a;}.cls-13{fill:#fccea7;}.cls-14{fill:#fcfcf0;}.cls-15{fill:#ff9699;}.cls-16{fill:#8c6749;}.cls-17{fill:#8c6239;}.cls-18{fill:#666;}.cls-19{fill:#93856c;}.cls-20{fill:#84c967;}.cls-21{fill:#a83d35;}.cls-22{fill:#a67c52;}.cls-23{fill:#afef95;}.cls-24{fill:#cc9d3e;}.cls-25{fill:#e25124;}.cls-26{fill:#c69c6d;}.cls-27{fill:#202359;}.cls-28{fill:#374c1a;}.cls-29{fill:#892f25;}.cls-30{fill:#605643;}.cls-31{fill:#603813;}.cls-32{fill:#754c24;}.cls-33{fill:#71ba56;}.cls-2{stroke:#000;stroke-miterlimit:10;stroke-width:2px;}</style><linearGradient id="Ikke-navngivet_forløb_370" x1="961.26" y1="-1.89" x2="961.26" y2="1073.85" gradientUnits="userSpaceOnUse"><stop offset=".03" stop-color="#7f8bff"/><stop offset=".18" stop-color="#94b3ff"/><stop offset=".4" stop-color="#aab9ff"/><stop offset=".7" stop-color="#fbffd4"/><stop offset="1" stop-color="#fbffd4"/></linearGradient></defs><rect class="cls-3" x="-2.28" y="-1.89" width="1927.07" height="1075.74"/><circle class="cls-11" cx="827.35" cy="926.72" r="1.93"/><circle class="cls-11" cx="776.07" cy="905.08" r="1.93"/><circle class="cls-11" cx="815.88" cy="902.27" r="1.93"/><path class="cls-1" d="M437.03,262.81c-35.61,27.01-62.22,65.7-74.7,108.62"/><path class="cls-1" d="M498.32,279.08c16.06,2.71,31.97,6.86,46.77,13.67,14.8,6.81,28.5,16.35,38.97,28.83,15.38,18.34,22.98,41.8,30.23,64.62"/><path class="cls-1" d="M473.83,259.05c20.55,7.43,36.29,24.79,46.36,44.18,10.07,19.4,15.15,40.92,20.13,62.2"/><path class="cls-1" d="M447.99,269.96c-24.53,27.01-36.58,64.93-32.13,101.14"/><path class="cls-13" d="M427.47,566.04c-.59-.15-1.2-.16-1.79-.09,.55-.04,1.14-.03,1.79,.09Z"/><polygon class="cls-13" points="676.42 493.21 676.36 491.14 676.42 493.21 676.42 493.21"/><path d="M417.16,511.86c.17,.1,.32,.24,.49,.33,.4,.22,.81,.41,1.23,.59,.7,.3,1.42,.52,2.14,.7-.71-.25-1.43-.48-2.13-.78-.6-.25-1.15-.56-1.73-.84Z"/><polygon points="349.71 412.77 349.76 412.77 349.71 412.77 349.71 412.77"/><path class="cls-24" d="M920.49,1647.84c322.72-80.37,577.32-209.49,769.58-350.67,192.26-141.19,327.47-295.21,461.63-448.27,34.23-39.05,67.82-84.51,22.59-119.45-51.85-40.06-176.32-43.86-282.13-43.27-265.23,1.49-530.45,2.98-795.68,4.47-329.36,1.85-681.7,6.83-959.99,91.83-310.37,94.81-455.07,271.76-454.07,435.82,.58,95.24,43.2,188.18,101.44,278.17,34.41,53.16,63.93,155.75,148.94,197.31,200.09,97.83,769.51,8.4,987.69-45.94Z"/><g><rect class="cls-10" x="1722.1" y="576.21" width="15.69" height="76.02" rx="7.7" ry="7.7" transform="translate(-75.34 947.26) rotate(-30)"/><line class="cls-2" x1="1279.37" y1="952.63" x2="1281.74" y2="1051.81"/><path class="cls-9" d="M1198.07,673.97s-71.91,26.95-65.14,105.86c6.76,78.91,10.34,117.24,10.34,117.24,0,0,1.96,15.75,30.28,47.35,28.85,32.19,82.25,96.95,82.25,96.95,0,0,20.2,22.05,50.73,7.89,20.95-9.71,325.1-126.68,419.83-163.07,20.46-7.86,34.79-26.55,36.97-48.36,.33-3.33,.93-10.89,.93-10.89-3.46-38.87-6.37-116.68-6.37-116.68l-78.85-165.01s-34.17-44.98-167.1,6.87c-132.92,51.85-313.88,121.85-313.88,121.85Z"/><path class="cls-26" d="M1234.25,656.43s-130.14,32.01-77.07,139.55c34.27,69.45,52.07,95.08,54.88,97.36,1.2,.98-5.74-7.84-4.83-6.59,60.47,82.77,60.91,76.23,155.44,42.13,112.07-40.43,354.09-140.38,354.09-140.38,0,0,85.53-27.32,21.48-148.51-50.51-95.57-57.97-100.07-57.97-100.07,0,0-36.64-46.09-127.62-8.96-90.97,37.13-318.41,125.47-318.41,125.47Z"/><rect class="cls-10" x="1171.54" y="817.08" width="15.69" height="76.02" rx="7.7" ry="7.7" transform="translate(-265.09 666.37) rotate(-28.5)"/><path class="cls-17" d="M1233.22,873.22l1.29,1.27c.74,.75,1.6,1.6,1.87,2.48,49.03,63.54,52.51,62.29,121.9,37.47,4.32-1.54,8.88-3.18,13.73-4.89,98.87-34.97,313.81-121.8,315.96-122.67,.38-.13,26.26-8.79,36.24-35.06,9.03-23.75,2.73-54.11-18.72-90.25-12.96-21.83-22.74-38.12-30.15-50.3-15.47-2.51-32.49-.97-48.09,1.4-130.77,19.86-257.44,65.91-370.21,134.59-16.06,9.78-32.09,20.23-44.18,34.57-7.27,8.63-12.98,18.92-15.73,29.78,20.4,38.33,31.4,55.49,36.05,61.64l.04-.03Z"/><path class="cls-22" d="M1257.04,747.27c112.77-68.68,239.44-114.73,370.21-134.59,15.6-2.37,32.62-3.91,48.09-1.4-17.36-28.57-21.53-34.41-22.1-35.17-1.18-1.19-2.34-3.11-3.79-5.53-8.38-13.92-25.83-42.89-92.6-13.52-87.79,38.62-297.92,121.38-300.03,122.21l-.23,.07c-.56,.14-55.72,13.96-73.17,52.13-8.73,19.1-6.66,41.23,6.15,65.78,2.66,5.1,5.17,9.87,7.57,14.37,2.75-10.85,8.45-21.15,15.73-29.78,12.09-14.34,28.12-24.79,44.18-34.57Z"/><line class="cls-1" x1="1298.51" y1="673.67" x2="1589.05" y2="557.96"/><line class="cls-1" x1="1298.51" y1="673.67" x2="1576.4" y2="563"/><path class="cls-25" d="M1279.41,1035.37c.6,6.52-1.16,16.62,5.08,18.6,5.44,1.72,17.95-2.55,23.27-4.64,68.39-26.89,136.41-53.36,204.8-80.25-22.76,7.82-45.51,14.07-68.27,21.89-44.89,15.42-91.75,42.78-139.21,41.92-3.75-.07-11.63-4.04-13.68-11.08-.67-2.29-2.96-22.49-5.57-21.71-5.56,1.67-6.83,30.81-6.42,35.27Z"/><path class="cls-25" d="M1274.32,1005.14c-.11,6.44-.25,13.05-3.99,18.73-.97,1.48-2.21,2.79-3.69,3.77-7.66,5.12-17.3,1.28-23.9-3.43,12.94,16.61,20.13,28.28,45.99,30.07,3.32-31.78-2.19-70.15-7.56-101.65,0,0-.82-.06-2-.05-.13,0-3.96-.36-3.96-.36,.15,.76-.03,3.47-.06,5.41-.09,5.28-.18,10.56-.27,15.84-.18,10.56-.37,21.12-.55,31.68Z"/><path class="cls-4" d="M1185.69,883.15c.76,1.35,1.71,3.39,2.92,4.4,1.32,1.11,3.15,1.67,4.68,1.93,1.77,.3,3.46-.35,5.51-1.88,.73-.55,1.73-1.63,2.03-2.49,.64-1.81,1.98-3.8-3.25-1.27-2.29,1.11-4.52-2.27-6.4-3.98-2.77-2.51-5.43-5.14-7.99-7.87s-4.89-4.52-7.49-7.24c.81,1.52,1.03,1.93,1.53,2.81,1,1.77,2.03,3.8,3.02,5.57,1.97,3.49,3.46,6.52,5.44,10.01Z"/><path class="cls-25" d="M1742.28,774.37c-8.76,7.23-7.87,8.19-23.22,15.71-10.82,5.3-10.83,4.09-20.23,7.8,9.4-3.72,7.6-1.56,12.9-3.49,5.3-1.93,4.23-1.4,9.12-3.29,7.01-2.7,4.3-2.55,11.36-5.14,5.33-1.95,11.25-3.6,16.6-1.68,4.42,1.59,7.73,5.46,9.69,9.74,1.96,4.27,3.5,8.98,4.27,13.61-.77-13.63-1.71-27.89-2.42-41.81-.18-3.43-.33-6.75-.5-10.18-.1-1.86,.11-14.19-.68-11.09-.65,2.55-1.41,4.46-1.76,5.5-.88,2.61-2,5.06-3.3,7.65-2.87,5.74-7.78,13.31-11.84,16.66Z"/><path class="cls-25" d="M1286.1,983.67c-1.43-5.82,1.5-12.01,5.89-16.08,4.39-4.07,10.05-6.45,15.58-8.75,51.34-21.33,323.2-132.8,374.54-154.13-40.83,14.64-302.17,119.42-343,134.06-19.27,6.91-39.73,13.93-58.54,13.93"/><path class="cls-25" d="M1724.07,871.91c-7.4,5.31-15.54,9.5-23.64,13.66-19.78,10.17-39.56,23.23-59.34,33.39,23.92-9.21,47.23-17.42,70.38-26.12,16.2-6.08,23.59-6.41,37.58-22.41,10.22-11.68,16.7-27.07,14.64-48.14-.4-4.09-.72-13.74-1.11-17.61-1.28,1.4-1.3,7.79-1.68,9.69-.49,2.47-1.08,4.93-1.77,7.35-1.38,4.85-3.17,9.59-5.32,14.16-4.26,9.07-9.97,17.46-16.86,24.74-3.93,4.15-8.24,7.94-12.88,11.27Z"/><path class="cls-25" d="M1249.5,938.89s4.55,4.27,11.46,8.41c3.84,2.3,.23,.42,10.41,4.15,1.37,.5,8.42-.09,8.03,6.85-.44,7.81-4.28,16.2-4.44,24.02,.17-6.22-2.5-12.24-6.16-17.28-3.66-5.04-8.3-9.27-12.71-13.66-10.97-10.93-20.42-24.11-28.72-37.18"/><path class="cls-25" d="M1167.69,693.33c-14.92,12.21-25.44,28.92-31.11,47.06-7.01,22.43-4.67,48.04-.92,71.23,1.15-3.71,1.68-9.11,2.52-12.9,.84-3.79,3.14-7.73,6.93-8.59,2.69-.61,5.54,.51,7.65,2.3s5.13,5.64,6.59,7.98c-4.96-13.69-11.46-28.96-13.57-43.37-2.11-14.4-.27-29.03,6.21-42.06,1.87-3.77,4.26-7.34,6.92-10.6,1.57-1.93,3.15-3.85,4.72-5.78,1.5-1.84,2.54-3.43,4.04-5.27Z"/><path class="cls-25" d="M1177.26,878.19c2.7,4.7,9.34,15.99,14.13,18.52s11.8,1.64,14.22-3.21c1.24-2.48,1.04-5.5-.04-8.05-1.08-2.55-4.18-8.22-6.24-10.07,1.81,2.35,2.42,8.34,.86,10.87s-3.97,3.81-6.88,3.25c-4.29-.83-5.99-3.57-8.03-7.44-5.44-10.31-11.67-21.04-17.01-31.41-2.75-5.35-6.01-12.18-9.59-16.96,2.37,8.4,7.09,21.18,8.7,24.72,2.04,4.47,4.19,8.9,6.44,13.27,1.12,2.19,2.27,4.36,3.45,6.52,.8,1.48,0-1.6,0,0Z"/><path class="cls-25" d="M1181.24,951.96c-9.98-9.84-17.23-20.2-25.35-30.41-2.97-3.74-6.14-7.38-8.21-11.68-2.65-5.51-4.3-11.17-4.81-17.07-1.8-20.97-3.65-40.64-5.75-64.48,1.3,21.47,7.2,43.61,12.73,64.39,2.03,7.62,4.35,15.2,7.85,22.26,1.93,3.89,4.2,7.6,6.46,11.3,3.62,5.9,7.23,11.8,10.85,17.7"/><g><path class="cls-11" d="M1270.66,662.42c1.93,0,1.93-3,0-3s-1.93,3,0,3h0Z"/><path class="cls-32" d="M1271.57,887.26l-94.72-181.76c-6.43-12.34-2.07-27.79,9.74-34.5l87.35-49.69c11.81-6.72,26.59-2.16,33.02,10.18l94.72,181.76c6.43,12.34,2.07,27.79-9.74,34.5l-87.35,49.69c-11.81,6.72-26.59,2.16-33.02-10.18Zm18.2,29.93l117.36-66.76c9.08-5.17,12.43-17.05,7.49-26.53l-109.2-209.55c-4.94-9.49-16.31-12.99-25.4-7.83l-117.36,66.76c-9.08,5.17-12.43,17.04-7.49,26.53l109.2,209.55c4.94,9.49,16.31,12.99,25.4,7.83Z"/><path class="cls-22" d="M1395.03,851.56c11.81-6.72,16.17-22.17,9.74-34.5l-98.49-190.85c-6.43-12.34-21.22-16.89-33.02-10.18l-90.35,49.76c-11.81,6.72-16.17,22.17-9.74,34.5l98.49,190.85c6.43,12.34,21.22,16.89,33.02,10.18l90.35-49.76Z"/><path class="cls-31" d="M1300.8,909.01s-26.87,26.6-41.22-11.57c-14.35-38.17,11.36,23.98-3.51-6.4-14.88-30.38-6.13-12.07-6.13-12.07l-4.83-9.7-2.58-4.38-3.72-7.69-4.08-7.68-2.41-4.57-2.78-5.3-2.78-5.3-2.97-6.04-2.22-4.2-1.86-4.03-2.23-4.39-2.77-4.93-3.35-7.14-3.88-6.76-2.22-3.83-1.68-3.66-2.4-4.02-2.79-5.67-5.94-11.52-10.78-21.59-5.73-10.41-4.89-10.25-3.46-6.03-2.59-4.75-1.85-3.47-2.21-3.82-2.6-4.95-1.7-4.4-.84-2.04-1.59-7.83,.38-2.3,.98-3.73,2.75-3.77,2.07-2.46,2.56-1.81,4.35-2.28c.09-1.51-10.34,15.36-6.09,23.57,2.35,4.54,9.62,20.27,9.62,20.27l3.74,7.69,3.58,7.88,4.45,8.41,7.22,13.53,6.27,10.48,5.53,9.04,4.84,10.25,2.27,6.24,4.65,9.52,4.78,7.66,4.09,8.23,4.44,8.22,8.86,15.15,11.62,19.9,9.62,17.36,10.65,21.41s8.75,20.53,33.37,11.95Z"/><path class="cls-19" d="M1208.85,658.33c-12.01,6.45-27.61,9.2-32.91,22.17-6.44,15.78,3,25.9,10.59,41.11,9.6,19.24,11.27,40.02,26.52,54.76,8.56,8.27,10.87,21.44,15.62,31.51,8.19,17.34,26.49,41.6,31.77,60.14,9.44,33.11,20.18,35.08,35.74,34.54,12.92-.45,10.69-8.38,29.32-15.36,18.84-7.06,36.64-20.84,52.68-30.95,10.86-6.85,37.93-10.74,30.67-21.61-19.07-28.58-25.41-57.91-34-65.95-38.39-35.9-19.02-56.32-42.7-81.77-27.9-29.98-19.54-56.84-35.72-67.12-16.55-10.52-33.73,11.91-53.02,13.86-13.9,1.41-22.14,18.01-34.56,24.69Z"/><ellipse class="cls-28" cx="1321.74" cy="820.32" rx="59.35" ry="62"/><ellipse class="cls-33" cx="1323.97" cy="820.26" rx="52.04" ry="56.91" transform="translate(-9.89 16.18) rotate(-.7)"/><ellipse class="cls-20" cx="1323.97" cy="820.26" rx="46" ry="50.31" transform="translate(-9.89 16.18) rotate(-.7)"/><path class="cls-23" d="M1351.47,816.29c1.84,.03,3.77,.26,5.26,1.39s2.31,3.41,1.34,5.05c-7.53,.44-16.33-.84-22.92-4.86,5.02-1.1,11.2-1.66,16.32-1.57Z"/><path class="cls-23" d="M1327.32,793.47c.33-1.89,.85-3.85,2.16-5.2,1.31-1.35,3.6-1.83,4.98-.57-.8,7.84-3.42,16.7-8.29,22.85-.23-5.36,.24-11.82,1.14-17.08Z"/><path class="cls-23" d="M1301.53,811.74c-1.67-.8-3.36-1.82-4.29-3.47s-.81-4.1,.71-5.18c7.07,2.75,14.64,7.6,19.15,14.04-5.03-1.09-10.9-3.16-15.56-5.38Z"/><path class="cls-23" d="M1308.03,838.16c-1.56,1.01-3.31,1.91-5.15,1.8s-3.71-1.57-3.73-3.49c6.11-4.62,14.18-8.5,21.81-8.84-3.66,3.76-8.57,7.72-12.92,10.53Z"/><path class="cls-23" d="M1342.47,843.29c.88,1.69,1.64,3.56,1.44,5.47s-1.71,3.78-3.54,3.7c-4.08-6.63-7.34-15.26-7.24-23.24,3.39,4.02,6.9,9.37,9.35,14.06Z"/><ellipse class="cls-28" cx="1259.78" cy="706.54" rx="59.35" ry="62"/><ellipse class="cls-33" cx="1262.01" cy="706.49" rx="52.04" ry="56.91" transform="translate(-8.51 15.41) rotate(-.7)"/><ellipse class="cls-20" cx="1262.01" cy="706.49" rx="46" ry="50.31" transform="translate(-8.51 15.41) rotate(-.7)"/><path class="cls-23" d="M1289.5,702.52c1.84,.03,3.77,.26,5.26,1.39,1.49,1.13,2.31,3.41,1.34,5.05-7.53,.44-16.33-.84-22.92-4.86,5.02-1.1,11.2-1.66,16.32-1.57Z"/><path class="cls-23" d="M1265.35,679.7c.33-1.89,.85-3.85,2.16-5.2s3.6-1.83,4.98-.57c-.8,7.84-3.42,16.7-8.29,22.85-.23-5.36,.24-11.82,1.14-17.08Z"/><path class="cls-23" d="M1239.57,697.96c-1.67-.8-3.36-1.82-4.29-3.47s-.81-4.1,.71-5.18c7.07,2.75,14.64,7.6,19.15,14.04-5.03-1.09-10.9-3.16-15.56-5.38Z"/><path class="cls-23" d="M1246.06,724.38c-1.56,1.01-3.31,1.91-5.15,1.8s-3.71-1.57-3.73-3.49c6.11-4.62,14.18-8.5,21.81-8.84-3.66,3.76-8.57,7.72-12.92,10.53Z"/><path class="cls-23" d="M1280.51,729.51c.88,1.69,1.64,3.56,1.44,5.47-.21,1.91-1.71,3.78-3.54,3.7-4.08-6.63-7.34-15.26-7.24-23.24,3.39,4.02,6.9,9.37,9.35,14.06Z"/><path class="cls-30" d="M1228.82,645.29c-5.46,3.33-9.19,9.09-14.86,12.04-12.91,6.73-22.21,20.51-23.93,35.48-1.72,14.97,14.48,45.33,25.5,55.05-15-20.66-16.96-41.25-13.57-54.15,3.22-12.28,9.47-28.14,19.64-35.14,6.84-4.71,17.04-16.07,47.93-13.2,4.27,.4-26.79-3.64-30.89-2.87-3.9,.73-6.49,.75-9.82,2.79Z"/><path class="cls-30" d="M1291.05,758.69c-5.46,3.33-9.19,9.09-14.86,12.04-12.91,6.73-22.21,20.51-23.93,35.48-1.72,14.97,14.48,45.33,25.5,55.05-15-20.66-16.96-41.25-13.57-54.15,3.22-12.28,9.47-28.14,19.64-35.14,6.84-4.71,17.04-16.07,47.93-13.2,4.27,.4-26.79-3.64-30.89-2.87-3.9,.73-6.49,.75-9.82,2.79Z"/><path class="cls-1" d="M1327.92,603.73h-.5"/></g><path class="cls-11" d="M1436.53,599.86c1.93,0,1.93-3,0-3s-1.93,3,0,3h0Z"/><path class="cls-32" d="M1434.78,831.15l-99.59-188.12c-6.76-12.77-1.89-28.6,10.88-35.36l94.45-50c12.77-6.76,28.6-1.89,35.36,10.88l99.59,188.12c6.76,12.77,1.89,28.6-10.88,35.36l-94.45,50c-12.77,6.76-28.6,1.89-35.36-10.88Zm19.2,31.02l126.9-67.18c9.82-5.2,13.57-17.37,8.37-27.19l-114.82-216.89c-5.2-9.82-17.37-13.57-27.19-8.37l-126.9,67.18c-9.82,5.2-13.57,17.37-8.37,27.19l114.82,216.89c5.2,9.82,17.37,13.57,27.19,8.37Z"/><path class="cls-22" d="M1567.87,795.98c12.77-6.76,17.64-22.59,10.88-35.36l-103.53-197.51c-6.76-12.77-22.59-17.64-35.36-10.88l-97.69,50.04c-12.77,6.76-17.64,22.59-10.88,35.36l103.53,197.51c6.76,12.77,22.59,17.64,35.36,10.88l97.69-50.04Z"/><path class="cls-31" d="M1465.93,853.88s-29.19,27.02-44.15-12.41c-14.96-39.44,11.92,24.81-3.7-6.62-15.62-31.43-6.44-12.49-6.44-12.49l-5.07-10.03-2.72-4.54-3.91-7.95-4.29-7.95-2.53-4.73-2.92-5.49-2.92-5.49-3.12-6.25-2.34-4.35-1.96-4.17-2.34-4.54-2.92-5.11-3.52-7.39-4.08-7-2.33-3.97-1.76-3.79-2.53-4.16-2.93-5.87-6.24-11.92-11.32-22.34-6.04-10.78-5.13-10.6-3.64-6.24-2.73-4.92-1.95-3.6-2.33-3.96-2.73-5.13-1.77-4.55-.88-2.11-1.61-8.07,.43-2.36,1.1-3.82,3-3.85,2.26-2.5,2.77-1.83,4.7-2.29c.12-1.55-11.3,15.67-6.83,24.17,2.47,4.7,10.09,20.96,10.09,20.96l3.93,7.95,3.75,8.14,4.68,8.7,7.6,14,6.61,10.86,5.83,9.37,5.08,10.6,2.36,6.45,4.88,9.84,5.05,7.94,4.29,8.52,4.67,8.51,9.33,15.7,12.25,20.61,10.12,17.97,11.18,22.15s9.16,21.22,35.72,12.71Z"/><circle class="cls-5" cx="1424.2" cy="638.89" r="63.77"/><ellipse class="cls-14" cx="1429.65" cy="638.82" rx="58.33" ry="61.05" transform="translate(-7.67 17.45) rotate(-.7)"/><circle class="cls-5" cx="1489.49" cy="762.93" r="63.77"/><ellipse class="cls-14" cx="1494.94" cy="762.86" rx="58.33" ry="61.05" transform="translate(-9.17 18.25) rotate(-.7)"/><circle class="cls-12" cx="1429.65" cy="638.82" r="36.7"/><circle class="cls-12" cx="1492.8" cy="762.89" r="36.7"/><path class="cls-11" d="M1450.14,630.59c1.03,7.07,.52,17.23-7.61,19.99-1.82,.62-1.04,3.52,.8,2.89,4.12-1.4,7.12-4.71,8.76-8.68,1.96-4.75,1.67-10.02,.95-15-.12-.81-1.13-1.24-1.85-1.05-.86,.23-1.16,1.05-1.05,1.85h0Z"/><path class="cls-11" d="M1516.73,756.97c1.03,7.07,.52,17.23-7.61,19.99-1.82,.62-1.04,3.52,.8,2.89,4.12-1.4,7.12-4.71,8.76-8.68,1.96-4.75,1.67-10.02,.95-15-.12-.81-1.13-1.24-1.85-1.05-.86,.23-1.16,1.05-1.05,1.85h0Z"/><path class="cls-16" d="M1362.42,597.82c-3.17,6.02-3.43,13.17-6.98,18.96-8.11,13.22-9.08,30.54-2.5,44.57,6.58,14.04,32.95,34.82,48.3,37.03-24.93-9.49-32.99-29.85-36.94-43.03-3.75-12.55-4.5-29.35,.96-41.25,3.67-8,8.75-23.69,39.46-36.05,4.28-1.72-31.55,8.74-34.87,11.74-3.16,2.86-5.51,4.35-7.44,8.02Z"/><path class="cls-16" d="M1427.02,721.81c-3.17,6.02-3.43,13.17-6.98,18.96-8.11,13.22-9.08,30.54-2.5,44.57,6.58,14.04,32.95,34.82,48.3,37.03-24.93-9.49-32.99-29.85-36.94-43.03-3.75-12.55-4.5-29.35,.96-41.25,3.67-8,8.75-23.69,39.46-36.05,4.28-1.72-31.55,8.74-34.87,11.74s-5.51,4.35-7.44,8.02Z"/><g><path class="cls-11" d="M1588.19,546.08c1.93,0,1.93-3,0-3s-1.93,3,0,3h0Z"/><path class="cls-32" d="M1588.69,771.99l-99.07-182.82c-6.73-12.41-2.12-27.92,10.29-34.65l91.79-49.74c12.41-6.73,27.92-2.12,34.65,10.29l99.07,182.82c6.73,12.41,2.12,27.92-10.29,34.65l-91.79,49.74c-12.41,6.73-27.92,2.12-34.65-10.29Zm19.05,30.11l123.32-66.83c9.54-5.17,13.09-17.1,7.92-26.64l-114.22-210.77c-5.17-9.54-17.1-13.09-26.64-7.92l-123.32,66.83c-9.54,5.17-13.09,17.1-7.92,26.64l114.22,210.77c5.17,9.54,17.1,13.09,26.64,7.92Z"/><path class="cls-22" d="M1718.37,736.38c12.41-6.73,17.02-22.24,10.29-34.65l-103.01-191.95c-6.73-12.41-22.24-17.02-34.65-10.29l-94.95,49.81c-12.41,6.73-17.02,22.24-10.29,34.65l103.01,191.95c6.73,12.41,22.24,17.02,34.65,10.29l94.95-49.81Z"/><circle class="cls-29" cx="1580.11" cy="589.14" r="57.37"/><circle class="cls-29" cx="1639.83" cy="696.03" r="57.37"/><path class="cls-31" d="M1619.34,793.9s-28.26,26.67-43.24-11.71c-14.98-38.38,11.88,24.12-3.68-6.43s-6.41-12.14-6.41-12.14l-5.05-9.75-2.7-4.41-3.89-7.73-4.26-7.72-2.52-4.6-2.91-5.33-2.91-5.33-3.11-6.07-2.33-4.23-1.95-4.05-2.33-4.42-2.9-4.96-3.51-7.18-4.06-6.8-2.32-3.86-1.76-3.68-2.51-4.04-2.92-5.71-6.21-11.59-11.27-21.71-6-10.48-5.11-10.31-3.62-6.06-2.71-4.78-1.94-3.49-2.32-3.84-2.71-4.98-1.77-4.43-.88-2.05-1.65-7.87,.4-2.31,1.03-3.74,2.89-3.79,2.18-2.47,2.69-1.81,4.57-2.28c.1-1.52-10.89,15.41-6.44,23.67,2.46,4.56,10.05,20.38,10.05,20.38l3.91,7.73,3.74,7.92,4.65,8.46,7.56,13.61,6.56,10.55,5.78,9.1,5.06,10.31,2.37,6.28,4.86,9.57,5.01,7.71,4.28,8.28,4.65,8.27,9.27,15.24,12.16,20.02,10.06,17.46,11.13,21.53s9.15,20.64,35.01,12.07Z"/><circle class="cls-21" cx="1582.56" cy="591.45" r="52.62"/><circle class="cls-21" cx="1643.28" cy="697.78" r="52.62"/><circle class="cls-11" cx="1610.52" cy="573.22" r=".99"/><circle class="cls-11" cx="1550.82" cy="598.49" r=".99"/><circle class="cls-11" cx="1575.39" cy="571.83" r=".99"/><circle class="cls-11" cx="1587.5" cy="554.29" r=".99"/><circle class="cls-11" cx="1587.35" cy="592.57" r=".99"/><circle class="cls-11" cx="1574.01" cy="599.27" r=".99"/><circle class="cls-11" cx="1592.76" cy="616.89" r=".99"/><circle class="cls-11" cx="1611.67" cy="599.43" r=".99"/><circle class="cls-11" cx="1622.17" cy="572.96" r=".99"/><circle class="cls-11" cx="1570.82" cy="550" r=".99"/><circle class="cls-11" cx="1591.74" cy="570.48" r=".99"/><circle class="cls-11" cx="1604.67" cy="558.51" r=".99"/><circle class="cls-11" cx="1600" cy="588.71" r=".99"/><circle class="cls-11" cx="1549.4" cy="574.56" r=".99"/><circle class="cls-11" cx="1551.19" cy="615.41" r=".99"/><circle class="cls-11" cx="1562.95" cy="618.2" r=".99"/><circle class="cls-11" cx="1611.52" cy="618.7" r=".99"/><circle class="cls-11" cx="1580.9" cy="625.55" r=".99"/><circle class="cls-11" cx="1561.7" cy="589.55" r=".99"/><circle class="cls-11" cx="1557.78" cy="562.52" r=".99"/><circle class="cls-11" cx="1624.05" cy="593.29" r=".99"/><circle class="cls-11" cx="1600.94" cy="631.71" r=".99"/><circle class="cls-11" cx="1568.95" cy="632.12" r=".99"/><circle class="cls-11" cx="1671.32" cy="683.29" r=".99"/><circle class="cls-11" cx="1611.62" cy="708.56" r=".99"/><circle class="cls-11" cx="1636.19" cy="681.9" r=".99"/><circle class="cls-11" cx="1648.29" cy="664.36" r=".99"/><circle class="cls-11" cx="1648.14" cy="702.64" r=".99"/><circle class="cls-11" cx="1634.81" cy="709.34" r=".99"/><circle class="cls-11" cx="1653.55" cy="726.96" r=".99"/><circle class="cls-11" cx="1672.47" cy="709.5" r=".99"/><circle class="cls-11" cx="1682.97" cy="683.03" r=".99"/><circle class="cls-11" cx="1631.62" cy="660.07" r=".99"/><circle class="cls-11" cx="1652.54" cy="680.55" r=".99"/><circle class="cls-11" cx="1665.47" cy="668.58" r=".99"/><circle class="cls-11" cx="1660.79" cy="698.78" r=".99"/><circle class="cls-11" cx="1610.2" cy="684.63" r=".99"/><circle class="cls-11" cx="1611.99" cy="725.48" r=".99"/><circle class="cls-11" cx="1623.75" cy="728.27" r=".99"/><circle class="cls-11" cx="1672.32" cy="728.77" r=".99"/><circle class="cls-11" cx="1641.7" cy="735.62" r=".99"/><circle class="cls-11" cx="1622.5" cy="699.62" r=".99"/><circle class="cls-11" cx="1618.58" cy="672.59" r=".99"/><circle class="cls-11" cx="1684.85" cy="703.36" r=".99"/><circle class="cls-11" cx="1661.74" cy="741.78" r=".99"/><circle class="cls-11" cx="1629.75" cy="742.19" r=".99"/><path class="cls-16" d="M1583.56,659.22c-3.04,5.91-3.22,12.89-6.64,18.59-7.8,12.99-8.58,29.91-2.01,43.57,6.56,13.65,36.18,28.34,51.19,30.36-24.44-9.04-36.17-23.48-40.14-36.33-3.78-12.22-4.68-28.63,.55-40.3,3.51-7.85,8.32-23.22,38.21-35.59,4.16-1.72-30.74,8.84-33.95,11.8-3.06,2.82-5.34,4.3-7.19,7.9Z"/><path class="cls-16" d="M1525.28,552.59c-3.04,5.91-3.22,12.89-6.64,18.59-7.8,12.99-8.58,29.91-2.01,43.57,6.56,13.65,36.18,28.34,51.19,30.36-24.44-9.04-36.17-23.48-40.14-36.33-3.78-12.22-4.68-28.63,.55-40.3,3.51-7.85,8.32-23.22,38.21-35.59,4.16-1.72-30.74,8.84-33.95,11.8-3.06,2.82-5.34,4.3-7.19,7.9Z"/></g><path class="cls-26" d="M1727.24,740.09c-2.19,5.33,2.1,12.71,7.64,14.3,4,1.15,8.32-1.43,10.52-4.96,2.2-3.54,2.78-7.81,3.3-11.94,1.43-11.31,2.86-22.63,4.3-33.94,1.34-10.55,2.54-21.87-2.4-31.29-7.43-14.17-35.28-14.23-29.63,1.04,7.23,19.53,13.95,48.12,6.27,66.81Z"/></g><g><path class="cls-18" d="M546.95,162.51h-33.78c-5.05,0-9.14-4.09-9.14-9.14v-.51c0-5.05,4.09-9.14,9.14-9.14h108.44c5.05,0,9.14,4.09,9.14,9.14v.51c0,5.05-4.09,9.14-9.14,9.14h-34.03c-5.05,0-9.14,4.09-9.14,9.14v134.1c0,5.05-4.09,9.14-9.14,9.14h-4.06c-5.05,0-9.14-4.09-9.14-9.14V171.65c0-5.05-4.09-9.14-9.14-9.14Z"/><path class="cls-18" d="M671.9,152.86v152.89c0,5.05-4.09,9.14-9.14,9.14h-3.81c-5.05,0-9.14-4.09-9.14-9.14V152.86c0-5.05,4.09-9.14,9.14-9.14h3.81c5.05,0,9.14,4.09,9.14,9.14Z"/><path class="cls-18" d="M719.65,143.72h3.81c5.05,0,9.14,4.09,9.14,9.14v134.35c0,5.05,4.09,9.14,9.14,9.14h54.86c5.05,0,9.14,4.09,9.14,9.14v.25c0,5.05-4.09,9.14-9.14,9.14h-76.95c-5.05,0-9.14-4.09-9.14-9.14V152.86c0-5.05,4.09-9.14,9.14-9.14Z"/><path class="cls-18" d="M839.52,143.72h3.81c5.05,0,9.14,4.09,9.14,9.14v134.35c0,5.05,4.09,9.14,9.14,9.14h54.86c5.05,0,9.14,4.09,9.14,9.14v.25c0,5.05-4.09,9.14-9.14,9.14h-76.95c-5.05,0-9.14-4.09-9.14-9.14V152.86c0-5.05,4.09-9.14,9.14-9.14Z"/><path class="cls-18" d="M967.01,305.75v-61.15c0-1.54-.39-3.05-1.13-4.4l-45.53-82.94c-3.34-6.09,1.06-13.54,8.01-13.54h4.1c3.43,0,6.58,1.93,8.14,4.98l21.58,42.25c6.6,12.95,11.68,23.37,17.02,35.3h.51c4.83-11.17,10.67-22.35,17.27-35.3l22.07-42.32c1.58-3.02,4.7-4.92,8.11-4.92h3.67c7.06,0,11.45,7.66,7.9,13.75l-48.12,82.4c-.82,1.4-1.25,2.99-1.25,4.61v61.27c0,5.05-4.09,9.14-9.14,9.14h-4.06c-5.05,0-9.14-4.09-9.14-9.14Z"/><path class="cls-18" d="M1073.68,143.72h3.81c5.05,0,9.14,4.09,9.14,9.14v73.4h.76c4.57-6.6,9.14-12.7,13.46-18.29l49.57-60.88c1.74-2.13,4.34-3.37,7.09-3.37h3.26c7.8,0,12.02,9.14,6.96,15.08l-44.59,52.26c-2.67,3.13-2.92,7.66-.61,11.06l53.21,78.5c4.12,6.07-.23,14.27-7.57,14.27h-4.04c-3.05,0-5.9-1.52-7.59-4.05l-46.99-70.06c-3.36-5.01-10.56-5.45-14.51-.89l-6.19,7.16c-1.44,1.66-2.23,3.78-2.23,5.98v52.72c0,5.05-4.09,9.14-9.14,9.14h-3.81c-5.05,0-9.14-4.09-9.14-9.14V152.86c0-5.05,4.09-9.14,9.14-9.14Z"/><path class="cls-18" d="M1211.33,143.72h3.81c5.05,0,9.14,4.09,9.14,9.14v73.4h.76c4.57-6.6,9.14-12.7,13.46-18.29l49.57-60.88c1.74-2.13,4.34-3.37,7.09-3.37h3.26c7.8,0,12.02,9.14,6.96,15.08l-44.59,52.26c-2.67,3.13-2.92,7.66-.61,11.06l53.21,78.5c4.12,6.07-.23,14.27-7.57,14.27h-4.04c-3.05,0-5.9-1.52-7.59-4.05l-46.99-70.06c-3.36-5.01-10.56-5.45-14.51-.89l-6.19,7.16c-1.44,1.66-2.23,3.78-2.23,5.98v52.72c0,5.05-4.09,9.14-9.14,9.14h-3.81c-5.05,0-9.14-4.09-9.14-9.14V152.86c0-5.05,4.09-9.14,9.14-9.14Z"/><path class="cls-18" d="M1419.33,234.64h-48.25c-5.05,0-9.14,4.09-9.14,9.14v43.43c0,5.05,4.09,9.14,9.14,9.14h55.87c5.05,0,9.14,4.09,9.14,9.14v.25c0,5.05-4.09,9.14-9.14,9.14h-77.97c-5.05,0-9.14-4.09-9.14-9.14V152.86c0-5.05,4.09-9.14,9.14-9.14h74.16c5.05,0,9.14,4.09,9.14,9.14v.25c0,5.05-4.09,9.14-9.14,9.14h-52.06c-5.05,0-9.14,4.09-9.14,9.14v35.81c0,5.05,4.09,9.14,9.14,9.14h48.25c5.05,0,9.14,4.09,9.14,9.14h0c0,5.05-4.09,9.14-9.14,9.14Z"/></g><g><path d="M553.19,162.51h-33.78c-5.05,0-9.14-4.09-9.14-9.14v-.51c0-5.05,4.09-9.14,9.14-9.14h108.44c5.05,0,9.14,4.09,9.14,9.14v.51c0,5.05-4.09,9.14-9.14,9.14h-34.03c-5.05,0-9.14,4.09-9.14,9.14v134.1c0,5.05-4.09,9.14-9.14,9.14h-4.06c-5.05,0-9.14-4.09-9.14-9.14V171.65c0-5.05-4.09-9.14-9.14-9.14Z"/><path d="M678.15,152.86v152.89c0,5.05-4.09,9.14-9.14,9.14h-3.81c-5.05,0-9.14-4.09-9.14-9.14V152.86c0-5.05,4.09-9.14,9.14-9.14h3.81c5.05,0,9.14,4.09,9.14,9.14Z"/><path d="M725.89,143.72h3.81c5.05,0,9.14,4.09,9.14,9.14v134.35c0,5.05,4.09,9.14,9.14,9.14h54.86c5.05,0,9.14,4.09,9.14,9.14v.25c0,5.05-4.09,9.14-9.14,9.14h-76.95c-5.05,0-9.14-4.09-9.14-9.14V152.86c0-5.05,4.09-9.14,9.14-9.14Z"/><path d="M845.76,143.72h3.81c5.05,0,9.14,4.09,9.14,9.14v134.35c0,5.05,4.09,9.14,9.14,9.14h54.86c5.05,0,9.14,4.09,9.14,9.14v.25c0,5.05-4.09,9.14-9.14,9.14h-76.95c-5.05,0-9.14-4.09-9.14-9.14V152.86c0-5.05,4.09-9.14,9.14-9.14Z"/><path d="M973.26,305.75v-61.15c0-1.54-.39-3.05-1.13-4.4l-45.53-82.94c-3.34-6.09,1.06-13.54,8.01-13.54h4.1c3.43,0,6.58,1.93,8.14,4.98l21.58,42.25c6.6,12.95,11.68,23.37,17.02,35.3h.51c4.83-11.17,10.67-22.35,17.27-35.3l22.07-42.32c1.58-3.02,4.7-4.92,8.11-4.92h3.67c7.06,0,11.45,7.66,7.9,13.75l-48.12,82.4c-.82,1.4-1.25,2.99-1.25,4.61v61.27c0,5.05-4.09,9.14-9.14,9.14h-4.06c-5.05,0-9.14-4.09-9.14-9.14Z"/><path d="M1079.92,143.72h3.81c5.05,0,9.14,4.09,9.14,9.14v73.4h.76c4.57-6.6,9.14-12.7,13.46-18.29l49.57-60.88c1.74-2.13,4.34-3.37,7.09-3.37h3.26c7.8,0,12.02,9.14,6.96,15.08l-44.59,52.26c-2.67,3.13-2.92,7.66-.61,11.06l53.21,78.5c4.12,6.07-.23,14.27-7.57,14.27h-4.04c-3.05,0-5.9-1.52-7.59-4.05l-46.99-70.06c-3.36-5.01-10.56-5.45-14.51-.89l-6.19,7.16c-1.44,1.66-2.23,3.78-2.23,5.98v52.72c0,5.05-4.09,9.14-9.14,9.14h-3.81c-5.05,0-9.14-4.09-9.14-9.14V152.86c0-5.05,4.09-9.14,9.14-9.14Z"/><path d="M1217.58,143.72h3.81c5.05,0,9.14,4.09,9.14,9.14v73.4h.76c4.57-6.6,9.14-12.7,13.46-18.29l49.57-60.88c1.74-2.13,4.34-3.37,7.09-3.37h3.26c7.8,0,12.02,9.14,6.96,15.08l-44.59,52.26c-2.67,3.13-2.92,7.66-.61,11.06l53.21,78.5c4.12,6.07-.23,14.27-7.57,14.27h-4.04c-3.05,0-5.9-1.52-7.59-4.05l-46.99-70.06c-3.36-5.01-10.56-5.45-14.51-.89l-6.19,7.16c-1.44,1.66-2.23,3.78-2.23,5.98v52.72c0,5.05-4.09,9.14-9.14,9.14h-3.81c-5.05,0-9.14-4.09-9.14-9.14V152.86c0-5.05,4.09-9.14,9.14-9.14Z"/><path d="M1425.58,234.64h-48.25c-5.05,0-9.14,4.09-9.14,9.14v43.43c0,5.05,4.09,9.14,9.14,9.14h55.87c5.05,0,9.14,4.09,9.14,9.14v.25c0,5.05-4.09,9.14-9.14,9.14h-77.97c-5.05,0-9.14-4.09-9.14-9.14V152.86c0-5.05,4.09-9.14,9.14-9.14h74.16c5.05,0,9.14,4.09,9.14,9.14v.25c0,5.05-4.09,9.14-9.14,9.14h-52.06c-5.05,0-9.14,4.09-9.14,9.14v35.81c0,5.05,4.09,9.14,9.14,9.14h48.25c5.05,0,9.14,4.09,9.14,9.14h0c0,5.05-4.09,9.14-9.14,9.14Z"/></g><g><path d="M783.92,365.61h9.58c.65,0,1.18,.53,1.18,1.18v.03c0,.65-.53,1.18-1.18,1.18h-6.71c-.65,0-1.18,.53-1.18,1.18v5c0,.65,.53,1.18,1.18,1.18h6.02c.65,0,1.18,.53,1.18,1.18h0c0,.65-.53,1.18-1.18,1.18h-6.02c-.65,0-1.18,.53-1.18,1.18v7.67c0,.65-.53,1.18-1.18,1.18h-.49c-.65,0-1.18-.53-1.18-1.18v-19.81c0-.65,.53-1.18,1.18-1.18Z"/><path d="M809.06,377.39h-6.25c-.65,0-1.18,.53-1.18,1.18v5.63c0,.65,.53,1.18,1.18,1.18h7.24c.65,0,1.18,.53,1.18,1.18v.03c0,.65-.53,1.18-1.18,1.18h-10.1c-.65,0-1.18-.53-1.18-1.18v-19.81c0-.65,.53-1.18,1.18-1.18h9.61c.65,0,1.18,.53,1.18,1.18v.03c0,.65-.53,1.18-1.18,1.18h-6.75c-.65,0-1.18,.53-1.18,1.18v4.64c0,.65,.53,1.18,1.18,1.18h6.25c.65,0,1.18,.53,1.18,1.18h0c0,.65-.53,1.18-1.18,1.18Z"/><path d="M814.95,368.47c0-1.49,1.13-2.74,2.61-2.87,1.09-.09,2.25-.15,3.48-.15,4.11,0,7.04,.95,8.98,2.76,1.97,1.81,3.13,4.38,3.13,7.96s-1.12,6.58-3.19,8.62c-2.07,2.07-5.5,3.19-9.81,3.19-.88,0-1.71-.02-2.47-.05-1.53-.07-2.73-1.35-2.73-2.88v-16.58Zm2.86,14.33c0,1.58,1.28,2.88,2.86,2.88,.01,0,.02,0,.03,0,6.12,0,9.44-3.42,9.44-9.41,.03-5.23-2.93-8.56-8.98-8.56-.18,0-.35,0-.52,0-1.57,.03-2.83,1.31-2.83,2.88v12.19Z"/><path d="M839.04,368.05h-4.31c-.67,0-1.22-.55-1.22-1.22h0c0-.67,.55-1.22,1.22-1.22h13.98c.67,0,1.22,.55,1.22,1.22h0c0,.67-.55,1.22-1.22,1.22h-4.34c-.67,0-1.22,.55-1.22,1.22v17.31c0,.67-.55,1.22-1.22,1.22h-.46c-.67,0-1.22-.55-1.22-1.22v-17.31c0-.67-.55-1.22-1.22-1.22Z"/><path d="M851.75,386.23c-.06-1.25,.79-2.17,1.96-2.16,1.05,0,1.91,.95,1.92,2,.02,1.13-.7,2.02-1.83,2.07-1.07,.05-2-.85-2.05-1.91Zm.79-5.87l-.4-13.84c-.01-.5,.38-.91,.88-.91h1.13c.62,0,1.11,.51,1.09,1.12l-.4,13.73c-.02,.53-.45,.94-.97,.94h-.25c-.58,0-1.06-.46-1.07-1.04Z"/><path d="M885.91,376.47c0,7.63-4.64,11.68-10.3,11.68s-9.97-4.54-9.97-11.25c0-7.04,4.38-11.65,10.3-11.65s9.97,4.64,9.97,11.22Zm-17.21,.36c0,4.74,2.57,8.98,7.08,8.98s7.11-4.18,7.11-9.21c0-4.41-2.3-9.02-7.08-9.02s-7.11,4.38-7.11,9.25Z"/><path d="M890.98,364.43h0c.8,0,1.45,.65,1.45,1.45v20.47c0,.8-.65,1.45-1.45,1.45h0c-.8,0-1.45-.65-1.45-1.45v-20.47c0-.8,.65-1.45,1.45-1.45Z"/><path d="M900.08,380.35c-.65,0-1.17,.58-1.06,1.23,.52,3.03,2.78,4.3,5.35,4.3,1.44,0,2.48-.17,3.35-.43,.59-.18,1.2,.18,1.34,.77h0c.13,.55-.18,1.09-.71,1.27-1.04,.34-2.49,.63-4.37,.63-4.9,0-7.83-3.22-7.83-8.03s2.83-8.59,7.47-8.59c5.2,0,6.58,4.57,6.58,7.5,0,.59-.07,1.05-.1,1.35h-10.02Zm6.16-2.07c.67,0,1.18-.6,1.06-1.26-.3-1.66-1.34-3.45-3.91-3.45-2.28,0-3.56,1.64-4.13,3.31-.23,.69,.3,1.4,1.02,1.4h5.96Z"/><path d="M923.55,380.35c-.65,0-1.17,.58-1.06,1.23,.52,3.03,2.78,4.3,5.35,4.3,1.44,0,2.48-.17,3.35-.43,.59-.18,1.2,.18,1.34,.77h0c.13,.55-.18,1.09-.71,1.27-1.04,.34-2.49,.63-4.37,.63-4.9,0-7.83-3.22-7.83-8.03s2.83-8.59,7.47-8.59c5.2,0,6.58,4.57,6.58,7.5,0,.59-.07,1.05-.1,1.35h-10.02Zm6.16-2.07c.67,0,1.18-.6,1.06-1.26-.3-1.66-1.34-3.45-3.91-3.45-2.28,0-3.56,1.64-4.13,3.31-.23,.69,.3,1.4,1.02,1.4h5.96Z"/><path d="M937.25,376.83c0-1.34-.02-2.55-.06-3.67-.03-.71,.54-1.3,1.25-1.3h0c.68,0,1.23,.54,1.25,1.21l.06,1.91h.13c.72-2.14,2.47-3.49,4.41-3.49,.33,0,.56,.03,.82,.1v2.73c-.3-.07-.59-.1-.99-.1-2.04,0-3.49,1.55-3.88,3.72-.07,.39-.13,.85-.13,1.35v7.24c0,.69-.56,1.25-1.25,1.25h-.36c-.69,0-1.25-.56-1.25-1.25v-9.7Z"/><path d="M956.17,387.79c-.71,0-1.28-.59-1.25-1.3,.04-.89,.07-1.9,.07-2.82v-18c0-.69,.56-1.25,1.25-1.25h.37c.69,0,1.25,.56,1.25,1.25v8.75h.07c1.02-1.78,2.86-2.93,5.43-2.93,3.95,0,6.75,3.29,6.71,8.13,0,5.69-3.59,8.52-7.14,8.52-2.3,0-4.15-.89-5.33-2.99h-.1l-.07,1.45c-.03,.66-.58,1.19-1.25,1.19h0Zm1.68-6.38c0,.36,.07,.72,.13,1.05,.56,2.01,2.24,3.39,4.34,3.39,3.03,0,4.84-2.47,4.84-6.12,0-3.19-1.64-5.92-4.74-5.92-1.97,0-3.82,1.35-4.41,3.55-.07,.33-.16,.72-.16,1.18v2.86Z"/><path d="M975.16,364.43h0c.8,0,1.45,.65,1.45,1.45v20.47c0,.8-.65,1.45-1.45,1.45h0c-.8,0-1.45-.65-1.45-1.45v-20.47c0-.8,.65-1.45,1.45-1.45Z"/><path d="M984.26,380.35c-.65,0-1.17,.58-1.06,1.23,.52,3.03,2.78,4.3,5.35,4.3,1.44,0,2.48-.17,3.35-.43,.59-.18,1.2,.18,1.34,.77h0c.13,.55-.18,1.09-.71,1.27-1.04,.34-2.49,.63-4.37,.63-4.9,0-7.83-3.22-7.83-8.03s2.83-8.59,7.47-8.59c5.2,0,6.58,4.57,6.58,7.5,0,.59-.07,1.05-.1,1.35h-10.02Zm6.16-2.07c.67,0,1.18-.6,1.06-1.26-.3-1.66-1.34-3.45-3.91-3.45-2.28,0-3.56,1.64-4.13,3.31-.23,.69,.3,1.4,1.02,1.4h5.96Z"/><path d="M998.1,371.86c.59,0,1.12,.37,1.31,.93l2.8,8.02c.53,1.45,.95,2.76,1.28,4.08h.1c.36-1.32,.82-2.63,1.35-4.08l2.77-8.02c.19-.56,.72-.94,1.31-.94h0c.98,0,1.65,.99,1.29,1.9l-5.16,13.15c-.21,.53-.72,.88-1.29,.88h-.86c-.58,0-1.09-.36-1.3-.9l-5-13.15c-.35-.91,.33-1.88,1.3-1.88h.09Z"/><path d="M1016.25,380.35c-.65,0-1.17,.58-1.06,1.23,.52,3.03,2.78,4.3,5.35,4.3,1.44,0,2.48-.17,3.35-.43,.59-.18,1.2,.18,1.34,.77h0c.13,.55-.18,1.09-.71,1.27-1.04,.34-2.49,.63-4.37,.63-4.9,0-7.83-3.22-7.83-8.03s2.83-8.59,7.47-8.59c5.2,0,6.58,4.57,6.58,7.5,0,.59-.07,1.05-.1,1.35h-10.02Zm6.16-2.07c.67,0,1.18-.6,1.06-1.26-.3-1.66-1.34-3.45-3.91-3.45-2.28,0-3.56,1.64-4.13,3.31-.23,.69,.3,1.4,1.02,1.4h5.96Z"/><path d="M1033.45,368.73v2.03c0,.61,.49,1.1,1.1,1.1h1.94c.61,0,1.1,.49,1.1,1.1h0c0,.61-.49,1.1-1.1,1.1h-1.94c-.61,0-1.1,.49-1.1,1.1v7.49c0,1.97,.56,3.09,2.17,3.09,.19,0,.38,0,.54-.02,.62-.04,1.17,.41,1.21,1.03v.07c.04,.57-.36,1.06-.91,1.16-.45,.08-.99,.13-1.6,.13-1.35,0-2.43-.43-3.13-1.22-.82-.86-1.12-2.27-1.12-4.15v-7.58c0-.61-.49-1.1-1.1-1.1h-.26c-.61,0-1.1-.49-1.1-1.1h0c0-.61,.49-1.1,1.1-1.1h.26c.61,0,1.1-.49,1.1-1.1v-1.87c0-.5,.34-.94,.82-1.07l.62-.17c.7-.19,1.39,.34,1.39,1.07Z"/><path d="M1047.03,386.05c.2-.61,.88-.91,1.48-.66,.8,.34,1.79,.59,2.74,.59,2.11,0,3.09-1.05,3.09-2.37,0-1.38-.82-2.14-2.96-2.93-2.86-1.02-4.21-2.6-4.21-4.51,0-2.57,2.07-4.67,5.49-4.67,1.1,0,2.11,.22,2.92,.52,.57,.21,.87,.83,.67,1.4h0c-.2,.58-.84,.9-1.41,.67-.61-.23-1.37-.42-2.25-.42-1.71,0-2.67,.99-2.67,2.17,0,1.32,.95,1.91,3.03,2.7,2.76,1.05,4.18,2.43,4.18,4.8,0,2.8-2.17,4.77-5.96,4.77-1.31,0-2.55-.24-3.56-.64-.53-.21-.79-.82-.62-1.36l.02-.06Z"/><path d="M1064.35,368.73v2.03c0,.61,.49,1.1,1.1,1.1h1.94c.61,0,1.1,.49,1.1,1.1h0c0,.61-.49,1.1-1.1,1.1h-1.94c-.61,0-1.1,.49-1.1,1.1v7.49c0,1.97,.56,3.09,2.17,3.09,.19,0,.38,0,.54-.02,.62-.04,1.17,.41,1.21,1.03v.07c.04,.57-.36,1.06-.91,1.16-.45,.08-.99,.13-1.6,.13-1.35,0-2.43-.43-3.13-1.22-.82-.86-1.12-2.27-1.12-4.15v-7.58c0-.61-.49-1.1-1.1-1.1h-.26c-.61,0-1.1-.49-1.1-1.1h0c0-.61,.49-1.1,1.1-1.1h.26c.61,0,1.1-.49,1.1-1.1v-1.87c0-.5,.34-.94,.82-1.07l.62-.17c.7-.19,1.39,.34,1.39,1.07Z"/><path d="M1085.97,379.69c0,5.89-4.08,8.46-7.93,8.46-4.31,0-7.63-3.16-7.63-8.19,0-5.33,3.49-8.46,7.9-8.46s7.67,3.32,7.67,8.19Zm-12.64,.16c0,3.49,2.01,6.12,4.84,6.12s4.84-2.6,4.84-6.19c0-2.7-1.35-6.12-4.77-6.12s-4.9,3.16-4.9,6.19Z"/><path d="M1089.62,376.83c0-1.34-.02-2.55-.06-3.67-.03-.71,.54-1.3,1.25-1.3h0c.68,0,1.23,.54,1.25,1.21l.06,1.91h.13c.72-2.14,2.47-3.49,4.41-3.49,.33,0,.56,.03,.82,.1v2.73c-.3-.07-.59-.1-.99-.1-2.04,0-3.49,1.55-3.88,3.72-.07,.39-.13,.85-.13,1.35v7.24c0,.69-.56,1.25-1.25,1.25h-.36c-.69,0-1.25-.56-1.25-1.25v-9.7Z"/><path d="M1121.77,379.69c0,5.89-4.08,8.46-7.93,8.46-4.31,0-7.63-3.16-7.63-8.19,0-5.33,3.49-8.46,7.9-8.46s7.67,3.32,7.67,8.19Zm-12.64,.16c0,3.49,2.01,6.12,4.84,6.12s4.84-2.6,4.84-6.19c0-2.7-1.35-6.12-4.77-6.12s-4.9,3.16-4.9,6.19Z"/><path d="M1138.01,371.86c.61,0,1.11,.51,1.08,1.12-.04,.89-.07,1.91-.07,3.25v9.25c0,3.65-.72,5.89-2.27,7.27-1.55,1.45-3.78,1.91-5.79,1.91-1.56,0-3.25-.31-4.52-.89-.46-.21-.68-.74-.52-1.22l.22-.67c.12-.38,.55-.56,.9-.38,1.03,.5,2.41,.89,4.01,.89,2.96,0,5.13-1.55,5.13-5.56v-1.78h-.07c-.89,1.48-2.6,2.67-5.07,2.67-3.95,0-6.78-3.36-6.78-7.77,0-5.4,3.52-8.46,7.17-8.46,2.76,0,4.28,1.45,4.97,2.76h.07l.08-1.47c.03-.52,.46-.93,.98-.93h.47Zm-1.86,6.29c0-.49-.03-.92-.16-1.32-.53-1.68-1.94-3.06-4.05-3.06-3.05,0-5.14,2.85-4.67,7.21,.18,1.71,1.12,3.32,2.66,4.07,2.44,1.19,5.14,.02,5.99-2.49,.16-.49,.23-1.05,.23-1.55v-2.86Z"/><path d="M1150.11,385.74c.15-.45,.65-.69,1.08-.49,.85,.4,1.96,.72,3.04,.72,2.11,0,3.09-1.05,3.09-2.37,0-1.38-.82-2.14-2.96-2.93-2.86-1.02-4.21-2.6-4.21-4.51,0-2.57,2.07-4.67,5.49-4.67,1.15,0,2.2,.24,3.03,.56,.51,.2,.76,.79,.58,1.31h0c-.21,.61-.87,.93-1.47,.7s-1.35-.4-2.21-.4c-1.71,0-2.67,.99-2.67,2.17,0,1.32,.95,1.91,3.03,2.7,2.76,1.05,4.18,2.43,4.18,4.8,0,2.8-2.17,4.77-5.96,4.77-1.37,0-2.67-.27-3.7-.7-.45-.19-.67-.69-.52-1.16l.17-.52Z"/><path d="M1167.32,368.73v2.03c0,.61,.49,1.1,1.1,1.1h1.94c.61,0,1.1,.49,1.1,1.1h0c0,.61-.49,1.1-1.1,1.1h-1.94c-.61,0-1.1,.49-1.1,1.1v7.49c0,1.97,.56,3.09,2.17,3.09,.19,0,.38,0,.54-.02,.62-.04,1.17,.41,1.21,1.03v.07c.04,.57-.36,1.06-.91,1.16-.45,.08-.99,.13-1.6,.13-1.35,0-2.43-.43-3.13-1.22-.82-.86-1.12-2.27-1.12-4.15v-7.58c0-.61-.49-1.1-1.1-1.1h-.26c-.61,0-1.1-.49-1.1-1.1h0c0-.61,.49-1.1,1.1-1.1h.26c.61,0,1.1-.49,1.1-1.1v-1.87c0-.5,.34-.94,.82-1.07l.62-.17c.7-.19,1.39,.34,1.39,1.07Z"/><path d="M1186.86,380.12c-.59,0-1.06,.51-1.01,1.1,.31,3.07,2.34,4.69,5.03,4.69,1.47,0,2.52-.22,3.31-.49,.56-.19,1.17,.11,1.32,.69l.03,.1c.13,.5-.13,1.01-.61,1.19-1.2,.47-2.72,.74-4.41,.74-2.7,0-5.13-1.28-6.05-3.52h-.07c-1.02,2.2-3.19,3.52-5.92,3.52-3.32,0-4.97-2.24-4.97-4.54,0-3.68,3.42-5.82,9.61-5.76v-.66c0-.79-.49-3.55-3.72-3.55-1.09,0-2.23,.29-3.14,.7-.53,.24-1.14-.04-1.33-.58h0c-.18-.49,.04-1.03,.51-1.25,1.3-.63,2.87-1.01,4.17-1.01,2.86,0,4.47,1.35,5.13,3.39h.07c1.09-2.11,3.06-3.39,5.56-3.39,4.87,0,6.22,4.71,6.22,7.34,0,.49-.03,.99-.1,1.28h-9.62Zm-3.71,.68c0-.56-.47-1.02-1.03-1.01-2.8,.08-5.75,.8-5.75,3.58,0,1.68,1.25,2.63,2.76,2.63,2.07,0,3.39-1.28,3.85-2.73,.13-.36,.16-.76,.16-1.15v-1.33Zm9.55-2.75c.63,0,1.11-.57,.99-1.18-.3-1.54-1.34-3.29-3.63-3.29s-3.52,1.61-4.03,3.18c-.21,.64,.29,1.3,.96,1.3h5.7Z"/><path d="M1200.17,376.83c0-1.34-.02-2.55-.06-3.67-.03-.71,.54-1.3,1.25-1.3h0c.68,0,1.23,.54,1.25,1.21l.06,1.91h.13c.72-2.14,2.47-3.49,4.41-3.49,.33,0,.56,.03,.82,.1v2.73c-.3-.07-.59-.1-.99-.1-2.04,0-3.49,1.55-3.88,3.72-.07,.39-.13,.85-.13,1.35v7.24c0,.69-.56,1.25-1.25,1.25h-.36c-.69,0-1.25-.56-1.25-1.25v-9.7Z"/><path d="M1213.93,379.17h.07c.39-.56,.95-1.25,1.41-1.81l4.3-5.05c.24-.28,.59-.44,.96-.44h0c1.1,0,1.67,1.32,.92,2.12l-3.44,3.66c-.42,.44-.46,1.12-.09,1.61l4.88,6.52c.62,.83,.03,2.01-1.01,2.01h-.37c-.4,0-.78-.19-1.02-.52l-4.21-5.85c-.47-.65-1.42-.7-1.95-.11l-.11,.13c-.21,.23-.32,.53-.32,.84v4.25c0,.69-.56,1.26-1.26,1.26h-.35c-.69,0-1.26-.56-1.26-1.26v-20.85c0-.69,.56-1.26,1.26-1.26h.35c.69,0,1.26,.56,1.26,1.26v13.48Z"/></g><g><path class="cls-13" d="M605.4,884.22c0,140.23-82.07,188.34-188.78,188.34s-197.62-48.12-197.62-188.34,86.5-253.9,193.2-253.9,193.2,113.68,193.2,253.9Z"/><path class="cls-11" d="M400.97,361.3l-2.59,.18c5.24,9.33,9.5,19.13,12.75,29.24,.73-.5,1.38-1.1,1.91-1.8-3.14-9.53-7.19-18.77-12.07-27.62Z"/><ellipse class="cls-13" cx="405.6" cy="512.58" rx="156.49" ry="149.35"/><path class="cls-27" d="M257.55,421.4c11.91-43.8,44.42-81.52,85.98-99.77,4.88,7.84,14.96,11.47,24.12,10.29,11.65-1.5,22.02-10.35,25.34-21.62,15.64-2.59,32.16-3.45,47.58,.22,27.19,6.46,51.54,22.43,70.81,42.67,16.16,16.98,29.24,37.52,34.27,60.41-84.98,5.15-169.96,10.29-254.94,15.44-11.28,.68-24.4-.49-33.16-7.63Z"/><path class="cls-1" d="M351.91,319.57c-32.81,24.88-57.32,60.52-68.81,100.05"/><path class="cls-1" d="M408.36,334.56c14.8,2.5,29.45,6.32,43.09,12.59,13.63,6.27,26.25,15.06,35.89,26.56,14.17,16.9,21.17,38.5,27.84,59.52"/><path class="cls-1" d="M385.8,316.11c18.93,6.85,33.43,22.83,42.7,40.7,9.27,17.87,13.95,37.7,18.55,57.3"/><path class="cls-1" d="M362,326.16c-22.6,24.88-33.69,59.81-29.6,93.17"/><path class="cls-1" d="M371.48,324.21c13.33,29.09,20.38,61.04,20.54,93.04"/><rect class="cls-6" x="250.48" y="417.66" width="310.47" height="51.7" rx="10.53" ry="10.53" transform="translate(-12.15 11.42) rotate(-1.59)"/><path class="cls-27" d="M342.28,322.29c-2.28,1.1-4.74,2.6-5.13,4.93-.28,1.69,.63,3.35,1.68,4.76,6.33,8.51,18.63,12.33,29.68,10.61,11.05-1.72,20.74-8.34,27.32-16.69,1.6-2.03,9.87-7.54,10.02-10.05,.33-5.65-5.16-5.94-9.42-6.09-5.63-.2-12.96,.96-18.6,1.45-11.01,.96-25.75,6.35-35.54,11.08Z"/><circle class="cls-6" cx="398.38" cy="299.9" r="28.75"/><path class="cls-13" d="M343.1,598.89c-.54-.14-1.1-.15-1.65-.08,.51-.04,1.05-.03,1.65,.08Z"/><path class="cls-13" d="M231.43,497.59c-5.32,11.65-.17,25.45,11.47,30.77,5.51,2.52,11.78,2.74,17.45,.72-2.12-14.41-2.22-29.13-.17-43.77-11.18-3.9-23.74,1.29-28.76,12.27Z"/><polygon class="cls-13" points="572.42 531.8 572.36 529.9 572.42 531.8 572.42 531.8"/><path class="cls-8" d="M360.91,489.05c-16.74-7.09-36.12,.76-43.21,17.49s.28,34.82,15.9,42.44c-2.86-1.7-4.98-4.33-5.94-7.54-1.01-3.38-.65-6.96,1.02-10.06s4.46-5.38,7.84-6.39c3.38-1.01,6.95-.65,10.06,1.02,3.11,1.67,5.38,4.46,6.4,7.84s.65,6.96-1.02,10.06c-1.67,3.11-4.46,5.38-7.84,6.4-2.3,.69-4.69,.73-6.96,.16,16.26,5.71,34.43-2.12,41.25-18.21,7.09-16.74-.76-36.12-17.49-43.21Zm-11.14,38.49c-9.59-4.06-14.09-15.17-10.02-24.76,4.06-9.59,15.17-14.09,24.76-10.02,9.59,4.06,14.09,15.17,10.02,24.76-4.06,9.59-15.17,14.09-24.76,10.02Z"/><path d="M382.9,534.17c8.14-19.21-.87-41.47-20.08-49.61-19.21-8.14-41.47,.87-49.61,20.08-8.14,19.21,.87,41.47,20.08,49.61,19.21,8.14,41.47-.87,49.61-20.08Zm-67.44-28.57c7.63-18,28.41-26.42,46.41-18.79,18,7.63,26.41,28.41,18.79,46.41-7.63,18-28.41,26.41-46.41,18.79-18-7.63-26.42-28.41-18.79-46.41Z"/><path d="M380.65,533.21c7.63-18-.78-38.78-18.79-46.41-18-7.63-38.78,.78-46.41,18.79-7.63,18,.78,38.78,18.79,46.41,18,7.63,38.78-.78,46.41-18.79Zm-43.49,17.26c-.67-.17-1.33-.37-1.97-.64-.38-.16-.76-.34-1.13-.54-.16-.09-.3-.21-.46-.31-15.62-7.62-22.76-26.25-15.9-42.44s26.48-24.58,43.21-17.49c16.74,7.09,24.58,26.48,17.49,43.21-6.82,16.09-24.98,23.92-41.25,18.21Z"/><path class="cls-11" d="M362.61,497.25c-7.11-3.01-15.36,.32-18.37,7.44-3.01,7.11,.32,15.35,7.44,18.37,7.11,3.01,15.35-.32,18.37-7.44,3.01-7.11-.32-15.35-7.44-18.37Z"/><path d="M364.51,492.76c-9.59-4.06-20.7,.43-24.76,10.02-4.06,9.59,.43,20.7,10.02,24.76,9.59,4.06,20.7-.43,24.76-10.02,4.06-9.59-.43-20.7-10.02-24.76Zm-13.79,32.54c-8.37-3.54-12.27-13.2-8.73-21.56,3.54-8.37,13.2-12.27,21.56-8.73,8.37,3.54,12.27,13.2,8.73,21.56-3.54,8.37-13.2,12.27-21.56,8.73Z"/><path d="M363.56,495c-8.37-3.54-18.02,.36-21.56,8.73-3.54,8.37,.36,18.02,8.73,21.56,8.37,3.54,18.02-.36,21.56-8.73,3.54-8.37-.36-18.02-8.73-21.56Zm-11.88,28.05c-7.11-3.01-10.45-11.25-7.44-18.37,3.01-7.11,11.25-10.45,18.37-7.44,7.11,3.01,10.45,11.25,7.44,18.37-3.01,7.11-11.25,10.45-18.37,7.44Z"/><path class="cls-11" d="M348.31,535.25c-.64-2.13-2.07-3.89-4.04-4.95-.23-.13-.47-.24-.71-.34-1.78-.76-3.76-.87-5.64-.3-2.13,.64-3.89,2.07-4.95,4.03-1.06,1.96-1.29,4.22-.65,6.35,.64,2.13,2.08,3.89,4.04,4.95,1.96,1.04,4.22,1.28,6.35,.64,2.13-.64,3.89-2.07,4.95-4.04,1.06-1.96,1.29-4.22,.64-6.35Z"/><path d="M351.96,543.92c1.67-3.11,2.04-6.68,1.02-10.06s-3.29-6.17-6.4-7.84c-3.11-1.67-6.68-2.04-10.06-1.02-3.38,1.01-6.17,3.29-7.84,6.39s-2.04,6.68-1.02,10.06c.96,3.2,3.08,5.84,5.94,7.54,.53,.26,1.04,.54,1.59,.77,.65,.28,1.31,.49,1.97,.72,2.27,.56,4.66,.53,6.96-.16,3.38-1.01,6.17-3.29,7.84-6.4Zm-21.96-3.17c-1.71-5.7,1.52-11.71,7.23-13.42,5.7-1.71,11.71,1.52,13.42,7.23,1.71,5.7-1.52,11.71-7.23,13.42-5.7,1.71-11.71-1.52-13.42-7.23Z"/><path d="M333.6,548.98c.16,.09,.29,.22,.46,.31,.37,.2,.75,.38,1.13,.54,.64,.27,1.3,.48,1.97,.64-.66-.23-1.32-.44-1.97-.72-.55-.23-1.06-.51-1.59-.77Z"/><polygon points="271.47 457.71 271.52 457.71 271.47 457.71 271.47 457.71"/><path class="cls-15" d="M461.1,574.1c-.11,8.37,11.57,15.3,26.09,15.49,14.51,.18,26.37-6.45,26.47-14.82,.11-8.37-11.57-15.3-26.09-15.49-14.51-.18-26.37,6.45-26.47,14.82Z"/><ellipse class="cls-15" cx="333.37" cy="574.43" rx="15.16" ry="26.28" transform="translate(-245.23 900.52) rotate(-89.28)"/><path d="M417.4,578.79c6.54-1.26,12.8-3.68,18.43-7.17h0c-6.05,2.3-12.28,4.31-18.74,4.65-5.42,.19-12.57,0-15.32-5.28l-4.35,2.2c4.1,6.8,13.2,6.83,19.98,5.6Z"/><path d="M427.79,567.55c-6.37-5.12-9.86-14.53-6.82-22.04l-4.66-1.43c-1.65,6.36,0,13.27,3.86,18.4,3.67,4.87,9.08,8.57,15.07,9.63h0c-2.68-1.32-5.26-2.66-7.45-4.56Z"/><path d="M510.46,492.2l3.6-3.29c-10.35-11.32-24.21-21.01-30.2-15.54l3.29,3.6c1.8-1.65,12.02,2.88,23.31,15.23Z"/><path d="M336.42,479.47l3.91-2.91c-4.83-6.52-20.29,.38-32.6,9.53l2.91,3.91c13.42-9.98,24.31-12.5,25.78-10.53Z"/><path class="cls-13" d="M576.28,510.45c4.86-11.85-.82-25.44-12.66-30.3-5.61-2.3-11.87-2.28-17.46-.04,2.68,14.32,3.35,29.02,1.87,43.73,11.33,3.46,23.67-2.22,28.26-13.38Z"/><circle cx="475.11" cy="519.39" r="38.31"/><path class="cls-11" d="M467.24,497.25c-7.11-3.01-15.36,.32-18.37,7.44-3.01,7.11,.32,15.35,7.44,18.37,7.11,3.01,15.35-.32,18.37-7.44s-.32-15.35-7.44-18.37Z"/><path class="cls-11" d="M350.65,534.55c-1.71-5.7-7.72-8.94-13.42-7.23-5.7,1.71-8.94,7.72-7.23,13.42,1.71,5.7,7.72,8.94,13.42,7.23,5.7-1.71,8.94-7.72,7.23-13.42Zm-7.93,11.09c-2.14,.64-4.39,.4-6.35-.64-1.96-1.06-3.4-2.81-4.04-4.95-.64-2.13-.41-4.39,.65-6.35,1.06-1.96,2.81-3.39,4.95-4.03,1.88-.56,3.85-.45,5.64,.3,.24,.1,.48,.22,.71,.34,1.96,1.06,3.4,2.81,4.04,4.95,.64,2.13,.41,4.39-.64,6.35-1.06,1.96-2.81,3.4-4.95,4.04Zm134.79,0c-2.14,.64-4.39,.4-6.35-.64-1.96-1.06-3.4-2.81-4.04-4.95-.64-2.13-.41-4.39,.65-6.35,1.06-1.96,2.81-3.39,4.95-4.03,1.88-.56,3.85-.45,5.64,.3,.24,.1,.48,.22,.71,.34,1.96,1.06,3.4,2.81,4.04,4.95,.64,2.13,.41,4.39-.64,6.35-1.06,1.96-2.81,3.4-4.95,4.04Z"/><path class="cls-11" d="M440.73,344.83c20.71,4.26,38.44,15.51,50.18,33.25,8.62,13.03,29.75,.83,21.05-12.31-15.1-22.82-37.82-38.92-64.75-44.45-15.32-3.15-21.87,20.35-6.48,23.51h0Z"/><path d="M387.5,606.89c12.29,5.12,25.98,7.13,39.1,5.11,13.12-2.03,25.91-9.52,31.74-21.44-1.8,16.06-9.89,31.33-22.17,41.84-5.31,4.55-11.47,8.26-18.27,9.88-6.8,1.62-14.29,1-20.29-2.58-6.74-4.01-10.91-11.12-14.79-17.93-3.02-5.3-6.05-10.61-9.07-15.91-2.25-3.94-6.67-11.98-9.81-15.3,4.19,2.52,1.1,1.34,23.57,16.33Z"/><path class="cls-13" d="M621.94,728.13l23.65-21.55c63.56,27.63,79.1,77.54,79.51,77.88l2.45,2.01,.34-3.19c.16-1.51,16.49-151.54,61.09-215.21,.18-.31,6.7-12.24,18.35-11.02,.18,.41,.4,.92,.64,1.52,5.29,13.4,22.05,75.24-32.5,233.27l-.1,.4c-.56,3.04-14.54,74.1-91.43,41.1-81.71-35.07-122.76-56.79-133.93-65.43-11.92-9.22-57.86-52.01-57.27-67.78,.22-5.71,7.57-13.15,54.43,1.14,28.88,8.81,54.08,18.15,75.77,27.27l-.98-.41h0Z"/><path class="cls-13" d="M170.87,703.22l-11.46-2.48c-64.08-26.4-105.08-4.12-105.61-4.18l-3.15-.36,2.06-2.47c.97-1.16,97.32-117.32,111.99-193.67,.1-.34,4.12-13.33-4.86-20.84-.42,.15-.94,.35-1.53,.6-13.3,5.53-69.37,36.54-144.85,185.71l-.22,.35c-1.8,2.52-43.07,62.02,34.13,94.25,82.05,34.25,126.22,48.6,140.2,50.61,14.92,2.14,77.62,5.33,88.53-6.07,3.95-4.13,18.85-40.74-24.03-64.44-26.43-14.61-35.68-16.65-57.33-25.87l-9.92-4.96-13.96-6.2Z"/><path class="cls-6" d="M174.13,717.61c1.66,2.59,2.59,4.05,3.6,5.2,1.48,1.69,3.47,10.6,4.04,12.13,3.51,9.3,5.86,37.15,6.65,75.33,.06,3.02,3.24,5.07,6.18,4.41,1.79-.4,3.94-.51,6.26-.47,11.03,.17,19.82,9.55,19.55,20.57-1.29,53.64,.21,75.2,.21,75.2,.65,10.12,1.9,18.87,2.18,20.77,.04,.25,.09,.49,.15,.74l9.75,35.91c9.73,33.69,9.37,19.17,7.71,58.26-2.12,49.73,4.45,43.51,21.55,43.93,63.11,1.55,326.78,3.14,326.38-.09-8.58-69.46,31.28-172.8,16.34-240.58-2.31-10.48,9.7-18.16,18.24-11.65h0c6.9,5.25,16.82,1.29,18.35-7.24,5.61-31.26,.99-65.37,25.41-91.37,5.86-6.24,3.44-16.43-4.71-19.04-53.1-17-114.83-26.92-165.46-45.96-1.78-.67-40.01,59.03-78.27,50.4-103.9-23.45-52.65-62.84-83.26-52.9-111.44,36.21-121.82,32.64-150.93,40.66-12.41,3.42-16.89,14.97-9.93,25.8Z"/><path class="cls-7" d="M657.64,362.27c3.96,15.39,7.36,33.08,17.12,46.17,12.77,5.5,35.02,2.75,49.07,5.5-13.18,7.31-36.38,15.4-45.95,21.75,.75,20.27,9.43,40.36,17.67,60.45-15.45-16.96-26.22-33.97-41.91-48.07-13.08,11.44-33.87,26.09-44.4,40.08,5.67-16.86,14.13-40.64,17.87-58.95-15.05-3.96-26.7-12.14-41.76-16.1,6.46,1.57-6.57,1.9,0,0,8.56-2.48,45.56-1.5,55.33-4.84,10.55-3.6,11.49-32.71,16.95-46Z"/><path class="cls-7" d="M205.32,579.1c3.96,15.39,7.36,33.08,17.12,46.17,12.77,5.5,35.02,2.75,49.07,5.5-13.18,7.31-36.38,15.4-45.95,21.75,.75,20.27,9.43,40.36,17.67,60.45-15.45-16.96-26.22-33.97-41.91-48.07-13.08,11.44-33.87,26.09-44.4,40.08,5.67-16.86,14.13-40.64,17.87-58.95-15.05-3.96-26.7-12.14-41.76-16.1,6.46,1.57-6.57,1.9,0,0,8.56-2.48,45.56-1.5,55.33-4.84,10.55-3.6,11.49-32.71,16.95-46Z"/><path class="cls-7" d="M646.55,793.53c3.96,15.39,7.36,33.08,17.12,46.17,12.77,5.5,35.02,2.75,49.07,5.5-13.18,7.31-36.38,15.4-45.95,21.75,.75,20.27,9.43,40.36,17.67,60.45-15.45-16.96-26.22-33.97-41.91-48.07-13.08,11.44-33.87,26.09-44.4,40.08,5.67-16.86,14.13-40.64,17.87-58.95-15.05-3.96-26.7-12.14-41.76-16.1,6.46,1.57-6.57,1.9,0,0,8.56-2.48,45.56-1.5,55.33-4.84,10.55-3.6,11.49-32.71,16.95-46Z"/><path class="cls-7" d="M239.05,904.94c3.96,15.39,7.36,33.08,17.12,46.17,12.77,5.5,35.02,2.75,49.07,5.5-13.18,7.31-36.38,15.4-45.95,21.75,.75,20.27,9.43,40.36,17.67,60.45-15.45-16.96-26.22-33.97-41.91-48.07-13.08,11.44-33.87,26.09-44.4,40.08,5.67-16.86,14.13-40.64,17.87-58.95-15.05-3.96-26.7-12.14-41.76-16.1,6.46,1.57-6.57,1.9,0,0,8.56-2.48,45.56-1.5,55.33-4.84,10.55-3.6,11.49-32.71,16.95-46Z"/><path class="cls-7" d="M412.36,745.92c3.96,15.39,7.36,33.08,17.12,46.17,12.77,5.5,35.02,2.75,49.07,5.5-13.18,7.31-36.38,15.4-45.95,21.75,.75,20.27,9.43,40.36,17.67,60.45-15.45-16.96-26.22-33.97-41.91-48.07-13.08,11.44-33.87,26.09-44.4,40.08,5.67-16.86,14.13-40.64,17.87-58.95-15.05-3.96-26.7-12.14-41.76-16.1,6.46,1.57-6.57,1.9,0,0,8.56-2.48,45.56-1.5,55.33-4.84,10.55-3.6,11.49-32.71,16.95-46Z"/><path class="cls-7" d="M609.4,579.1c3.96,15.39,7.36,33.08,17.12,46.17,12.77,5.5,35.02,2.75,49.07,5.5-13.18,7.31-36.38,15.4-45.95,21.75,.75,20.27,9.43,40.36,17.67,60.45-15.45-16.96-26.22-33.97-41.91-48.07-13.08,11.44-33.87,26.09-44.4,40.08,5.67-16.86,14.13-40.64,17.87-58.95-15.05-3.96-26.7-12.14-41.76-16.1,6.46,1.57-6.57,1.9,0,0,8.56-2.48,45.56-1.5,55.33-4.84,10.55-3.6,11.49-32.71,16.95-46Z"/><path class="cls-7" d="M191.35,285.56c3.96,15.39,7.36,33.08,17.12,46.17,12.77,5.5,35.02,2.75,49.07,5.5-13.18,7.31-36.38,15.4-45.95,21.75,.75,20.27,9.43,40.36,17.67,60.45-15.45-16.96-26.22-33.97-41.91-48.07-13.08,11.44-33.87,26.09-44.4,40.08,5.67-16.86,14.13-40.64,17.87-58.95-15.05-3.96-26.7-12.14-41.76-16.1,6.46,1.57-6.57,1.9,0,0,8.56-2.48,45.56-1.5,55.33-4.84,10.55-3.6,11.49-32.71,16.95-46Z"/></g></svg>