<?xml version="1.0" encoding="UTF-8"?><svg id="Lag_2" xmlns="http://www.w3.org/2000/svg" width="233.81" height="202.06" viewBox="0 0 233.81 202.06"><defs><style>.cls-1{fill:#f7f3da;}.cls-2{fill:#fff;}.cls-3{fill:#ffe04a;}.cls-4{fill:#fcfcf0;}.cls-5{fill:#8c6749;}.cls-6{fill:#a67c52;}.cls-7{fill:#603813;}.cls-8{fill:#754c24;}</style></defs><g id="Lag_1-2"><g><path class="cls-2" d="M41.78,111.77c1.93,0,1.93-3,0-3s-1.93,3,0,3h0Z"/><path class="cls-8" d="M209.66,113.57L73.11,183.75c-9.27,4.76-20.65,1.11-25.41-8.16L12.46,107.03c-4.76-9.27-1.11-20.65,8.16-25.41L157.18,11.44c9.27-4.76,20.65-1.11,25.41,8.16l35.24,68.56c4.76,9.27,1.11,20.65-8.16,25.41Zm22.54-13.57L184.86,7.88c-3.66-7.13-12.41-9.94-19.54-6.27L7.88,82.52c-7.13,3.66-9.94,12.41-6.27,19.54l47.34,92.12c3.66,7.13,12.41,9.94,19.54,6.27L225.93,119.54c7.13-3.66,9.94-12.41,6.27-19.54Z"/><path class="cls-6" d="M185.47,17.27c-4.76-9.27-16.14-12.92-25.41-8.16L16.69,82.05c-9.27,4.76-12.92,16.14-8.16,25.41l35.24,70.9c4.76,9.27,16.14,12.92,25.41,8.16L212.55,113.57c9.27-4.76,12.92-16.14,8.16-25.41L185.47,17.27Z"/><path class="cls-7" d="M226.33,91.31s19.23,21.29-9.34,31.73c-28.57,10.44,18-8.38-4.81,2.61s-9.07,4.53-9.07,4.53l-7.28,3.57-3.3,1.92-5.77,2.75-5.77,3.02-3.43,1.79-3.98,2.06-3.98,2.06-4.53,2.2-3.16,1.65-3.02,1.37-3.3,1.65-3.71,2.06-5.36,2.47-5.08,2.88-2.88,1.65-2.75,1.24-3.02,1.79-4.26,2.06-8.65,4.4-16.21,7.97-7.83,4.26-7.69,3.61-4.53,2.57-3.57,1.92-2.61,1.37-2.87,1.65-3.72,1.92-3.3,1.24-1.53,.62-5.84,1.09-1.7-.33-2.75-.82-2.75-2.2-1.79-1.65-1.3-2.01-1.61-3.41c-1.12-.1,11.2,8.29,17.37,5.14,3.41-1.74,15.21-7.09,15.21-7.09l5.77-2.76,5.91-2.63,6.32-3.3,10.17-5.36,7.89-4.67,6.81-4.12,7.69-3.57,4.67-1.65,7.14-3.43,5.77-3.57,6.18-3.02,6.18-3.3,11.4-6.59,14.97-8.65,13.05-7.14,16.07-7.87s15.39-6.42,9.48-25.65Z"/><circle class="cls-1" cx="70.9" cy="119.51" r="46"/><ellipse class="cls-4" cx="70.9" cy="115.58" rx="44.04" ry="42.07"/><circle class="cls-1" cx="160.94" cy="73.51" r="46"/><ellipse class="cls-4" cx="160.94" cy="69.58" rx="44.04" ry="42.07"/><circle class="cls-3" cx="70.9" cy="115.58" r="26.47"/><circle class="cls-3" cx="160.94" cy="71.12" r="26.47"/><path class="cls-2" d="M64.87,101.19c3.08-.41,6.34-.59,9.3,.54,2.19,.83,4.19,2.53,4.93,4.8,.6,1.83,3.49,1.05,2.89-.8-.98-3.01-3.35-5.33-6.23-6.57-3.44-1.48-7.23-1.45-10.89-.97-.8,.11-1.5,.61-1.5,1.5,0,.73,.69,1.61,1.5,1.5h0Z"/><path class="cls-2" d="M156.61,54.27c3.08-.41,6.34-.59,9.3,.54,2.19,.83,4.19,2.53,4.93,4.8,.6,1.83,3.49,1.05,2.89-.8-.98-3.01-3.35-5.33-6.23-6.57-3.44-1.48-7.23-1.45-10.89-.97-.8,.11-1.5,.61-1.5,1.5,0,.73,.69,1.61,1.5,1.5h0Z"/><path class="cls-5" d="M40.74,163.72c4.31,2.34,9.47,2.59,13.61,5.2,9.46,5.96,21.94,6.82,32.13,2.19s25.4-23.46,27.14-34.51c-7.07,17.9-21.82,23.54-31.36,26.26-9.08,2.59-21.21,2.99-29.74-1.06-5.74-2.72-17.01-6.52-25.65-28.78-1.2-3.1,6.03,22.83,8.16,25.26s3.09,4.01,5.72,5.43Z"/><path class="cls-5" d="M130.74,118.21c4.31,2.34,9.47,2.59,13.61,5.2,9.46,5.96,21.94,6.82,32.13,2.19,10.18-4.62,25.4-23.46,27.14-34.51-7.07,17.9-21.82,23.54-31.36,26.26-9.08,2.59-21.21,2.99-29.74-1.06-5.74-2.72-17.01-6.52-25.65-28.78-1.2-3.1,6.03,22.83,8.16,25.26s3.09,4.01,5.72,5.43Z"/></g></g></svg>